<svg xmlns="http://www.w3.org/2000/svg" width="52" height="52" viewBox="0 0 52 52">
  <g id="Group_1362" data-name="Group 1362" transform="translate(-222 -391)">
    <g id="AC_Type-2_icon" data-name="AC Type-2 icon">
      <circle id="Ellipse_33" data-name="Ellipse 33" cx="26" cy="26" r="26" transform="translate(222 391)" fill="#f3f7fa"/>
      <g id="Group_1356" data-name="Group 1356" transform="translate(14.765 127.512)">
        <path id="Path_973" data-name="Path 973" d="M244.683,279.435a2.175,2.175,0,0,0-1.9-1.064c-3.173.049-6.346.019-9.52.019s-6.347.026-9.52-.017a2.193,2.193,0,0,0-1.922,1.029,14.235,14.235,0,0,0-.86,15.922,14.027,14.027,0,0,0,20.16,4.7A14.414,14.414,0,0,0,244.683,279.435Zm-7.128.654a2.328,2.328,0,1,1-.042,4.656,2.328,2.328,0,1,1,.042-4.656Zm-8.631,0a2.328,2.328,0,0,1,.038,4.656,2.329,2.329,0,1,1-.038-4.656Zm-7.9,8.45a3.565,3.565,0,1,1,3.482,3.54A3.586,3.586,0,0,1,221.029,288.538Zm7.89,11.175a3.546,3.546,0,1,1,3.542-3.578A3.572,3.572,0,0,1,228.919,299.713Zm.752-11.246a3.572,3.572,0,1,1,3.518,3.613A3.605,3.605,0,0,1,229.67,288.467Zm7.932,11.242a3.546,3.546,0,1,1,3.5-3.614A3.562,3.562,0,0,1,237.6,299.709Zm4.225-7.629a3.572,3.572,0,0,1-3.5-3.621,3.562,3.562,0,1,1,3.5,3.621Z" fill="#273d4c"/>
        <path id="Path_974" data-name="Path 974" d="M238.54,317.469a1.9,1.9,0,1,0-.022,3.8,1.9,1.9,0,0,0,.022-3.8Z" transform="translate(-13.938 -30.822)" fill="#273d4c"/>
        <path id="Path_975" data-name="Path 975" d="M320.271,317.47a1.9,1.9,0,0,0-.054,3.8,1.9,1.9,0,1,0,.054-3.8Z" transform="translate(-78.41 -30.822)" fill="#273d4c"/>
        <path id="Path_976" data-name="Path 976" d="M279.373,317.5a1.875,1.875,0,0,0-1.873,1.876,1.909,1.909,0,1,0,3.819.035A1.882,1.882,0,0,0,279.373,317.5Z" transform="translate(-46.172 -30.844)" fill="#273d4c"/>
        <path id="Path_977" data-name="Path 977" d="M299.7,353.427a1.915,1.915,0,0,0-1.872,1.9,1.938,1.938,0,0,0,1.878,1.906,1.906,1.906,0,1,0-.006-3.81Z" transform="translate(-62.196 -59.167)" fill="#273d4c"/>
        <path id="Path_978" data-name="Path 978" d="M258.938,353.424a1.906,1.906,0,1,0,.051,3.811,1.906,1.906,0,1,0-.051-3.811Z" transform="translate(-30.046 -59.165)" fill="#273d4c"/>
        <circle id="Ellipse_186" data-name="Ellipse 186" cx="0.986" cy="0.986" r="0.986" transform="translate(227.583 282.416) rotate(-45)" fill="#273d4c"/>
        <circle id="Ellipse_187" data-name="Ellipse 187" cx="0.986" cy="0.986" r="0.986" transform="translate(236.158 282.478) rotate(-45)" fill="#273d4c"/>
      </g>
    </g>
  </g>
</svg>
