<svg xmlns="http://www.w3.org/2000/svg" width="52" height="52" viewBox="0 0 52 52">
  <g id="Group_2199" data-name="Group 2199" transform="translate(-318 -391)">
    <g id="CCS-2_Icon" data-name="CCS-2 Icon">
      <circle id="Ellipse_33" data-name="Ellipse 33" cx="26" cy="26" r="26" transform="translate(318 391)" fill="#f3f7fa"/>
      <g id="Group_1358" data-name="Group 1358" transform="translate(116.493 125.63)">
        <path id="Path_988" data-name="Path 988" d="M233.726,292.81a9.612,9.612,0,0,0,2.377-13.73,1.451,1.451,0,0,0-1.269-.71c-2.116.033-4.232.013-6.348.013s-4.233.017-6.348-.011a1.462,1.462,0,0,0-1.282.686,9.493,9.493,0,0,0-.573,10.618A9.354,9.354,0,0,0,233.726,292.81Zm-8.135-.207a2.365,2.365,0,1,1,2.362-2.386A2.382,2.382,0,0,1,225.591,292.6Zm5.791,0a2.365,2.365,0,1,1,2.337-2.41A2.375,2.375,0,0,1,231.382,292.6Zm5.232-7.426a2.376,2.376,0,1,1-2.3-2.385A2.39,2.39,0,0,1,236.614,285.174Zm-5.264-5.658a1.553,1.553,0,1,1-.028,3.1,1.552,1.552,0,1,1,.028-3.1Zm-2.809,3.277a2.36,2.36,0,1,1-2.449,2.31A2.407,2.407,0,0,1,228.541,282.794Zm-2.946-3.278a1.553,1.553,0,0,1,.026,3.105,1.553,1.553,0,1,1-.026-3.105Zm-2.87,3.277a2.359,2.359,0,1,1-2.4,2.358A2.4,2.4,0,0,1,222.725,282.793Z" transform="translate(-1.152 0)" fill="#273d4c"/>
        <path id="Path_989" data-name="Path 989" d="M237.883,320.006a1.268,1.268,0,0,0,.014-2.537,1.268,1.268,0,1,0-.014,2.537Z" transform="translate(-16.336 -33.579)" fill="#273d4c"/>
        <path id="Path_990" data-name="Path 990" d="M319.611,320.007a1.269,1.269,0,1,0,.036-2.537,1.269,1.269,0,0,0-.036,2.537Z" transform="translate(-86.576 -33.58)" fill="#273d4c"/>
        <path id="Path_991" data-name="Path 991" d="M278.8,320.034a1.279,1.279,0,0,0,1.25-1.262,1.273,1.273,0,0,0-2.547-.023A1.283,1.283,0,0,0,278.8,320.034Z" transform="translate(-51.454 -33.604)" fill="#273d4c"/>
        <path id="Path_992" data-name="Path 992" d="M299.077,353.427a1.277,1.277,0,0,0-1.248,1.27,1.292,1.292,0,0,0,1.252,1.271,1.271,1.271,0,1,0,0-2.541Z" transform="translate(-68.912 -64.46)" fill="#273d4c"/>
        <path id="Path_993" data-name="Path 993" d="M258.307,353.423a1.271,1.271,0,1,0,.034,2.542,1.271,1.271,0,1,0-.034-2.542Z" transform="translate(-33.886 -64.458)" fill="#273d4c"/>
        <circle id="Ellipse_193" data-name="Ellipse 193" cx="0.657" cy="0.657" r="0.657" transform="translate(223.549 281.068) rotate(-45)" fill="#273d4c"/>
        <circle id="Ellipse_194" data-name="Ellipse 194" cx="0.657" cy="0.657" r="0.657" transform="translate(229.267 281.11) rotate(-45)" fill="#273d4c"/>
        <path id="Path_994" data-name="Path 994" d="M233.707,399.3a19.546,19.546,0,0,0-3.7-.2q-3.692-.041-7.385-.005a4.985,4.985,0,1,0,.042,9.969c1.607.006,3.214,0,4.822,0s3.214,0,4.822,0a4.93,4.93,0,0,0,4.91-3.623A4.865,4.865,0,0,0,233.707,399.3Zm-11.172,7.734a2.941,2.941,0,0,1-2.953-3,2.973,2.973,0,0,1,2.969-2.928,2.964,2.964,0,0,1-.016,5.929Zm10.009,0a2.965,2.965,0,1,1,2.919-2.97A2.938,2.938,0,0,1,232.543,407.034Z" transform="translate(0 -103.665)" fill="#273d4c"/>
        <circle id="Ellipse_195" data-name="Ellipse 195" cx="1.258" cy="1.258" r="1.258" transform="translate(221.022 299.469) rotate(-13.282)" fill="#273d4c"/>
        <circle id="Ellipse_196" data-name="Ellipse 196" cx="1.258" cy="1.258" r="1.258" transform="translate(230.994 299.469) rotate(-13.282)" fill="#273d4c"/>
      </g>
    </g>
  </g>
</svg>
