<svg xmlns="http://www.w3.org/2000/svg" width="52" height="52" viewBox="0 0 52 52">
  <g id="Bharat_AC001" data-name="Bharat AC001" transform="translate(-67 -451)">
    <circle id="Ellipse_33" data-name="Ellipse 33" cx="26" cy="26" r="26" transform="translate(67 451)" fill="#f3f7fa"/>
    <g id="Group_585" data-name="Group 585" transform="translate(-342.363 15)">
      <path id="Path_363" data-name="Path 363" d="M435.363,448a12.863,12.863,0,0,0-3.04,25.361V475.2a1.8,1.8,0,0,0,1.8,1.8h2.956a1.8,1.8,0,0,0,1.8-1.8v-1.964A12.864,12.864,0,0,0,435.363,448Zm-7.25,12.863a7.25,7.25,0,1,1,7.25,7.25A7.25,7.25,0,0,1,428.113,460.863Z" fill="#273d4c"/>
      <path id="Path_364" data-name="Path 364" d="M435.75,454a7.25,7.25,0,1,0,7.25,7.25A7.25,7.25,0,0,0,435.75,454Zm-4.911,4.911a2.1,2.1,0,1,1,2.1,2.1A2.108,2.108,0,0,1,430.839,458.911Zm4.911,7.718a2.1,2.1,0,1,1,2.1-2.1A2.108,2.108,0,0,1,435.75,466.629Zm2.806-5.613a2.1,2.1,0,1,1,2.1-2.1A2.108,2.108,0,0,1,438.556,461.016Z" transform="translate(-0.387 -0.387)" fill="#fff"/>
      <circle id="Ellipse_131" data-name="Ellipse 131" cx="1.169" cy="1.169" r="1.169" transform="translate(431.387 457.355)" fill="#fff"/>
      <circle id="Ellipse_132" data-name="Ellipse 132" cx="2.105" cy="2.105" r="2.105" transform="translate(430.452 456.419)" fill="#273d4c"/>
      <circle id="Ellipse_133" data-name="Ellipse 133" cx="1.169" cy="1.169" r="1.169" transform="translate(437 457.355)" fill="#fff"/>
      <circle id="Ellipse_134" data-name="Ellipse 134" cx="2.105" cy="2.105" r="2.105" transform="translate(436.065 456.419)" fill="#273d4c"/>
      <circle id="Ellipse_135" data-name="Ellipse 135" cx="1.169" cy="1.169" r="1.169" transform="translate(434.194 462.968)" fill="#fff"/>
      <circle id="Ellipse_136" data-name="Ellipse 136" cx="2.105" cy="2.105" r="2.105" transform="translate(433.258 462.032)" fill="#273d4c"/>
    </g>
  </g>
</svg>
