<svg xmlns="http://www.w3.org/2000/svg" width="38" height="38" viewBox="0 0 38 38">
    <defs>
        <style>
            .cls-2,.cls-4{fill:none}.cls-2{stroke:#fff;stroke-width:2px}.cls-3{stroke:none}
        </style>
    </defs>
    <g id="Group_430" transform="translate(2257.641 -4507)">
        <path id="Union_3" fill="#c3d0d9" d="M0 19A18.91 18.91 0 0 1 3.09 8.611L2.009 7.227a2 2 0 0 1 .345-2.807L5.44 2.009a2 2 0 0 1 2.807.345l.5.645a19.014 19.014 0 0 1 20.638.091l1.383-1.081a2 2 0 0 1 2.808.345l2.416 3.086a2 2 0 0 1-.345 2.807l-.646.5A19 19 0 1 1 0 19z" transform="translate(-2257.641 4507)"/>
        <g id="Group_120" transform="translate(-2251.742 4512.897)">
            <g id="Ellipse_22" class="cls-2" transform="translate(9.102 .103)">
                <circle cx="4" cy="4" r="4" class="cls-3"/>
                <circle cx="4" cy="4" r="3" class="cls-4"/>
            </g>
            <g id="Ellipse_23" class="cls-2" transform="translate(9.102 18.103)">
                <circle cx="4" cy="4" r="4" class="cls-3"/>
                <circle cx="4" cy="4" r="3" class="cls-4"/>
            </g>
            <g id="Ellipse_24" class="cls-2" transform="translate(.102 8.103)">
                <circle cx="4.5" cy="4.5" r="4.5" class="cls-3"/>
                <circle cx="4.5" cy="4.5" r="3.5" class="cls-4"/>
            </g>
            <g id="Ellipse_25" class="cls-2" transform="translate(17.102 8.103)">
                <circle cx="4.5" cy="4.5" r="4.5" class="cls-3"/>
                <circle cx="4.5" cy="4.5" r="3.5" class="cls-4"/>
            </g>
        </g>
    </g>
</svg>
