<svg xmlns="http://www.w3.org/2000/svg" width="33.798" height="38.1" viewBox="0 0 33.798 38.1">
    <defs>
        <style>
            .cls-1{fill:#fff}.cls-2{fill:#c3d0d9}
        </style>
    </defs>
    <g id="Group_469" transform="translate(-424.5 -521)">
        <path id="Path_268" d="M455.382 537.441a14.441 14.441 0 1 0-16.991 14.214l1.014.181v4.348h3.687v-4.429l.965-.211a14.526 14.526 0 0 0 11.325-14.103zm-14.441 9.525a9.525 9.525 0 1 1 9.525-9.525 9.525 9.525 0 0 1-9.525 9.525z" class="cls-1" transform="translate(.458 .458)"/>
        <path id="Path_269" d="M441.4 521a16.9 16.9 0 0 0-3.994 33.321v2.419a2.362 2.362 0 0 0 2.36 2.36h3.884a2.362 2.362 0 0 0 2.36-2.36v-2.582A16.9 16.9 0 0 0 441.4 521zm2.151 35.642h-3.687v-4.348l-1.014-.181a14.438 14.438 0 1 1 5.666-.112l-.965.211z" class="cls-2"/>
        <path id="Path_270" d="M449.55 536.525a9.525 9.525 0 1 0-9.525 9.525 9.525 9.525 0 0 0 9.525-9.525zm-15.977-3.073a2.765 2.765 0 1 1 2.765 2.765 2.769 2.769 0 0 1-2.765-2.765zm6.452 10.139a2.765 2.765 0 1 1 2.765-2.765 2.769 2.769 0 0 1-2.765 2.766zm3.687-7.374a2.765 2.765 0 1 1 2.765-2.765 2.769 2.769 0 0 1-2.765 2.766z" class="cls-2" transform="translate(1.374 1.374)"/>
        <circle id="Ellipse_92" cx="1.536" cy="1.536" r="1.536" class="cls-2" transform="translate(436.176 533.29)"/>
        <path id="Path_271" d="M438.531 532.765a2.765 2.765 0 1 0-2.765 2.765 2.769 2.769 0 0 0 2.765-2.765zm-2.765 1.536a1.536 1.536 0 1 1 1.536-1.536 1.538 1.538 0 0 1-1.537 1.535z" class="cls-1" transform="translate(1.947 2.061)"/>
        <circle id="Ellipse_93" cx="1.536" cy="1.536" r="1.536" class="cls-2" transform="translate(443.55 533.29)"/>
        <path id="Path_272" d="M441.765 530a2.765 2.765 0 1 0 2.765 2.765 2.769 2.769 0 0 0-2.765-2.765zm0 4.3a1.536 1.536 0 1 1 1.536-1.536 1.538 1.538 0 0 1-1.536 1.536z" class="cls-1" transform="translate(3.321 2.061)"/>
        <circle id="Ellipse_94" cx="1.536" cy="1.536" r="1.536" class="cls-2" transform="translate(439.863 540.664)"/>
        <path id="Path_273" d="M438.765 536a2.765 2.765 0 1 0 2.765 2.765 2.769 2.769 0 0 0-2.765-2.765zm0 4.3a1.536 1.536 0 1 1 1.536-1.536 1.538 1.538 0 0 1-1.536 1.536z" class="cls-1" transform="translate(2.634 3.435)"/>
    </g>
</svg>
