<svg xmlns="http://www.w3.org/2000/svg" width="35.185" height="38" viewBox="0 0 35.185 38">
    <path fill="#c3d0d9" d="M495.571 521h-26.882a4.151 4.151 0 0 0-4.152 4.152v29.7a4.151 4.151 0 0 0 4.152 4.148h26.882a4.151 4.151 0 0 0 4.151-4.151v-29.7a4.151 4.151 0 0 0-4.151-4.149zm-21.584 31.214a3.393 3.393 0 1 1 3.393-3.393 3.392 3.392 0 0 1-3.393 3.393zm8.143-10.857a3.393 3.393 0 1 1 3.393-3.393 3.392 3.392 0 0 1-3.393 3.393zm8.143 10.857a3.393 3.393 0 1 1 3.393-3.393 3.392 3.392 0 0 1-3.393 3.393z" transform="translate(-464.537 -521)"/>
</svg>
