<svg xmlns="http://www.w3.org/2000/svg" width="52" height="52" viewBox="0 0 52 52">
  <g id="Group_1364" data-name="Group 1364" transform="translate(-15)">
    <g id="Tesla_charger" data-name="Tesla charger">
      <circle id="Ellipse_33" data-name="Ellipse 33" cx="26" cy="26" r="26" transform="translate(15)" fill="#f3f7fa"/>
      <g id="Group_1355" data-name="Group 1355" transform="translate(-646.406 -21.554)">
        <path id="Path_981" data-name="Path 981" d="M688.039,59.544a14.24,14.24,0,0,1-6.259-1.193,12.387,12.387,0,0,1-5.821-5.737,16.159,16.159,0,0,1-1.938-8.135,11.119,11.119,0,0,1,1.032-4.518,5.989,5.989,0,0,1,3.406-3.035,20.538,20.538,0,0,1,6.56-1.3c1.96-.071,3.928-.1,5.886-.012a22.29,22.29,0,0,1,6.544,1.2,6.489,6.489,0,0,1,3.969,3.359,10.009,10.009,0,0,1,.771,3.568,16.223,16.223,0,0,1-1.579,8.464,12.417,12.417,0,0,1-10.066,7.215c-.477.06-.956.1-1.436.129C688.754,59.56,688.4,59.544,688.039,59.544Zm.162-22.88c-1.317.054-2.43.083-3.54.151-.787.048-.991.435-.641,1.145a1.268,1.268,0,0,0,.244.329,5.858,5.858,0,0,1,1.7,5.371,5.482,5.482,0,0,1-6.2,4.556,9.067,9.067,0,0,1-1.711-.567c-.745-.288-1.453-.252-1.433.859a2.373,2.373,0,0,0,.126.94c.59,1.252,1.2,2.494,1.856,3.712.3.554.685.553,1.2.224a18.567,18.567,0,0,1,2.423-1.4,14.7,14.7,0,0,1,8.382-1.083,11.385,11.385,0,0,1,5.666,2.3,1.55,1.55,0,0,0,.394.221.743.743,0,0,0,1.068-.3,10.7,10.7,0,0,0,1.683-3.234,5.662,5.662,0,0,0,.111-1.852.628.628,0,0,0-.844-.555,4.6,4.6,0,0,0-.766.3,5.289,5.289,0,0,1-3.974.258,5.868,5.868,0,0,1-2.432-9.312,4.674,4.674,0,0,0,.571-.707c.4-.71.205-1.128-.6-1.187C690.332,36.738,689.164,36.708,688.2,36.664Zm-7.629,9.9a4.023,4.023,0,0,0,.03-8.032,4.021,4.021,0,0,0-.03,8.032Zm11.25-4.011a3.8,3.8,0,1,0,3.78-4.021A3.884,3.884,0,0,0,691.823,42.549ZM686.47,53.931a1.68,1.68,0,1,0,1.709-1.65A1.669,1.669,0,0,0,686.47,53.931Zm7.709,1.232a.89.89,0,1,0,.017-1.778.889.889,0,1,0-.017,1.778Zm-11.907-1.783a.888.888,0,1,0-.026,1.775.888.888,0,1,0,.026-1.775Z" transform="translate(0 0)" fill="#273d4c"/>
        <path id="Path_982" data-name="Path 982" d="M717.153,48.839c.95.046,2.1.077,3.25.167.791.062.988.5.588,1.24a4.833,4.833,0,0,1-.563.738c-2.623,3.2-1.331,8.442,2.4,9.725a4.955,4.955,0,0,0,3.921-.269,4.394,4.394,0,0,1,.756-.312.623.623,0,0,1,.832.58,6.242,6.242,0,0,1-.109,1.935,11.416,11.416,0,0,1-1.66,3.377.714.714,0,0,1-1.053.314,1.506,1.506,0,0,1-.389-.231,10.9,10.9,0,0,0-5.59-2.4,13.776,13.776,0,0,0-8.27,1.131,18.112,18.112,0,0,0-2.391,1.466c-.512.343-.894.344-1.188-.234-.646-1.272-1.249-2.57-1.832-3.877a2.611,2.611,0,0,1-.124-.981c-.019-1.161.679-1.2,1.414-.9a8.6,8.6,0,0,0,1.688.592,5.459,5.459,0,0,0,6.117-4.758,6.346,6.346,0,0,0-1.68-5.61,1.328,1.328,0,0,1-.241-.344c-.346-.741-.144-1.145.632-1.2C714.756,48.926,715.854,48.9,717.153,48.839Z" transform="translate(-28.955 -12.126)" fill="#fff"/>
        <path id="Path_985" data-name="Path 985" d="M825.181,237.569a1.777,1.777,0,1,1,1.766,1.769A1.748,1.748,0,0,1,825.181,237.569Z" transform="translate(-138.809 -183.684)" fill="#fff"/>
        <path id="Path_986" data-name="Path 986" d="M908.679,250.916a.929.929,0,1,1,.018-1.857.93.93,0,1,1-.018,1.857Z" transform="translate(-214.525 -195.737)" fill="#fff"/>
        <path id="Path_987" data-name="Path 987" d="M764.13,248.995a.928.928,0,1,1-.028,1.854.928.928,0,1,1,.028-1.854Z" transform="translate(-81.834 -195.679)" fill="#fff"/>
      </g>
    </g>
  </g>
</svg>
