<svg xmlns="http://www.w3.org/2000/svg" width="52" height="52" viewBox="0 0 52 52">
  <g id="Bharat_DC001_GB_icon" data-name="Bharat DC001 GB icon" transform="translate(-17)">
    <circle id="Ellipse_33" data-name="Ellipse 33" cx="26" cy="26" r="26" transform="translate(17)" fill="#f3f7fa"/>
    <path id="Path_398" data-name="Path 398" d="M546.143,550h-17.6a14.341,14.341,0,1,0,17.6,0Zm-4.357,2.264a1.635,1.635,0,1,1-1.635,1.635A1.635,1.635,0,0,1,541.785,552.264Zm-4.361,0a1.635,1.635,0,1,1-1.635,1.635A1.635,1.635,0,0,1,537.425,552.264Zm-11.406,9.5a3.208,3.208,0,1,1,3.208,3.208A3.208,3.208,0,0,1,526.019,561.762Zm6.416,10.63a1.635,1.635,0,1,1,1.635-1.635A1.635,1.635,0,0,1,532.435,572.392Zm.629-16.857A1.635,1.635,0,1,1,534.7,553.9,1.635,1.635,0,0,1,533.064,555.535Zm3.69,16.6a2.1,2.1,0,1,1,2.1-2.1A2.1,2.1,0,0,1,536.754,572.14Zm.65-10.064a1.95,1.95,0,1,1,1.95-1.95A1.95,1.95,0,0,1,537.4,562.076Zm3.753,10.315a1.635,1.635,0,1,1,1.635-1.635A1.635,1.635,0,0,1,541.156,572.392Zm4.8-7.422a3.208,3.208,0,1,1,3.208-3.208A3.208,3.208,0,0,1,545.958,564.97Z" transform="translate(-494 -537)" fill="#273d4c"/>
  </g>
</svg>
