<svg xmlns="http://www.w3.org/2000/svg" width="428.41" height="351.994" viewBox="0 0 428.41 351.994">
    <defs>
        <linearGradient id="linear-gradient" x1=".5" x2=".5" y2="1" gradientUnits="objectBoundingBox">
            <stop offset="0" stop-color="#f3f7fa"/>
            <stop offset="1" stop-color="#fff"/>
        </linearGradient>
        <style>
            .cls-2{fill:#263238}.cls-3{fill:#ff8b7b}.cls-12,.cls-5{opacity:.2}.cls-12,.cls-6{fill:#273d4c}.cls-7{fill:#ea7267}.cls-11{fill:#fff;opacity:.7}.cls-13{fill:#30cf87}.cls-14{fill:#ffc3bd}
        </style>
    </defs>
    <g id="_404_Error_Page_not_Found_with_people_connecting_a_plug-rafiki" transform="translate(-39.581 -115.237)">
        <path id="Path_1850" fill="url(#linear-gradient)" d="M0 395.319s71.119-52.542 214.4-52.542c138.454 0 214.015 52.542 214.015 52.542v60.116H0z" transform="translate(39.581 11.795)"/>
        <g id="freepik--character-1--inject-2">
            <path id="Path_1545" d="M137.82 145.88c-8.06 8.11 5.64 20.7-3.41 26.48 7.39 3.71 33.29 8.42 40-6.17-4.89-3.8-1.49-13.14-6-22.11-6.75-13.3-38.65-7.41-30.59 1.8z" class="cls-2"/>
            <path id="Path_1546" d="M138.55 145.67c-2.51-.42-11 3.8-4.68 15.13 5.09 9.16.85 9.81.85 9.81s5 .14 2-6.67c-3.18-7.27-4.67-14.81 1.83-18.27z" class="cls-2"/>
            <path id="Path_1547" d="M198 217.61a2.46 2.46 0 0 0-3.3-1l-.59.31c-.19.1-.55.34-.84.51s-.63.36-.95.52a15.541 15.541 0 0 1-1.95.82 12.279 12.279 0 0 1-3.85.73 10.57 10.57 0 0 1-3.55-.57 12.759 12.759 0 0 1-2.09-1c-.86-1.9-1.68-3.82-2.38-5.8-.85-2.31-1.6-4.67-2.26-7.06s-1.24-4.81-1.72-7.24c-.25-1.21-.47-2.43-.67-3.64l-.27-1.81c-.09-.58-.17-1.24-.22-1.7v-.2a5.025 5.025 0 0 0-10 1c.07.85.13 1.5.22 2.21s.19 1.39.29 2.08c.22 1.38.47 2.74.75 4.1a76.872 76.872 0 0 0 2.1 8c.39 1.32.87 2.62 1.32 3.93s1 2.59 1.57 3.86a72.361 72.361 0 0 0 3.71 7.49l.12.22a3.89 3.89 0 0 0 1.55 1.54 20.26 20.26 0 0 0 6.05 2.14 16.83 16.83 0 0 0 6.56-.14 17.3 17.3 0 0 0 8.09-4.39 8.241 8.241 0 0 0 1-1.06c.28-.37.62-.72 1-1.24a2.46 2.46 0 0 0 .31-2.61z" class="cls-3"/>
            <path id="Path_1548" d="M204.65 208.25h-.29a6.23 6.23 0 0 0-5 2.34l-4.83 6.06v4.14c3.88 1.54 8.8-2.61 8.8-2.61l2.49-.63a3.49 3.49 0 0 0 2.61-3.88l-.36-2.43a3.48 3.48 0 0 0-3.42-2.99z" class="cls-3"/>
            <path id="Path_1549" fill="#af625f" d="M173.23 184.88c3.23 3.32 3.43 13.23 3.43 13.23l-12.92 10.4s-5.31-14.7-2.37-19.89c2.49-4.4 7.74-7.97 11.86-3.74z"/>
            <path id="Path_1551" d="M151.85 407.67l7.14.78.98-19.4-7.14-.79z" class="cls-3"/>
            <path id="Path_1552" d="M160.16 403.79h-8.39a.65.65 0 0 0-.67.61l-.56 7.93a1.59 1.59 0 0 0 1.55 1.59H172c3.66 0 3.67-3.71 2.09-4.05-7.11-1.5-9.88-3.58-12.39-5.56a2.5 2.5 0 0 0-1.54-.52z" class="cls-2"/>
            <path id="Path_1553" d="M159.97 389.06l-.51 10h-7.18l.55-10.79z" class="cls-5"/>
            <path id="Path_1554" d="M163.82 234.27S170 286 170 309c-4.87 32-9 88.16-9 88.16l-9.88-.26s-4.49-61.16-.33-87.57c-5.33-23.66-11.91-78.26-11.91-78.26z" class="cls-2"/>
            <path id="Path_1555" d="M144.77 248.67a29.51 29.51 0 0 0-3.42 1.78c1.36 10.21 3.15 23.06 5.05 34.92 3.24-9.76 1.49-31.22-1.63-36.7z" class="cls-5"/>
            <path id="Path_1556" d="M74.53 389.66l5.89 4.11 10.16-16.56-5.89-4.11z" class="cls-3"/>
            <path id="Path_1557" d="M81.91 391.6l-5-6.73a.64.64 0 0 0-.88-.17l-6.7 4.3a1.58 1.58 0 0 0-.35 2.19c2.09 2.85 2.13 2.87 4.76 6.41 1.63 2.17 4.88 6.54 7.12 9.55s5.17.73 4.49-.75c-3-6.59-3-10-2.94-13.24a2.54 2.54 0 0 0-.5-1.56z" class="cls-2"/>
            <path id="Path_1558" d="M90.57 377.21l-5.23 8.54-6.31-3.44 5.66-9.21z" class="cls-5"/>
            <path id="Path_1559" d="M110.66 396.6c-5.11 0-15.75 0-15.93-7.52-.14-5.9 7.16-8.35 13.46-8.65a5.32 5.32 0 0 1 5.57 5.06v.4c7.14-.34 11.76-1.9 13.45-4.56 3.81-6-3.49-21.49-10.54-36.46-8.3-17.61-17.7-37.56-17.88-56.67a5.32 5.32 0 0 1 5.27-5.37 5.33 5.33 0 0 1 5.32 5.27c.16 16.78 9 35.61 16.86 52.23 9 19.18 16.85 35.75 9.9 46.7-4.03 6.44-12.38 9.57-25.48 9.57z" class="cls-6"/>
            <path id="Path_1560" d="M155.91 233.25s-17.06 59.12-25.39 80.56c-16.14 28.06-42.92 71-42.92 71l-8.55-5s20-49.6 33.45-72.7c3.61-24 17.26-77.26 17.26-77.26z" class="cls-2"/>
            <path id="Path_1561" d="M83.45 396.43a2.85 2.85 0 0 0 1.48 1.21 1 1 0 0 0 1-.33.7.7 0 0 0 .22-.61c-.12-1.2-3.22-2.76-3.84-3.06a.16.16 0 0 0-.2.07.23.23 0 0 0 0 .25 14.779 14.779 0 0 0 1.34 2.47zm2.13 0a.83.83 0 0 1 .17.38.24.24 0 0 1-.08.21.69.69 0 0 1-.66.22c-.66-.13-1.53-1.2-2.37-2.89a10.54 10.54 0 0 1 2.94 2.04z" class="cls-6"/>
            <path id="Path_1562" d="M82.06 394l.06.05c1 .55 3.6 1 4.17.17a.87.87 0 0 0-.05-1c-1-1.77-4 .31-4.13.4a.24.24 0 0 0-.09.2.33.33 0 0 0 .04.18zm3.8-.58a1 1 0 0 1 .08.11c.11.19.13.33.07.41-.33.48-2.25.31-3.37-.13.75-.45 2.5-1.36 3.22-.39z" class="cls-6"/>
            <path id="Path_1563" d="M165 405.44a2.89 2.89 0 0 0 1.86-.47 1 1 0 0 0 .31-1 .75.75 0 0 0-.36-.55c-1-.61-4.13.94-4.74 1.26a.17.17 0 0 0-.08.2.27.27 0 0 0 .19.17 13.929 13.929 0 0 0 2.82.39zm1.24-1.73a.76.76 0 0 1 .41.09c.05 0 .1.07.12.19a.68.68 0 0 1-.22.66c-.49.45-1.87.51-3.73.18a10.42 10.42 0 0 1 3.37-1.12z" class="cls-6"/>
            <path id="Path_1564" d="M162.18 405.1h.07c1-.46 2.95-2.29 2.63-3.24a.87.87 0 0 0-.8-.53c-2-.23-2.14 3.39-2.15 3.54a.225.225 0 0 0 .25.23zm1.8-3.4h.14c.21 0 .34.09.37.19.19.55-1.09 2-2.12 2.63.09-.87.41-2.82 1.63-2.82z" class="cls-6"/>
            <path id="Path_1565" d="M129.76 229.9l34.06 4.36c7.68-25.86 10.21-38.35 10.89-44.36a6.53 6.53 0 0 0-4.52-7c-2-.64-4.58-1.4-7.14-2-.87-.23-1.76-.44-2.63-.64a109.08 109.08 0 0 0-15.46-2c-.77-.07-1.53-.11-2.3-.15-1.51-.08-3-.1-4.36-.1a7.35 7.35 0 0 0-7.33 8c.27 3 .48 5.79.64 8.35.38 6 .5 10.8.41 15a129.361 129.361 0 0 1-2.26 20.54z" class="cls-7"/>
            <path id="Path_1567" fill="#273d4c" d="M132 209.32c4.5-5.82 6.13-12.48 4.67-16.15l-5.08 1.14c.41 5.98.52 10.8.41 15.01z" opacity="0.3"/>
            <path id="Path_1568" fill="#fff" d="M163.05 180.84c-.88-.23-1.76-.44-2.63-.64a110.648 110.648 0 0 0-15.47-2c-.77-.06-1.53-.1-2.29-.14l-1.33-.06 1 1.75c.14.24 3.54 5.8 12 11.78l1.81 1.26 1.74-1.33a13.14 13.14 0 0 0 5.48-10.53z"/>
            <path id="Path_1569" d="M148.71 167.92c-.32 4.21-1.31 8.5-3.76 10.3 0 0 3.12 5.19 11.2 10.86 5.06-3.87 4.27-8.88 4.27-8.88-5.38-2-5-5.73-2.73-11.68l-4.2-2.26a2.75 2.75 0 0 0-4.78 1.66z" class="cls-3"/>
            <path id="Path_1570" d="M153.49 166.26a2.75 2.75 0 0 0-4.73 1.28 17 17 0 0 0 7.35 7.51 18.21 18.21 0 0 1 1.57-6.53z" class="cls-5"/>
            <path id="Path_1571" d="M142.17 154.72c2.09 8.13 2.8 11.61 7.77 15 7.47 5.14 17 .8 17.37-7.78.35-7.73-3.12-19.73-11.8-21.45a11.45 11.45 0 0 0-13.34 14.23z" class="cls-3"/>
            <path id="Path_1572" d="M162.86 142.17a43.9 43.9 0 0 1-17 9.37s6.21 13.21-5.41 9.88c-3.37-11.25 0-17.09 3-19.84 9.24-3 15.74-4 19.41.59z" class="cls-2"/>
            <path id="Path_1573" d="M141.78 162.73a6.14 6.14 0 0 0 3.44 3.18c2 .72 3.19-1 2.76-3-.39-1.79-1.91-4.33-4-4.2a2.75 2.75 0 0 0-2.2 4.02z" class="cls-3"/>
            <path id="Path_1574" d="M129.51 227.84l-1.93 2.85c-.15.22.1.5.49.55l35.72 4.58c.31 0 .58-.08.63-.27l.7-3c0-.21-.2-.42-.53-.47l-34.5-4.42a.6.6 0 0 0-.58.18z" class="cls-6"/>
            <path id="Path_1575" d="M133.64 232.29l-.92-.12c-.18 0-.31-.14-.28-.25l.94-3.91a.33.33 0 0 1 .38-.16l.93.12c.18 0 .31.13.28.25l-.94 3.9c-.03.12-.2.19-.39.17z" class="cls-2"/>
            <path id="Path_1576" d="M161.15 235.81l-.92-.11c-.18 0-.31-.14-.28-.26l.94-3.9c0-.11.2-.19.38-.17l.93.12c.18 0 .31.14.28.25l-.94 3.91c-.03.11-.2.19-.39.16z" class="cls-2"/>
            <path id="Path_1577" d="M147.4 234.05l-.92-.12c-.19 0-.32-.13-.29-.25l.94-3.9c0-.12.2-.19.39-.17l.92.12c.18 0 .31.14.29.25l-.95 3.91c-.02.11-.2.18-.38.16z" class="cls-2"/>
            <path id="Path_1578" d="M156.1 154.37c.12.67.58 1.15 1 1.06s.69-.69.56-1.36-.59-1.15-1-1.06-.66.69-.56 1.36z" class="cls-2"/>
            <path id="Path_1579" d="M163.66 152.92c.13.67.59 1.14 1 1.06s.69-.7.56-1.37-.59-1.14-1-1.06-.68.7-.56 1.37z" class="cls-2"/>
            <path id="Path_1580" d="M164 151.63l1.52-.78s-.52 1.42-1.52.78z" class="cls-2"/>
            <path id="Path_1581" fill="#ff5652" d="M161.66 154.42a18.53 18.53 0 0 0 3.21 3.81 2.91 2.91 0 0 1-2.3.91z"/>
            <path id="Path_1582" d="M156.94 161.84a.2.2 0 0 0 .24.31 5.37 5.37 0 0 1 4.88 0 .2.2 0 0 0 .27-.07.21.21 0 0 0-.06-.28 5.78 5.78 0 0 0-5.27 0s0 .02-.06.04z" class="cls-2"/>
            <path id="Path_1583" d="M153.49 152.31a.36.36 0 0 0 .14-.16 3.17 3.17 0 0 1 2.26-1.79.4.4 0 0 0 .35-.45.39.39 0 0 0-.44-.35 4 4 0 0 0-2.89 2.24.4.4 0 0 0 .58.51z" class="cls-2"/>
            <path id="Path_1584" d="M165.91 147.24l.05-.05a.4.4 0 0 0-.1-.56 4 4 0 0 0-3.62-.54.41.41 0 0 0-.22.52.4.4 0 0 0 .52.22 3.16 3.16 0 0 1 2.86.46.39.39 0 0 0 .51-.05z" class="cls-2"/>
            <path id="Path_1585" d="M156.47 153.08l1.52-.77s-.59 1.41-1.52.77z" class="cls-2"/>
            <path id="Path_1586" d="M104.11 293.47a5.32 5.32 0 0 1-5.32-5.27c-.14-14.2 4.59-26.19 13.68-34.67 11.19-10.44 28.64-15.29 49.16-13.67 14.39 1.14 23.62-2.36 34.3-6.43 1.76-.66 3.53-1.34 5.35-2a5.321 5.321 0 0 1 3.64 10c-1.77.64-3.49 1.3-5.2 1.95-10.89 4.14-22.14 8.41-38.93 7.09-17.5-1.39-32.08 2.46-41.06 10.84-7 6.48-10.41 15.49-10.3 26.79a5.32 5.32 0 0 1-5.27 5.37z" class="cls-6"/>
            <path id="Path_1587" d="M191.21 215.28H214a7.17 7.17 0 0 1 7.17 7.17v25.69a7.17 7.17 0 0 1-7.17 7.17h-22.79v-40.03z" class="cls-6" transform="rotate(159.88 206.192 235.298)"/>
            <path id="Path_1588" d="M191.21 215.28H214a7.17 7.17 0 0 1 7.17 7.17v25.69a7.17 7.17 0 0 1-7.17 7.17h-22.79v-40.03z" class="cls-11" transform="rotate(159.88 206.192 235.298)"/>
            <path id="Path_1589" d="M203.84 214.84l9.55-3.49 13.76 37.58-9.55 3.5a5.77 5.77 0 0 1-1.42-2.2l-12-32.79a5.7 5.7 0 0 1-.34-2.6z" class="cls-12"/>
            <path id="Rectangle_378" d="M0 0H1V6.66H0z" class="cls-6" transform="rotate(-20.12 739.96 -548.684)"/>
            <path id="Path_1590" d="M232.45 217.16l-3.37-9.22a8.16 8.16 0 0 0-7.65-5.33 8 8 0 0 0-2.78.49l-6.08 2.23-.35-.94 6.09-2.23a9 9 0 0 1 3.12-.55 9.18 9.18 0 0 1 8.59 6l3.37 9.22z" class="cls-6"/>
            <rect id="Rectangle_379" width="20.74" height="46.89" class="cls-13" rx="5.62" transform="rotate(160 99.182 144.441)"/>
            <path id="Path_1591" d="M222.2 217.87a3 3 0 1 1-3.84-1.79 3 3 0 0 1 3.84 1.79z" class="cls-2"/>
            <path id="Path_1592" d="M229.67 238.26a3 3 0 1 1-1.554-1.693 3 3 0 0 1 1.554 1.693z" class="cls-2"/>
            <path id="Path_1593" d="M142 235.85l-.08-.09c-1.56-1.56-3.21-3.26-4.7-5s-2.95-3.48-4.28-5.28a49.409 49.409 0 0 1-3.55-5.51 28.723 28.723 0 0 1-1.93-4.27c.6-2 1.24-4 2-5.92.87-2.31 1.85-4.58 2.92-6.82s2.21-4.44 3.44-6.59c.6-1.08 1.23-2.15 1.88-3.2l1-1.54c.31-.5.68-1 .94-1.43l.11-.16a5 5 0 0 0-8.16-5.77c-.5.68-.88 1.22-1.28 1.81s-.76 1.18-1.14 1.77c-.73 1.18-1.44 2.37-2.12 3.58a79 79 0 0 0-3.67 7.44c-.56 1.26-1 2.55-1.57 3.84a32.7 32.7 0 0 0-1.35 3.94 73.827 73.827 0 0 0-2.09 8.09v.23a4 4 0 0 0 .15 2.19 32.781 32.781 0 0 0 3.83 7.24 48.22 48.22 0 0 0 4.94 6 61.706 61.706 0 0 0 5.59 5.05 59.469 59.469 0 0 0 6.17 4.31 2.48 2.48 0 0 0 3-3.9z" class="cls-3"/>
            <path id="Path_1594" d="M153.62 240.82l-.13-.26a6.2 6.2 0 0 0-4.37-3.4l-7.59-1.54-3.71 1.85c.4 4.16 6.34 6.65 6.34 6.65l1.69 1.93a3.5 3.5 0 0 0 4.64.55l2-1.43a3.48 3.48 0 0 0 1.13-4.35z" class="cls-3"/>
            <path id="Path_1595" d="M135.19 178.65c-4.21 1.93-8.69 8.61-8.69 8.61l9 16.85s10.23-11.79 9.37-17.69c-.7-5.01-4.32-10.23-9.68-7.77z" class="cls-7"/>
        </g>
        <g id="freepik--character-2--inject-2">
            <path id="Path_1597" d="M423.29 399.43c-8.81 0-17.47-1.81-21.67-7.29-19.88-26-19.7-78.3-19.53-128.91.1-27.25 2.25-53-.78-73-1.78-11.79-8-19.88-14.28-24.06-9.32-6.16-22.12-2.85-27.59-1.44a5.319 5.319 0 1 1-2.66-10.3c6.83-1.769 22.85-5.9 36.11 2.861 8.95 5.91 16.69 16.46 18.94 31.35 3.15 20.8 1 46.93.9 74.59-.17 48.83-.34 99.32 17.34 122.41 1.43 1.86 7 3.53 16.25 3.05.82 0 1.62-.09 2.41-.16a5.22 5.22 0 0 1-.54-2.33 5.32 5.32 0 0 1 5.32-5.32c11.63 0 17.75 1 18.93 6.32.34 1.53.52 5.37-5.1 8-4.2 1.969-14.22 4.229-24.05 4.229z" class="cls-6"/>
            <path id="Path_1598" d="M306.87 404.02l-10.85-4.27 5.72-18.81 10.86 4.26z" class="cls-14"/>
            <path id="Path_1599" d="M295.76 398.6l12.24 4.8a.75.75 0 0 1 .46.8l-1.2 7.62a1.25 1.25 0 0 1-1.7.95c-3.07-1.27-7.88-3.37-11.77-4.9-2.39-.94-6.94-2.44-10.25-3.74s-2.45-4.74-1-4.5c6.59 1.06 9.11-.07 11.74-1.05a2 2 0 0 1 1.48.02z" class="cls-2"/>
            <path id="Path_1600" d="M312.6 385.21l-10.86-4.27-2.95 9.7 10.86 4.27z" class="cls-5"/>
            <path id="Path_1601" d="M326.17 239.61s-9.82 48.54-13.57 72.48c-4.22 26.83-15.37 75.84-15.37 75.84l14.43 5.67s20.61-50.18 23.48-74.48c8.65-19.75 25.85-77.87 25.85-77.87z" class="cls-6"/>
            <path id="Path_1602" d="M296.53 388.01l15.84 6.23 2.71-4.8-17.71-7.34z" class="cls-2"/>
            <path id="Path_1603" d="M292.65 398.81a2.59 2.59 0 0 1-1.36-1 1.24 1.24 0 0 1 0-1.14.62.62 0 0 1 .52-.4c1.05-.11 3 2.45 3.19 2.75a.2.2 0 0 1-.2.31 10.182 10.182 0 0 1-2.15-.52zm-.53-2.09a.5.5 0 0 0-.26-.05c-.06 0-.13 0-.2.17a.8.8 0 0 0 0 .78c.29.53 1.29 1 2.74 1.24a7.86 7.86 0 0 0-2.28-2.14z" class="cls-6"/>
            <path id="Path_1604" d="M294.78 399.32a.16.16 0 0 1-.08-.06c-.64-.76-1.54-3.11-1-3.92a.66.66 0 0 1 .79-.25 1.1 1.1 0 0 1 .7.55c.62 1.11-.08 3.45-.11 3.55a.21.21 0 0 1-.16.14.14.14 0 0 1-.14-.01zm-.34-3.82h-.08c-.26-.06-.32 0-.35.09-.3.48.19 2.18.76 3.11a4.82 4.82 0 0 0 0-2.84.7.7 0 0 0-.33-.36z" class="cls-6"/>
            <path id="Path_1605" d="M347.34 269c-5.44 6.74-7.59 23.92-7.57 38.24 3.67-10.11 7.88-22.95 11.58-34.61z" class="cls-5"/>
            <path id="Path_1606" d="M372.17 405.83h-11.66l-1.55-19.6h11.66z" class="cls-14"/>
            <path id="Path_1607" d="M359.85 404.85H373a.73.73 0 0 1 .72.58l1.67 7.52a1.25 1.25 0 0 1-1.24 1.51c-3.32-.06-8.55-.26-12.73-.26-2.58 0-7.36.27-10.91.27s-4-3.51-2.57-3.83c6.53-1.43 8.47-3.39 10.55-5.27a2.06 2.06 0 0 1 1.36-.52z" class="cls-2"/>
            <path id="Path_1608" d="M370.62 386.23h-11.67l.81 10.11h11.67z" class="cls-5"/>
            <path id="Path_1609" d="M340.29 240.22s6.46 54.09 7.82 73.56c1.89 27.1 9.2 80.6 9.2 80.6h15.5s1.66-54.64-1.14-78.95c3.86-21.21 2.64-73.58 2.64-73.58z" class="cls-6"/>
            <path id="Path_1610" d="M356.69 394.71h17.02l.77-5.45-19.17-.36z" class="cls-2"/>
            <path id="Path_1611" d="M357 406.18a2.58 2.58 0 0 1-1.63-.43 1.25 1.25 0 0 1-.42-1.06.64.64 0 0 1 .35-.57c.94-.48 3.67 1.2 4 1.39a.2.2 0 0 1 .1.2.23.23 0 0 1-.16.17 10 10 0 0 1-2.24.3zm-1.26-1.75a.53.53 0 0 0-.26.05c-.05 0-.11.08-.12.23a.8.8 0 0 0 .27.73c.46.39 1.57.44 3 .15a8.08 8.08 0 0 0-2.86-1.16z" class="cls-6"/>
            <path id="Path_1612" d="M359.2 405.88h-.1c-.87-.48-2.57-2.33-2.39-3.28a.65.65 0 0 1 .64-.52 1.07 1.07 0 0 1 .85.25c1 .81 1.19 3.25 1.2 3.35a.22.22 0 0 1-.09.19.23.23 0 0 1-.11.01zm-1.71-3.43h-.09c-.26 0-.28.16-.29.21-.11.55 1 2 1.84 2.62a4.86 4.86 0 0 0-1-2.66.75.75 0 0 0-.46-.17z" class="cls-6"/>
            <path id="Path_1613" d="M345.64 165.63l-9.34-.12c-3.14 0-6.26-.1-9.35-.15-.94 0-1.86-.06-2.79-.1.06 0 .1-.11.15-.16.66-.7 1.32-1.42 2-2.11q.51-.54 1-1.05c.31-.34.71-.72.92-1l.85-1.08a5.17 5.17 0 0 0-5.42-8.18l-1.85.5c-.57.17-1.14.36-1.71.55-1.12.39-2.22.82-3.31 1.29a49.09 49.09 0 0 0-6.35 3.38 45.631 45.631 0 0 0-5.95 4.53 39.419 39.419 0 0 0-5.31 5.91 9.071 9.071 0 0 0-1 1.72 8.76 8.76 0 0 0 4.52 11.53l.91.4a38.359 38.359 0 0 0 6.36 2.1c1.9.49 3.7.81 5.47 1.11s3.5.54 5.22.75 3.42.37 5.12.51c3.39.3 6.75.45 10.1.55s6.63.1 10.11-.06a10.42 10.42 0 0 0-.34-20.83z" class="cls-14"/>
            <path id="Path_1614" d="M351.08 183.88c-8.07 9.2-27.49 5.76-27.49 5.76l1.07-22.92a101 101 0 0 1 20.26-2.35c11.4-.02 12.62 12.13 6.16 19.51z" class="cls-2"/>
            <path id="Path_1615" d="M329.54 176.83c-.48 3.7-1 8.68-1.31 15.38-4.21 21.3-5.78 36.39-2.06 47.4 2.94 3.63 41.25 2.93 48.14 2.23 4-9.9 4.42-38.32 4.89-62.21a13.77 13.77 0 0 0-11.45-13.82 92.49 92.49 0 0 0-26.12-.88 13.76 13.76 0 0 0-12.09 11.9z" class="cls-13"/>
            <path id="Path_1616" d="M366.71 191.37c.13 7.28 5.41 18.91 11.35 24.81.36-6.15.59-12.82.77-19.55z" class="cls-5"/>
            <path id="Path_1617" d="M400.09 205.52l-.34-.8a76 76 0 0 0-4.89-9.67c-1.78-3-3.7-5.83-5.69-8.56s-4.1-5.34-6.26-7.88c-1.1-1.26-2.19-2.52-3.34-3.74l-1.73-1.82-1.84-1.86a10.42 10.42 0 0 0-15.08 14.37l.3.33 5.87 6.53c2 2.22 3.91 4.48 5.81 6.73.92 1.13 1.87 2.26 2.73 3.41s1.77 2.26 2.63 3.4c1.24 1.73 2.44 3.45 3.51 5.14a25.68 25.68 0 0 1-.62 2.53 72.677 72.677 0 0 1-2.53 7.14c-1 2.47-2.06 5-3.16 7.49s-2.28 5.09-3.33 7.59l-.1.22a5.26 5.26 0 0 0 8.4 5.91 83 83 0 0 0 6.27-6.48 79.991 79.991 0 0 0 5.63-7.1c.89-1.25 1.74-2.55 2.58-3.9a45.2 45.2 0 0 0 2.39-4.25 39.752 39.752 0 0 0 2.1-4.92 22.392 22.392 0 0 0 1.28-6.71 7.49 7.49 0 0 0-.59-3.1z" class="cls-14"/>
            <path id="Path_1618" d="M368.43 165.94c13.49 2.31 22.28 20.57 22.28 20.57L374.45 204s-9.37-9.54-15-18.38c-6.07-9.62-.68-21.32 8.98-19.68z" class="cls-13"/>
            <path id="Path_1619" d="M343.79 137.15c-2.26-3.79-3-9 1.14-14.31a4.2 4.2 0 0 1-4.12-2 24.79 24.79 0 0 1 16.09-5.6c12.1 0 13 4.67 12.59 7.86 8.28.53 14.32 22.06-6.67 25.87-12.01-12.65-19.03-11.82-19.03-11.82z" class="cls-2"/>
            <path id="Path_1620" d="M368.73 123.49s3.37-3.44-.82-7.6a5.64 5.64 0 0 1 3.94 3.92c.59 2.42-1.04 4.36-3.12 3.68z" class="cls-2"/>
            <path id="Path_1621" d="M364.09 146.34c-.32 6.63-.92 14.17.19 19.46-1.72 2.71-6.12 5.83-14 6.53-2.8-1.59-6.5-5.48-5.21-7.48 3.35-2.15 4.77-8.66 3.81-13.53z" class="cls-14"/>
            <path id="Path_1622" d="M360.25 147.59l-11.39 3.73a17.869 17.869 0 0 1 .05 6.28c3.4-.11 8.11-2.67 9.88-5.07a6.32 6.32 0 0 0 1.46-4.94z" class="cls-5"/>
            <path id="Path_1623" d="M367.41 135.84c-2.11 8.13-2.93 13-7.91 16.41-7.49 5.13-16.91-.62-17.28-9.21-.32-7.74 3.18-19.74 11.88-21.45a11.46 11.46 0 0 1 13.31 14.25z" class="cls-14"/>
            <path id="Path_1624" d="M365.73 124.2c-3.57 2.54-8 13.3 1 17.62 8.08-7.1 5.99-17.62-1-17.62z" class="cls-2"/>
            <path id="Path_1625" d="M367.79 125.49c1.53-7.08-16.34-10.74-22-2.47-1.92 4.98 20.92 9.38 22 2.47z" class="cls-2"/>
            <path id="Path_1626" d="M354.46 144.47a17.28 17.28 0 0 0-5.88-1.49.21.21 0 0 0-.21.22.29.29 0 0 0 .27.24 16.75 16.75 0 0 1 5.64 1.42.24.24 0 0 0 .31-.11.21.21 0 0 0-.13-.28z" class="cls-2"/>
            <path id="Path_1627" d="M369.36 144.73a8 8 0 0 1-5.56 2.51c-2.8.06-3.51-2.61-2.16-4.89 1.22-2 4.14-4.56 6.68-3.54s2.8 4.01 1.04 5.92z" class="cls-14"/>
            <path id="Path_1628" d="M354.48 135.7c-.13.67-.59 1.15-1 1.06s-.68-.7-.55-1.37.59-1.14 1-1 .68.61.55 1.31z" class="cls-2"/>
            <path id="Path_1629" d="M346.91 134.23c-.13.67-.59 1.14-1 1.06s-.69-.7-.56-1.37.59-1.15 1-1.06.65.7.56 1.37z" class="cls-2"/>
            <path id="Path_1630" fill="#ed847e" d="M349.25 135a24.53 24.53 0 0 1-4.32 5.11c1 1.33 3.21 1.07 3.21 1.07z"/>
            <path id="Path_1631" d="M353.39 131.81a.43.43 0 0 1 .4.12 3.19 3.19 0 0 0 2.66 1.15.41.41 0 0 1 .46.34.39.39 0 0 1-.34.45 4 4 0 0 1-3.38-1.41.39.39 0 0 1 0-.56.509.509 0 0 1 .2-.09z" class="cls-2"/>
            <path id="Path_1632" d="M344.57 129.59a.36.36 0 0 1-.21-.13.4.4 0 0 1 .07-.57 4 4 0 0 1 3.57-.77.41.41 0 0 1 .26.51.43.43 0 0 1-.51.25 3.19 3.19 0 0 0-2.83.64.35.35 0 0 1-.35.07z" class="cls-2"/>
            <path id="Path_1633" d="M376.85 235.56l-8.59-.06 4.44 9.86s7.33-1.57 6.93-5.55z" class="cls-14"/>
            <path id="Path_1634" d="M363.89 242.27l1.41 2.78a3.34 3.34 0 0 0 4.21 1.58l3.19-1.27-4.44-9.86-3.41 2.6a3.33 3.33 0 0 0-.96 4.17z" class="cls-14"/>
            <path id="Path_1635" d="M311.46 228.3a5.33 5.33 0 0 1-3.81-9c3.82-3.94 7.27-7 10.31-9.67 7.34-6.47 9.87-9 9.63-13.85a48.72 48.72 0 0 0-1.9-8.82c-2.19-8.05-4.67-17.16-.42-24.47 2.28-3.93 6.15-6.62 11.51-8a5.319 5.319 0 1 1 2.66 10.3c-3.77 1-4.68 2.529-5 3.049-2 3.45-.07 10.59 1.49 16.32a55.546 55.546 0 0 1 2.26 11.1c.5 10.25-5.55 15.59-13.22 22.35-2.89 2.56-6.18 5.46-9.72 9.1a5.29 5.29 0 0 1-3.79 1.59z" class="cls-6"/>
            <path id="Path_1636" d="M323.13 151.9l8.32-2.13-1.94 10.64s-7.49.23-8.05-3.72z" class="cls-14"/>
            <path id="Path_1637" d="M337.29 155.41l-.64 2.78a3.49 3.49 0 0 1-3.88 2.67l-3.26-.45 1.94-10.64 3.82 1.65a3.49 3.49 0 0 1 2.02 3.99z" class="cls-14"/>
            <rect id="Rectangle_380" width="5.5" height="46.89" class="cls-13" rx="2.59" transform="rotate(44.99 -98.825 474.355)"/>
            <rect id="Rectangle_381" width="5.5" height="46.89" class="cls-13" rx="2.59" transform="rotate(45 -109.61 500.491)"/>
            <path id="Path_1638" d="M293.18 203h29.39a7.17 7.17 0 0 1 7.17 7.17v25.69a7.17 7.17 0 0 1-7.17 7.17h-29.39z" class="cls-6" transform="rotate(-45 311.47 222.975)"/>
            <path id="Path_1639" d="M293.18 203h29.39a7.17 7.17 0 0 1 7.17 7.17v25.69a7.17 7.17 0 0 1-7.17 7.17h-29.39z" class="cls-11" transform="rotate(-45 311.47 222.975)"/>
            <path id="Path_1640" d="M291.58 214.56l-7.2 7.19 28.31 28.31 7.19-7.2a5.74 5.74 0 0 0-1.39-2.22L293.8 216a5.74 5.74 0 0 0-2.22-1.44z" class="cls-12"/>
            <rect id="Rectangle_382" width="11.97" height="46.89" class="cls-6" rx="5.62" transform="rotate(-45 408.058 -225.087)"/>
        </g>
    </g>
</svg>
