<svg xmlns="http://www.w3.org/2000/svg" width="428" height="447.213" viewBox="0 0 428 447.213">
    <defs>
        <linearGradient id="linear-gradient" x1=".5" x2=".5" y1=".888" gradientUnits="objectBoundingBox">
            <stop offset="0" stop-color="#845101"/>
            <stop offset="1" stop-color="#ce7f01"/>
        </linearGradient>
        <linearGradient id="linear-gradient-2" x1=".5" x2=".5" y2="1" gradientUnits="objectBoundingBox">
            <stop offset="0" stop-color="#f3f7fa"/>
            <stop offset="1" stop-color="#fff"/>
        </linearGradient>
        <style>
            .cls-1{fill:#f3f7fa}.cls-3{fill:#273d4c}.cls-4{fill:#fff}.cls-5{fill:#fcae30}.cls-6{fill:#c3d0d9}.cls-7{fill:#ffffeb}
        </style>
    </defs>
    <g id="Group_2159" transform="translate(0 -204.046)">
        <g id="Group_2158" transform="translate(-88.233 77.688)">
            <path id="Path_1753" d="M440.851 250.532a10.522 10.522 0 0 0-9.036-9.228 10.367 10.367 0 0 0-5.768.9c.016-.331.051-.655.051-.99a20.879 20.879 0 0 0-32.787-17.161 30.746 30.746 0 1 0-58.958 17.253 10.2 10.2 0 0 0-6.849 1.507c.005-.189.029-.373.029-.564a19.856 19.856 0 1 0-39.438 3.142h-33.344a8.356 8.356 0 0 0 0 16.713h179.323v-.652a10.441 10.441 0 0 0 6.777-10.92z" class="cls-1" transform="translate(51.496 23.638)"/>
            <path id="Path_1757" d="M309.019 200.83h-32.283a15.231 15.231 0 0 0-1.213-11.108 16.189 16.189 0 0 0-10.939-8.615 15.923 15.923 0 0 0-8.355.468c0-.174.012-.345.012-.518a28.437 28.437 0 0 0-56.375-5.3 18.633 18.633 0 0 0-22.166 17.251h-43.864a10.167 10.167 0 0 0-10.3 9.587 9.893 9.893 0 0 0 9.887 10.2h175.6a5.981 5.981 0 1 0 0-11.962z" class="cls-1" transform="translate(6.297 5.982)"/>
            <path id="Path_1758" d="M376.472 169.647h-19.209a9.059 9.059 0 0 0-.722-6.61 9.632 9.632 0 0 0-6.508-5.125 9.474 9.474 0 0 0-4.972.278c0-.1.008-.205.008-.308a16.92 16.92 0 0 0-33.543-3.154 11.089 11.089 0 0 0-13.188 10.266h-26.1a6.049 6.049 0 0 0-6.129 5.7 5.884 5.884 0 0 0 5.882 6.066h104.481a3.559 3.559 0 0 0 0-7.117z" class="cls-1" transform="translate(58.747 1.693)"/>
            <g id="Group_2146" transform="translate(217.005 126.358)">
                <path id="Path_1760" fill="url(#linear-gradient)" d="M363.72 234.125c.494-2.386-1.572-5.021-2.6-7.209-.807-1.713-1.625-3.422-2.422-5.14-.123-.265-.321-1.008-.421-.8a10.932 10.932 0 0 1 1.041-1.76c1.391-2.528 3.277-4.8 3.277-7.719v-6.356c0-1.211.346-3.054 0-4.236-.4-1.358-1.773-2.651-2.615-3.774l-2.217-2.957c-.431-.573-.937-1.74-1.079-1.2.278-1.375 2.245-3.585 2.89-4.662q1.481-2.466 2.96-4.933c.409-.683-.536-1.052-1.014-1.052h-73.4a.644.644 0 0 0 .127-.375v-43.631a1.264 1.264 0 0 0-1.261-1.941c-10.24 1.827-19.515 6.811-29.621 9.139a1.02 1.02 0 0 0-.814.77.525.525 0 0 0-.2.379v35.655h-67.29c-.48 0-1.245.408-1.249.964l-.094 14.81c-.011 1.565-.108 1.81.892 2.871a33.676 33.676 0 0 0 5.056 3.922c-.016.016-.027.033-.041.049l-5.34 2.825c-.283.149-.639.44-.642.8l-.1 15.986-.07 10.9c-.011 1.724-.43 4.076-.037 5.77.457 1.974 2.5 4.038 3.63 5.694.123.182.316.409.5.646-.32.342-.432.75-.1.959-.029.031-.053.062-.086.093a30.983 30.983 0 0 0-3.02 3.845c-1.282 1.77-1.02 3.113-1.035 5.336l-.059 9.173c0 .616.551.8 1.077.819l58.559 1.866 11.248.358v145.835a1.232 1.232 0 0 0 .676 2.194l27.846 1.375a1.069 1.069 0 0 0 1.131-1.252 1.2 1.2 0 0 0 .078-.424V270.954l51.963 1.656 21.064.672a1.513 1.513 0 0 0 .644-.015 1.109 1.109 0 0 0 .721-.36.828.828 0 0 0 .3-.81q-2.236-10.483-4.474-20.965c-.126-.584-.279-1.989-.371-1.693a25.288 25.288 0 0 1 1.724-4.376c1.358-3.483 3.51-7.28 4.268-10.938z" opacity="0.8" transform="translate(-187.262 -136.358)"/>
                <g id="Group_2145">
                    <g id="Group_2144">
                        <path id="Path_1761" d="M363.72 234.125c.494-2.386-1.572-5.021-2.6-7.209-.807-1.713-1.625-3.422-2.422-5.14-.123-.265-.321-1.008-.421-.8a10.932 10.932 0 0 1 1.041-1.76c1.391-2.528 3.277-4.8 3.277-7.719v-6.356c0-1.211.346-3.054 0-4.236-.4-1.358-1.773-2.651-2.615-3.774l-2.217-2.957c-.431-.573-.937-1.74-1.079-1.2.278-1.375 2.245-3.585 2.89-4.662q1.481-2.466 2.96-4.933c.409-.683-.536-1.052-1.014-1.052h-73.4a.644.644 0 0 0 .127-.375v-43.631a1.264 1.264 0 0 0-1.261-1.941c-10.24 1.827-19.515 6.811-29.621 9.139a1.02 1.02 0 0 0-.814.77.525.525 0 0 0-.2.379v35.655h-67.29c-.48 0-1.245.408-1.249.964l-.094 14.81c-.011 1.565-.108 1.81.892 2.871a33.676 33.676 0 0 0 5.056 3.922c-.016.016-.027.033-.041.049l-5.34 2.825c-.283.149-.639.44-.642.8l-.1 15.986-.07 10.9c-.011 1.724-.43 4.076-.037 5.77.457 1.974 2.5 4.038 3.63 5.694.123.182.316.409.5.646-.32.342-.432.75-.1.959-.029.031-.053.062-.086.093a30.983 30.983 0 0 0-3.02 3.845c-1.282 1.77-1.02 3.113-1.035 5.336l-.059 9.173c0 .616.551.8 1.077.819l58.559 1.866 11.248.358v145.835a1.232 1.232 0 0 0 .676 2.194l27.846 1.375a1.069 1.069 0 0 0 1.131-1.252 1.2 1.2 0 0 0 .078-.424V270.954l51.963 1.656 21.064.672a1.513 1.513 0 0 0 .644-.015 1.109 1.109 0 0 0 .721-.36.828.828 0 0 0 .3-.81q-2.236-10.483-4.474-20.965c-.126-.584-.279-1.989-.371-1.693a25.288 25.288 0 0 1 1.724-4.376c1.358-3.483 3.51-7.28 4.268-10.938zm-105.085-86.482c9.3-2.251 17.931-6.653 27.3-8.648v43.143a.711.711 0 0 0 .025.185h-27.325zm26.875 269.344l-15.852-.782a1.082 1.082 0 0 0 .856-1.1v-32.846a1.185 1.185 0 0 0-2.368 0v32.847a1.077 1.077 0 0 0 .724 1.061l-8.354-.413V270.082l24.994.8zm70.248-165.493q-12.967.958-25.97.725c-.767-.015-2.461 1.115-.932 1.144q13.585.256 27.129-.8l2.323 10.879q-56.474 1.02-112.957.677c-1.328-.008-1.736 1.724-.187 1.733q56.759.349 113.513-.685.671 3.15 1.345 6.3l-57.062-1.819-92.941-2.961-20.415-.65c.041-3.533.186-7.088.063-10.615-.066-1.848-.191-1.163 1.022-2.707l3.121-3.974q14.022.691 28.06.907c1.3.019 1.758-1.633.208-1.656q-14.067-.213-28.115-.927c-1.135-1.682-2.226-3.413-3.439-5.036-.986-1.323-.807-.632-.758-2.3.12-4.145.083-8.3.088-12.448l26.9-1.3c1.317-.063 1.744-1.81.187-1.734l-27.082 1.308v-.361l.1-14.951c0-.451.036-.922.011-1.376.021 0 .037 0 .059-.008 1.6-.291 3.495-1.659 5.1-2.647a5.089 5.089 0 0 0 1.826.138 1.4 1.4 0 0 0 1.16-.685l37.236.492c.884.011 2.423-1.308.881-1.328l-39.769-.525c-.019-.016-.029-.034-.051-.051a68.792 68.792 0 0 0-5.625-4.325 6.217 6.217 0 0 1-.756-.518 12.322 12.322 0 0 1 .022-2.561l.081-12.734H359.7q-2.645 4.407-5.288 8.815a.688.688 0 0 0 .057.678c1.791 2.387 4.314 4.846 5.63 7.507.129.26.172.3.182.268a9.127 9.127 0 0 1-.012 1.583v6.086c0 3.5-.09 4.283-1.748 7.3-.851 1.547-2.1 2.977-2.293 4.56q-14.58-.234-29.133.77c-1.174.082-1.862 1.49-.282 1.379q14.754-1.03 29.539-.741c.929 3.3 3.119 6.9 4.7 9.927a5.382 5.382 0 0 1 .572 1.213l.008.029c0 .025 0 .036-.007.067-.1 1.215-1.1 2.818-1.542 3.949-1.371 3.514-2.774 7.017-4.113 10.542a4.839 4.839 0 0 0-.213 3.447z" class="cls-3" transform="translate(-187.262 -136.358)"/>
                        <path id="Path_1762" d="M324.741 176.516q-29.154-.652-58.307.3c-1.191.038-1.851 1.447-.276 1.4q28.855-.94 57.725-.286c.942.021 2.402-1.38.858-1.414z" class="cls-3" transform="translate(-158.581 -121.682)"/>
                        <path id="Path_1763" d="M215.509 175.072l-22.1-.48c-1.317-.029-1.744 1.663-.2 1.7l22.1.48c1.319.028 1.745-1.666.2-1.7z" class="cls-3" transform="translate(-185.437 -122.293)"/>
                        <path id="Path_1764" d="M223.676 225.1l-27.623-.475c-.944-.016-2.4 1.391-.858 1.417l27.623.475c.944.021 2.401-1.386.858-1.417z" class="cls-3" transform="translate(-184.593 -103.886)"/>
                        <path id="Path_1765" d="M306.027 225.595h1.578c.484 0 1.2-.371 1.267-.9.072-.591-.621-.709-1.046-.709h-1.578c-.483 0-1.2.371-1.265.9-.073.59.617.709 1.044.709z" class="cls-3" transform="translate(-143.959 -104.123)"/>
                        <path id="Path_1766" d="M200.667 213.109l-7.5-.445a2.207 2.207 0 0 0-1.617.434c-.239.285-.387.616.174.65l7.5.445a2.2 2.2 0 0 0 1.617-.434c.241-.285.387-.617-.174-.65z" class="cls-3" transform="translate(-185.762 -108.289)"/>
                        <path id="Path_1767" d="M309.078 194.322l-11.442-.442c-.788-.03-2.455 1.111-.925 1.171l11.444.442c.786.03 2.455-1.111.923-1.171z" class="cls-3" transform="translate(-147.229 -115.198)"/>
                        <path id="Path_1768" d="M307 184.14h-13.416c-.472 0-2.581.9-1.491.9h13.417c.471.004 2.58-.9 1.49-.9z" class="cls-3" transform="translate(-148.812 -118.781)"/>
                        <path id="Path_1769" d="M255.713 286.054a1.991 1.991 0 0 1 .274-1.767c.839-1.276-1.211-2.464-2.045-1.194a4.314 4.314 0 0 0-.512 3.591 1.185 1.185 0 0 0 2.283-.63z" class="cls-3" transform="translate(-162.988 -82.579)"/>
                        <path id="Path_1770" d="M254.112 309.126v3.026a.586.586 0 0 0-.094.313v27.45c0 .994 1.838.767 1.838-.112V313.3a1.071 1.071 0 0 0 .624-1.016v-3.157a1.185 1.185 0 0 0-2.368-.001z" class="cls-3" transform="translate(-162.705 -73.223)"/>
                        <path id="Path_1771" d="M254.876 336.2a1.185 1.185 0 0 0 0 2.368 1.185 1.185 0 0 0 0-2.368z" class="cls-3" transform="translate(-162.81 -62.843)"/>
                        <path id="Path_1772" d="M255.587 268.334q-.244-13.409-.49-26.817c-.015-.865-1.833-.532-1.821.176l.49 26.818c.016.865 1.834.533 1.821-.177z" class="cls-3" transform="translate(-162.978 -97.863)"/>
                        <path id="Path_1773" d="M248.084 306.864v-60.515c0-.542-1.808-.208-1.808.484v60.515c0 .543 1.808.209 1.808-.484z" class="cls-3" transform="translate(-165.553 -95.995)"/>
                        <path id="Path_1774" d="M251.748 299.221v-26.2c0-.947-1.832-.678-1.832.137v26.2c0 .942 1.832.679 1.832-.137z" class="cls-3" transform="translate(-164.214 -86.306)"/>
                        <path id="Path_1775" d="M246.158 148.95c-.65 0-1.929.979-.715.979.65 0 1.928-.979.715-.979z" class="cls-3" transform="translate(-166.045 -131.726)"/>
                        <path id="Path_1776" d="M248.556 146.926v23.083c0 .379 1.808.1 1.808-.484v-23.084c0-.378-1.808-.097-1.808.485z" class="cls-3" transform="translate(-164.714 -132.712)"/>
                        <path id="Path_1777" d="M245.36 153.665v17.469c0 .847 1.819.513 1.819-.185v-17.468c0-.848-1.819-.514-1.819.184z" class="cls-3" transform="translate(-165.89 -130.244)"/>
                        <path id="Path_1778" d="M256.758 143.627v16.845c0 .938 1.83.663 1.83-.141v-16.843c0-.94-1.83-.665-1.83.139z" class="cls-3" transform="translate(-161.697 -133.954)"/>
                        <path id="Path_1779" d="M247.643 311.659v-13.1c0-.941-1.832-.67-1.832.14v13.1c0 .94 1.832.669 1.832-.14z" class="cls-3" transform="translate(-165.724 -76.909)"/>
                        <path id="Path_1780" d="M245.356 246.642v-10.607c0-.855-1.821-.525-1.821.181v10.606c0 .855 1.821.526 1.821-.18z" class="cls-3" transform="translate(-166.561 -99.878)"/>
                    </g>
                </g>
                <path id="Path_1849" d="M1.271-7.5c0 6.606 3.77 10.613 10.24 10.613 6.436 0 10.223-3.991 10.223-10.613v-2.768C21.734-16.946 17.947-21 11.511-21s-10.24 4.037-10.24 10.727zm5.621-2.8c0-3.838 1.715-6.113 4.619-6.113 2.87 0 4.6 2.275 4.6 6.113v2.8c0 3.787-1.715 6.028-4.6 6.028-2.9 0-4.619-2.242-4.619-6.028zm17.695 2.8c0 6.606 3.77 10.613 10.24 10.613C41.263 3.113 45.05-.878 45.05-7.5v-2.768C45.049-16.946 41.262-21 34.826-21s-10.24 4.042-10.24 10.732zm5.621-2.8c0-3.838 1.715-6.113 4.619-6.113 2.87 0 4.6 2.275 4.6 6.113v2.8c0 3.787-1.715 6.028-4.6 6.028-2.9 0-4.619-2.242-4.619-6.028zM51.519 2.769c1.8 0 2.819-1.1 2.819-3.023V-4.8h3.736c5.315 0 8.576-2.836 8.576-7.913 0-4.772-3.209-7.862-8.287-7.862H52.4c-2.649 0-3.668 1.07-3.668 3.838V-.254c.002 1.936 1.004 3.023 2.787 3.023zm2.836-11.751v-7.268h3.175c2.292 0 3.566 1.325 3.566 3.634 0 2.683-1.291 3.634-4.194 3.634zm14.23 6.809A4.142 4.142 0 0 0 70.114.7c1.579 1.494 4.415 2.411 7.608 2.411 5.808 0 9.526-2.938 9.526-7.506 0-3.515-2.089-5.638-6.4-6.5l-3.226-.7c-2.157-.425-3.142-1.325-3.142-2.6 0-1.46 1.291-2.394 3.345-2.394a5.553 5.553 0 0 1 4.311 1.989 3.157 3.157 0 0 0 2.174 1 2.034 2.034 0 0 0 2.19-2.09 4.092 4.092 0 0 0-1.528-2.972A10.7 10.7 0 0 0 77.755-21c-5.434 0-8.9 2.819-8.9 7.268 0 3.549 2.055 5.706 6.232 6.589l3.192.73c2.445.526 3.464 1.325 3.464 2.615 0 1.6-1.308 2.479-3.736 2.479a7.014 7.014 0 0 1-4.789-2.021 3.523 3.523 0 0 0-2.445-1.138 2.2 2.2 0 0 0-2.188 2.305zM97.606-7a2.393 2.393 0 0 0 2.462 2.326A2.384 2.384 0 0 0 102.5-7l.475-11.445a2.777 2.777 0 0 0-2.9-2.887 2.772 2.772 0 0 0-2.887 2.887zM97.1.256a2.752 2.752 0 0 0 2.972 2.683 2.737 2.737 0 0 0 2.951-2.683 2.737 2.737 0 0 0-2.955-2.683A2.752 2.752 0 0 0 97.1.256z" class="cls-4" transform="translate(35.702 98.628)"/>
            </g>
            <path id="Path_1781" d="M170.976 328.45v7.75c0 .594 1.327.336 1.327-.145V328.3c-.003-.59-1.327-.332-1.327.15z" class="cls-5" transform="translate(23.752 70.484)"/>
            <g id="Group_2147" transform="translate(158.959 282.067)">
                <path id="Path_1782" d="M175.894 366.11h19.574v-64.956a44.222 44.222 0 0 0 41.139-44.06 10.037 10.037 0 0 0-20.075 0 24.12 24.12 0 0 1-21.064 23.894v-27.547a9.787 9.787 0 0 0-19.574 0v50.287a24.128 24.128 0 0 1-17.566-23.185 10.037 10.037 0 1 0-20.075 0 44.232 44.232 0 0 0 37.641 43.683z" class="cls-4" transform="translate(-137.245 -242.596)"/>
                <path id="Path_1783" d="M175.139 324.568c.77.754 0 5.752 0 6.843v26.55c0 2.617-.268 5.585-.071 8.433h2.083c-.293-3.329.04-6.875.04-10.191V324.51a1.037 1.037 0 0 0-.752-.989c-19.632-3.353-37.589-20.714-36.868-41.723.179-5.236 3.132-9.983 8.991-9.983 6.191 0 8.355 4.789 9.05 9.974.45 3.353.84 6.417 2.294 9.546 3.165 6.816 8.932 11.379 15.988 13.665a1.034 1.034 0 0 0 1.3-.989v-46.43c0-4.284-.085-8.843 4.339-11.423 6.31-3.677 12.527 1.49 13.184 7.894.124 1.217 0 2.521 0 3.74v23.478a1.041 1.041 0 0 0 1.3.989 25.73 25.73 0 0 0 18.257-12 25.163 25.163 0 0 0 3.262-9.085c.687-4.424.16-8.886 4.762-11.574 6.326-3.7 12.966 1.16 13.56 7.78a43.778 43.778 0 0 1-40.113 43.035 1.05 1.05 0 0 0-1.026 1.026V363.9c0 .815.048 1.667.012 2.494h2.189c.26-3.517-.149-7.283-.149-10.654v-44.052c0-2.526-.813-6.558 0-8.958a1.828 1.828 0 0 0 .161-.75.564.564 0 0 0 .276-.094c1.268-.683 6.054-.509 8.059-1.09a45.541 45.541 0 0 0 16.438-8.779c10.348-8.629 15.915-21.281 16.2-34.639-.789-8.8-10.49-14.707-18.049-8.563-3.537 2.877-3.684 6.309-4.154 10.481a24.033 24.033 0 0 1-4.19 11.435c-3.407 4.778-7.6 6.19-12.4 8.8-2.306 1.256-1.851 2.011-2.35.484-.375-1.145 0-3.13 0-4.359v-13.987c0-6.254 1-13.564-5.355-17.28-7.484-4.377-15.714 1.392-16.271 9.384-.394 5.655 0 11.474 0 17.138v26.23c0 1.373.717 5.2 0 6.455.506-.886-3.558-2.487-5.094-3.493a23.233 23.233 0 0 1-9.282-12.113c-1.6-4.894-.25-10.195-3.8-14.354a11.083 11.083 0 0 0-11.329-3.44c-10.652 2.926-8.624 15.947-6.12 24A45.685 45.685 0 0 0 160 319.9a45.125 45.125 0 0 0 6.864 3.256 22.246 22.246 0 0 0 5.329 1.633c-1.757-.156 3.746.562 2.946-.221z" class="cls-6" transform="translate(-137.516 -242.881)"/>
                <path id="Path_1784" d="M174.794 257.717v32.031c0 .559 1.13.373 1.13-.1v-32.029c0-.56-1.13-.374-1.13.098z" class="cls-6" transform="translate(-123.803 -237.586)"/>
                <path id="Path_1785" d="M176.209 291.08v8.49c0 .282 1.119.092 1.119-.3v-8.49c0-.28-1.119-.092-1.119.3z" class="cls-6" transform="translate(-123.282 -225.309)"/>
                <path id="Path_1786" d="M174.8 308v22.384c0 .249 1.119.07 1.119-.3V307.7c-.002-.246-1.119-.067-1.119.3z" class="cls-6" transform="translate(-123.801 -219.077)"/>
                <path id="Path_1787" d="M171.125 269v33.189c0 .6 1.134.445 1.134-.078v-33.188c0-.599-1.134-.444-1.134.077z" class="cls-6" transform="translate(-125.153 -233.442)"/>
                <path id="Path_1788" d="M171.131 299.553v5.789c0 .338 1.118.13 1.118-.3v-5.789c0-.336-1.118-.13-1.118.3z" class="cls-6" transform="translate(-125.15 -222.205)"/>
                <path id="Path_1789" d="M169.717 249.536v7.333c0 .527 1.126.321 1.126-.112v-7.333c0-.524-1.126-.324-1.126.112z" class="cls-6" transform="translate(-125.671 -240.589)"/>
                <path id="Path_1790" d="M165.524 299.427c-9.1-7.365-16.97-17.275-16.345-29.6.011-.217-1.1-.066-1.118.3-.628 12.371 7.292 22.31 16.413 29.7.258.208 1.264-.227 1.05-.4z" class="cls-6" transform="translate(-133.65 -233.003)"/>
                <path id="Path_1791" d="M155.719 292.68a21.3 21.3 0 0 1-5.752-7.244c-.205-.424-1.3-.081-1.118.3a21.649 21.649 0 0 0 5.837 7.4c.335.276 1.382-.172 1.033-.456z" class="cls-6" transform="translate(-133.355 -227.298)"/>
                <path id="Path_1792" d="M150.979 296.171a34.986 34.986 0 0 1-9.151-25.273c.026-.594-1.112-.445-1.135.079a35.581 35.581 0 0 0 9.265 25.693c.35.386 1.409-.07 1.021-.499z" class="cls-6" transform="translate(-136.362 -232.715)"/>
                <path id="Path_1793" d="M201.8 254.588a44.135 44.135 0 0 1-8.583 18.26 1.455 1.455 0 0 0 1.1-.2 44.133 44.133 0 0 0 8.585-18.261c.053-.233-1.04-.071-1.102.201z" class="cls-6" transform="translate(-117.026 -238.689)"/>
                <path id="Path_1794" d="M187.715 272.446a5.422 5.422 0 0 1-5.112 2.076c-.551-.078-1.138.707-.387.813a6.931 6.931 0 0 0 6.434-2.559c.439-.556-.618-.732-.935-.33z" class="cls-6" transform="translate(-121.204 -232.085)"/>
                <path id="Path_1795" d="M205.263 249.585c-.027-.233-1.154-.011-1.118.3a18.784 18.784 0 0 1-2.262 11.509c-.092.164.944.1 1.1-.191a18.944 18.944 0 0 0 2.28-11.618z" class="cls-6" transform="translate(-113.84 -240.45)"/>
                <path id="Path_1796" d="M214.816 259.356a41.91 41.91 0 0 1-32.321 28.095c-.568.1-.892.844-.127.713a43.229 43.229 0 0 0 33.574-28.921c.144-.449-.988-.311-1.126.113z" class="cls-6" transform="translate(-121.183 -236.964)"/>
                <path id="Path_1797" d="M169.271 319.447v14.591c0 .3 1.321.085 1.321-.354v-14.592c0-.298-1.321-.085-1.321.355z" class="cls-6" transform="translate(-125.835 -214.896)"/>
            </g>
            <g id="Group_2148" transform="translate(176.83 415.905)">
                <path id="Path_1798" d="M227.211 344.526c.03 1.54-1.466 2.686-2.54 3.518a1.012 1.012 0 0 0-.025 1.429c2.38 1.931 5.745 4.606 4.868 8.112-1.2 4.783-7.475 1.45-10-.1a.924.924 0 0 0-1.185.138l-43.2 10.523a.919.919 0 0 0-.739.875 1.04 1.04 0 0 0-.088.371 6.406 6.406 0 0 1-8.018 6.131c-2.528-.677-4.614-2.892-3.649-5.653.78-2.227 2.992-3.495 4.9-4.649a1.02 1.02 0 0 0-.461-1.895 10.27 10.27 0 0 1-5.392-1.613c-2.528-1.691-3.156-4.841-.384-6.7 3.566-2.387 7.521.406 10.2 3.035a1.024 1.024 0 0 0 .911 1.741l44.443-10.827a.879.879 0 0 0 1.206-.439 1 1 0 0 0 .243-.921 7.436 7.436 0 0 1 4.057-4.857c1.589-.707 4.794-1.205 4.853 1.781z" class="cls-7" transform="translate(-157.307 -340.179)"/>
                <path id="Path_1799" d="M216.95 347.553l-42.684 10.4c-3.688-3.845-10.883-8.274-15.108-2.563-3.592 4.853 1.138 8.768 5.756 10.061-1.964 1.416-3.671 3.18-3.975 5.714-.35 2.923 1.665 5.354 4.251 6.463a8.44 8.44 0 0 0 11.682-7.131l42.535-10.362a.962.962 0 0 0 .164-.057c3.485 2.039 9.355 4.541 11.9.052 2.38-4.19-.859-8.124-3.953-10.809a5.879 5.879 0 0 0 2.264-4.933 4.077 4.077 0 0 0-3.592-3.57c-4.283-.71-8.082 2.849-9.24 6.735zm10.846-2.481c.03 1.54-1.466 2.686-2.54 3.518a1.012 1.012 0 0 0-.025 1.429c2.38 1.931 5.745 4.606 4.868 8.112-1.2 4.783-7.475 1.45-10-.1a.924.924 0 0 0-1.185.138l-43.2 10.523a.919.919 0 0 0-.739.875 1.04 1.04 0 0 0-.088.371 6.406 6.406 0 0 1-8.018 6.131c-2.528-.677-4.614-2.892-3.649-5.653.78-2.227 2.992-3.495 4.9-4.649a1.02 1.02 0 0 0-.461-1.895 10.27 10.27 0 0 1-5.392-1.613c-2.528-1.691-3.156-4.841-.384-6.7 3.566-2.387 7.521.406 10.2 3.035a1.024 1.024 0 0 0 .911 1.741l44.443-10.827a.879.879 0 0 0 1.206-.439 1 1 0 0 0 .243-.921 7.436 7.436 0 0 1 4.057-4.857c1.589-.707 4.794-1.205 4.857 1.781z" class="cls-5" transform="translate(-157.892 -340.725)"/>
                <path id="Path_1800" d="M169.367 360.129l29.137-7.1c.629-.153 0-1.512-.509-1.388l-29.137 7.1c-.629.153.003 1.511.509 1.388z" class="cls-5" transform="translate(-153.955 -336.711)"/>
                <path id="Path_1801" d="M194.4 352.681l4.911-1.2c.237-.057-.313-1.431-.728-1.33l-4.911 1.2c-.236.056.312 1.431.728 1.33z" class="cls-5" transform="translate(-144.75 -337.258)"/>
            </g>
            <path id="Path_1803" d="M347.309 313.885a3.443 3.443 0 1 1 6.886 0 8.274 8.274 0 0 0 7.225 8.2v-9.449a3.358 3.358 0 0 1 3.357-3.358 3.358 3.358 0 0 1 3.358 3.358v17.249a8.276 8.276 0 0 0 6.025-7.953 3.443 3.443 0 1 1 6.886 0 15.175 15.175 0 0 1-12.911 14.985V351.5a3.358 3.358 0 0 1-3.358 3.357 3.357 3.357 0 0 1-3.357-3.357V329a15.169 15.169 0 0 1-14.111-15.115z" class="cls-6" transform="translate(88.619 63.61)"/>
            <g id="Group_2150" transform="translate(369.544 295.69)">
                <g id="Group_2149">
                    <path id="Path_1804" d="M378.567 285.659a8.214 8.214 0 0 0-8.214 8.214v.438a12.828 12.828 0 0 1-12.814 12.813h-4.819v-44.136a9.418 9.418 0 1 0-18.837 0v24.4a9.352 9.352 0 0 1-8.871-9.325v-1.275a8.214 8.214 0 0 0-16.428 0v1.275a25.8 25.8 0 0 0 25.3 25.765v21.7h-5.257a12.83 12.83 0 0 1-12.814-12.814 8.214 8.214 0 1 0-16.428 0 29.276 29.276 0 0 0 29.242 29.242h5.257v18.1h18.836v-36.5h4.819a29.275 29.275 0 0 0 29.242-29.241v-.438a8.215 8.215 0 0 0-8.214-8.218z" class="cls-4" transform="translate(-298.555 -252.572)"/>
                    <path id="Path_1805" d="M379.218 285.03a.885.885 0 0 0-.428-.059.861.861 0 0 0-.436.064c-3.55.464-6.629 2.148-8.054 5.655-.925 2.276-.458 4.693-1.1 7.036-1.506 5.458-6.366 8.4-11.791 8.711-1.157.067-3.124-.482-3.6.01.016-.481.081-1 .1-1.238.261-3.494 0-7.1 0-10.6v-26.263c0-5.979-.04-12.361-6.834-14.841-7.434-2.714-13.657 3.3-13.915 10.481-.129 3.6 0 7.236 0 10.839 0 2.748 1.247 9.587 0 12.1-.022.044-.025.062-.042.1a.485.485 0 0 0-.155.015c-1.008.274-5.376-4.054-5.689-4.612-1.606-2.858-.579-5.934-1.754-8.824a9.267 9.267 0 0 0-8.489-5.718c-11.051 0-10.058 13.583-7.151 20.617A26.873 26.873 0 0 0 324 302.859a26.468 26.468 0 0 0 4.751 1.554c.042.008 4.582.64 4.015.163.275.231.388.84.388 2.453v5.432c0 3.695.942 8.858.01 12.482a11.151 11.151 0 0 1-1.682-.105c-3.061-.379-5.662.1-8.608-1.622-7.43-4.353-3.4-13.212-9.779-17.723-8.384-5.93-15.152 3.135-14.227 11.017a30.476 30.476 0 0 0 17.974 24.165 34.8 34.8 0 0 0 14.081 2.5c.714 0 1.434.016 2.146 0 .082 0 .15-.007.216-.012a29.968 29.968 0 0 1-.13 4.253c0 3.556-.631 8.419-.339 12.9h2.249c-.293-6 0-12.088 0-18.1a.97.97 0 0 0-.956-.956c-6.874 0-13.375-.264-19.522-3.868-8.259-4.841-17.031-17.149-12.958-26.984q.843-4.6 6.2-4.692 6.636.622 7.258 7.258c.382 1.49.252 2.931.767 4.447a13.7 13.7 0 0 0 4.6 6.444c4.1 3.172 8.786 2.878 13.661 2.878a.969.969 0 0 0 .956-.955V304.1a.974.974 0 0 0-.956-.956c-12.237-.633-27.055-12.17-24.344-26.084.763-3.913 3.182-6.694 7.259-7.258 5.061-.7 6.5 4.461 7.258 7.9.308 1.4.127 2.762.633 4.168 1.427 3.961 4.922 6.161 8.939 6.716a.974.974 0 0 0 1.211-.922v-20.82c0-5.47 1.358-12.041 8.463-12.041 6.558 0 8.463 6 8.463 11.275v41.323a.969.969 0 0 0 .955.956c4.772 0 9.348.175 13.32-2.953a13.879 13.879 0 0 0 4.775-7.159c1.379-5 .137-10.585 7.752-11.352 15.328 1.544 3.47 23.731-2.254 28.821-6.846 6.088-14.835 7.161-23.593 7.161a.969.969 0 0 0-.955.955v35.7c0 .265 0 .532-.007.8h2.231c.482-6.075-.313-12.687-.313-18.529V328.48a29.432 29.432 0 0 1-.09-3.613c.472.261 1.782-.083 2.7-.092 11.781-.108 22.614-5.707 28.125-16.438 4.018-7.837 6.301-21.782-5.425-23.307z" class="cls-6" transform="translate(-298.778 -252.84)"/>
                </g>
                <path id="Path_1806" d="M334.158 283.168v28.887c0 .326 1.231.112 1.231-.33v-28.887c0-.324-1.231-.111-1.231.33z" class="cls-6" transform="translate(-285.763 -241.862)"/>
                <path id="Path_1807" d="M329.809 291.164v8.284c0 .538 1.235.29 1.235-.142v-8.284c0-.538-1.235-.291-1.235.142z" class="cls-6" transform="translate(-287.363 -238.907)"/>
                <path id="Path_1808" d="M330.276 308.3v18.9c0 .19 1.231.019 1.231-.33v-18.9c0-.188-1.231-.017-1.231.33z" class="cls-6" transform="translate(-287.191 -232.587)"/>
                <path id="Path_1809" d="M332.761 258.465v13.382c0 .237 1.231.051 1.231-.33v-13.382c0-.235-1.231-.05-1.231.33z" class="cls-6" transform="translate(-286.277 -250.93)"/>
                <path id="Path_1810" d="M328.566 263.524v3.823c0 .562 1.237.327 1.237-.131v-3.823c-.003-.564-1.237-.327-1.237.131z" class="cls-6" transform="translate(-287.82 -249.079)"/>
                <path id="Path_1811" d="M361.746 285.524c-1.65 3.837-3.34 7.9-6.356 10.885-4.157 4.123-9.3 4.279-14.8 3.949-.573-.033-1.269.8-.438.854 4.775.285 9.686.4 13.8-2.4 4.552-3.1 6.853-8.277 8.957-13.167.277-.633-.96-.596-1.163-.121z" class="cls-6" transform="translate(-283.698 -240.947)"/>
                <path id="Path_1812" d="M359.41 290.3a17.4 17.4 0 0 1-4.656 6.7c-.3.265.88.168 1.126-.052a17.806 17.806 0 0 0 4.751-6.841c.109-.283-1.086-.155-1.221.193z" class="cls-6" transform="translate(-278.204 -239.188)"/>
                <path id="Path_1813" d="M335.4 336.357v-17.951c0-.666-1.25-.5-1.25.082v17.868z" class="cls-6" transform="translate(-285.765 -228.879)"/>
                <path id="Path_1814" d="M334.618 312.2v2.548c0 .657 1.249.484 1.249-.086v-2.55c0-.655-1.249-.483-1.249.088z" class="cls-6" transform="translate(-285.594 -231.19)"/>
                <path id="Path_1815" d="M324.292 314.072a19.092 19.092 0 0 1-16.568-16.784c-.055-.423-1.291-.144-1.231.33a19.6 19.6 0 0 0 17.048 17.135c.401.055 1.446-.586.751-.681z" class="cls-6" transform="translate(-295.941 -236.565)"/>
                <path id="Path_1816" d="M319.7 313.26a7.5 7.5 0 0 1-3.2-.6c-.549-.23-1.429.558-.7.863a8.921 8.921 0 0 0 3.807.687c.708-.028.926-.978.093-.95z" class="cls-6" transform="translate(-292.62 -230.85)"/>
                <path id="Path_1817" d="M321.071 289.135c-2.722-.064-6.1-4.7-7.608-6.708-2.355-3.142-3.741-6.718-3.143-10.679.066-.431-1.168-.212-1.226.172-.643 4.25.934 8.079 3.55 11.385 1.833 2.316 4.695 6.395 7.934 6.471.428.011 1.322-.622.493-.641z" class="cls-6" transform="translate(-295.036 -245.971)"/>
                <path id="Path_1818" d="M319.813 280.06a4.717 4.717 0 0 1-3.831-3.987c-.031-.219-1.273.034-1.231.331a4.924 4.924 0 0 0 4.046 4.119 1.444 1.444 0 0 0 .859-.164c.082-.048.437-.25.157-.299z" class="cls-6" transform="translate(-292.903 -244.324)"/>
                <path id="Path_1819" d="M327.171 275.478v11.47c0 .3 1.231.1 1.231-.33v-11.47c-.002-.302-1.231-.095-1.231.33z" class="cls-6" transform="translate(-288.333 -244.686)"/>
                <path id="Path_1820" d="M334.39 273.307v4.461c0 .534 1.234.285 1.234-.144v-4.461c0-.534-1.234-.284-1.234.144z" class="cls-6" transform="translate(-285.677 -245.475)"/>
            </g>
            <path id="Path_1821" d="M144.032 318.785a2.814 2.814 0 0 0-2.814 2.814v.15a4.4 4.4 0 0 1-4.389 4.39h-1.651v-15.12a3.227 3.227 0 0 0-3.227-3.227 3.227 3.227 0 0 0-3.227 3.227v8.359a3.205 3.205 0 0 1-3.039-3.2v-.436a2.814 2.814 0 0 0-5.627 0v.436a8.839 8.839 0 0 0 8.667 8.827v7.433h-1.8a4.4 4.4 0 0 1-4.389-4.39 2.814 2.814 0 1 0-5.627 0 10.028 10.028 0 0 0 10.017 10.017h1.8v6.867a3.227 3.227 0 0 0 3.227 3.227 3.227 3.227 0 0 0 3.227-3.227v-13.17h1.651a10.028 10.028 0 0 0 10.017-10.017v-.15a2.814 2.814 0 0 0-2.816-2.81z" class="cls-6" transform="translate(3.861 54.065)"/>
            <g id="Group_2151" transform="translate(421.303 422.824)">
                <path id="Path_1822" d="M363.074 358.626a8.76 8.76 0 0 0-3.931.226c-.153.045-.338.093-.531.149a63.08 63.08 0 0 0 1.71-6.216.452.452 0 0 0-.622-.538 26.941 26.941 0 0 0-4.37 2.881c-.249-3.254-2.31-6.281-3.778-9.1a.451.451 0 0 0-.767-.051 22.265 22.265 0 0 0-2.964 6.988 10.464 10.464 0 0 0-.993-1.273c-.74-.808-2.369-2.457-3.591-2.183-1.316.294-.743 2.506-.672 3.425a32.717 32.717 0 0 0 .78 5.15 15.488 15.488 0 0 0-5.087 1.349c-1.691.791-2.287 1.31-.763 2.682 3.354 3.02 7.1 5.967 11.817 6.009l.016.015a.435.435 0 0 0 .179.09.5.5 0 0 0 .443.059 1.833 1.833 0 0 0 .728-.233c5.272-1.038 9.882-4.056 14.157-7.164 1.794-1.305-.401-2.034-1.761-2.265z" class="cls-7" transform="translate(-336.617 -345.783)"/>
                <path id="Path_1823" d="M363.074 358.626a8.76 8.76 0 0 0-3.931.226c-.153.045-.338.093-.531.149a63.08 63.08 0 0 0 1.71-6.216.452.452 0 0 0-.622-.538 26.941 26.941 0 0 0-4.37 2.881c-.249-3.254-2.31-6.281-3.778-9.1a.451.451 0 0 0-.767-.051 22.265 22.265 0 0 0-2.964 6.988 10.464 10.464 0 0 0-.993-1.273c-.74-.808-2.369-2.457-3.591-2.183-1.316.294-.743 2.506-.672 3.425a32.717 32.717 0 0 0 .78 5.15 15.488 15.488 0 0 0-5.087 1.349c-1.691.791-2.287 1.31-.763 2.682 3.354 3.02 7.1 5.967 11.817 6.009l.016.015a.435.435 0 0 0 .179.09.5.5 0 0 0 .443.059 1.833 1.833 0 0 0 .728-.233c5.272-1.038 9.882-4.056 14.157-7.164 1.794-1.305-.401-2.034-1.761-2.265zm-22.936 4.622a14.11 14.11 0 0 1-2.178-1.9c-.32-.406-.464-.245-.144-.7.172-.242.8-.408 1.055-.523a14.435 14.435 0 0 1 4.7-1.185c.016.057.03.116.047.174a19.355 19.355 0 0 0 2.941 6.075 15.4 15.4 0 0 1-5.2-4.12c-.081-.1-.427 0-.338.112a15.619 15.619 0 0 0 5.885 4.457 16.274 16.274 0 0 0 1.357 1.531 15.852 15.852 0 0 1-8.125-3.921zm9.54 3.465q-2.113-5.835-3.974-11.757c-.051-.163-.408-.093-.358.063q1.884 6.01 4.034 11.928a.173.173 0 0 0 .19.088.425.425 0 0 0-.081.083 14.775 14.775 0 0 1-1.132-1.118c.016-.03.008-.059-.053-.081l-.034-.012a17.125 17.125 0 0 1-3.346-5.633c-.227-.62-.414-1.252-.583-1.889a.418.418 0 0 0-.049-.179c-.217-.855-.394-1.721-.529-2.591q-.183-1.165-.283-2.342c-.042-.484-.074-.97-.1-1.455-.029-.52-.267-.962.308-1.129 1.228-.356 3 2.123 3.555 2.992a14.6 14.6 0 0 1 1.732 4.236c.287 1.122.566 2.314.755 3.525a.387.387 0 0 0 .029.19 13.641 13.641 0 0 1-.082 5.081zm1.13-7.062v-.35q0-.683.008-1.365.018-1.051.078-2.1c.077-1.4.211-2.795.388-4.184.023-.187-.338-.172-.36-.007-.207 1.622-.352 3.25-.423 4.885q-.045 1.067-.052 2.137a10.378 10.378 0 0 0-.036 1.211 30.59 30.59 0 0 0-1.072-3.831 14.768 14.768 0 0 0-.852-1.964 21.616 21.616 0 0 1 2.647-6.961c1.475 2.7 3.377 5.652 3.334 8.743a26.459 26.459 0 0 0-3.632 3.938.739.739 0 0 0-.029-.153zm-.306 7.475a11.006 11.006 0 0 0 .279-1.527 57.261 57.261 0 0 0 5.5-7.377c.108-.174-.246-.216-.334-.077a56.664 56.664 0 0 1-5.109 6.909 17.063 17.063 0 0 0-.139-3.543 25.716 25.716 0 0 1 4.351-4.983.4.4 0 0 0 .272-.234 25.854 25.854 0 0 1 3.907-2.77 35.937 35.937 0 0 1-1.718 5.979.939.939 0 0 0-.323.462.5.5 0 0 0 0 .234 11.111 11.111 0 0 1-.72 1.234 17.185 17.185 0 0 1-3.052 3.3c-.5.432-1.016.844-1.539 1.246-.17.132-.856.76-1.377 1.147zm13.361-6.63l-.968.68c-.878.611-1.763 1.212-2.666 1.788a31.226 31.226 0 0 1-7.861 3.763l.092-.074c.743-.572 1.469-1.167 2.157-1.8a63.346 63.346 0 0 1 6.19-4c.159-.089-.194-.092-.271-.048q-2.573 1.459-5 3.15.408-.423.789-.871a12.3 12.3 0 0 0 1.651-2.587.335.335 0 0 0 .163-.22l.018-.078a.491.491 0 0 0 .012-.105l.015-.036a8.374 8.374 0 0 1 3.035-.665 5.57 5.57 0 0 1 3.007.446l.4.114z" class="cls-5" transform="translate(-336.617 -345.783)"/>
            </g>
            <g id="Group_2152" transform="translate(141.014 433.381)">
                <path id="Path_1824" d="M158.165 366.344a8.747 8.747 0 0 0-3.933.227c-.153.044-.337.092-.529.148a62.772 62.772 0 0 0 1.708-6.214.452.452 0 0 0-.622-.539 26.872 26.872 0 0 0-4.369 2.881c-.249-3.254-2.31-6.281-3.778-9.1a.452.452 0 0 0-.769-.051 22.3 22.3 0 0 0-2.964 6.988 10.821 10.821 0 0 0-.992-1.273c-.74-.808-2.371-2.457-3.592-2.183-1.315.294-.741 2.506-.67 3.425a32.444 32.444 0 0 0 .78 5.151 15.438 15.438 0 0 0-5.088 1.349c-1.691.789-2.286 1.31-.762 2.682 3.354 3.019 7.1 5.965 11.816 6.009l.018.014a.435.435 0 0 0 .179.09.5.5 0 0 0 .443.059 1.8 1.8 0 0 0 .726-.233c5.273-1.038 9.882-4.056 14.159-7.164 1.794-1.31-.401-2.035-1.761-2.266z" class="cls-7" transform="translate(-131.708 -353.501)"/>
                <path id="Path_1825" d="M158.165 366.344a8.747 8.747 0 0 0-3.933.227c-.153.044-.337.092-.529.148a62.772 62.772 0 0 0 1.708-6.214.452.452 0 0 0-.622-.539 26.872 26.872 0 0 0-4.369 2.881c-.249-3.254-2.31-6.281-3.778-9.1a.452.452 0 0 0-.769-.051 22.3 22.3 0 0 0-2.964 6.988 10.821 10.821 0 0 0-.992-1.273c-.74-.808-2.371-2.457-3.592-2.183-1.315.294-.741 2.506-.67 3.425a32.444 32.444 0 0 0 .78 5.151 15.438 15.438 0 0 0-5.088 1.349c-1.691.789-2.286 1.31-.762 2.682 3.354 3.019 7.1 5.965 11.816 6.009l.018.014a.435.435 0 0 0 .179.09.5.5 0 0 0 .443.059 1.8 1.8 0 0 0 .726-.233c5.273-1.038 9.882-4.056 14.159-7.164 1.794-1.31-.401-2.035-1.761-2.266zm-22.936 4.622a14.129 14.129 0 0 1-2.179-1.9c-.319-.408-.462-.246-.142-.7.171-.242.8-.408 1.055-.523a14.462 14.462 0 0 1 4.7-1.185l.048.174a19.341 19.341 0 0 0 2.941 6.075 15.374 15.374 0 0 1-5.2-4.12c-.082-.1-.427 0-.338.112a15.6 15.6 0 0 0 5.883 4.457 16.676 16.676 0 0 0 1.357 1.531 15.847 15.847 0 0 1-8.125-3.921zm9.54 3.465q-2.113-5.833-3.974-11.757c-.051-.161-.409-.093-.36.064q1.886 6.008 4.034 11.928a.177.177 0 0 0 .191.088.355.355 0 0 0-.081.082 14.549 14.549 0 0 1-1.133-1.116c.016-.029.01-.059-.053-.081l-.033-.012a17.152 17.152 0 0 1-3.347-5.633c-.226-.62-.414-1.252-.581-1.888a.437.437 0 0 0-.049-.181c-.219-.855-.394-1.721-.531-2.591q-.181-1.165-.283-2.342c-.042-.484-.074-.97-.1-1.455-.029-.518-.268-.962.308-1.128 1.228-.356 3 2.123 3.554 2.993a14.635 14.635 0 0 1 1.733 4.235c.286 1.122.566 2.315.754 3.525a.4.4 0 0 0 .029.191 13.635 13.635 0 0 1-.079 5.078zm1.128-7.061v-.352c0-.454 0-.91.008-1.365q.018-1.051.077-2.1c.078-1.4.212-2.793.388-4.184.025-.187-.338-.171-.358-.007-.207 1.622-.353 3.25-.423 4.885q-.047 1.067-.052 2.137a10.366 10.366 0 0 0-.037 1.211 30.279 30.279 0 0 0-1.071-3.83 14.625 14.625 0 0 0-.854-1.964 21.626 21.626 0 0 1 2.648-6.962c1.473 2.7 3.376 5.652 3.332 8.743a26.594 26.594 0 0 0-3.63 3.938.73.73 0 0 0-.025-.15zm-.305 7.474a11.2 11.2 0 0 0 .278-1.526 56.92 56.92 0 0 0 5.5-7.377c.108-.174-.246-.216-.334-.077a56.523 56.523 0 0 1-5.109 6.909 17.166 17.166 0 0 0-.138-3.543 25.8 25.8 0 0 1 4.351-4.983.4.4 0 0 0 .271-.233 25.665 25.665 0 0 1 3.907-2.77 35.662 35.662 0 0 1-1.718 5.978.925.925 0 0 0-.321.464.5.5 0 0 0-.005.234 10.808 10.808 0 0 1-.719 1.232 17.183 17.183 0 0 1-3.05 3.306c-.5.431-1.016.843-1.54 1.246-.165.125-.855.754-1.373 1.14zm13.36-6.63q-.482.341-.968.68c-.877.611-1.762 1.213-2.665 1.788a31.154 31.154 0 0 1-7.861 3.763l.092-.074c.743-.572 1.468-1.167 2.157-1.8a63.033 63.033 0 0 1 6.19-4c.157-.089-.2-.09-.271-.048q-2.575 1.459-5 3.15c.271-.282.535-.57.788-.871a12.363 12.363 0 0 0 1.652-2.587.341.341 0 0 0 .163-.22l.018-.078a.581.581 0 0 0 .012-.105l.014-.036a8.432 8.432 0 0 1 3.037-.665 5.585 5.585 0 0 1 3.007.446l.4.114z" class="cls-5" transform="translate(-131.708 -353.501)"/>
            </g>
            <g id="Group_2155" transform="translate(276.053 390.959)">
                <g id="Group_2153" transform="translate(8.186)">
                    <path id="Path_1826" d="M279.1 343.747a14.1 14.1 0 0 0-6.34.17c-.248.064-.546.131-.86.212a101.055 101.055 0 0 0 3.06-9.917.727.727 0 0 0-.975-.9 43.227 43.227 0 0 0-7.174 4.418c-.241-5.249-3.407-10.224-5.63-14.836a.727.727 0 0 0-1.234-.12 35.973 35.973 0 0 0-5.117 11.1 16.947 16.947 0 0 0-1.533-2.1c-1.15-1.336-3.692-4.071-5.671-3.691-2.131.408-1.319 4-1.249 5.478a52.479 52.479 0 0 0 1 8.328 24.892 24.892 0 0 0-8.255 1.919c-2.759 1.187-3.744 2-1.36 4.279 5.248 5.026 11.124 9.953 18.719 10.255l.026.025a.684.684 0 0 0 .283.153.816.816 0 0 0 .711.118 2.93 2.93 0 0 0 1.182-.339c8.536-1.41 16.1-6.036 23.14-10.827 2.952-2.004-.544-3.285-2.723-3.725z" class="cls-7" transform="translate(-236.414 -322.488)"/>
                    <path id="Path_1827" d="M279.1 343.747a14.1 14.1 0 0 0-6.34.17c-.248.064-.546.131-.86.212a101.055 101.055 0 0 0 3.06-9.917.727.727 0 0 0-.975-.9 43.227 43.227 0 0 0-7.174 4.418c-.241-5.249-3.407-10.224-5.63-14.836a.727.727 0 0 0-1.234-.12 35.973 35.973 0 0 0-5.117 11.1 16.947 16.947 0 0 0-1.533-2.1c-1.15-1.336-3.692-4.071-5.671-3.691-2.131.408-1.319 4-1.249 5.478a52.46 52.46 0 0 0 1 8.328 24.892 24.892 0 0 0-8.255 1.919c-2.759 1.187-3.744 2-1.36 4.279 5.248 5.026 11.124 9.953 18.719 10.255l.026.025a.684.684 0 0 0 .283.153.816.816 0 0 0 .711.118 2.93 2.93 0 0 0 1.182-.339c8.536-1.41 16.1-6.036 23.14-10.827 2.952-2.004-.544-3.285-2.723-3.725zm-37.142 6.3a22.776 22.776 0 0 1-3.41-3.164c-.494-.67-.735-.417-.2-1.131.287-.38 1.3-.616 1.722-.788a23.256 23.256 0 0 1 7.62-1.674c.023.094.042.189.067.282a31.129 31.129 0 0 0 4.432 9.923 24.787 24.787 0 0 1-8.17-6.889c-.126-.164-.688-.016-.549.164a25.126 25.126 0 0 0 9.248 7.463 26.388 26.388 0 0 0 2.108 2.531c-4.906-.707-9.126-3.448-12.867-6.715zm15.182 6.05q-3.115-9.5-5.813-19.117c-.074-.264-.652-.17-.581.083q2.737 9.763 5.9 19.4a.276.276 0 0 0 .3.149.679.679 0 0 0-.135.13 23.733 23.733 0 0 1-1.766-1.852c.029-.047.018-.1-.082-.133l-.052-.022a27.578 27.578 0 0 1-5.108-9.232c-.334-1.007-.6-2.033-.843-3.067a.713.713 0 0 0-.07-.291c-.309-1.387-.548-2.79-.725-4.2-.157-1.256-.268-2.518-.341-3.782-.044-.781-.071-1.565-.09-2.347-.019-.837-.382-1.561.551-1.8 2-.512 4.727 3.565 5.573 4.991a23.544 23.544 0 0 1 2.578 6.9c.406 1.819.8 3.752 1.04 5.709a.636.636 0 0 0 .037.309 21.981 21.981 0 0 1-.372 8.175zm2.167-11.31l.011-.564q.027-1.1.081-2.2.084-1.691.228-3.376c.194-2.249.479-4.487.833-6.716.048-.3-.535-.293-.577-.029-.413 2.6-.729 5.214-.923 7.841q-.127 1.715-.189 3.435a16.654 16.654 0 0 0-.119 1.948 48.617 48.617 0 0 0-1.535-6.218 23.663 23.663 0 0 0-1.275-3.2 34.827 34.827 0 0 1 4.6-11.073c2.239 4.417 5.155 9.263 4.932 14.235a42.781 42.781 0 0 0-6.039 6.158 1.242 1.242 0 0 0-.027-.238zm-.863 12.014a17.936 17.936 0 0 0 .525-2.443 92.1 92.1 0 0 0 9.211-11.6c.183-.273-.386-.36-.534-.139a91.012 91.012 0 0 1-8.564 10.865 27.493 27.493 0 0 0-.048-5.708 41.478 41.478 0 0 1 7.25-7.8.638.638 0 0 0 .447-.361 41.431 41.431 0 0 1 6.425-4.265 57.591 57.591 0 0 1-3.061 9.535 1.492 1.492 0 0 0-.54.73.808.808 0 0 0-.021.376 17.629 17.629 0 0 1-1.217 1.948 27.758 27.758 0 0 1-5.073 5.169c-.826.669-1.678 1.306-2.54 1.929-.269.194-1.404 1.17-2.259 1.763zm21.83-10.009q-.794.525-1.591 1.046c-1.443.94-2.9 1.864-4.379 2.745a50.269 50.269 0 0 1-12.837 5.667c.051-.04.1-.078.151-.114 1.224-.884 2.421-1.806 3.562-2.793a101.79 101.79 0 0 1 10.158-6.132c.26-.137-.309-.157-.434-.092q-4.214 2.22-8.2 4.823c.451-.44.89-.893 1.312-1.364a19.955 19.955 0 0 0 2.788-4.08.554.554 0 0 0 .272-.346l.033-.126a.751.751 0 0 0 .023-.17l.026-.055c.963-.687 4.2-.911 4.919-.921 1.336-.019 3.736.012 4.818.867l.644.2q-.631.429-1.264.853z" class="cls-5" transform="translate(-236.414 -322.488)"/>
                </g>
                <g id="Group_2154" transform="translate(0 7.056)">
                    <path id="Path_1828" d="M261.751 338.451a11.218 11.218 0 0 0-4.689 1.87c-.167.116-.372.249-.584.4a80.489 80.489 0 0 0-.442-8.25.579.579 0 0 0-.975-.4 34.4 34.4 0 0 0-4.143 5.274c-1.624-3.856-5.358-6.7-8.287-9.534a.578.578 0 0 0-.955.249 28.606 28.606 0 0 0-.769 9.7 13.8 13.8 0 0 0-1.722-1.146c-1.227-.681-3.878-2.023-5.251-1.2-1.48.891.113 3.347.573 4.436a41.787 41.787 0 0 0 3.037 5.945 19.828 19.828 0 0 0-5.637 3.7c-1.736 1.646-2.249 2.52.16 3.57 5.3 2.31 11.047 4.374 16.8 2.511l.027.011a.536.536 0 0 0 .253.037.647.647 0 0 0 .564-.108 2.335 2.335 0 0 0 .789-.577c5.989-3.4 10.368-8.939 14.307-14.452 1.657-2.311-1.307-2.307-3.056-2.036z" class="cls-7" transform="translate(-230.43 -327.646)"/>
                    <path id="Path_1829" d="M261.751 338.451a11.218 11.218 0 0 0-4.689 1.87c-.167.116-.372.249-.584.4a80.489 80.489 0 0 0-.442-8.25.579.579 0 0 0-.975-.4 34.4 34.4 0 0 0-4.143 5.274c-1.624-3.856-5.358-6.7-8.287-9.534a.578.578 0 0 0-.955.249 28.606 28.606 0 0 0-.769 9.7 13.8 13.8 0 0 0-1.722-1.146c-1.227-.681-3.878-2.023-5.251-1.2-1.48.891.113 3.347.573 4.436a41.787 41.787 0 0 0 3.037 5.945 19.828 19.828 0 0 0-5.637 3.7c-1.736 1.646-2.249 2.52.16 3.57 5.3 2.31 11.047 4.374 16.8 2.511l.027.011a.536.536 0 0 0 .253.037.647.647 0 0 0 .564-.108 2.335 2.335 0 0 0 .789-.577c5.989-3.4 10.368-8.939 14.307-14.452 1.657-2.311-1.307-2.307-3.056-2.036zm-26.01 14.922a18.152 18.152 0 0 1-3.418-1.425c-.553-.364-.662-.109-.457-.791.111-.365.806-.819 1.071-1.063a18.469 18.469 0 0 1 5.231-3.346c.042.063.083.129.127.192a24.765 24.765 0 0 0 6.04 6.192 19.74 19.74 0 0 1-8-2.9c-.14-.088-.518.178-.365.275a20.019 20.019 0 0 0 8.961 3.03 20.917 20.917 0 0 0 2.271 1.31c-3.862.824-7.772-.063-11.461-1.474zm13 .343q-4.937-6.235-9.6-12.682c-.129-.176-.535.053-.412.223q4.729 6.539 9.743 12.865a.222.222 0 0 0 .267.029.485.485 0 0 0-.064.134 18.883 18.883 0 0 1-1.829-.9c.008-.044-.014-.077-.1-.078h-.045a21.967 21.967 0 0 1-6.354-5.491c-.527-.661-1.011-1.353-1.473-2.059a.545.545 0 0 0-.133-.2c-.611-.952-1.176-1.934-1.695-2.935q-.7-1.344-1.294-2.732c-.249-.572-.484-1.149-.714-1.729-.245-.62-.714-1.061-.083-1.5 1.35-.93 4.513 1.362 5.536 2.2a18.732 18.732 0 0 1 3.825 4.447c.8 1.248 1.626 2.584 2.347 3.979a.476.476 0 0 0 .112.22 17.5 17.5 0 0 1 1.971 6.209zm-1.492-9.043l-.146-.425q-.281-.829-.544-1.663-.4-1.284-.758-2.585c-.473-1.733-.877-3.483-1.224-5.244-.048-.238-.481-.072-.44.137.408 2.056.89 4.1 1.468 6.11q.378 1.315.8 2.618a13.494 13.494 0 0 0 .447 1.487 39.059 39.059 0 0 0-2.852-4.224 18.943 18.943 0 0 0-1.834-2.042 27.709 27.709 0 0 1 .4-9.537c2.886 2.682 6.4 5.5 7.6 9.277a34.084 34.084 0 0 0-2.818 6.261.887.887 0 0 0-.095-.17zm2.66 9.211a14.43 14.43 0 0 0-.28-1.97 73.234 73.234 0 0 0 3.691-11.2c.062-.254-.387-.163-.438.042a72.425 72.425 0 0 1-3.407 10.471 21.915 21.915 0 0 0-1.606-4.25 33 33 0 0 1 3.268-7.824.5.5 0 0 0 .235-.393 32.944 32.944 0 0 1 3.628-4.948 45.914 45.914 0 0 1 .336 7.964 1.2 1.2 0 0 0-.2.693.64.64 0 0 0 .089.287 13.876 13.876 0 0 1-.375 1.791 22.009 22.009 0 0 1-2.368 5.255c-.432.728-.893 1.439-1.366 2.141-.149.219-.729 1.257-1.202 1.941zm13.553-13.48q-.449.611-.9 1.219c-.819 1.1-1.651 2.19-2.514 3.255a40.029 40.029 0 0 1-8.032 7.764l.082-.127c.672-1 1.312-2.015 1.893-3.065a81.117 81.117 0 0 1 5.9-7.376c.156-.172-.275-.031-.349.052q-2.538 2.817-4.8 5.857c.216-.453.42-.911.6-1.379a15.882 15.882 0 0 0 .96-3.815.442.442 0 0 0 .108-.334l-.011-.1a.653.653 0 0 0-.027-.133v-.048c.531-.777 2.883-1.834 3.421-2.041.993-.382 2.793-1.018 3.837-.677l.538-.026z" class="cls-5" transform="translate(-230.43 -327.646)"/>
                </g>
            </g>
            <g id="Group_2157" transform="translate(333.705 383.758)">
                <g id="Group_2156">
                    <path id="Path_1830" d="M320.949 324.55a26.53 26.53 0 0 1-11.271 17.975.609.609 0 0 0-.59.183c-1.847-.745-2.7-3-3.794-4.589a7.508 7.508 0 0 0-3.427-2.732c-.28-.123-.566-.241-.849-.367a47.685 47.685 0 0 0 19.931-10.47z" class="cls-7" transform="translate(-262.115 -314.528)"/>
                    <path id="Path_1831" d="M273.532 330.316c-.269-3.773-.17-8.619 1.888-11.983a15.441 15.441 0 0 1 .276 3.048 23.518 23.518 0 0 0 .413 2.366 17.116 17.116 0 0 0 2.02 5.108 12.374 12.374 0 0 0 6.982 5.5 26.568 26.568 0 0 0-5.8 6.868c-3.746-2.35-5.472-6.61-5.779-10.907z" class="cls-7" transform="translate(-272.266 -316.815)"/>
                    <path id="Path_1832" d="M318.228 352.7c-.8 1.2-2.21 3.544-3.6 4.183-1.438.662-1.977-.756-3.3-.57-2.5.353-2.282 3.831-3.1 5.518-1.484 3.071-4.6 5.548-7.133 7.733-.86.74-3.811 3.874-4.79 3.012-.1-.085-.2-.808-.3-.983a2.415 2.415 0 0 0-.706-.717 3.383 3.383 0 0 0-4.425.811 8.791 8.791 0 0 0-1.462 3.117c-.466 1.423-.854 1.681-2.4 1.81a28.371 28.371 0 0 1-2.892-.067c-1.87-.044-3.751-.031-5.618-.133-1.066-.057-3.578-.633-4.314-1.808a.576.576 0 0 0 .112-.294 11.843 11.843 0 0 1 .3-1.7l.012-.016a.537.537 0 0 0 .127-.525c.866-3.031 2.621-5.8 2.979-8.983.46-4.091-1.4-8.1-1.347-12.222a26.044 26.044 0 0 1 9.936-20.027.438.438 0 0 0 .182-.462 8.305 8.305 0 0 1 4.985-1.853c1.9-.055 3.355.722 5.052 1.419 3 1.232 6.218-.114 9.182.921 1.554.542 2.145 2.174 3.454 3.05 1.61 1.079 3.48 1.332 4.742 2.935 1.726 2.191 2.651 5.255 5.677 5.718 2.584 2.917.543 7.267-1.353 10.133z" class="cls-7" transform="translate(-271.985 -313.068)"/>
                    <path id="Path_1833" d="M332.7 325.828c.048-.51-.629-.7-.955-.4a46.6 46.6 0 0 1-21.69 11.476c-.094-.075-.186-.153-.274-.238-.626-.6-1.012-1.379-1.693-1.93a6.031 6.031 0 0 0-3.547-1.145c-1.714-.089-3.435.209-5.143-.023-1.81-.248-3.3-1.375-5.068-1.785a9.427 9.427 0 0 0-8.157 2.039.565.565 0 0 0-.085-.031c-3.991-1.042-6.765-4.273-8.068-8.088a22.435 22.435 0 0 1-1.068-5.842c-.066-1.038-.03-1.952-.971-2.562a.573.573 0 0 0-.766.2c-2.815 3.794-2.944 10.065-2.358 14.551.553 4.242 2.52 8.258 6.212 10.559a27.306 27.306 0 0 0-3.152 10.746 25.274 25.274 0 0 0 .16 5.4c.345 2.514 1.257 4.987 1.176 7.548-.111 3.511-2.1 6.562-3.039 9.892a3.137 3.137 0 0 0 .438 4.079c1.825 1.845 5.2 1.427 7.53 1.481 1.807.041 3.614.094 5.421.124.943.015 1.938.126 2.633-.637.721-.793.815-2.057 1.183-3.016a4.113 4.113 0 0 1 1.629-2.241 1.877 1.877 0 0 1 1.4-.3c1.031.168 1.031.569 1.354 1.558.668 2.042 2.309.758 3.53-.181a69.145 69.145 0 0 0 7.527-6.655 14.28 14.28 0 0 0 3.864-6.968 3.306 3.306 0 0 1 .387-1.134c1.847-2.2 1.361-.423 2.076-.1a5.038 5.038 0 0 0 .706.4c1.131.313 2.093-.732 2.8-1.431 3.387-3.347 8.267-10.508 4.5-15a.622.622 0 0 0-.093-.271 27.693 27.693 0 0 0 11.601-20.075zm-58.858 4.9c-.269-3.773-.17-8.619 1.888-11.982a15.443 15.443 0 0 1 .276 3.048 23.528 23.528 0 0 0 .413 2.366 17.117 17.117 0 0 0 2.02 5.108 12.374 12.374 0 0 0 6.982 5.5 26.6 26.6 0 0 0-5.8 6.868c-3.745-2.355-5.471-6.614-5.778-10.912zm44.977 26.128c-.8 1.2-2.21 3.544-3.6 4.183-1.438.662-1.977-.756-3.3-.57-2.5.353-2.282 3.831-3.1 5.518-1.484 3.071-4.6 5.548-7.133 7.733-.86.74-3.811 3.874-4.79 3.012-.1-.085-.2-.808-.3-.984a2.415 2.415 0 0 0-.706-.717 3.383 3.383 0 0 0-4.425.811 8.792 8.792 0 0 0-1.462 3.117c-.275.84-.528 1.268-1 1.509a.464.464 0 0 0-.458-.056l-1.765-.393c-.015-.394-.014-.786.007-1.179a2.538 2.538 0 0 0-.074-.788c-.042-.242-.763-.071-.718.193l.026.933q-1.524 2.327-2.453.635c-.635-.744-.509-.917-.487-1.847.007-.3-.658-.131-.719.09-.271.992-.825 2.931-2.414 2.377-1.353-.471-.631-1.845-.338-2.74.1-.3-.61-.055-.694.038-.29.324-.286.721-.524 1.023-1.328 1.692-2.4 1.49-3.2-.118-.047-.094-.179-.118-.32-.1a.416.416 0 0 0 .018-.074 11.842 11.842 0 0 1 .3-1.7l.012-.016a.537.537 0 0 0 .127-.525c.866-3.031 2.621-5.8 2.979-8.983.46-4.091-1.4-8.1-1.347-12.222a26.044 26.044 0 0 1 9.936-20.027.438.438 0 0 0 .182-.462 8.315 8.315 0 0 1 4.985-1.855c1.9-.053 3.355.724 5.052 1.42 3 1.232 6.218-.114 9.182.921 1.554.542 2.145 2.174 3.454 3.05 1.61 1.079 3.48 1.332 4.742 2.935 1.726 2.191 2.651 5.255 5.677 5.718 2.586 2.923.547 7.273-1.351 10.136zm1.32-11.631a.609.609 0 0 0-.59.183c-1.847-.745-2.7-3-3.794-4.589a7.5 7.5 0 0 0-3.427-2.732c-.28-.123-.566-.241-.849-.367a47.685 47.685 0 0 0 19.931-10.471 26.53 26.53 0 0 1-11.27 17.972z" class="cls-5" transform="translate(-272.577 -317.223)"/>
                    <path id="Path_1834" d="M302.894 342.595a7.371 7.371 0 1 0 0 .232.52.52 0 0 0 .01-.116.526.526 0 0 0-.01-.116zm-5.874 2.514a6.527 6.527 0 0 0 .859-2.763.507.507 0 0 0-.078-.334c.044-.182.085-.367.123-.551a7.659 7.659 0 0 1-1.045 4.08c.05-.141.098-.288.141-.432zm-1.487-8.835a6.307 6.307 0 0 1 .81.056.469.469 0 0 0 .052.482c.026.037.048.077.073.114a.476.476 0 0 0-.133.2 2.122 2.122 0 0 0-1.055-.84c.085-.003.167-.012.253-.012zm.286 8.555l.015.01-.093.264a3.641 3.641 0 0 1-.555.61q.326-.438.633-.884zm-5.35-3.9l-.089.285a.547.547 0 0 0-.15.356v.051l-.005.018a1.1 1.1 0 0 0-.16-.008 4.873 4.873 0 0 1 .42-.736c-.006.012-.011.023-.015.035zm-.787-.86a6.583 6.583 0 0 1 2.318-2.713 17.731 17.731 0 0 0-2.317 2.714zm2.741-1.358l-.038.01a3.179 3.179 0 0 1 .352-.321l.021.23-.138.083a.719.719 0 0 0-.196-.002zm.721 9.415a2.577 2.577 0 0 1-.477-.227.631.631 0 0 0 .146-.316 1.806 1.806 0 0 0 .391-.025l-.063.362a.608.608 0 0 0 .004.206zm1.957 1c1.667-.874 3.005-3.231 3.51-4.689a9.114 9.114 0 0 0-1.007-7.815 6.258 6.258 0 0 1 1.812.992.35.35 0 0 0 .011.17 12.538 12.538 0 0 1-1.672 10.8.348.348 0 0 0-.063.186 6.33 6.33 0 0 1-2.161.382c-.143-.004-.285-.016-.431-.026zm3.786-.944a13.193 13.193 0 0 0 1.509-9.623 6.86 6.86 0 0 1 1.573 4.151 6.736 6.736 0 0 1-3.08 5.473z" class="cls-5" transform="translate(-266.844 -310.558)"/>
                </g>
                <path id="Path_1835" d="M295.228 350.943a10.224 10.224 0 0 1-7.835-10.742c.022-.342-.706-.223-.724.068a10.576 10.576 0 0 0 8.133 11.119c.277.071.85-.34.426-.445z" class="cls-5" transform="translate(-267.402 -308.847)"/>
                <path id="Path_1836" d="M298.648 352.316a30.763 30.763 0 0 0-2.529 3.647 14.222 14.222 0 0 1-4.276 4.027c-.293.2.42.105.55.018a15.666 15.666 0 0 0 3.581-2.983c1.231-1.506 2.026-3.3 3.324-4.764.142-.161-.534-.077-.65.055z" class="cls-5" transform="translate(-265.516 -304.366)"/>
                <path id="Path_1837" d="M300.441 348.428a.64.64 0 0 0-.507.137l-.8.681c-.12.1-.071.2.063.238a.643.643 0 0 0 .509-.137l.8-.681c.12-.103.07-.198-.065-.238z" class="cls-5" transform="translate(-262.832 -305.748)"/>
                <path id="Path_1838" d="M307.065 344.426a8.324 8.324 0 0 1-3.071 4.612c-.317.241.4.234.573.1a8.723 8.723 0 0 0 3.215-4.811c.063-.24-.656-.135-.717.099z" class="cls-5" transform="translate(-261.05 -307.302)"/>
                <path id="Path_1839" d="M285.055 358.277a9.835 9.835 0 0 1-.869-4.1c-.011-.911.246-2.108-.256-2.938a2.182 2.182 0 0 0-2.73-.639c-1.417.606-1.862 2.143-2.082 3.537a20.208 20.208 0 0 1-2.535 7.756.564.564 0 0 0-.375.053c-.9.559-.439 1.475.461 1.721 1.981.543 3.975-.579 5.878-.378 1.2.127 2.416 1.4 3.51.114 1.259-1.478-.379-3.751-1.002-5.126z" class="cls-5" transform="translate(-271.422 -305.022)"/>
                <path id="Path_1840" d="M277.881 333.874a6.769 6.769 0 0 1-2.485-6.361c.026-.171-.683-.048-.71.127a6.864 6.864 0 0 0 2.518 6.478c.153.124.785-.158.677-.244z" class="cls-5" transform="translate(-271.833 -313.468)"/>
                <path id="Path_1841" d="M307.968 336.435c-1.834-.814-2.172-3.718-4.384-3.836-.168-.008-.823.3-.46.315 2 .107 2.522 3.045 4.257 3.814.164.072.819-.191.587-.293z" class="cls-5" transform="translate(-261.38 -311.567)"/>
                <path id="Path_1842" d="M288.191 347.991a11.682 11.682 0 0 1-2.2-5.377c-.042-.291-.763-.118-.72.193a11.986 11.986 0 0 0 2.256 5.485c.173.231.864-.031.664-.301z" class="cls-5" transform="translate(-267.908 -307.937)"/>
                <path id="Path_1843" d="M282.1 347.819l-.237-.238c-.157-.156-.832.107-.672.267l.237.237c.155.155.829-.107.672-.266z" class="cls-5" transform="translate(-269.418 -306.073)"/>
                <path id="Path_1844" d="M285.049 356.96a5.938 5.938 0 0 1-1.449-3.867c0-.4-.733-.3-.732.045a6.382 6.382 0 0 0 1.525 4.147c.227.267.907-.031.656-.325z" class="cls-5" transform="translate(-268.792 -304.123)"/>
                <path id="Path_1845" d="M283.928 333.558a27.86 27.86 0 0 0-7.418 14.189c-.01.045.678.016.718-.191a27.673 27.673 0 0 1 7.347-14.067c.125-.135-.531-.05-.647.069z" class="cls-5" transform="translate(-271.131 -311.265)"/>
                <path id="Path_1846" d="M291.321 330.964a6.474 6.474 0 0 0-4.619-1.072c-.177.025-.778.334-.316.272a5.952 5.952 0 0 1 4.255 1.04c.159.109.759-.183.68-.24z" class="cls-5" transform="translate(-267.561 -312.587)"/>
                <path id="Path_1847" d="M312.963 330.209q-1.315 1.652-2.632 3.3c-.207.259.517.223.673.029l2.632-3.3c.206-.259-.519-.224-.673-.029z" class="cls-5" transform="translate(-258.703 -312.503)"/>
                <path id="Path_1848" d="M307.545 331.706l-.475.475c-.294.294.409.278.575.112l.475-.475c.293-.293-.41-.278-.575-.112z" class="cls-5" transform="translate(-259.915 -311.939)"/>
            </g>
        </g>
        <path id="Path_1759" fill="url(#linear-gradient-2)" d="M1215.351 572.071c-33.008-25.967-123.184-57.715-219.207-57.715-78.995 0-159.349 13.718-208.269 30.042v164.216h428z" transform="translate(-787.874 -57.355)"/>
    </g>
</svg>
