<svg xmlns="http://www.w3.org/2000/svg" width="475.137" height="357.781" viewBox="0 0 475.137 357.781">
    <defs>
        <linearGradient id="linear-gradient" x1=".5" x2=".5" y2="1" gradientUnits="objectBoundingBox">
            <stop offset="0" stop-color="#f3f7fa"/>
            <stop offset="1" stop-color="#fff"/>
        </linearGradient>
        <style>
            .cls-2{fill:#eb9481}.cls-3{fill:#fff}.cls-4{fill:#273d4c}.cls-5{fill:#263238}.cls-6{fill:#30cf87}.cls-7{fill:#37474f}.cls-8{fill:#dbdbdb}.cls-9{fill:#ea7267}.cls-12,.cls-14{opacity:.2}.cls-13{fill:#a6a6a6}.cls-15{fill:#ad6359}.cls-16{fill:#97a7b2}
        </style>
    </defs>
    <g id="_404_Error_Page_not_Found_with_people_connecting_a_plug-cuate" transform="translate(23.569 -107.654)">
        <path id="Path_1850" fill="url(#linear-gradient)" d="M0 395.319s71.119-52.542 214.4-52.542c138.454 0 214.015 52.542 214.015 52.542v60.116H0z" transform="translate(0 10)"/>
        <g id="freepik--character-2--inject-18" transform="translate(200.101 107.653)">
            <path id="Path_1373" d="M277.426 444.826c1.979.666 58.619.866 60.788-.495.828-.514 1.332-8.761 1.665-18.741.076-2.159.133-4.385.19-6.659l4.585-30.2-37.862-.247-3.576 30.216.143 6.659s-21.718 9.627-23.935 11.368-3.967 7.423-1.998 8.099z" class="cls-2" transform="translate(-237.139 -145.417)"/>
            <path id="Path_1374" d="M277.426 446.373c1.979.666 58.619.866 60.788-.495 1-.628 1.551-12.671 1.855-25.39l-36.853-.228.143 6.659s-21.718 9.627-23.935 11.368-3.967 7.413-1.998 8.086z" class="cls-3" transform="translate(-237.139 -146.965)"/>
            <path id="Path_1375" d="M277.426 446.713c1.979.666 58.619.866 60.788-.495.828-.514 1.332-8.761 1.665-18.741l-36.52-.238s-21.718 9.627-23.935 11.368-3.967 7.431-1.998 8.106z" class="cls-4" transform="translate(-237.139 -147.305)"/>
            <path id="Path_1376" d="M278.332 445.325c9.513-.2 47.813-.114 57.211.409.076 0 .076.057 0 .067-9.408.4-47.727 0-57.221-.323-.199-.01-.19-.153.01-.153z" class="cls-5" transform="translate(-237.217 -148.181)"/>
            <path id="Path_1377" d="M283.408 437.06a7.61 7.61 0 0 1 5.708 2.34 7.42 7.42 0 0 1 2.112 5.08c0 .057-.114.057-.124 0a8.8 8.8 0 0 0-7.61-7.3.075.075 0 1 1-.086-.124z" class="cls-5" transform="translate(-237.47 -147.783)"/>
            <path id="Path_1378" d="M300.845 428.22c3.805 0 8.2 1.322 10.55 4.433.1.124-.076.247-.19.19a53.1 53.1 0 0 0-10.464-4.157.239.239 0 0 1 .1-.466z" class="cls-5" transform="translate(-238.307 -147.352)"/>
            <path id="Path_1379" d="M297.757 429.41c3.805 0 8.2 1.322 10.55 4.443.1.114-.076.247-.19.181a52.26 52.26 0 0 0-10.464-4.148.247.247 0 0 1 .1-.476z" class="cls-5" transform="translate(-238.158 -147.411)"/>
            <path id="Path_1380" d="M294.665 430.61c3.805-.048 8.2 1.313 10.559 4.433.086.114-.086.247-.2.19a51.718 51.718 0 0 0-10.464-4.157.239.239 0 0 1 .1-.466z" class="cls-5" transform="translate(-238.006 -147.469)"/>
            <path id="Path_1381" d="M291.575 431.8c3.805 0 8.21 1.313 10.559 4.433.086.114-.086.247-.2.19a51.719 51.719 0 0 0-10.464-4.157.239.239 0 1 1 .1-.466z" class="cls-5" transform="translate(-237.855 -147.527)"/>
            <path id="Path_1382" d="M335.836 436.27c4.271 0 4.233 6.659 0 6.659s-4.3-6.688 0-6.659z" class="cls-6" transform="translate(-239.869 -147.745)"/>
            <path id="Path_1383" d="M296.81 423.081c2.036 2.654 5.156 4.338 7.858 6.212a.466.466 0 0 0 .685-.3.1.1 0 0 0 .114-.1 19.92 19.92 0 0 0-3.415-9.732c-1.18-1.665-3.6-3.225-5.527-1.636s-.913 4.015.285 5.556zm-.171-3.149c.4-4.129 4.119-.951 4.937.314a22.227 22.227 0 0 1 1.379 2.568 60.127 60.127 0 0 1 2.121 5.641c-1.265-1.008-2.616-1.9-3.919-2.854-1.55-1.131-4.727-3.385-4.518-5.669z" class="cls-5" transform="translate(-238.058 -146.799)"/>
            <path id="Path_1384" d="M319.443 426.859c-.285-2.483-3.12-3.025-5.118-2.654a20.035 20.035 0 0 0-9.209 4.642.1.1 0 0 0 0 .162.457.457 0 0 0 .276.694c3.253.514 6.659 1.475 9.979.951 1.941-.266 4.348-1.446 4.072-3.795zm-8.952 2.616c-1.608-.209-3.187-.5-4.756-.656a53.56 53.56 0 0 1 5.432-2.6 21.964 21.964 0 0 1 2.778-.894c1.465-.333 6.355-.057 3.805 3.2-1.494 1.787-5.35 1.188-7.259.95z" class="cls-5" transform="translate(-238.525 -147.152)"/>
            <path id="Path_1385" d="M401.4 241.94s-43.977 74.81-45.157 80.06c-1.807 8.077-11.416 87.776-11.416 87.776l-45.758-.818s7.886-70.282 15.354-93.427c5.384-16.676 44.188-71.985 44.188-71.985z" class="cls-7" transform="translate(-238.234 -138.281)"/>
            <path id="Path_1386" d="M303.454 410.126c6.574-.048 29.861-.3 38.6.5a.067.067 0 1 1 0 .133c-3.006.428-32.03-.247-38.6-.457a.1.1 0 1 1 0-.181z" class="cls-5" transform="translate(-238.442 -146.468)"/>
            <path id="Path_1387" d="M396.027 249.158c-2.854 4.519-5.927 8.942-8.876 13.423s-5.879 8.971-8.781 13.489q-8.685 13.528-16.971 27.3a84.116 84.116 0 0 0-6.859 13.318 81.8 81.8 0 0 0-3.853 14.355c-.9 4.918-1.493 9.874-2.045 14.831q-.894 7.915-1.769 15.83-1.807 16.172-3.615 32.4c-.152 1.322-.295 2.654-.428 3.976a.176.176 0 0 0 .352 0c1.341-10.731 2.464-21.49 3.691-32.24l1.826-16c.561-4.975 1.1-9.951 1.9-14.907a98.706 98.706 0 0 1 3.225-14.4 68.863 68.863 0 0 1 6.288-13.994c5.3-9.142 10.911-18.132 16.524-27.093s11.368-18.075 17.295-26.95c.723-1.094 1.465-2.188 2.226-3.263.108-.084-.073-.161-.13-.075z" class="cls-5" transform="translate(-240.365 -138.631)"/>
            <path id="Path_1388" d="M365.694 450.818c2.083.133 58.286-14.679 60.037-16.543a.779.779 0 0 0 .133-.38c.219-1.846-2.654-8.742-4.671-17.58-.124-.561-1.18-3.244-2.664-6.868-4.081-9.941-11.359-27.026-11.359-27.026l-36.692 9.418L383.988 419l1.827 6.383s-18.56 14.85-20.253 17.123-1.942 8.16.132 8.312z" class="cls-2" transform="translate(-241.407 -145.122)"/>
            <path id="Path_1389" d="M365.694 452.2c2.083.133 58.286-14.679 60.037-16.543a.78.78 0 0 0 .133-.38c.219-1.846-2.654-8.742-4.671-17.58-.124-.561-1.18-3.244-2.664-6.868L384 420.343l1.827 6.383s-18.56 14.85-20.253 17.123-1.953 8.201.12 8.351z" class="cls-3" transform="translate(-241.407 -146.506)"/>
            <path id="Path_1390" d="M365.695 452.544c2.083.152 58.286-14.669 60.037-16.534.666-.7-.79-8.3-4.538-17.961l-35.369 9.075s-18.56 14.831-20.253 17.123-1.951 8.153.123 8.297z" class="cls-4" transform="translate(-241.407 -146.857)"/>
            <path id="Path_1391" d="M365.994 451.065c9.133-2.607 46.214-12.272 55.442-14.165.076 0 .086 0 0 .067-8.99 2.778-46.148 12.148-55.413 14.27-.182.028-.223-.115-.029-.172z" class="cls-5" transform="translate(-241.487 -147.775)"/>
            <path id="Path_1392" d="M368.806 442.495a7.61 7.61 0 0 1 6.079.818 7.429 7.429 0 0 1 3.33 4.376.057.057 0 0 1-.114 0 8.809 8.809 0 0 0-9.266-5.108.057.057 0 1 1-.029-.086z" class="cls-5" transform="translate(-241.626 -148.033)"/>
            <path id="Path_1393" d="M383.422 429.491c3.663-1.008 8.267-.818 11.33 1.6.124.1 0 .266-.133.238a52.32 52.32 0 0 0-11.14-1.379.238.238 0 0 1-.057-.457z" class="cls-5" transform="translate(-242.335 -147.387)"/>
            <path id="Path_1394" d="M380.738 431.431c3.662-1.008 8.267-.818 11.33 1.6.124.1 0 .266-.143.238a52.182 52.182 0 0 0-11.14-1.322.258.258 0 1 1-.048-.514z" class="cls-5" transform="translate(-242.2 -147.481)"/>
            <path id="Path_1395" d="M378.051 433.371c3.672-1.008 8.267-.818 11.34 1.6.114.1 0 .257-.143.238a52.176 52.176 0 0 0-11.14-1.37.238.238 0 0 1-.057-.466z" class="cls-5" transform="translate(-242.072 -147.576)"/>
            <path id="Path_1396" d="M375.369 435.3c3.663-1 8.267-.809 11.33 1.608.124.1 0 .257-.133.228a52.943 52.943 0 0 0-11.14-1.36.24.24 0 0 1-.057-.476z" class="cls-5" transform="translate(-241.94 -147.67)"/>
            <path id="Path_1397" d="M419.317 428.364c4.129-1.065 5.784 5.356 1.646 6.412s-5.784-5.356-1.646-6.412z" class="cls-6" transform="translate(-243.973 -147.354)"/>
            <path id="Path_1398" d="M378.234 425.536c2.654 2.045 6.1 2.854 9.18 4a.466.466 0 0 0 .59-.466.1.1 0 0 0 .086-.133 19.978 19.978 0 0 0-5.784-8.562c-1.56-1.3-4.3-2.207-5.765-.171s.152 4.143 1.693 5.332zm-.951-3c-.666-4.1 3.739-1.96 4.852-.951a21.076 21.076 0 0 1 1.988 2.131 57.3 57.3 0 0 1 3.491 4.909c-1.484-.647-3.016-1.161-4.519-1.76-1.807-.7-5.451-2.074-5.822-4.328z" class="cls-5" transform="translate(-241.979 -146.904)"/>
            <path id="Path_1399" d="M401.116 423.325c-.9-2.331-3.805-2.131-5.622-1.256a19.893 19.893 0 0 0-7.725 6.83.1.1 0 0 0 .048.152.466.466 0 0 0 .447.6c3.282-.333 6.821-.276 9.893-1.6 1.798-.769 3.824-2.529 2.959-4.726zm-7.991 4.814c-1.6.2-3.206.323-4.757.58a59.473 59.473 0 0 1 4.595-3.891 22.31 22.31 0 0 1 2.454-1.57c1.332-.7 6.136-1.674 4.462 2.121-.961 2.103-4.833 2.521-6.754 2.759z" class="cls-5" transform="translate(-242.553 -147.023)"/>
            <path id="Path_1400" d="M380.445 409.844l41.115-10.788s-39.365-77.464-39-82.811c.285-4.757 28.834-46.309 30.442-54.091 2.578-12.738-3.624-24.115-9.637-31.155l-42.523 11.986s3.387 7.354 9.608 12c0 0-26.722 44.616-27.407 59.3s37.402 95.559 37.402 95.559z" class="cls-7" transform="translate(-240.375 -137.748)"/>
            <path id="Path_1401" d="M381.536 410.525c5.955-1.7 4.224-1.294 10.207-2.94 2.93-.8 22.175-6.06 25.029-6.336.067 0 .1.1 0 .124-2.626 1.18-21.956 6.107-24.9 6.849-6.012 1.522-4.309 1.018-10.341 2.483-.061.01-.109-.18.005-.18z" class="cls-5" transform="translate(-242.247 -146.039)"/>
            <path id="Path_1402" d="M364.9 254.439a75.985 75.985 0 0 1 11.768 5.556.128.128 0 1 1-.114.228c-3.967-1.731-8.019-3.387-11.882-5.327a.257.257 0 0 1 .228-.457z" class="cls-5" transform="translate(-241.423 -138.889)"/>
            <path id="Path_1403" d="M370.13 253.327a19.029 19.029 0 0 1 .761 2.293 4.9 4.9 0 0 1 .295 1.9.143.143 0 0 1-.247 0 6.727 6.727 0 0 1-.8-1.836c-.257-.713-.533-1.417-.761-2.131-.161-.453.591-.682.752-.226z" class="cls-5" transform="translate(-241.657 -138.823)"/>
            <path id="Path_1404" d="M369.945 249.083c-.171-.656-.342-1.3-.523-1.96s-.428-1.332-.561-2.017c0-.1-.19-.057-.162 0 .162.656.238 1.341.352 2.007s.247 1.332.381 1.988a35.565 35.565 0 0 0 .951 3.691 4.49 4.49 0 0 1-1.9-.58 3.52 3.52 0 0 1-1.161-1.817c-.266-.742-.5-1.494-.78-2.226a15.477 15.477 0 0 1-.818-2.483c0-.114-.19-.067-.171 0a27.28 27.28 0 0 0 1.513 5.242c.295.666.514 1.351 1.17 1.674a5.65 5.65 0 0 0 2.283.447c.086 0 .219 0 .2-.124-.203-1.216-.451-2.557-.774-3.842z" class="cls-5" transform="translate(-241.472 -138.432)"/>
            <path id="Path_1405" d="M369.555 257.768c-1.617 2.921-3.463 5.708-5.194 8.562s-3.292 5.632-4.871 8.486c-3.177 5.765-6.126 11.682-8.819 17.694q-2 4.462-3.805 9.028a68.175 68.175 0 0 0-3.092 9.323 25.532 25.532 0 0 0-.419 9.684 66.3 66.3 0 0 0 2.549 9.741 172.748 172.748 0 0 0 8.029 21.328c.1.228.485.057.4-.181-2.245-6.336-4.566-12.652-6.592-19.026-1.95-6.221-4.271-12.671-3.2-19.283a50.233 50.233 0 0 1 2.7-9.275q1.731-4.623 3.691-9.142c2.588-5.946 5.48-11.72 8.448-17.475 1.655-3.225 3.4-6.412 5.08-9.627s3.339-6.545 5.232-9.665c.062-.181-.052-.257-.137-.172z" class="cls-5" transform="translate(-240.377 -139.05)"/>
            <path id="Path_1406" d="M402.662 250.67c-.771-.124-1.9.143-5.223-.086a18.9 18.9 0 0 1-2.74-.447 6.031 6.031 0 0 1-2.54-1.027 13.422 13.422 0 0 1-2.9-4 20.227 20.227 0 0 1-2.026-4.928c0-.1-.181-.057-.162.048.181.951.276 1.9.533 2.911a17.254 17.254 0 0 0 .951 2.645 10.788 10.788 0 0 0 2.978 4.4c1.5 1.132 3.605 1.341 5.422 1.475 1.056.076 5.194 0 5.708-.628.151-.106.137-.333-.001-.363z" class="cls-5" transform="translate(-242.52 -138.193)"/>
            <path id="Path_1407" d="M413.142 390.377q-7.782-15.811-15.221-31.821T383.48 326.3a42.132 42.132 0 0 1-3.073-7.962c-.637-3.016.295-5.708 1.57-8.438a144.423 144.423 0 0 1 7.943-14.412c2.854-4.68 5.936-9.256 8.952-13.851a143.644 143.644 0 0 0 8.562-14 25.671 25.671 0 0 0 2.978-14.878c-.666-5.232-2.921-10.065-5.327-14.66-.637-1.208-1.294-2.407-1.9-3.624-.048-.086-.19 0-.133.086 2.683 4.814 5.261 9.865 6.516 15.221a24.82 24.82 0 0 1 .59 8.162 25.866 25.866 0 0 1-2.3 7.962c-2.236 4.909-5.356 9.437-8.3 13.937s-6.069 9.18-9 13.841a160.823 160.823 0 0 0-8.191 14.431 21.716 21.716 0 0 0-2.54 7.011c-.285 2.73.694 5.337 1.75 7.8 4.566 10.712 9.38 21.338 14.27 31.907s9.96 21.167 15.107 31.667l1.9 3.967c.126.224.364.071.288-.09z" class="cls-5" transform="translate(-242.164 -137.915)"/>
            <path id="Path_1408" d="M360.76 146.96c.951-4.347 5.784-14.184 15.325-12.262 13.623 2.749 15.592 29 22.375 37.177 12.281 14.821 12.681 29.49 2.616 31.84-11.282 2.626-22.26-9.513-21.88-35.674.257-16.381-4.357-23.64-7.61-23.155s-5.051 4.623-5.051 4.623z" class="cls-5" transform="translate(-241.238 -133.046)"/>
            <path id="Path_1409" d="M361.24 145.261a26.483 26.483 0 0 1 2.73-5.774 15.687 15.687 0 0 1 4.452-4.68 10.683 10.683 0 0 1 6.3-1.827 13.746 13.746 0 0 1 6.326 1.76 15.335 15.335 0 0 1 4.752 4.46 28.283 28.283 0 0 1 3.054 5.708 57.152 57.152 0 0 1 3.158 12.367A84.294 84.294 0 0 0 388 145.3a30.241 30.241 0 0 0-3.111-5.394 14.45 14.45 0 0 0-4.471-4.091 12.767 12.767 0 0 0-5.774-1.665 9.941 9.941 0 0 0-5.708 1.484 16.029 16.029 0 0 0-4.481 4.224 27.288 27.288 0 0 0-1.741 2.626 30.73 30.73 0 0 0-1.474 2.777z" class="cls-5" transform="translate(-241.262 -132.974)"/>
            <path id="Path_1410" d="M380.028 160.27c.143 2.6 0 5.2-.057 7.8s-.162 5.185-.171 7.772a72.038 72.038 0 0 0 .342 7.725 39.3 39.3 0 0 0 1.389 7.525 19.978 19.978 0 0 0 3.32 6.754 21.662 21.662 0 0 0 5.708 4.937 16.173 16.173 0 0 0 7.182 2.3 14.748 14.748 0 0 0 3.805-.2 14.178 14.178 0 0 0 1.9-.495 6.658 6.658 0 0 0 1.75-.809 9.618 9.618 0 0 1-3.548 1.608 15.03 15.03 0 0 1-3.91.485 16.172 16.172 0 0 1-3.938-.561 17.238 17.238 0 0 1-3.682-1.513 20.5 20.5 0 0 1-3.292-2.245l-.751-.647-.723-.675a14.472 14.472 0 0 1-1.37-1.484 20.985 20.985 0 0 1-3.577-7.116 50.075 50.075 0 0 1-1.5-15.611c.076-2.607.276-5.2.5-7.791s.537-5.162.623-7.759z" class="cls-5" transform="translate(-242.117 -134.304)"/>
            <path id="Path_1411" d="M359.939 147.517c-.152-1.208.58-2.854 1.341-3.149s6.83 1.655 7.468 3.111-1.817 3.006-1.817 3.006z" class="cls-4" transform="translate(-241.197 -133.528)"/>
            <path id="Path_1412" d="M363.177 192.37c-3.739 5.337-30.775 27.416-45.52 28.235-6.659.361-32.706-2.473-38.509-4.861-7.125-2.93 6.964-20.577 11.416-19.825 5.575.951 25.343 3.035 29.281 3.139 6.317.162 25.685-10.464 38.727-13.233 6.746-1.418 7.497 2.435 4.605 6.545z" class="cls-2" transform="translate(-237.168 -135.534)"/>
            <path id="Path_1413" d="M365.765 193.311c-4.129 7.2-18.7 19.549-18.7 19.549l-2.483-4.585-8.222-15.135s13.813-5.5 22.974-8.172a20.68 20.68 0 0 1 3.292-.723c5.917-.761 6.687 2.882 3.139 9.066z" class="cls-8" transform="translate(-240.05 -135.466)"/>
            <path id="Path_1414" d="M365.764 193.313c-4.129 7.2-18.7 19.549-18.7 19.549l-2.483-4.585-1.693-3.12-6.535-12.005s13.822-5.518 22.983-8.191a22.153 22.153 0 0 1 3.292-.713 2.342 2.342 0 0 1 .352 0c5.591-.61 6.276 3.005 2.784 9.065z" class="cls-9" transform="translate(-240.05 -135.468)"/>
            <path id="Path_1415" d="M348.858 189.52a8.514 8.514 0 0 1 0 4 8.5 8.5 0 0 1 0-4zm-3.91 7.839a7.428 7.428 0 0 0-1.988.238 7.838 7.838 0 0 0 1.988.238 7.963 7.963 0 0 0 2-.238 7.554 7.554 0 0 0-2-.238zm20.206-11.168a7.554 7.554 0 0 0-2 .238 7.554 7.554 0 0 0 2 .238 7.943 7.943 0 0 0 1.988-.238 7.945 7.945 0 0 0-1.988-.239zm-7.782 9.932a7.752 7.752 0 0 0 1.579 1.237 7.752 7.752 0 0 0-1.237-1.579 8.031 8.031 0 0 0-1.579-1.237 8.029 8.029 0 0 0 1.237 1.579zm-7.677 9.513a7.8 7.8 0 0 0 1.579 1.246 7.44 7.44 0 0 0-1.237-1.579 7.8 7.8 0 0 0-1.579-1.246 7.506 7.506 0 0 0 1.2 1.579z" class="cls-3" transform="translate(-240.372 -135.566)"/>
            <path id="Path_1416" d="M349.813 209.937c-1.379-2.787-7.468-14.013-8.942-16.353-.1-.162-.228-.143-.152 0a172.87 172.87 0 0 0 8.98 16.353c.038.114.152.076.114 0z" class="cls-5" transform="translate(-240.261 -135.92)"/>
            <path id="Path_1417" fill="#d55f54" d="M366.1 193.312c-4.129 7.2-18.7 19.549-18.7 19.549l-2.483-4.585-1.693-3.12c7.905-7.8 17.428-17.4 20.091-20.929 5.59-.59 6.275 3.025 2.785 9.085z" transform="translate(-240.384 -135.467)"/>
            <path id="Path_1418" d="M352.814 226.4l2.159 23.783a80.337 80.337 0 0 0 8.685-.875 203.907 203.907 0 0 0 22.517-4.69c7.354-1.9 15.972-4.528 25.828-8.029 0 0-22.289-40.2-37.672-51.294-.352-.257-.694-.495-1.046-.713-.067-.057-.133-.086-.2-.133-6.992-4.424-13.318-.951-16.819 3.976-.885 1.237-9.446 20.7-9.018 27.226.391 5.734 5.566 10.749 5.566 10.749z" class="cls-9" transform="translate(-240.58 -135.382)"/>
            <path id="Path_1419" d="M365.563 201.124a7.428 7.428 0 0 1 .238 1.988 7.552 7.552 0 0 1-.238 2 7.554 7.554 0 0 1-.238-2 7.838 7.838 0 0 1 .238-1.988zm5.185 24.905a7.96 7.96 0 0 0 .238 2 7.17 7.17 0 0 0 .238-2 7.553 7.553 0 0 0-.238-2 7.961 7.961 0 0 0-.238 2zm16.6-14.174a7.552 7.552 0 0 0 .238 2 8.505 8.505 0 0 0 0-4 7.552 7.552 0 0 0-.238 2zm-30.442 11.14a7.555 7.555 0 0 0 .238 2 8.506 8.506 0 0 0 0-4 7.552 7.552 0 0 0-.238 2zm19.178-17.532a7.961 7.961 0 0 0-2 .238 8.515 8.515 0 0 0 4 0 7.963 7.963 0 0 0-1.988-.238zM390.24 223.2a7.174 7.174 0 0 0-2 .238 8.514 8.514 0 0 0 4 0 7.555 7.555 0 0 0-1.988-.238zm-21.518 14.06a7.428 7.428 0 0 0-1.988.238 7.43 7.43 0 0 0 1.988.238 7.554 7.554 0 0 0 2-.238 7.962 7.962 0 0 0-1.988-.238zm25.067-2.74a7.9 7.9 0 0 0-1.988.238 8.467 8.467 0 0 0 3.986 0 7.963 7.963 0 0 0-2-.238zm-28.045-48.36a7.554 7.554 0 0 0-2 .238 7.554 7.554 0 0 0 2 .238 7.943 7.943 0 0 0 1.988-.238 7.944 7.944 0 0 0-1.988-.209zm10.179 4.4a7.8 7.8 0 0 0 1.579 1.246 7.212 7.212 0 0 0-1.237-1.579 7.8 7.8 0 0 0-1.579-1.246 7.753 7.753 0 0 0 1.246 1.608zm20.786 22.251a7.8 7.8 0 0 0 1.579 1.246 7.5 7.5 0 0 0-1.237-1.579 8.066 8.066 0 0 0-1.579-1.246 7.754 7.754 0 0 0 1.237 1.608zm-33.239 2.378a7.8 7.8 0 0 0 1.579 1.246 8.561 8.561 0 0 0-2.854-2.854 7.8 7.8 0 0 0 1.275 1.636zm19.122 16.111a7.8 7.8 0 0 0 1.579 1.246 8.562 8.562 0 0 0-2.854-2.854 7.8 7.8 0 0 0 1.275 1.608zm-24.582-35.2a7.754 7.754 0 0 0 1.579 1.237 7.75 7.75 0 0 0-1.237-1.579 8.029 8.029 0 0 0-1.579-1.237 8.027 8.027 0 0 0 1.189 1.6zm-1.351 12.5a8.067 8.067 0 0 0 1.246-1.579 7.44 7.44 0 0 0-1.579 1.237 7.8 7.8 0 0 0-1.246 1.579 8.1 8.1 0 0 0 1.532-1.218zm45.139 16.99a7.439 7.439 0 0 0 1.237-1.579 8.447 8.447 0 0 0-2.854 2.854 7.8 7.8 0 0 0 1.57-1.256zm-42.675 6.81a7.753 7.753 0 0 0 1.237-1.579 8.447 8.447 0 0 0-2.854 2.854 7.8 7.8 0 0 0 1.57-1.256zm25.477-32.789a7.8 7.8 0 0 0 1.246-1.579 7.542 7.542 0 0 0-1.579 1.246 7.8 7.8 0 0 0-1.246 1.579 7.8 7.8 0 0 0 1.532-1.227zm-6.317 42.713a7.54 7.54 0 0 0 1.246-1.579 7.544 7.544 0 0 0-1.579 1.246 7.8 7.8 0 0 0-1.246 1.579 7.8 7.8 0 0 0 1.532-1.227zm0-25.685a7.245 7.245 0 0 0 1.246-1.579 8.561 8.561 0 0 0-2.854 2.854 7.543 7.543 0 0 0 1.579-1.284z" class="cls-3" transform="translate(-240.962 -135.564)"/>
            <path id="Path_1420" d="M369.179 183.339c-.133.951-3.919 7.135-8.048 7.3-1.351.048-1.95-7.277-1.95-7.277l-.171-.533-2.35-7.43 8.409-6.44 1.227-.866s.5 2.083 1.113 4.671l.086.371a2.244 2.244 0 0 0 .1.419l.285 1.17c.067.3.133.6.19.951l.2.951a49.548 49.548 0 0 1 .9 6.716z" class="cls-2" transform="translate(-241.039 -134.684)"/>
            <path id="Path_1421" d="M367.45 172.761a15.611 15.611 0 0 1-8.4 10.112l-2.35-7.43 8.371-6.488 1.227-.866 1.152 4.672z" class="cls-5" transform="translate(-241.041 -134.684)"/>
            <path id="Path_1422" d="M345.7 163.132c-.067 13.68 8.124 15.268 11.073 15.278 2.673 0 11.8-.295 13.318-13.9s-4.861-17.951-10.978-18.3-13.346 3.214-13.413 16.922z" class="cls-2" transform="translate(-240.505 -133.618)"/>
            <path id="Path_1423" d="M369.3 165.353c-2.236.228-2.854-4.462-2.854-4.462s-4.557.133-6.222-6.393a10.093 10.093 0 0 0 2.15 5.375s-8.077-.628-11.634-7.287c0 0 1.436 3.4 2.73 4.585a9.513 9.513 0 0 1-5.108-3.558s-1.313 3.919-2.369 5.013c0 0-1.56-6.887 1.3-10.464 6.031-7.61 15.934-.951 15.934-.951s5.537.837 7.515 4.985c3.053 6.346-1.442 13.157-1.442 13.157z" class="cls-5" transform="translate(-240.498 -133.536)"/>
            <path id="Path_1424" d="M368.978 166.32s2.626-4.5 4.652-3.6.285 7.258-1.9 8.286a2.312 2.312 0 0 1-3.187-.951z" class="cls-2" transform="translate(-241.617 -134.417)"/>
            <path id="Path_1425" d="M373.152 164.63v.067a5.86 5.86 0 0 0-2.711 3.891 1.275 1.275 0 0 1 1.9-.5c.048 0 0 .1 0 .086a1.408 1.408 0 0 0-1.513.628 6.554 6.554 0 0 0-.647 1.322c-.067.143-.323.1-.285-.076-.254-2.069 1.096-5.066 3.256-5.418z" class="cls-5" transform="translate(-241.682 -134.516)"/>
            <path id="Path_1426" d="M347.472 161.011a7.688 7.688 0 0 0 .951-.228 1.541 1.541 0 0 0 .894-.419.485.485 0 0 0 0-.6 1.227 1.227 0 0 0-1.208-.238 1.8 1.8 0 0 0-1.094.675.523.523 0 0 0 .457.809z" class="cls-5" transform="translate(-240.565 -134.264)"/>
            <path id="Path_1427" d="M356.777 162.135a8.087 8.087 0 0 1-.951-.152 1.541 1.541 0 0 1-.951-.352.476.476 0 0 1 0-.6 1.189 1.189 0 0 1 1.18-.323 1.845 1.845 0 0 1 1.151.58.523.523 0 0 1-.428.847z" class="cls-5" transform="translate(-240.947 -134.323)"/>
            <path id="Path_1428" d="M355 165.15s.067 0 .067.086c0 .951.124 2.017.951 2.312v.057c-1.018-.134-1.218-1.561-1.018-2.455z" class="cls-5" transform="translate(-240.954 -134.541)"/>
            <path id="Path_1429" d="M355.786 164.11c1.5-.143 1.674 2.854.276 3.016s-1.542-2.902-.276-3.016z" class="cls-5" transform="translate(-240.954 -134.49)"/>
            <path id="Path_1430" d="M356.451 164.231c.276.162.552.447.875.466s.628-.323.856-.637h.048c0 .58-.152 1.189-.761 1.313s-.951-.38-1.18-.951c-.028-.086.058-.248.162-.191z" class="cls-5" transform="translate(-241.02 -134.488)"/>
            <path id="Path_1431" d="M349.446 165.2s-.076.048-.067.086c.086.951 0 2.026-.8 2.388 1.038-.162 1.095-1.599.867-2.474z" class="cls-5" transform="translate(-240.645 -134.544)"/>
            <path id="Path_1432" d="M348.483 164.23c-1.513 0-1.436 3.006 0 3.025s1.275-3.006 0-3.025z" class="cls-5" transform="translate(-240.587 -134.496)"/>
            <path id="Path_1433" d="M347.808 164.444c-.238.171-.466.466-.752.495s-.59-.295-.809-.609h-.047c0 .58.209 1.18.771 1.275s.866-.419.951-1c.066-.066-.01-.227-.114-.161z" class="cls-5" transform="translate(-240.529 -134.501)"/>
            <path id="Path_1434" d="M356.13 173.189c-.2.247-.39.571-.732.628a2.379 2.379 0 0 1-1.027-.133v.057a1.237 1.237 0 0 0 1.227.381.951.951 0 0 0 .656-.894.081.081 0 0 0-.124-.039z" class="cls-5" transform="translate(-240.927 -134.932)"/>
            <path id="Path_1435" d="M351.057 169.092s-.133 1.37-.133 2.064a14.213 14.213 0 0 1 3.805.4c.295.086.276-.162-.057-.342a5.708 5.708 0 0 0-3.244-.656c-.048-.181.247-2.159.143-2.159a5.584 5.584 0 0 0-1.484.4c.19-2.94.856-5.831 1-8.761a.086.086 0 0 0-.171 0 47.913 47.913 0 0 0-1.484 9.38c.027.349 1.368-.202 1.625-.326z" class="cls-5" transform="translate(-240.687 -134.288)"/>
            <path id="Path_1436" d="M352.63 171.719a3.625 3.625 0 0 0 1.9 1.294c1.151.114 1.227-.951-.057-1.436a3.434 3.434 0 0 0-1.846.143z" class="cls-5" transform="translate(-240.842 -134.851)"/>
            <path id="Path_1437" fill="#ff99ba" d="M354.59 173.037a2.388 2.388 0 0 1-1.17-.552c.209-.371.742-.79 2-.19.198.437-.097.818-.83.742z" transform="translate(-240.881 -134.875)"/>
            <path id="Path_1438" d="M367.175 182.4c1.674 0 4.49.419 8.3 3.311 0 0-7.934 6.383-15.316 6.383-2.635 0-3.425-3.682-3.425-3.682s3.544-5.955 10.441-6.012z" class="cls-2" transform="translate(-241.042 -135.381)"/>
            <path id="Path_1439" d="M493.085 458.608h-31.079c-22.584 0-36.4-15.611-38.88-43.95-1.227-13.975-1.979-30.889-2.768-48.792-2.435-55.014-5.774-130.328-27.188-130.328h-24.61v-5.708h24.61c26.865 0 29.928 69.036 32.887 135.8.79 17.846 1.541 34.7 2.759 48.516 1.551 17.675 8.562 38.746 33.191 38.746h31.079z" class="cls-4" transform="translate(-241.618 -137.691)"/>
            <path id="Path_1440" d="M386.635 229.81l-1.218 5.708H368.56v-5.708z" class="cls-12" transform="translate(-241.618 -137.69)"/>
            <path id="Rectangle_362" d="M0 0H9.951V69.531H0z" class="cls-4" transform="translate(70.606 60.813)"/>
            <path id="Rectangle_363" d="M0 0H37.833V58.543H0z" class="cls-4" transform="translate(32.782 65.95)"/>
            <path id="Path_1441" d="M308.643 202.31v58.543h-9.4l-4.213-58.543z" class="cls-12" transform="translate(-238.037 -136.351)"/>
            <path id="Path_1442" d="M238.868 213.35h29.024v8.75h-29.024a3.748 3.748 0 0 1-3.748-3.748v-1.246a3.748 3.748 0 0 1 3.748-3.758z" class="cls-8" transform="translate(-235.12 -136.889)"/>
            <path id="Rectangle_364" d="M0 0H10.188V8.742H0z" class="cls-13" transform="translate(22.584 76.461)"/>
            <path id="Path_1443" d="M238.868 243.6h29.024v8.752h-29.024a3.748 3.748 0 0 1-3.748-3.748v-1.246a3.748 3.748 0 0 1 3.748-3.758z" class="cls-8" transform="translate(-235.12 -138.362)"/>
            <path id="Rectangle_365" d="M0 0H10.188V8.742H0z" class="cls-13" transform="translate(22.584 105.238)"/>
            <path id="Rectangle_366" d="M0 0H29.557V11.672H0z" class="cls-4" transform="translate(109.799 89.637)"/>
            <path id="Rectangle_367" d="M0 0H29.557V11.672H0z" class="cls-4" transform="translate(109.799 89.646)"/>
            <path id="Path_1444" d="M360.919 227.21l-.97 11.672h-9.409V227.21z" class="cls-12" transform="translate(-240.741 -137.564)"/>
            <path id="Path_1445" d="M319.8 204.62h23.393a5.85 5.85 0 0 1 5.85 5.85v42.438a5.851 5.851 0 0 1-5.85 5.851H319.8z" class="cls-4" transform="translate(-239.244 -136.463)"/>
            <path id="Path_1446" d="M332.244 204.62l-4.214 54.139h-8.22V204.62z" class="cls-12" transform="translate(-239.244 -136.463)"/>
            <g id="Group_1580" class="cls-14" transform="translate(88.956 79.097)">
                <path id="Rectangle_368" d="M0 0H1.865V32.249H0z"/>
                <path id="Rectangle_369" d="M0 0H1.865V32.249H0z" transform="translate(5.289)"/>
                <path id="Rectangle_370" d="M0 0H1.865V32.249H0z" transform="translate(10.578)"/>
            </g>
            <path id="Path_1447" d="M376.154 192.721c3.272 9.18-1.417 42.809-6.964 49.934-8.238 10.559-24.515 20.272-30.737 23.307-2.721 1.322-14.907-18.16-12.253-19.977 5.708-3.91 23.887-13.242 25.428-15.1s9.836-19.673 13.157-29.69c4.462-13.449 9.723-13.106 11.369-8.474z" class="cls-2" transform="translate(-239.537 -135.743)"/>
            <path id="Path_1448" d="M336.993 268.8c-8.628 4.928-25.8 4.2-28.14 3.491l-3.025-.951c-3.605-1.018-4.576-3.006-4.576-3.006s-4.509.057-5-2.664c-.552-3.054 5.889-2.54 9.608-4.424 8.562-4.309 19.426-12.833 21.756-14.317z" class="cls-2" transform="translate(-238.095 -138.524)"/>
            <path id="Path_1449" d="M318.225 263.84a59.755 59.755 0 0 1-7.677 3.358 62.65 62.65 0 0 1-8.971 1.9.076.076 0 0 0 0 .143 32.582 32.582 0 0 0 16.752-5.175c.125-.074.02-.284-.104-.226z" class="cls-5" transform="translate(-238.354 -139.347)"/>
            <path id="Path_1450" d="M321.807 268.849a45.727 45.727 0 0 1-15.5 3.482v.057a29.185 29.185 0 0 0 15.592-3.282c.155-.114.079-.323-.092-.257z" class="cls-5" transform="translate(-238.587 -139.591)"/>
            <path id="Path_1451" d="M316.069 255.4c.885-.951.362-1.465-1.979-1.046s-11.235 4.091-12.253.885 11.615-8.21 15.563-8.619a66.079 66.079 0 0 1 10.693.314c-2.264 1.46-7.629 5.532-12.024 8.466z" class="cls-2" transform="translate(-238.366 -138.504)"/>
            <path id="Path_1452" d="M368.544 194.908c5.755-12.11 11.007-8.9 11.511 3.073a190.544 190.544 0 0 1-1.123 24.905l-20.862-5.974s6.792-14.25 10.474-22.004z" class="cls-9" transform="translate(-241.107 -135.618)"/>
            <path id="Path_1453" d="M373.957 187.88a8.562 8.562 0 0 1 2.854 2.854 8.563 8.563 0 0 1-2.854-2.854zm-8.267 15.335a7.556 7.556 0 0 0 .238 2 7.549 7.549 0 0 0 .238-2 7.427 7.427 0 0 0-.238-1.988 7.839 7.839 0 0 0-.238 1.988zm10.769 2.35a7.963 7.963 0 0 0-2 .238 8.514 8.514 0 0 0 4 0 7.964 7.964 0 0 0-2-.257zm-12.624 9.741a7.8 7.8 0 0 0 1.579 1.246 8.562 8.562 0 0 0-2.854-2.854 7.8 7.8 0 0 0 1.275 1.608zm14.783 1.408a7.247 7.247 0 0 0 1.246-1.579 8.563 8.563 0 0 0-2.854 2.854 7.541 7.541 0 0 0 1.608-1.275z" class="cls-3" transform="translate(-241.326 -135.648)"/>
            <path id="Path_1454" d="M366.552 199.179c-.78 1.589-1.6 3.149-2.416 4.757q.209-1.113.342-2.255h-.057c-.114.59-.257 1.18-.371 1.769-.048.285-.1.571-.162.856v.181c-.637 1.218-1.265 2.445-1.9 3.682-.723 1.484-1.4 2.978-2.083 4.471s-1.322 3.32-2.093 4.833a10.238 10.238 0 0 0 2.036.609c.181.067.276-.114.086-.143s-1.75-.647-1.769-.656c.685-1.513 1.532-2.94 2.255-4.424s1.465-2.949 2.159-4.443c1.408-3.025 2.645-6.136 4.043-9.171-.003-.075-.07-.104-.07-.066z" class="cls-5" transform="translate(-241.095 -136.198)"/>
            <path id="Path_1455" d="M381.9 206.566c-.19.618-.409 1.237-.571 1.9-.057.266-.124.523-.19.79q.114-3.253.209-6.488c-.295 3.539-.6 7.068-.828 10.607a98.74 98.74 0 0 0-.466 10.2 12.224 12.224 0 0 0-1.9-.295 9.161 9.161 0 0 0 2.159.618c.523-3.425.561-7.211.732-10.655.048-.951.076-1.9.114-2.921.114-.6.285-1.189.447-1.779s.285-1.275.419-1.9c-.051-.096-.117-.115-.125-.077z" class="cls-5" transform="translate(-242.085 -136.373)"/>
            <path id="Path_1456" d="M378.189 221.105c-2.94-1.046-15.116-4.89-17.8-5.546-.19-.048-.266.057-.076.124a169.253 169.253 0 0 0 17.827 5.527c.078.029.125-.086.049-.105z" class="cls-5" transform="translate(-241.211 -136.996)"/>
            <path id="Path_1457" d="M271.288 216.812c2.854.875 2.274-3.025 2.274-3.025s2.236 5.4 5.556 5.166 2.293-4.928 2.236-5.27c.114.285 2.3 5.194 5.613 4.614s1.722-5.166 1.608-5.451c.2.228 2.854 3.263 5.289 2.245 4.148-1.75-2.473-9.7-1.988-13.318l5.831.171a5.487 5.487 0 0 0 .571-.086l.219-2.978a37.952 37.952 0 0 1-5.384-2.7c-2.2-1.237-4.319-2.359-5.9-2.4a3.3 3.3 0 0 0-3.282 2.178s-1.712-2.7-4.338-2.321c-1.341.2-2.217 2.53-2.217 2.53a3.948 3.948 0 0 0-3.805-1.627c-1.846.381-2.435 2.664-2.435 2.664s-2.34-1.379-4.1-.371c-3.529 1.961-1.912 18.076 4.252 19.979z" class="cls-2" transform="translate(-236.585 -135.927)"/>
            <path id="Path_1458" d="M294 201.386l5.08.466a5.49 5.49 0 0 0 .571-.086c6.412-1.161 10.407-8.5 5.708-9.028-3.529-.409-7.354 4.281-10.921 3.339z" class="cls-2" transform="translate(-237.987 -135.884)"/>
            <path id="Path_1459" d="M271.291 197.7h-.086a28.016 28.016 0 0 0 2.645 16.457c.086.162.38.086.323-.1a57.239 57.239 0 0 1-2.882-16.353z" class="cls-5" transform="translate(-236.863 -136.126)"/>
            <path id="Path_1460" d="M277.982 196.167c0-.067-.1-.067-.114 0a26.246 26.246 0 0 0 3.919 17.78c.124.181.419.219.285 0-2.112-3.672-4.09-12.557-4.09-17.78z" class="cls-5" transform="translate(-237.19 -136.049)"/>
            <path id="Path_1461" d="M289.893 213.2c-3.282-5.175-4.585-10.883-5.07-16.933 0-.076-.114-.057-.133 0-.561 3.025.152 6.849.951 9.779a16.173 16.173 0 0 0 4.062 7.258c.097.087.266.011.19-.104z" class="cls-5" transform="translate(-237.524 -136.054)"/>
        </g>
        <g id="freepik--character-1--inject-18" transform="translate(-23.569 113.664)">
            <path id="Path_1462" d="M202.511 439.118c-1.969.656-58.353.495-60.5-.866-.809-.514-1.265-8.733-1.532-18.674-.067-2.14-.1-4.357-.143-6.612 0-2.664-.076-5.365-.1-7.991-.067-11.777.1-22.146.1-22.146h36.711v30.137l-.19 6.612s21.557 9.722 23.783 11.473 3.841 7.459 1.871 8.067z" class="cls-15" transform="translate(-6.829 -151.153)"/>
            <path id="Path_1463" d="M202.512 440.252c-1.969.656-58.353.495-60.5-.866-.809-.514-1.265-8.733-1.532-18.674-.067-2.14-.1-4.357-.143-6.612 0-2.664-.076-5.365-.1-7.991h36.787v7.991l-.19 6.612s21.557 9.722 23.783 11.473 3.864 7.458 1.895 8.067z" class="cls-3" transform="translate(-6.829 -152.286)"/>
            <path id="Path_1464" d="M202.678 440.783c-1.284.428-25.3.514-42.809.152-4.053-.1-7.753-.2-10.731-.333-4.119-.19-6.878-.409-7.325-.694-1-.637-1.465-12.7-1.693-25.428H177l-.19 6.659s21.68 9.779 23.887 11.539 3.997 7.439 1.981 8.105z" class="cls-4" transform="translate(-6.824 -152.694)"/>
            <path id="Path_1465" d="M202.065 439.737c-9.513-.266-47.851-.419-57.268.048-.076 0-.076.048 0 .057 9.418.466 47.765.3 57.268.048.229-.01.235-.153 0-.153z" class="cls-5" transform="translate(-7.049 -153.912)"/>
            <path id="Path_1466" d="M179.565 419.246c-3.739-.7-8.314-.143-11.178 2.511-.114.1 0 .257.162.219a52.11 52.11 0 0 1 11.007-2.255.238.238 0 1 0 .01-.476z" class="cls-5" transform="translate(-8.198 -152.912)"/>
            <path id="Path_1467" d="M182.425 420.985c-3.739-.713-8.314-.152-11.187 2.511-.1.1 0 .257.162.219a52.238 52.238 0 0 1 11.026-2.274.238.238 0 0 0 0-.457z" class="cls-5" transform="translate(-8.337 -152.997)"/>
            <path id="Path_1468" d="M185.235 422.685c-3.739-.714-8.314-.152-11.178 2.5-.114.1 0 .266.152.228a52.986 52.986 0 0 1 11.007-2.264.238.238 0 0 0 .019-.466z" class="cls-5" transform="translate(-8.474 -153.08)"/>
            <path id="Path_1469" d="M188.065 424.405c-3.739-.713-8.314-.152-11.178 2.5-.114.1 0 .266.162.228a52.158 52.158 0 0 1 11-2.264.238.238 0 0 0 .019-.466z" class="cls-5" transform="translate(-8.612 -153.163)"/>
            <path id="Path_1470" d="M186.838 410.129c-1.465-2.026-4.2-1.123-5.765.181a19.977 19.977 0 0 0-5.784 8.562.1.1 0 0 0 .086.133c0 .285.266.59.58.466 3.092-1.132 6.545-1.96 9.19-4.014 1.555-1.199 3.082-3.406 1.693-5.328zm-6.545 6.659c-1.5.59-3.035 1.113-4.519 1.76a58.975 58.975 0 0 1 3.491-4.918 20.047 20.047 0 0 1 1.988-2.131c1.113-1.018 5.527-3.158 4.852.951-.371 2.255-4.014 3.624-5.812 4.338z" class="cls-5" transform="translate(-8.536 -152.424)"/>
            <path id="Path_1471" d="M165.137 417.972c3.073 1.322 6.659 1.265 9.894 1.6a.476.476 0 0 0 .457-.6.1.1 0 0 0 0-.152 19.977 19.977 0 0 0-7.686-6.849c-1.846-.875-4.757-1.065-5.632 1.265s1.169 3.964 2.967 4.736zm-1.684-2.664c-1.674-3.805 3.13-2.854 4.462-2.14a23.034 23.034 0 0 1 2.464 1.579 57.84 57.84 0 0 1 4.6 3.891c-1.6-.257-3.206-.381-4.814-.58-1.917-.238-5.789-.658-6.711-2.75z" class="cls-5" transform="translate(-7.887 -152.542)"/>
            <path id="Path_1472" d="M180.149 402.981l-45.491.818s-6.193-40.25-10.265-65.278c-1.541-9.408-2.759-16.676-3.253-18.864-1.18-5.223-24.23-88.119-24.23-88.119l33.067-.048h11.3s-.723 13.86-.295 15.316c5.9 20.063 17.951 55.642 21.718 68.037 5.776 19.057 17.449 88.138 17.449 88.138z" class="cls-16" transform="translate(-4.719 -143.782)"/>
            <path id="Path_1473" d="M178.093 404.426c-6.526-.048-29.681-.3-38.376.5a.067.067 0 0 0 0 .124c3 .428 31.85-.238 38.385-.447a.1.1 0 1 0-.01-.181z" class="cls-5" transform="translate(-6.802 -152.201)"/>
            <path id="Path_1474" d="M135.69 361.969q-2.359-15.611-5.261-31.146c-.951-5.089-1.988-10.169-3.32-15.221s-3.025-10.046-4.757-15q-5.109-14.783-9.713-29.728-4.581-14.954-8.562-30.071c-.342-1.275-.675-2.549-1.046-3.805 0-.1-.181-.057-.162 0 1.037 5.08 2.378 10.112 3.663 15.135s2.664 10.027 4.1 15.012q4.338 15.011 9.408 29.814c1.684 4.909 3.434 9.808 4.928 14.783s2.654 10.017 3.691 15.1c2.1 10.312 3.891 20.691 5.546 31.069s3.073 20.929 4.462 31.393c.181 1.322.352 2.654.523 3.986.048.371.637.371.6 0-1.075-10.44-2.55-20.89-4.1-31.321z" class="cls-5" transform="translate(-5.009 -144.047)"/>
            <path id="Path_1475" d="M129.977 231.47l-5.584 107.05c-1.541-9.408-2.759-16.676-3.253-18.864-1.18-5.223-24.23-88.119-24.23-88.119z" class="cls-5" transform="translate(-4.719 -143.781)"/>
            <path id="Path_1476" d="M143.2 448.6c-1.969.656-58.353.495-60.5-.875-.809-.5-1.265-8.723-1.532-18.664-.067-2.15-.1-4.357-.143-6.612 0-2.673-.076-5.365-.1-7.991-.067-11.777.1-22.146.1-22.146h36.7v30.147l-.19 6.612s21.556 9.722 23.783 11.473 3.853 7.408 1.882 8.056z" class="cls-15" transform="translate(-3.94 -151.614)"/>
            <path id="Path_1477" d="M143.2 449.732c-1.969.656-58.353.495-60.5-.875-.809-.5-1.265-8.723-1.532-18.664-.067-2.15-.1-4.357-.143-6.612 0-2.673-.076-5.365-.1-7.991h36.787v8l-.19 6.612s21.557 9.722 23.783 11.473 3.866 7.41 1.895 8.057z" class="cls-3" transform="translate(-3.941 -152.748)"/>
            <path id="Path_1478" d="M143.368 450.223c-1.284.419-25.3.5-42.809.143-4.043-.086-7.744-.2-10.731-.323-4.11-.19-6.868-.419-7.325-.7-.951-.637-1.465-12.69-1.684-25.419H117.7l-.19 6.659s21.7 9.77 23.906 11.492 3.931 7.483 1.952 8.148z" class="cls-4" transform="translate(-3.936 -153.154)"/>
            <path id="Path_1479" d="M142.785 449.167c-9.513-.257-47.86-.419-57.268.048-.076 0-.076.057 0 .067 9.408.457 47.765.3 57.268.048.2-.011.2-.153 0-.163z" class="cls-5" transform="translate(-4.162 -154.371)"/>
            <path id="Path_1480" d="M120.255 428.685c-3.739-.713-8.314-.152-11.178 2.5-.114.1 0 .266.152.228a52.986 52.986 0 0 1 11.007-2.264.238.238 0 0 0 .019-.466z" class="cls-5" transform="translate(-5.31 -153.372)"/>
            <path id="Path_1481" d="M123.085 430.405c-3.739-.713-8.314-.152-11.178 2.5-.114.1 0 .266.162.228a52.135 52.135 0 0 1 11.007-2.264.238.238 0 0 0 .009-.466z" class="cls-5" transform="translate(-5.447 -153.456)"/>
            <path id="Path_1482" d="M125.925 432.116c-3.739-.7-8.314-.143-11.187 2.511-.1.1 0 .257.162.219a52.841 52.841 0 0 1 11.007-2.255.238.238 0 1 0 .019-.476z" class="cls-5" transform="translate(-5.585 -153.539)"/>
            <path id="Path_1483" d="M128.755 433.836c-3.739-.7-8.314-.143-11.178 2.511-.114.1 0 .257.152.219a52.969 52.969 0 0 1 11.007-2.255.238.238 0 1 0 .019-.476z" class="cls-5" transform="translate(-5.724 -153.623)"/>
            <path id="Path_1484" d="M127.528 419.569c-1.465-2.036-4.2-1.132-5.774.181a19.977 19.977 0 0 0-5.784 8.562.1.1 0 0 0 .1.133.457.457 0 0 0 .58.466c3.092-1.132 6.535-1.96 9.19-4.014 1.574-1.171 3.068-3.416 1.688-5.328zm-6.545 6.659c-1.513.6-3.035 1.113-4.519 1.769 1.132-1.665 2.188-3.368 3.482-4.918a22.334 22.334 0 0 1 1.988-2.14c1.123-1.008 5.527-3.149 4.861.951-.333 2.255-4.015 3.624-5.812 4.328z" class="cls-5" transform="translate(-5.647 -152.883)"/>
            <path id="Path_1485" d="M105.838 427.412c3.082 1.322 6.659 1.265 9.9 1.6a.466.466 0 0 0 .447-.609.1.1 0 0 0 .057-.152 20.062 20.062 0 0 0-7.734-6.83c-1.846-.875-4.757-1.065-5.632 1.265s1.145 3.956 2.962 4.726zm-1.674-2.673c-1.674-3.805 3.13-2.854 4.462-2.131a21.564 21.564 0 0 1 2.464 1.57 60.047 60.047 0 0 1 4.6 3.9c-1.608-.266-3.215-.38-4.823-.58-1.931-.238-5.8-.656-6.726-2.759z" class="cls-5" transform="translate(-5 -153.002)"/>
            <path id="Path_1486" d="M122.721 411.416H78.21s9.675-138.016 8.115-145.749c-2.559-12.667-.857-27.207 5.137-34.247h39.6s.79 11.111-3.3 17.751c0 0-3.72 2.35-5.518 3.387z" class="cls-16" transform="translate(-3.809 -143.779)"/>
            <path id="Path_1487" d="M118.782 413.039c-6.164-.152-4.385-.2-10.559-.285-3.016-.048-22.831-.323-25.685.124-.067 0-.067.114 0 .124 2.854.485 22.66.419 25.685.4 6.164 0 4.4-.086 10.559-.181a.1.1 0 0 0 0-.181z" class="cls-5" transform="translate(-4.017 -152.604)"/>
            <path id="Path_1488" d="M132.327 248.248a76.108 76.108 0 0 0-11.14 6.592.128.128 0 0 0 .133.219c3.805-2.083 7.61-4.1 11.263-6.383a.25.25 0 0 0-.257-.428z" class="cls-5" transform="translate(-5.899 -144.597)"/>
            <path id="Path_1489" d="M127.554 247.635a19.4 19.4 0 0 0-.533 2.34 5.052 5.052 0 0 0-.124 1.9c0 .124.2.114.257 0a6.583 6.583 0 0 0 .609-1.9c.19-.733.4-1.456.561-2.188.115-.466-.617-.627-.77-.152z" class="cls-5" transform="translate(-6.178 -144.555)"/>
            <path id="Path_1490" d="M127.2 243.43c.1-.666.209-1.322.333-1.979s.295-1.37.361-2.055c0-.114.19-.076.171 0-.1.666-.114 1.351-.171 2.017s-.114 1.341-.181 2.007a37.742 37.742 0 0 1-.59 3.739 4.49 4.49 0 0 0 1.826-.752 3.52 3.52 0 0 0 .951-1.9c.19-.761.362-1.522.561-2.283a14.355 14.355 0 0 0 .58-2.53c0-.114.19-.076.171 0a26.817 26.817 0 0 1-1.008 5.337 2.93 2.93 0 0 1-1 1.769 5.754 5.754 0 0 1-2.217.656c-.086 0-.219 0-.209-.1q.114-1.976.422-3.926z" class="cls-5" transform="translate(-6.174 -144.164)"/>
            <path id="Path_1491" d="M93.089 265.547c-.285-2.911-.761-5.8-1.075-8.714a54.225 54.225 0 0 1 1.046-17.428c0-.1-.143-.152-.162 0a64.687 64.687 0 0 0-1.56 15.3c.257 5.137 1.17 10.2 1.246 15.344s-.323 10.417-.656 15.611-.675 10.464-1.008 15.687c-1.351 21.014-2.6 42.028-3.881 63.052q-.533 8.79-1.027 17.6c-.342 5.965-.761 11.939-.951 17.922 0 .514.742.476.79 0 .894-10.55 1.408-21.138 2.083-31.688s1.275-20.929 1.9-31.393 1.265-20.929 1.9-31.393q.457-7.839.951-15.678c.3-5.2.685-10.417.761-15.63a75.92 75.92 0 0 0-.357-8.592z" class="cls-5" transform="translate(-4.142 -144.163)"/>
            <path id="Path_1492" d="M107.6 239a.1.1 0 0 0-.162 0 6.878 6.878 0 0 0-.371 2.14 15.868 15.868 0 0 1-.542 2.3 9.18 9.18 0 0 1-2.378 4c-2.492 2.331-5.831 3.2-9.047 3.976a.1.1 0 0 0 0 .2 14.318 14.318 0 0 0 5.613-.875 11.673 11.673 0 0 0 4.328-2.426 8.048 8.048 0 0 0 2.34-4.233 13.6 13.6 0 0 0 .266-2.569v-1.237A3.263 3.263 0 0 0 107.6 239z" class="cls-5" transform="translate(-4.627 -144.146)"/>
            <path id="Path_1493" d="M127.835 182.586c.818 6.469 13.489 30.518 26.979 41.172 4.947 3.91 31.174 6.221 37.738 5.708 7.677-.59 8.828-18.864 4.528-20.291-5.375-1.779-30.242-3.976-35.122-5.708-5.936-2.15-16.743-15.953-27.017-24.5-5.279-4.42-7.734-1.357-7.106 3.619z" class="cls-15" transform="translate(-6.221 -141.121)"/>
            <path id="Path_1494" d="M195.6 230.879c2.426-.067 13.528-1.341 16.543-2.388s11.416-4.68 10.883-7.068-3.12-1.522-3.12-1.522 3.32-2.1 2.53-4.452-4.757-.866-4.757-.866 3.253-2.407 2.293-4.7-4.661-.133-4.661-.133 3.082-2.064 1.5-3.624c-1.9-1.9-7.154 2.578-10.559 3.482-.78.209-16 3.054-16 3.054z" class="cls-15" transform="translate(-9.265 -142.524)"/>
            <path id="Path_1495" d="M216.431 209.767c-3.872 3.253-6.126 4.014-11.054 4.69a.086.086 0 0 0 0 .162c4.88-.228 7.848-.771 11.216-4.671.143-.191-.01-.333-.162-.181z" class="cls-5" transform="translate(-9.999 -142.721)"/>
            <path id="Path_1496" d="M218.822 214.758c-4.309 3.082-6.745 3.872-11.825 4.985-.067 0-.048.143 0 .133 5.1-.656 8.048-1.265 11.958-4.861.162-.181.067-.4-.133-.257z" class="cls-5" transform="translate(-10.078 -142.965)"/>
            <path id="Path_1497" d="M220.515 220.676c-4.385 2.635-7.021 3.672-12.12 4.1a.1.1 0 1 0 0 .19 16.981 16.981 0 0 0 12.177-4.148c.257-.199.219-.304-.057-.142z" class="cls-5" transform="translate(-10.144 -143.252)"/>
            <path id="Path_1498" d="M186.55 210.665a62.422 62.422 0 0 1 8.02-4.386c2.683-.951 14-.951 14.127 1.5.171 3.158-6.364 4.424-9.646 4.633 0 0 .409 7.3-4.091 9.228s-8.41-10.975-8.41-10.975z" class="cls-15" transform="translate(-9.085 -142.526)"/>
            <path id="Path_1499" d="M208.906 208.819c-1.9 2.987-6.25 2.978-9.418 3.415a.285.285 0 0 0-.238.419c0 3.073-.951 7.392-3.663 9.209-.086.057 0 .181.067.133 3.149-1.56 4.424-5.708 4.243-9.1 3.253-.39 7.61-.571 9.037-4.062.01-.023-.018-.033-.028-.014z" class="cls-5" transform="translate(-9.523 -142.678)"/>
            <path id="Path_1500" d="M169.869 229.1s-13.432-3.672-15.069-4.956a58.752 58.752 0 0 1-5.1-4.509c-12.224-12.015-19.606-28.4-21.6-34.1-2.112-6.079-.171-11.9 5.489-7.981a15.931 15.931 0 0 1 1.313 1.037c6.659 5.8 24.467 23.45 26.636 24.353s12.624 2.274 12.624 2.274z" class="cls-6" transform="translate(-6.198 -141.093)"/>
            <path id="Path_1501" d="M149.7 219.63c-12.224-12.015-19.606-28.4-21.6-34.1-2.112-6.079-.171-11.9 5.489-7.981z" class="cls-5" transform="translate(-6.198 -141.093)"/>
            <path id="Path_1502" d="M171.755 206.247a49.878 49.878 0 0 0-1.551 5.6c-.466 1.9-.951 3.805-1.341 5.708a101.429 101.429 0 0 0-1.9 11.311.086.086 0 1 0 .171 0c1.027-3.729 1.788-7.544 2.569-11.33.39-1.9.742-3.748 1.132-5.613s.856-3.805 1.065-5.651a.073.073 0 0 0-.143-.029z" class="cls-5" transform="translate(-8.131 -142.55)"/>
            <path id="Path_1503" d="M141.534 196.728c.314 1.408.561 2.854.752 4.338a1.048 1.048 0 0 1 0-.171c.076-.809.133-1.636.276-2.435 0 0 .076-.048.076 0a12.567 12.567 0 0 1-.1 2.464c-.048.39-.1.78-.152 1.161.067.656.124 1.313.162 1.96.076 1.237.314 6.516.285 7.42 0 .19-.219.209-.266 0-.181-.951-.656-6.364-.79-7.61a66.465 66.465 0 0 1-.361-7.154c.023-.03.099-.021.118.027z" class="cls-5" transform="translate(-6.887 -142.087)"/>
            <path id="Path_1504" d="M140.462 235.243c-1.9 1.712-4.224 4.214-17.58 5.147-.837 0-1.693.067-2.549 0-12.862-.361-30.908-10.464-31.983-11.263 0 0 13.86-37.5 32.192-51.893 2.616-2.064 8.229-1.046 11.739 1.075 1.256.761 5.4 7.7 6.241 14.013s3.833 41.208 1.94 42.921z" class="cls-6" transform="translate(-4.302 -141.085)"/>
            <path id="Path_1505" d="M131.7 187.15c-3.234.266-7.867-5.327-9.389-9.513-.1-.285.732-3.016 1.589-6.383.514-2.045 1.037-4.328 1.36-6.45.067-.438 1.427.59 1.427.59l2.645 1.084 8.752 3.6a34.084 34.084 0 0 0-2.54 7.953 4.755 4.755 0 0 0 0 .894.816.816 0 0 1 0 .143c-.03 1.68-.725 7.797-3.844 8.082z" class="cls-15" transform="translate(-5.956 -140.529)"/>
            <path id="Path_1506" d="M135.684 178.967a.817.817 0 0 1 0 .143 8.306 8.306 0 0 1-1.379-.133c-8.942-1.57-8.3-13.147-8.3-13.147l3.52.694 8.752 3.6a34.085 34.085 0 0 0-2.54 7.953 4.758 4.758 0 0 0-.048.894z" class="cls-5" transform="translate(-6.135 -140.585)"/>
            <path id="Path_1507" d="M124.427 149.794c-1.7 4.7.114 18.607 3.349 21.88 4.69 4.757 12.728 5.546 16.81-.181 3.967-5.537 1.275-23.63-2.369-26.636-5.376-4.405-15.279-1.998-17.79 4.937z" class="cls-15" transform="translate(-6.028 -139.455)"/>
            <path id="Path_1508" d="M137.743 160.28s-.067.057-.057.1c.143.951.162 2.026-.656 2.445v.048c1.037-.281 1.008-1.737.713-2.593z" class="cls-5" transform="translate(-6.673 -140.314)"/>
            <path id="Path_1509" d="M136.717 159.36c-1.522.076-1.256 3.111.152 3.044s1.123-3.111-.152-3.044z" class="cls-5" transform="translate(-6.608 -140.27)"/>
            <path id="Path_1510" d="M143.839 159.62a.075.075 0 0 1 .076.076c.057.951.276 2.017 1.151 2.264-1.075-.009-1.332-1.436-1.227-2.34z" class="cls-5" transform="translate(-7.004 -140.282)"/>
            <path id="Path_1511" d="M144.6 158.509c1.5-.238 1.9 2.787.485 3.016s-1.75-2.806-.485-3.016z" class="cls-5" transform="translate(-7.003 -140.228)"/>
            <path id="Path_1512" d="M135.484 156.885c.4-.143.752-.342 1.142-.523a2 2 0 0 0 1.056-.742.637.637 0 0 0-.162-.771 1.627 1.627 0 0 0-1.627 0 2.321 2.321 0 0 0-1.256 1.132.685.685 0 0 0 .847.9z" class="cls-5" transform="translate(-6.554 -140.039)"/>
            <path id="Path_1513" d="M145.508 157.331a10.83 10.83 0 0 1-1.237-.209 2.026 2.026 0 0 1-1.218-.457.647.647 0 0 1 0-.78 1.57 1.57 0 0 1 1.56-.438 2.359 2.359 0 0 1 1.513.771.694.694 0 0 1-.618 1.113z" class="cls-5" transform="translate(-6.96 -140.076)"/>
            <path id="Path_1514" d="M137.7 169.209c.238.2.495.485.837.485a2.531 2.531 0 0 0 .951-.323l.048.048a1.284 1.284 0 0 1-1.151.609 1.008 1.008 0 0 1-.818-.761.1.1 0 0 1 .133-.058z" class="cls-5" transform="translate(-6.699 -140.749)"/>
            <path id="Path_1515" d="M142.253 164.532a20.257 20.257 0 0 1 .181 2.064 14.269 14.269 0 0 0-3.805.533c-.285.1-.285-.152 0-.342a5.565 5.565 0 0 1 3.215-.771 18.024 18.024 0 0 1-.219-2.159 5.918 5.918 0 0 1 1.494.352c-.295-2.93-1.056-5.793-1.313-8.714 0-.1.143-.143.171-.048a47.051 47.051 0 0 1 1.817 9.332c.086.371-1.274-.142-1.541-.247z" class="cls-5" transform="translate(-6.74 -140.076)"/>
            <path id="Path_1516" d="M125.265 161.263c2.4-.171 2.093-6.031 2.093-6.031s3.653-.7 5.375-5.708c0 0 4.757 2.854 8.685 2.131 6.164-1.2 5.9-9.237 3.567-10.845-3.311-2.283-9.113 1.17-9.113 1.17s-8.866-2.35-11.416 3.663a4.538 4.538 0 0 0-4.167 4.576c-.228 4.328 3.197 11.168 4.976 11.044z" class="cls-5" transform="translate(-5.857 -139.328)"/>
            <path id="Path_1517" d="M126.826 156.337a8.105 8.105 0 0 0 4.585-2.588 6.041 6.041 0 0 0 1.341-5.422.086.086 0 0 1 .162 0 6.982 6.982 0 0 1-.951 5.879 5.708 5.708 0 0 1-5.156 2.34c-.057-.046-.085-.19.019-.209z" class="cls-5" transform="translate(-6.173 -139.729)"/>
            <path id="Path_1518" d="M119.876 147.909c1.2-1.56 3.054-1.817 4.89-1.779.1 0 .1.171 0 .162a5.118 5.118 0 0 0-4.547 2.54c-.951 1.465-.675 3.282-.285 4.88a12.909 12.909 0 0 0 5.223 7.61v.067a12.823 12.823 0 0 1-5.86-8.3c-.372-1.679-.524-3.715.579-5.18z" class="cls-5" transform="translate(-5.796 -139.625)"/>
            <path id="Path_1519" d="M136.419 142.211a6.069 6.069 0 0 1 3.368-2.645 7.22 7.22 0 0 1 5.137.457 4.091 4.091 0 0 1 2.188 3.453 7.239 7.239 0 0 1-1.57 4.585h-.057a7.135 7.135 0 0 0 1.208-4.167 3.739 3.739 0 0 0-2.245-3.291c-2.549-1.094-6.26-.866-7.9 1.731-.048.057-.186-.034-.129-.123z" class="cls-5" transform="translate(-6.643 -139.292)"/>
            <path id="Path_1520" d="M126.7 161.933s-2.978-4.557-5.042-3.5.1 7.61 2.445 8.562a2.416 2.416 0 0 0 3.272-1.2z" class="cls-15" transform="translate(-5.884 -140.217)"/>
            <path id="Path_1521" d="M122.35 160.39v.067a6.1 6.1 0 0 1 3.035 3.919 1.332 1.332 0 0 0-1.988-.428v.086a1.484 1.484 0 0 1 1.617.571 7.162 7.162 0 0 1 .742 1.351c.076.152.342.076.295-.1.133-2.156-1.427-5.181-3.701-5.466z" class="cls-5" transform="translate(-5.958 -140.32)"/>
            <path id="Path_1522" d="M31.079 458.609H0V452.9h31.079c24.62 0 31.64-21.071 33.191-38.746 1.218-13.841 1.96-30.7 2.749-48.516 2.959-66.762 6.022-135.8 32.887-135.8h24.62v5.708H99.887c-21.4 0-24.734 75.333-27.179 130.328-.8 17.913-1.551 34.827-2.768 48.8-2.474 28.326-16.277 43.935-38.861 43.935z" class="cls-4" transform="translate(0 -143.702)"/>
            <path id="Path_1523" d="M129.833 229.81v5.708H110.2l-1.218-5.708z" class="cls-12" transform="translate(-5.307 -143.7)"/>
            <path id="Rectangle_371" d="M0 0H10.483V73.231H0z" class="cls-4" transform="rotate(180 110.209 62.918)"/>
            <path id="Rectangle_372" d="M0 0H39.841V65.526H0z" class="cls-4" transform="translate(170.093 56.077)"/>
            <path id="Path_1524" d="M219.946 198.24v65.526h-9.894l-4.442-65.526z" class="cls-12" transform="translate(-10.013 -142.163)"/>
            <path id="Rectangle_373" d="M0 0H29.557V11.672H0z" class="cls-4" transform="rotate(180 69.65 47.398)"/>
            <path id="Rectangle_374" d="M0 0H29.557V11.672H0z" class="cls-4" transform="translate(109.742 83.132)"/>
            <path id="Path_1525" d="M135.52 238.343l.97-11.663h9.41v11.663z" class="cls-12" transform="translate(-6.6 -143.548)"/>
            <path id="Path_1526" d="M0 0h24.943a5.85 5.85 0 0 1 5.85 5.85v45.32a5.851 5.851 0 0 1-5.851 5.85H0z" class="cls-4" transform="rotate(180 85.046 58.86)"/>
            <path id="Path_1527" d="M165.02 260.121l4.443-57.011h8.666v57.011z" class="cls-12" transform="translate(-8.036 -142.4)"/>
            <g id="Group_1581" class="cls-14" transform="translate(148.137 72.23)">
                <path id="Rectangle_375" d="M0 0H1.969V33.961H0z" transform="rotate(180 6.554 16.98)"/>
                <path id="Rectangle_376" d="M0 0H1.969V33.961H0z" transform="rotate(180 3.772 16.98)"/>
                <path id="Rectangle_377" d="M0 0H1.969V33.961H0z" transform="rotate(180 .984 16.98)"/>
            </g>
            <path id="Path_1528" d="M113.412 190.845c-.951 13.737-2.036 41.715 4.034 49.924 7.962 10.769 30.442 17.3 37.1 19.264 2.854.847 9.694-18.075 8-20.8s-24.9-8.562-26.722-10.16-7.61-23.9-10.36-35.255c-3.557-14.318-11.664-8.395-12.052-2.973z" class="cls-15" transform="translate(-5.487 -141.513)"/>
            <path id="Path_1529" d="M181.768 249.125c3.663.875 9.218-1.008 9.4 1.8.162 2.492-3.805 3.415-3.805 3.415s4.814.409 4.224 3.139-5.156 2.854-5.156 2.854 4.414.6 3.624 3.282-5.023 3.054-5.023 3.054 1.113.828-.295 2.473c-2.007 2.359-8.7 2.083-12.158 1.113s-15.411-7.1-17.228-8.077l6.06-22.26s6.954-1.1 10.55-1.237 15.554 2.721 15.05 5.708-8.923.856-11.1.78-2.559.409-1.608 1.208c.615.56 5.838 2.358 7.465 2.748z" class="cls-15" transform="translate(-7.565 -144.132)"/>
            <path id="Path_1530" d="M188.077 254.992c-5.622.951-8.248.323-13.4-1.9-.1-.048-.19.1-.086.152 4.852 2.616 8.038 3.805 13.547 2.007.272-.078.215-.297-.061-.259z" class="cls-5" transform="translate(-8.5 -144.834)"/>
            <path id="Path_1531" d="M187.511 261.233c-5.927.428-8.771-.171-14.346-2.093-.076 0-.133.1-.057.143 5.318 2.331 8.514 3.463 14.384 2.255.266-.048.295-.324.019-.305z" class="cls-5" transform="translate(-8.428 -145.129)"/>
            <path id="Path_1532" d="M185.741 267.9c-5.774 0-8.923-.533-14.1-3.082a.1.1 0 0 0-.1.181 19.176 19.176 0 0 0 14.184 3.082c.349-.056.375-.181.016-.181z" class="cls-5" transform="translate(-8.351 -145.405)"/>
            <path id="Path_1533" d="M136.964 255.483s-18.141-9.113-20.929-16.1c-3.425-8.714-4.823-34.123-3.491-47.156s10.407-11.416 13.318.1c2.854 11.244 9.294 33.7 9.96 34.76.847 1.36 11.2 3.919 11.2 3.919" class="cls-6" transform="translate(-5.456 -141.424)"/>
            <path id="Path_1534" d="M135.955 225.084c-.314-1.075-.866-3.5-1.18-4.547-.637-2.093-1.275-4.2-1.9-6.288s-1.3-4.2-2-6.279c-.124-.352-.238-.713-.352-1.065.057-.228-.2-2.987-.181-3.663 0-.1-.171-.114-.162 0a14.429 14.429 0 0 1-.067 2.026v.381c-.438-1.37-.875-2.73-1.322-4.062 0-.1-.19-.057-.162 0 .856 2.854 1.275 4.652 1.9 6.964s1.275 4.462 1.9 6.659 1.36 4.433 2.055 6.659a40.744 40.744 0 0 0 1.37 3.891c.405.856.424.456.101-.676z" class="cls-5" transform="translate(-6.264 -142.323)"/>
            <path id="Path_1535" d="M114.6 232.849c-.371-2.35-.742-4.757-1.027-7.078-.58-4.757-.951-9.437-1.161-14.193-.124-2.721-.323-5.422-.476-8.134a.1.1 0 1 0-.209 0c0 2.416-.086 4.823 0 7.239v1.056l-.114-.495c-.352-1.379-.847-2.73-1.151-4.129a.076.076 0 0 0-.143.048c.342 1.389.523 2.854.847 4.214.171.694.342 1.389.533 2.083l.1.295c.057 1.389.124 2.778.219 4.167a116.926 116.926 0 0 0 1.646 14.212 56.124 56.124 0 0 0 2.483 9.028.076.076 0 0 0 .143 0c-.567-2.348-1.309-5.962-1.69-8.313z" class="cls-5" transform="translate(-5.372 -142.411)"/>
            <path id="Path_1536" d="M144.792 233.459a49.111 49.111 0 0 0-2.664 5.289c-.837 1.788-1.684 3.577-2.473 5.384a104.64 104.64 0 0 0-4.2 10.921.1.1 0 0 0 .171.067c1.769-3.52 3.282-7.182 4.823-10.807.761-1.788 1.494-3.6 2.245-5.384s1.608-3.586 2.188-5.432c.024-.057-.061-.086-.09-.038z" class="cls-5" transform="translate(-6.597 -143.877)"/>
        </g>
        <g id="freepik--Lines--inject-18" transform="translate(182.774 139.68)">
            <path id="Path_1537" d="M250.136 180.976a.476.476 0 0 1-.476-.476v-13.384a.476.476 0 1 1 .951 0V180.5a.476.476 0 0 1-.476.476z" class="cls-5" transform="translate(-218.501 -166.641)"/>
            <path id="Path_1538" d="M224.333 187.805a.485.485 0 0 1-.419-.238l-6.659-11.6a.476.476 0 1 1 .818-.476l6.659 11.6a.466.466 0 0 1-.171.647.447.447 0 0 1-.228.067z" class="cls-5" transform="translate(-216.919 -167.058)"/>
            <path id="Path_1539" d="M217.357 288.127a.448.448 0 0 1-.238-.067.466.466 0 0 1-.124-.666l6.659-11.587a.477.477 0 0 1 .828.476l-6.659 11.587a.476.476 0 0 1-.466.257z" class="cls-5" transform="translate(-216.906 -171.945)"/>
            <path id="Path_1540" d="M249.816 296.817a.476.476 0 0 1-.476-.476v-13.365a.476.476 0 0 1 .476-.476.485.485 0 0 1 .476.476v13.384a.476.476 0 0 1-.476.457z" class="cls-5" transform="translate(-218.485 -172.283)"/>
            <path id="Path_1541" d="M281.975 288.288a.476.476 0 0 1-.409-.238l-6.659-11.587a.477.477 0 0 1 .828-.476l6.659 11.587a.466.466 0 0 1-.171.647.447.447 0 0 1-.248.067z" class="cls-5" transform="translate(-219.727 -171.954)"/>
            <path id="Path_1542" d="M275.556 187.97a.447.447 0 0 1-.238-.067.466.466 0 0 1-.171-.647l6.659-11.6a.476.476 0 0 1 .818.476l-6.659 11.6a.5.5 0 0 1-.409.238z" class="cls-5" transform="translate(-219.739 -167.07)"/>
        </g>
    </g>
</svg>
