<svg xmlns="http://www.w3.org/2000/svg" width="17.124" height="17.873" viewBox="0 0 17.124 17.873">
    <defs>
        <style>
            .cls-1{fill:#c3d0d9}
        </style>
    </defs>
    <g id="accept">
        <path id="Path_168" d="M12.775 8.158h.1q.25 0 .5.032V2.109A2.111 2.111 0 0 0 11.259 0h-9.15A2.111 2.111 0 0 0 0 2.109v12.13a2.111 2.111 0 0 0 2.109 2.109h6.109a5.365 5.365 0 0 1 4.557-8.19zM7.563 3.444h3.125a.524.524 0 0 1 0 1.047H7.563a.524.524 0 1 1 0-1.047zm0 2.095h3.125a.524.524 0 0 1 0 1.047H7.563a.524.524 0 1 1 0-1.047zM5.8 12.9H2.68a.524.524 0 1 1 0-1.047H5.8a.524.524 0 1 1 0 1.047zm0-2.13H2.68a.524.524 0 1 1 0-1.047H5.8a.524.524 0 1 1 0 1.047zm0-2.095H2.68a.524.524 0 1 1 0-1.047H5.8a.524.524 0 0 1 0 1.047zm0-2.095H2.68a.524.524 0 0 1 0-1.047H5.8a.524.524 0 0 1 0 1.047zm0-2.095H2.68a.524.524 0 1 1 0-1.047H5.8a.524.524 0 1 1 0 1.047zm1.24 3.671a.524.524 0 0 1 .524-.524h1.505a.524.524 0 0 1 0 1.047H7.563a.524.524 0 0 1-.524-.524zm0 0" class="cls-1"/>
        <path id="Path_169" d="M248.836 263.98a4.321 4.321 0 0 0-3.022-1.3h-.078a4.351 4.351 0 1 0 3.1 1.3zm-1.243 2.343l-1.661 2.07a.524.524 0 0 1-.716.1l-1.239-.9a.524.524 0 0 1 .614-.848l.835.6 1.349-1.681a.524.524 0 0 1 .817.655zm0 0" class="cls-1" transform="translate(-232.96 -253.509)"/>
    </g>
</svg>
