<svg xmlns="http://www.w3.org/2000/svg" width="19.094" height="12.75" viewBox="0 0 19.094 12.75">
    <defs>
        <style>
            .cls-1{fill:#c3d0d9}
        </style>
    </defs>
    <g id="credit-card" transform="translate(0 -80)">
        <path id="Path_536" d="M19.094 82.924v-.951A2.033 2.033 0 0 0 17.005 80H2.088A2.033 2.033 0 0 0 0 81.973v.951a.182.182 0 0 0 .186.176h18.721a.182.182 0 0 0 .187-.176z" class="cls-1"/>
        <path id="Path_537" d="M0 200.176v6.024a2.033 2.033 0 0 0 2.088 1.973h14.917a2.033 2.033 0 0 0 2.088-1.973v-6.024a.182.182 0 0 0-.186-.176H.186a.182.182 0 0 0-.186.176zm4.773 4.615a.581.581 0 0 1-.6.564h-.6a.581.581 0 0 1-.6-.564v-.564a.581.581 0 0 1 .6-.564h.6a.581.581 0 0 1 .6.564z" class="cls-1" transform="translate(0 -115.423)"/>
    </g>
</svg>
