<svg xmlns="http://www.w3.org/2000/svg" width="24" height="24" viewBox="0 0 24 24">
    <g transform="translate(-11 -16.98)">
        <circle cx="12" cy="12" r="12" fill="#273d4c" transform="translate(11 16.98)"/>
        <path fill="#30cf87" d="M13.6.24a.387.387 0 0 0-.7-.03 4.27 4.27 0 0 1-3.734 2.179H7.174A4.782 4.782 0 0 0 2.393 7.17a4.923 4.923 0 0 0 .037.51 11.913 11.913 0 0 1 7.134-2.1.4.4 0 1 1 0 .8C3.3 6.373.65 10.21.062 11.652a.8.8 0 0 0 1.477.605A6.551 6.551 0 0 1 3.329 10a4.77 4.77 0 0 0 4.355 1.922c3.909-.284 6.661-3.79 6.661-8.082A9.054 9.054 0 0 0 13.6.24z" transform="translate(15.6 22.314)"/>
    </g>
</svg>
