<svg xmlns="http://www.w3.org/2000/svg" id="logout_1_" width="17.804" height="17.804" viewBox="0 0 17.804 17.804">
    <defs>
        <style>
            .cls-1{fill:#c3d0d9}
        </style>
    </defs>
    <path id="Path_166" d="M8.16 11.127a2.225 2.225 0 1 1 0-4.451h3.709V2.04A2.042 2.042 0 0 0 9.829 0H2.04A2.042 2.042 0 0 0 0 2.04v13.724A2.042 2.042 0 0 0 2.04 17.8h7.789a2.042 2.042 0 0 0 2.04-2.04v-4.633z" class="cls-1"/>
    <path id="Path_167" d="M16.392 14.362a.743.743 0 0 1-.458-.685v-2.226h-5.192a.742.742 0 1 1 0-1.484h5.193V7.742a.742.742 0 0 1 1.265-.525l2.967 2.967a.741.741 0 0 1 0 1.049L17.2 14.2a.742.742 0 0 1-.808.162z" class="cls-1" transform="translate(-2.582 -1.807)"/>
</svg>
