<svg xmlns="http://www.w3.org/2000/svg" width="85" height="85" viewBox="0 0 85 85">
    <defs>
        <filter id="ui8gw3o2za" width="85" height="85" x="0" y="0" filterUnits="userSpaceOnUse">
            <feOffset dy="9"/>
            <feGaussianBlur result="blur" stdDeviation="7.5"/>
            <feFlood flood-color="#3bce89" flood-opacity=".4"/>
            <feComposite in2="blur" operator="in"/>
            <feComposite in="SourceGraphic"/>
        </filter>
    </defs>
    <g>
        <g filter="url(#ui8gw3o2za)" transform="translate(-257.5 -172.5) translate(257.5 172.5)">
            <circle cx="20" cy="20" r="20" fill="#30cf87" transform="translate(22.5 13.5)"/>
        </g>
        <path fill="#fff" d="M20.691 6.112L17.56 20.879c-.236 1.042-.852 1.3-1.728.811l-4.771-3.516-2.3 2.214a1.2 1.2 0 0 1-.959.468L8.143 16l8.842-7.99c.384-.343-.083-.533-.6-.19L5.457 14.7.751 13.227c-1.024-.32-1.042-1.024.213-1.515l18.407-7.091c.852-.321 1.598.19 1.32 1.491z" transform="translate(-257.5 -172.5) translate(287.933 192.772)"/>
    </g>
</svg>
