<svg xmlns="http://www.w3.org/2000/svg" width="18.176" height="18.755" viewBox="0 0 18.176 18.755">
    <g>
        <path fill="#c3d0d9" d="M5.209 12.59l1.705 2.953a.853.853 0 0 0 1.011.381l2.509-.849a6.81 6.81 0 0 0 .688.4l.519 2.6a.853.853 0 0 0 .836.685h3.41a.853.853 0 0 0 .836-.685l.519-2.6a6.82 6.82 0 0 0 .688-.4l2.509.849a.853.853 0 0 0 1.011-.381l1.705-2.953a.852.852 0 0 0-.176-1.067l-1.99-1.749C21 9.642 21 9.51 21 9.378s0-.265-.012-.4l1.99-1.749a.852.852 0 0 0 .176-1.067l-1.703-2.95a.853.853 0 0 0-1.011-.381l-2.509.849a6.8 6.8 0 0 0-.688-.4l-.519-2.6a.853.853 0 0 0-.836-.68h-3.41a.853.853 0 0 0-.836.685l-.519 2.6a6.82 6.82 0 0 0-.688.4l-2.51-.854a.853.853 0 0 0-1.011.381L5.209 6.165a.852.852 0 0 0 .176 1.067l1.99 1.749c-.008.132-.011.265-.011.4s0 .265.011.4l-1.99 1.749a.853.853 0 0 0-.176 1.06zm8.974-6.622a3.41 3.41 0 1 1-3.41 3.41 3.414 3.414 0 0 1 3.41-3.41z" transform="translate(-5.095)"/>
    </g>
</svg>
