<svg xmlns="http://www.w3.org/2000/svg" width="34.875" height="34.875" viewBox="0 0 34.875 34.875">
    <path fill="#30cf87" d="M18 .563A17.438 17.438 0 1 1 .563 18 17.434 17.434 0 0 1 18 .563zm-2.032 10.1l5.309 5.091H8.438a1.683 1.683 0 0 0-1.688 1.684v1.125a1.683 1.683 0 0 0 1.688 1.687h12.839l-5.309 5.091a1.689 1.689 0 0 0-.028 2.412l.773.766a1.681 1.681 0 0 0 2.384 0l9.33-9.323a1.681 1.681 0 0 0 0-2.384L19.1 7.474a1.681 1.681 0 0 0-2.384 0l-.773.766a1.7 1.7 0 0 0 .028 2.419z" transform="translate(-.563 -.563)"/>
</svg>
