<svg xmlns="http://www.w3.org/2000/svg" width="184.832" height="178.516" viewBox="0 0 184.832 178.516">
    <defs>
        <style>
            .cls-1{fill:#cc6164}.cls-2{fill:#f3f7fa}.cls-3{fill:#e68799}.cls-4,.cls-5{fill:#c3d0d9}.cls-5{opacity:.2}.cls-6{fill:#fff}.cls-7{fill:#402c49}.cls-8{opacity:.5}
        </style>
    </defs>
    <g id="Group_1517" transform="translate(-256.427 -43.361)">
        <g id="Group_1516" transform="translate(256.427 43.361)">
            <g id="Group_1515">
                <g id="Group_1514">
                    <g id="Group_1500" transform="translate(0 15.872)">
                        <g id="Group_1453">
                            <path id="Path_1078" d="M441.259 79.464a8.025 8.025 0 0 0-8.025-8.025H264.452a8.025 8.025 0 0 0-8.025 8.025v16.05h184.832z" class="cls-1" transform="translate(-256.427 -71.439)"/>
                            <path id="Path_1079" d="M256.427 114.028v130.544a8.025 8.025 0 0 0 8.025 8.025h168.781a8.025 8.025 0 0 0 8.025-8.025V114.028z" class="cls-2" transform="translate(-256.427 -89.953)"/>
                        </g>
                        <g id="Group_1499" transform="translate(9.858 37.336)">
                            <g id="Group_1454">
                                <rect id="Rectangle_308" width="19.649" height="19.649" class="cls-3" rx="4.732"/>
                                <rect id="Rectangle_309" width="19.65" height="19.649" class="cls-4" rx="4.732" transform="translate(24.244)"/>
                                <rect id="Rectangle_310" width="19.649" height="19.649" class="cls-4" rx="4.732" transform="translate(48.489)"/>
                                <rect id="Rectangle_311" width="19.649" height="19.649" class="cls-4" rx="4.732" transform="translate(72.733)"/>
                                <rect id="Rectangle_312" width="19.65" height="19.649" class="cls-4" rx="4.732" transform="translate(96.978)"/>
                                <rect id="Rectangle_313" width="19.65" height="19.649" class="cls-4" rx="4.732" transform="translate(121.222)"/>
                                <rect id="Rectangle_314" width="19.649" height="19.649" class="cls-4" rx="4.732" transform="translate(145.466)"/>
                            </g>
                            <g id="Group_1455" transform="translate(0 24.209)">
                                <rect id="Rectangle_315" width="19.649" height="19.649" class="cls-3" rx="4.732"/>
                                <rect id="Rectangle_316" width="19.65" height="19.649" class="cls-4" rx="4.732" transform="translate(24.244)"/>
                                <rect id="Rectangle_317" width="19.649" height="19.649" class="cls-4" rx="4.732" transform="translate(48.489)"/>
                                <rect id="Rectangle_318" width="19.649" height="19.649" class="cls-4" rx="4.732" transform="translate(72.733)"/>
                                <rect id="Rectangle_319" width="19.65" height="19.649" class="cls-4" rx="4.732" transform="translate(96.978)"/>
                                <rect id="Rectangle_320" width="19.65" height="19.649" class="cls-4" rx="4.732" transform="translate(121.222)"/>
                                <rect id="Rectangle_321" width="19.649" height="19.649" class="cls-4" rx="4.732" transform="translate(145.466)"/>
                            </g>
                            <g id="Group_1456" transform="translate(0 48.419)">
                                <rect id="Rectangle_322" width="19.649" height="19.649" class="cls-3" rx="4.732"/>
                                <rect id="Rectangle_323" width="19.65" height="19.649" class="cls-4" rx="4.732" transform="translate(24.244)"/>
                                <rect id="Rectangle_324" width="19.649" height="19.649" class="cls-4" rx="4.732" transform="translate(48.489)"/>
                                <rect id="Rectangle_325" width="19.649" height="19.649" class="cls-4" rx="4.732" transform="translate(72.733)"/>
                                <rect id="Rectangle_326" width="19.65" height="19.649" class="cls-4" rx="4.732" transform="translate(96.978)"/>
                                <rect id="Rectangle_327" width="19.65" height="19.649" class="cls-4" rx="4.732" transform="translate(121.222)"/>
                                <rect id="Rectangle_328" width="19.649" height="19.649" class="cls-4" rx="4.732" transform="translate(145.466)"/>
                            </g>
                            <g id="Group_1457" transform="translate(0 72.628)">
                                <rect id="Rectangle_329" width="19.649" height="19.649" class="cls-3" rx="4.732"/>
                                <rect id="Rectangle_330" width="19.65" height="19.649" class="cls-4" rx="4.732" transform="translate(24.244)"/>
                                <rect id="Rectangle_331" width="19.649" height="19.649" class="cls-4" rx="4.732" transform="translate(48.489)"/>
                                <rect id="Rectangle_332" width="19.649" height="19.649" class="cls-4" rx="4.732" transform="translate(72.733)"/>
                                <rect id="Rectangle_333" width="19.65" height="19.649" class="cls-4" rx="4.732" transform="translate(96.978)"/>
                                <rect id="Rectangle_334" width="19.65" height="19.649" class="cls-4" rx="4.732" transform="translate(121.222)"/>
                                <rect id="Rectangle_335" width="19.649" height="19.649" class="cls-4" rx="4.732" transform="translate(145.466)"/>
                            </g>
                            <g id="Group_1458" transform="translate(0 96.838)">
                                <rect id="Rectangle_336" width="19.649" height="19.649" class="cls-3" rx="4.732"/>
                                <rect id="Rectangle_337" width="19.65" height="19.649" class="cls-4" rx="4.732" transform="translate(24.244)"/>
                                <rect id="Rectangle_338" width="19.649" height="19.649" class="cls-4" rx="4.732" transform="translate(48.489)"/>
                                <rect id="Rectangle_339" width="19.649" height="19.649" class="cls-5" rx="4.732" transform="translate(72.733)"/>
                                <rect id="Rectangle_340" width="19.65" height="19.649" class="cls-5" rx="4.732" transform="translate(96.978)"/>
                                <rect id="Rectangle_341" width="19.65" height="19.649" class="cls-5" rx="4.732" transform="translate(121.222)"/>
                                <rect id="Rectangle_342" width="19.649" height="19.649" class="cls-5" rx="4.732" transform="translate(145.466)"/>
                            </g>
                            <g id="Group_1466" transform="translate(7.918 6.456)">
                                <g id="Group_1459" transform="translate(0 0.145)">
                                    <path id="Path_1080" d="M291.109 149.165v6.366h-2.146v-4.747h-1.091v-1.619z" class="cls-6" transform="translate(-287.872 -149.165)"/>
                                </g>
                                <g id="Group_1460" transform="translate(23.268)">
                                    <path id="Path_1081" d="M334.508 153.755v1.664h-5.1V154.1l2.3-2.128c.436-.409.5-.655.5-.873 0-.309-.209-.5-.618-.5a1.042 1.042 0 0 0-.937.591l-1.619-.809a2.921 2.921 0 0 1 2.756-1.473c1.509 0 2.574.782 2.574 1.992a2.508 2.508 0 0 1-1.092 2.028l-.909.828z" class="cls-6" transform="translate(-329.033 -148.908)"/>
                                </g>
                                <g id="Group_1461" transform="translate(47.601 0.145)">
                                    <path id="Path_1082" d="M377.5 153.494c0 1.092-.873 2.183-2.91 2.183a5.4 5.4 0 0 1-2.51-.573l.728-1.583a3.478 3.478 0 0 0 1.709.464c.483 0 .828-.164.828-.491 0-.272-.209-.436-.755-.436h-.846v-1.319l.937-.955h-2.274v-1.619h4.747v1.319l-1.183 1.2a1.808 1.808 0 0 1 1.529 1.81z" class="cls-6" transform="translate(-372.078 -149.165)"/>
                                </g>
                                <g id="Group_1462" transform="translate(71.715 0.145)">
                                    <path id="Path_1083" d="M420.965 154.44h-.846v1.092h-2.083v-1.092h-3.3v-1.364l2.7-3.911h2.2l-2.4 3.611h.864v-.976h2.019v.973h.846z" class="cls-6" transform="translate(-414.736 -149.165)"/>
                                </g>
                                <g id="Group_1463" transform="translate(96.27 0.145)">
                                    <path id="Path_1084" d="M463.594 153.44c0 1.137-.873 2.237-2.91 2.237a5.4 5.4 0 0 1-2.51-.573l.728-1.583a3.444 3.444 0 0 0 1.7.464c.482 0 .837-.173.837-.5 0-.272-.191-.454-.964-.454h-1.846l.318-3.865h4.229v1.619h-2.465l-.045.627h.327c1.883-.001 2.601.9 2.601 2.028z" class="cls-6" transform="translate(-458.174 -149.165)"/>
                                </g>
                                <g id="Group_1464" transform="translate(120.594)">
                                    <path id="Path_1085" d="M506.841 153.337a2.334 2.334 0 0 1-2.582 2.228 2.827 2.827 0 0 1-3.055-3.128 3.285 3.285 0 0 1 3.528-3.529 3.731 3.731 0 0 1 1.973.5l-.773 1.5a1.9 1.9 0 0 0-1.155-.336 1.293 1.293 0 0 0-1.383 1.083 2.105 2.105 0 0 1 1.265-.355 2.062 2.062 0 0 1 2.182 2.037zm-2.073.1a.655.655 0 1 0-1.31 0 .655.655 0 0 0 1.31 0z" class="cls-6" transform="translate(-501.203 -148.908)"/>
                                </g>
                                <g id="Group_1465" transform="translate(144.891 0.145)">
                                    <path id="Path_1086" d="M549.63 149.165v1.319l-2.119 5.048h-2.346l2.019-4.7h-1.228v.928h-1.773v-2.592z" class="cls-6" transform="translate(-544.183 -149.165)"/>
                                </g>
                            </g>
                            <g id="Group_1474" transform="translate(6.917 30.71)">
                                <g id="Group_1467">
                                    <path id="Path_1087" d="M291.813 196.433c0 1.237-1.173 2.037-2.856 2.037s-2.855-.8-2.855-2.037a1.664 1.664 0 0 1 .855-1.465 1.549 1.549 0 0 1-.627-1.255c0-1.155 1.082-1.9 2.628-1.9s2.629.746 2.629 1.9a1.551 1.551 0 0 1-.628 1.255 1.664 1.664 0 0 1 .854 1.465zm-2.155-.073a.7.7 0 1 0-.7.664.645.645 0 0 0 .7-.664zm-1.21-2.556a.511.511 0 1 0 .509-.546.5.5 0 0 0-.509.542z" class="cls-6" transform="translate(-286.102 -191.813)"/>
                                </g>
                                <g id="Group_1468" transform="translate(24.255)">
                                    <path id="Path_1088" d="M334.647 194.941a3.285 3.285 0 0 1-3.529 3.529 3.725 3.725 0 0 1-1.973-.5l.773-1.5a1.894 1.894 0 0 0 1.155.336 1.292 1.292 0 0 0 1.383-1.082 2.108 2.108 0 0 1-1.265.354 2.062 2.062 0 0 1-2.183-2.037 2.334 2.334 0 0 1 2.583-2.228 2.827 2.827 0 0 1 3.056 3.128zm-2.255-1a.655.655 0 0 0-1.31 0 .655.655 0 1 0 1.31 0z" class="cls-6" transform="translate(-329.009 -191.813)"/>
                                </g>
                                <g id="Group_1469" transform="translate(46.446)">
                                    <path id="Path_1089" d="M371.5 192.07v6.366h-2.146v-4.747h-1.092v-1.619z" class="cls-6" transform="translate(-368.264 -191.925)"/>
                                    <path id="Path_1090" d="M375.376 195.141c0-2.11 1.2-3.328 2.883-3.328s2.883 1.219 2.883 3.328-1.2 3.328-2.883 3.328-2.883-1.218-2.883-3.328zm3.611 0c0-1.228-.309-1.609-.728-1.609s-.728.382-.728 1.609.309 1.609.728 1.609.728-.381.728-1.609z" class="cls-6" transform="translate(-371.356 -191.813)"/>
                                </g>
                                <g id="Group_1470" transform="translate(71.988 0.145)">
                                    <path id="Path_1091" d="M416.686 192.07v6.366h-2.146v-4.747h-1.092v-1.619z" class="cls-6" transform="translate(-413.448 -192.07)"/>
                                    <path id="Path_1092" d="M423.411 192.07v6.366h-2.146v-4.747h-1.092v-1.619z" class="cls-6" transform="translate(-416.372 -192.07)"/>
                                </g>
                                <g id="Group_1471" transform="translate(95.42)">
                                    <path id="Path_1093" d="M458.137 192.07v6.366h-2.146v-4.747H454.9v-1.619z" class="cls-6" transform="translate(-454.9 -191.925)"/>
                                    <path id="Path_1094" d="M466.811 196.66v1.664h-5.1v-1.319l2.3-2.128c.437-.409.5-.654.5-.873 0-.309-.21-.5-.619-.5a1.042 1.042 0 0 0-.937.591l-1.618-.81a2.92 2.92 0 0 1 2.755-1.473c1.51 0 2.574.782 2.574 1.992a2.507 2.507 0 0 1-1.091 2.028l-.91.828z" class="cls-6" transform="translate(-457.698 -191.813)"/>
                                </g>
                                <g id="Group_1472" transform="translate(119.689 0.145)">
                                    <path id="Path_1095" d="M501.069 192.07v6.366h-2.146v-4.747h-1.092v-1.619z" class="cls-6" transform="translate(-497.832 -192.07)"/>
                                    <path id="Path_1096" d="M509.8 196.4c0 1.092-.873 2.183-2.911 2.183a5.4 5.4 0 0 1-2.51-.573l.728-1.583a3.481 3.481 0 0 0 1.71.464c.482 0 .828-.164.828-.491 0-.272-.21-.436-.755-.436h-.846v-1.319l.937-.955h-2.274v-1.62h4.747v1.319l-1.182 1.2a1.809 1.809 0 0 1 1.528 1.811z" class="cls-6" transform="translate(-500.678 -192.07)"/>
                                </g>
                                <g id="Group_1473" transform="translate(143.54 0.145)">
                                    <path id="Path_1097" d="M543.26 192.07v6.366h-2.146v-4.747h-1.092v-1.619z" class="cls-6" transform="translate(-540.023 -192.07)"/>
                                    <path id="Path_1098" d="M553.268 197.345h-.846v1.092h-2.083v-1.092h-3.3v-1.364l2.7-3.911h2.2l-2.4 3.611h.864v-.973h2.019v.973h.846z" class="cls-6" transform="translate(-543.072 -192.07)"/>
                                </g>
                            </g>
                            <g id="Group_1482" transform="translate(5.102 54.964)">
                                <g id="Group_1475" transform="translate(0 0.146)">
                                    <path id="Path_1099" d="M286.129 234.976v6.366h-2.146v-4.748h-1.092v-1.618z" class="cls-6" transform="translate(-282.892 -234.976)"/>
                                    <path id="Path_1100" d="M295.038 239.25c0 1.137-.873 2.237-2.91 2.237a5.4 5.4 0 0 1-2.51-.573l.728-1.583a3.451 3.451 0 0 0 1.7.464c.482 0 .837-.173.837-.5 0-.272-.191-.454-.964-.454h-1.846l.318-3.865h4.229v1.618h-2.465l-.045.628h.327c1.883 0 2.601.9 2.601 2.028z" class="cls-6" transform="translate(-285.816 -234.976)"/>
                                </g>
                                <g id="Group_1476" transform="translate(24.105)">
                                    <path id="Path_1101" d="M328.771 234.976v6.366h-2.146v-4.748h-1.092v-1.618z" class="cls-6" transform="translate(-325.534 -234.83)"/>
                                    <path id="Path_1102" d="M338.284 239.148a2.334 2.334 0 0 1-2.583 2.228 2.827 2.827 0 0 1-3.055-3.128 3.285 3.285 0 0 1 3.529-3.529 3.734 3.734 0 0 1 1.973.5l-.773 1.5a1.9 1.9 0 0 0-1.155-.337 1.292 1.292 0 0 0-1.382 1.083 2.106 2.106 0 0 1 1.264-.355 2.063 2.063 0 0 1 2.182 2.038zm-2.074.1a.655.655 0 0 0-1.31 0 .655.655 0 0 0 1.31 0z" class="cls-6" transform="translate(-328.626 -234.718)"/>
                                </g>
                                <g id="Group_1477" transform="translate(48.474 0.146)">
                                    <path id="Path_1103" d="M371.88 234.976v6.366h-2.146v-4.748h-1.092v-1.618z" class="cls-6" transform="translate(-368.643 -234.976)"/>
                                    <path id="Path_1104" d="M381.073 234.976v1.318l-2.119 5.048h-2.345l2.019-4.7H377.4v.928h-1.773v-2.592z" class="cls-6" transform="translate(-371.679 -234.976)"/>
                                </g>
                                <g id="Group_1478" transform="translate(72.62)">
                                    <path id="Path_1105" d="M414.594 234.976v6.366h-2.146v-4.748h-1.092v-1.618z" class="cls-6" transform="translate(-411.357 -234.83)"/>
                                    <path id="Path_1106" d="M424.115 239.338c0 1.237-1.173 2.037-2.856 2.037s-2.855-.8-2.855-2.037a1.663 1.663 0 0 1 .855-1.464 1.552 1.552 0 0 1-.628-1.255c0-1.155 1.082-1.9 2.628-1.9s2.629.746 2.629 1.9a1.551 1.551 0 0 1-.628 1.255 1.663 1.663 0 0 1 .855 1.464zm-2.155-.073a.7.7 0 1 0-.7.664.645.645 0 0 0 .7-.664zm-1.21-2.555a.51.51 0 1 0 .509-.546.5.5 0 0 0-.509.546z" class="cls-6" transform="translate(-414.42 -234.718)"/>
                                </g>
                                <g id="Group_1479" transform="translate(96.993)">
                                    <path id="Path_1107" d="M457.711 234.976v6.366h-2.146v-4.748h-1.092v-1.618z" class="cls-6" transform="translate(-454.473 -234.83)"/>
                                    <path id="Path_1108" d="M466.95 237.847a3.286 3.286 0 0 1-3.529 3.529 3.731 3.731 0 0 1-1.973-.5l.773-1.5a1.9 1.9 0 0 0 1.155.336 1.292 1.292 0 0 0 1.382-1.082 2.107 2.107 0 0 1-1.264.354 2.062 2.062 0 0 1-2.183-2.037 2.334 2.334 0 0 1 2.582-2.228 2.828 2.828 0 0 1 3.057 3.128zm-2.256-1a.655.655 0 0 0-1.31 0 .655.655 0 0 0 1.31 0z" class="cls-6" transform="translate(-457.446 -234.718)"/>
                                </g>
                                <g id="Group_1480" transform="translate(120.121)">
                                    <path id="Path_1109" d="M500.861 239.565v1.665h-5.1v-1.319l2.3-2.128c.437-.409.5-.655.5-.873 0-.31-.209-.5-.618-.5a1.042 1.042 0 0 0-.937.591l-1.619-.809a2.92 2.92 0 0 1 2.756-1.474c1.509 0 2.574.782 2.574 1.992a2.506 2.506 0 0 1-1.092 2.028l-.909.828z" class="cls-6" transform="translate(-495.386 -234.718)"/>
                                    <path id="Path_1110" d="M505.844 238.047c0-2.11 1.2-3.329 2.883-3.329s2.883 1.219 2.883 3.329-1.2 3.328-2.883 3.328-2.883-1.218-2.883-3.328zm3.611 0c0-1.228-.309-1.61-.728-1.61s-.728.382-.728 1.61.309 1.609.728 1.609.728-.382.728-1.609z" class="cls-6" transform="translate(-499.932 -234.718)"/>
                                </g>
                                <g id="Group_1481" transform="translate(145.664)">
                                    <path id="Path_1111" d="M546.046 239.565v1.665h-5.1v-1.319l2.3-2.128c.437-.409.5-.655.5-.873 0-.31-.209-.5-.618-.5a1.041 1.041 0 0 0-.937.591l-1.618-.809a2.919 2.919 0 0 1 2.755-1.474c1.509 0 2.574.782 2.574 1.992a2.506 2.506 0 0 1-1.092 2.028l-.909.828z" class="cls-6" transform="translate(-540.571 -234.718)"/>
                                    <path id="Path_1112" d="M553.88 234.976v6.366h-2.146v-4.748h-1.092v-1.618z" class="cls-6" transform="translate(-544.949 -234.83)"/>
                                </g>
                            </g>
                            <g id="Group_1490" transform="translate(4.124 79.218)">
                                <g id="Group_1483">
                                    <path id="Path_1113" d="M286.637 282.47v1.664h-5.1v-1.318l2.3-2.128c.437-.409.5-.655.5-.873 0-.309-.209-.5-.618-.5a1.042 1.042 0 0 0-.937.592l-1.619-.809a2.92 2.92 0 0 1 2.756-1.474c1.51 0 2.574.782 2.574 1.992a2.506 2.506 0 0 1-1.091 2.028l-.91.828z" class="cls-6" transform="translate(-281.162 -277.623)"/>
                                    <path id="Path_1114" d="M296.42 282.47v1.664h-5.1v-1.318l2.3-2.128c.436-.409.5-.655.5-.873 0-.309-.21-.5-.618-.5a1.041 1.041 0 0 0-.937.592l-1.619-.809a2.919 2.919 0 0 1 2.756-1.474c1.509 0 2.574.782 2.574 1.992a2.507 2.507 0 0 1-1.092 2.028l-.91.828z" class="cls-6" transform="translate(-285.415 -277.623)"/>
                                </g>
                                <g id="Group_1484" transform="translate(24.269)">
                                    <path id="Path_1115" d="M329.569 282.47v1.664h-5.1v-1.318l2.3-2.128c.436-.409.5-.655.5-.873 0-.309-.209-.5-.618-.5a1.042 1.042 0 0 0-.937.592l-1.619-.809a2.92 2.92 0 0 1 2.756-1.474c1.509 0 2.574.782 2.574 1.992a2.507 2.507 0 0 1-1.092 2.028l-.909.828z" class="cls-6" transform="translate(-324.094 -277.623)"/>
                                    <path id="Path_1116" d="M339.409 282.21c0 1.092-.873 2.182-2.91 2.182a5.4 5.4 0 0 1-2.51-.572l.728-1.583a3.487 3.487 0 0 0 1.71.464c.482 0 .828-.164.828-.491 0-.273-.209-.437-.755-.437h-.846v-1.319l.937-.954h-2.274v-1.62h4.747v1.32l-1.182 1.2a1.809 1.809 0 0 1 1.527 1.81z" class="cls-6" transform="translate(-328.395 -277.735)"/>
                                </g>
                                <g id="Group_1485" transform="translate(48.119)">
                                    <path id="Path_1117" d="M371.76 282.47v1.664h-5.1v-1.318l2.3-2.128c.436-.409.5-.655.5-.873 0-.309-.209-.5-.618-.5a1.041 1.041 0 0 0-.937.592l-1.62-.809a2.921 2.921 0 0 1 2.756-1.474c1.509 0 2.574.782 2.574 1.992a2.507 2.507 0 0 1-1.092 2.028l-.91.828z" class="cls-6" transform="translate(-366.285 -277.623)"/>
                                    <path id="Path_1118" d="M382.877 283.155h-.845v1.091h-2.083v-1.091h-3.3v-1.364l2.7-3.911h2.2l-2.4 3.611h.863v-.973h2.02v.973h.845z" class="cls-6" transform="translate(-370.789 -277.735)"/>
                                </g>
                                <g id="Group_1486" transform="translate(72.839)">
                                    <path id="Path_1119" d="M415.489 282.47v1.664h-5.1v-1.318l2.3-2.128c.437-.409.5-.655.5-.873 0-.309-.21-.5-.619-.5a1.042 1.042 0 0 0-.937.592l-1.618-.809a2.919 2.919 0 0 1 2.755-1.474c1.51 0 2.574.782 2.574 1.992a2.505 2.505 0 0 1-1.092 2.028l-.909.828z" class="cls-6" transform="translate(-410.014 -277.623)"/>
                                    <path id="Path_1120" d="M425.506 282.155c0 1.137-.873 2.237-2.91 2.237a5.406 5.406 0 0 1-2.51-.572l.728-1.583a3.451 3.451 0 0 0 1.7.464c.482 0 .837-.173.837-.5 0-.272-.19-.454-.964-.454h-1.847l.318-3.865h4.229v1.62h-2.464l-.046.627h.327c1.883-.002 2.602.898 2.602 2.026z" class="cls-6" transform="translate(-414.392 -277.735)"/>
                                </g>
                                <g id="Group_1487" transform="translate(96.944)">
                                    <path id="Path_1121" d="M458.13 282.47v1.664h-5.1v-1.318l2.3-2.128c.436-.409.5-.655.5-.873 0-.309-.209-.5-.618-.5a1.041 1.041 0 0 0-.937.592l-1.62-.809a2.921 2.921 0 0 1 2.756-1.474c1.509 0 2.574.782 2.574 1.992a2.509 2.509 0 0 1-1.092 2.028l-.91.828z" class="cls-6" transform="translate(-452.655 -277.623)"/>
                                    <path id="Path_1122" d="M468.752 282.053a2.334 2.334 0 0 1-2.583 2.227 2.827 2.827 0 0 1-3.055-3.128 3.285 3.285 0 0 1 3.529-3.529 3.734 3.734 0 0 1 1.973.5l-.773 1.5a1.9 1.9 0 0 0-1.155-.337 1.292 1.292 0 0 0-1.382 1.083 2.1 2.1 0 0 1 1.264-.354 2.062 2.062 0 0 1 2.182 2.038zm-2.074.1a.655.655 0 0 0-1.31 0 .655.655 0 0 0 1.31 0z" class="cls-6" transform="translate(-457.202 -277.623)"/>
                                </g>
                                <g id="Group_1488" transform="translate(121.313)">
                                    <path id="Path_1123" d="M501.239 282.47v1.664h-5.1v-1.318l2.3-2.128c.437-.409.5-.655.5-.873 0-.309-.209-.5-.618-.5a1.042 1.042 0 0 0-.937.592l-1.619-.809a2.92 2.92 0 0 1 2.756-1.474c1.509 0 2.574.782 2.574 1.992a2.505 2.505 0 0 1-1.095 2.027l-.909.828z" class="cls-6" transform="translate(-495.764 -277.623)"/>
                                    <path id="Path_1124" d="M511.541 277.88v1.32l-2.119 5.047h-2.345l2.019-4.7h-1.228v.928h-1.773v-2.595z" class="cls-6" transform="translate(-500.255 -277.735)"/>
                                </g>
                                <g id="Group_1489" transform="translate(145.459)">
                                    <path id="Path_1125" d="M543.954 282.47v1.664h-5.1v-1.318l2.3-2.128c.437-.409.5-.655.5-.873 0-.309-.21-.5-.619-.5a1.043 1.043 0 0 0-.937.592l-1.618-.809a2.92 2.92 0 0 1 2.755-1.474c1.51 0 2.574.782 2.574 1.992a2.506 2.506 0 0 1-1.091 2.028l-.91.828z" class="cls-6" transform="translate(-538.479 -277.623)"/>
                                    <path id="Path_1126" d="M554.584 282.243c0 1.237-1.174 2.037-2.856 2.037s-2.856-.8-2.856-2.037a1.664 1.664 0 0 1 .855-1.464 1.55 1.55 0 0 1-.628-1.255c0-1.155 1.082-1.9 2.628-1.9s2.628.746 2.628 1.9a1.55 1.55 0 0 1-.628 1.255 1.664 1.664 0 0 1 .857 1.464zm-2.156-.073a.7.7 0 1 0-.7.664.645.645 0 0 0 .7-.664zm-1.21-2.555a.511.511 0 1 0 .509-.546.5.5 0 0 0-.508.546z" class="cls-6" transform="translate(-542.997 -277.623)"/>
                                </g>
                            </g>
                            <g id="Group_1498" transform="translate(3.884 103.472)">
                                <g id="Group_1491">
                                    <path id="Path_1127" d="M286.211 325.376v1.664h-5.1v-1.318l2.3-2.128c.436-.409.5-.655.5-.873 0-.309-.209-.5-.618-.5a1.042 1.042 0 0 0-.937.591l-1.619-.81a2.92 2.92 0 0 1 2.756-1.474c1.509 0 2.574.782 2.574 1.992a2.508 2.508 0 0 1-1.092 2.028l-.909.828z" class="cls-6" transform="translate(-280.736 -320.528)"/>
                                    <path id="Path_1128" d="M296.56 323.657a3.285 3.285 0 0 1-3.529 3.529 3.729 3.729 0 0 1-1.973-.5l.773-1.5a1.9 1.9 0 0 0 1.155.337 1.291 1.291 0 0 0 1.382-1.082 2.106 2.106 0 0 1-1.264.354 2.062 2.062 0 0 1-2.183-2.037 2.335 2.335 0 0 1 2.583-2.228 2.828 2.828 0 0 1 3.056 3.127zm-2.256-1a.655.655 0 0 0-1.31 0 .655.655 0 1 0 1.31 0z" class="cls-6" transform="translate(-285.163 -320.528)"/>
                                </g>
                                <g id="Group_1492" transform="translate(24.192)">
                                    <path id="Path_1129" d="M328.951 325.115c0 1.091-.873 2.183-2.91 2.183a5.394 5.394 0 0 1-2.51-.573l.728-1.582a3.477 3.477 0 0 0 1.709.464c.482 0 .828-.164.828-.491 0-.273-.209-.436-.755-.436h-.841v-1.32l.937-.955h-2.274v-1.619h4.747v1.314l-1.183 1.2a1.809 1.809 0 0 1 1.524 1.815z" class="cls-6" transform="translate(-323.531 -320.64)"/>
                                    <path id="Path_1130" d="M333.973 323.857c0-2.11 1.2-3.329 2.883-3.329s2.883 1.219 2.883 3.329-1.2 3.328-2.883 3.328-2.883-1.218-2.883-3.328zm3.611 0c0-1.228-.31-1.61-.728-1.61s-.728.382-.728 1.61.309 1.609.728 1.609.727-.381.727-1.609z" class="cls-6" transform="translate(-328.07 -320.528)"/>
                                </g>
                                <g id="Group_1493" transform="translate(49.734 0.146)">
                                    <path id="Path_1131" d="M374.136 325.115c0 1.091-.873 2.183-2.911 2.183a5.4 5.4 0 0 1-2.51-.573l.728-1.582a3.481 3.481 0 0 0 1.71.464c.482 0 .828-.164.828-.491 0-.273-.21-.436-.755-.436h-.846v-1.32l.937-.955h-2.274v-1.619h4.748v1.314l-1.183 1.2a1.809 1.809 0 0 1 1.528 1.815z" class="cls-6" transform="translate(-368.715 -320.786)"/>
                                    <path id="Path_1132" d="M382.008 320.786v6.366h-2.146V322.4h-1.092v-1.619z" class="cls-6" transform="translate(-373.086 -320.786)"/>
                                </g>
                                <g id="Group_1494" transform="translate(76.922 0.146)">
                                    <path id="Path_1133" d="M420.048 320.786v6.366H417.9V322.4h-1.092v-1.619z" class="cls-6" transform="translate(-416.811 -320.786)"/>
                                </g>
                                <g id="Group_1495" transform="translate(100.191)">
                                    <path id="Path_1134" d="M463.448 325.376v1.664h-5.1v-1.318l2.3-2.128c.436-.409.5-.655.5-.873 0-.309-.209-.5-.618-.5a1.041 1.041 0 0 0-.937.591l-1.619-.81a2.919 2.919 0 0 1 2.756-1.474c1.509 0 2.574.782 2.574 1.992a2.508 2.508 0 0 1-1.092 2.028l-.91.828z" class="cls-6" transform="translate(-457.973 -320.528)"/>
                                </g>
                                <g id="Group_1496" transform="translate(124.524 0.146)">
                                    <path id="Path_1135" d="M506.438 325.115c0 1.091-.873 2.183-2.91 2.183a5.4 5.4 0 0 1-2.51-.573l.727-1.582a3.482 3.482 0 0 0 1.711.464c.482 0 .828-.164.828-.491 0-.273-.21-.436-.755-.436h-.846v-1.32l.937-.955h-2.274v-1.619h4.747v1.314l-1.181 1.2a1.809 1.809 0 0 1 1.526 1.815z" class="cls-6" transform="translate(-501.018 -320.786)"/>
                                </g>
                                <g id="Group_1497" transform="translate(148.638 0.146)">
                                    <path id="Path_1136" d="M549.906 326.061h-.846v1.091h-2.083v-1.091h-3.3V324.7l2.7-3.911h2.2l-2.4 3.611h.864v-.973h2.019v.973h.846z" class="cls-6" transform="translate(-543.676 -320.786)"/>
                                </g>
                            </g>
                        </g>
                    </g>
                    <g id="Group_1507" transform="translate(7.349)">
                        <g id="Group_1501" transform="translate(0 0)">
                            <circle id="Ellipse_200" cx="5.261" cy="5.261" r="5.261" class="cls-7" transform="translate(0 23.184)"/>
                            <rect id="Rectangle_343" width="4.994" height="29.069" class="cls-2" rx="2.497" transform="translate(2.764)"/>
                        </g>
                        <g id="Group_1502" transform="translate(31.922 0)">
                            <circle id="Ellipse_201" cx="5.261" cy="5.261" r="5.261" class="cls-7" transform="translate(0 23.184)"/>
                            <rect id="Rectangle_344" width="4.994" height="29.069" class="cls-2" rx="2.497" transform="translate(2.764)"/>
                        </g>
                        <g id="Group_1503" transform="translate(63.845)">
                            <circle id="Ellipse_202" cx="5.261" cy="5.261" r="5.261" class="cls-7" transform="translate(0 23.184)"/>
                            <path id="Path_1137" d="M389.755 72.43a2.5 2.5 0 0 1-2.5-2.5V45.858a2.5 2.5 0 0 1 2.5-2.5 2.5 2.5 0 0 1 2.5 2.5v24.076a2.5 2.5 0 0 1-2.5 2.496z" class="cls-2" transform="translate(-384.494 -43.361)"/>
                        </g>
                        <g id="Group_1504" transform="translate(95.767)">
                            <circle id="Ellipse_203" cx="5.261" cy="5.261" r="5.261" class="cls-7" transform="translate(0 23.184)"/>
                            <path id="Path_1138" d="M446.226 72.43a2.5 2.5 0 0 1-2.5-2.5V45.858a2.5 2.5 0 0 1 2.5-2.5 2.5 2.5 0 0 1 2.5 2.5v24.076a2.5 2.5 0 0 1-2.5 2.496z" class="cls-2" transform="translate(-440.965 -43.361)"/>
                        </g>
                        <g id="Group_1505" transform="translate(127.69)">
                            <circle id="Ellipse_204" cx="5.261" cy="5.261" r="5.261" class="cls-7" transform="translate(0 23.184)"/>
                            <path id="Path_1139" d="M502.7 72.43a2.5 2.5 0 0 1-2.5-2.5V45.858a2.5 2.5 0 0 1 2.5-2.5 2.5 2.5 0 0 1 2.5 2.5v24.076a2.5 2.5 0 0 1-2.5 2.496z" class="cls-2" transform="translate(-497.436 -43.361)"/>
                        </g>
                        <g id="Group_1506" transform="translate(159.612)">
                            <circle id="Ellipse_205" cx="5.261" cy="5.261" r="5.261" class="cls-7" transform="translate(0 23.184)"/>
                            <path id="Path_1140" d="M559.167 72.43a2.5 2.5 0 0 1-2.5-2.5V45.858a2.5 2.5 0 0 1 2.5-2.5 2.5 2.5 0 0 1 2.5 2.5v24.076a2.5 2.5 0 0 1-2.5 2.496z" class="cls-2" transform="translate(-553.907 -43.361)"/>
                        </g>
                    </g>
                    <g id="Group_1508" class="cls-8" transform="translate(83.45 51.563)">
                        <path id="Path_1141" d="M413.748 137.488a9.309 9.309 0 1 0 3.295 17.85c5.78-2.5 7.946-9.955 4.841-15.324a11.174 11.174 0 0 0-16.033-3.43c-.852.574-.05 1.966.81 1.386 4.4-2.963 10.3-2.288 13.419 2.192a9.4 9.4 0 0 1-2.664 13.172 7.706 7.706 0 1 1-3.668-14.243.8.8 0 0 0 0-1.6z" class="cls-1" transform="translate(-404.049 -134.577)"/>
                    </g>
                    <g id="Group_1512" class="cls-8" transform="translate(129.878 101.337)">
                        <g id="Group_1509">
                            <path id="Path_1142" d="M494.078 222.65a9.741 9.741 0 0 0 1 19.269 9.579 9.579 0 0 0 3.7-18.686c-.972-.353-1.391 1.2-.427 1.548a8.118 8.118 0 0 1 5.4 9.159 8.021 8.021 0 0 1-8.969 6.314 8.34 8.34 0 0 1-6.99-7.862 8.45 8.45 0 0 1 6.71-8.194c1.005-.237.58-1.785-.426-1.548z" class="cls-1" transform="translate(-486.181 -222.625)"/>
                        </g>
                        <g id="Group_1510" transform="translate(5.269 18.263)">
                            <path id="Path_1143" d="M496.728 259.618a44.824 44.824 0 0 1 9.618-3.118c1.011-.208.583-1.755-.427-1.548a46.645 46.645 0 0 0-10 3.28c-.939.427-.124 1.811.81 1.386z" class="cls-1" transform="translate(-495.502 -254.933)"/>
                        </g>
                        <g id="Group_1511" transform="translate(8.786 19.873)">
                            <path id="Path_1144" d="M502.681 262.185l6.765-2.793c.941-.389.529-1.942-.427-1.548l-6.765 2.793c-.941.389-.529 1.942.427 1.548z" class="cls-1" transform="translate(-501.723 -257.78)"/>
                        </g>
                    </g>
                    <g id="Group_1513" class="cls-8" transform="translate(82.013 125.35)">
                        <path id="Path_1145" d="M410.513 268.819c-4.306.989-10.31 4.1-8.754 9.579 1.437 5.063 8.616 6.061 12.989 5.3 5.089-.888 8.393-5.469 6.975-10.578-1.549-5.581-7.427-7.937-12.717-8.014a.8.8 0 0 0 0 1.605c3.978.057 8.205 1.344 10.347 4.963a6.788 6.788 0 0 1-4.183 10.3c-3.539.914-9.9.341-11.586-3.411-2.131-4.735 3.772-7.371 7.356-8.194 1.006-.231.58-1.779-.427-1.548z" class="cls-1" transform="translate(-401.507 -265.105)"/>
                    </g>
                </g>
            </g>
        </g>
    </g>
</svg>
