<svg xmlns="http://www.w3.org/2000/svg" width="226" height="226" viewBox="0 0 226 226"><defs><style>.a{fill:#f3f7fa;}.b{fill:#273d4c;}.c{fill:#c3d0d9;}.d{fill:#30cf87;}.e{fill:#edc32f;}</style></defs><g transform="translate(-362.212 -142.472)"><g transform="translate(362.212 142.472)"><path class="a" d="M581.031,252.379A108.909,108.909,0,1,1,472.124,143.472,108.908,108.908,0,0,1,581.031,252.379Z" transform="translate(-359.121 -139.381)"/><path class="b" d="M475.214,368.472a113,113,0,1,1,113-113A113.127,113.127,0,0,1,475.214,368.472Zm0-217.819A104.819,104.819,0,1,0,580.031,255.47,104.937,104.937,0,0,0,475.214,150.653Z" transform="translate(-362.212 -142.472)"/></g><g transform="translate(395.074 172.456)"><path class="c" d="M391.381,168.984a2.044,2.044,0,0,1-2.045-2.045V151.893a2.045,2.045,0,1,1,4.091,0v15.045A2.043,2.043,0,0,1,391.381,168.984Z" transform="translate(-311.246 -149.66)"/><path class="c" d="M390.163,169.144a2.059,2.059,0,0,1-1.98-1.518l-3.89-14.534a2.047,2.047,0,0,1,3.956-1.055l3.89,14.53a2.05,2.05,0,0,1-1.448,2.508A2.129,2.129,0,0,1,390.163,169.144Z" transform="translate(-327.045 -147.579)"/><path class="c" d="M389.027,169.614a2.04,2.04,0,0,1-1.771-1.023l-7.518-13.028a2.043,2.043,0,1,1,3.538-2.045l7.518,13.028a2.042,2.042,0,0,1-1.767,3.068Z" transform="translate(-341.759 -141.484)"/><path class="c" d="M388.055,170.362a2.042,2.042,0,0,1-1.448-.6l-10.635-10.636a2.046,2.046,0,0,1,2.9-2.892L389.5,166.869a2.047,2.047,0,0,1-1.444,3.493Z" transform="translate(-354.4 -131.784)"/><path class="c" d="M387.3,171.329a2.058,2.058,0,0,1-1.023-.27l-13.024-7.523a2.045,2.045,0,0,1,2.045-3.542l13.024,7.518a2.045,2.045,0,0,1-1.023,3.816Z" transform="translate(-364.1 -119.142)"/><path class="c" d="M513.871,217.845a2.043,2.043,0,0,1-.528-4.017l12.6-3.367a78.755,78.755,0,0,0-151.126-.016l12.591,3.383a2.044,2.044,0,1,1-1.059,3.947l-14.591-3.919a2.045,2.045,0,0,1-1.444-2.5,82.851,82.851,0,0,1,160.138.021,2.053,2.053,0,0,1-1.448,2.5l-14.607,3.9A1.971,1.971,0,0,1,513.871,217.845Z" transform="translate(-370.246 -149.802)"/><path class="c" d="M405.3,171.335a2.045,2.045,0,0,1-1.023-3.817L417.3,160a2.045,2.045,0,0,1,2.045,3.542l-13.028,7.523A2.058,2.058,0,0,1,405.3,171.335Z" transform="translate(-268.237 -119.148)"/><path class="c" d="M402.742,170.363a2.047,2.047,0,0,1-1.444-3.493l10.64-10.64a2.045,2.045,0,0,1,2.892,2.892l-10.64,10.64A2.041,2.041,0,0,1,402.742,170.363Z" transform="translate(-276.133 -131.785)"/><path class="c" d="M399.414,169.612a2.021,2.021,0,0,1-1.023-.274,2.046,2.046,0,0,1-.749-2.794l7.526-13.028a2.045,2.045,0,1,1,3.543,2.045l-7.527,13.028A2.037,2.037,0,0,1,399.414,169.612Z" transform="translate(-286.419 -141.481)"/><path class="c" d="M395.54,169.144a2.13,2.13,0,0,1-.528-.07,2.047,2.047,0,0,1-1.448-2.508l3.89-14.534a2.047,2.047,0,0,1,3.955,1.059l-3.894,14.534A2.05,2.05,0,0,1,395.54,169.144Z" transform="translate(-298.396 -147.579)"/></g><g transform="translate(399.187 253.854)"><path class="b" d="M371.251,169.7H380.6a6.936,6.936,0,0,1,.139,1.395,7.159,7.159,0,0,1-.139,1.444h-6.005v3.575h4.766a7.526,7.526,0,0,1,.143,1.419,7.358,7.358,0,0,1-.143,1.444h-4.766v4.352h6.165a6.935,6.935,0,0,1,.139,1.395,7.159,7.159,0,0,1-.139,1.444h-9.507Z" transform="translate(-371.251 -169.701)"/></g><g transform="translate(541.788 253.785)"><path class="b" d="M406.112,169.684h9.347a6.937,6.937,0,0,1,.139,1.4,7.178,7.178,0,0,1-.139,1.444h-6v3.87h4.766a7.819,7.819,0,0,1,.139,1.419,7.7,7.7,0,0,1-.139,1.444h-4.766v6.893a10.133,10.133,0,0,1-3.346,0Z" transform="translate(-406.112 -169.684)"/></g><path class="d" d="M406.188,260.8,385.676,158.12l47.565,93.288Z" transform="translate(360.654 -158.622) rotate(48)"/><path class="b" d="M363.981,176.454a108.913,108.913,0,0,0,211.524,0Z" transform="translate(5.467 105.024)"/><g transform="translate(435.289 283.993)"><g transform="translate(22.461 11)"><path class="e" d="M71.05,21.948a1.169,1.169,0,0,0-1.017-.593H54.714L57.282,1.733A1.176,1.176,0,0,0,55.127.969L36.5,33.606a1.169,1.169,0,0,0,1,1.782h15.09L50.548,55.04a1.176,1.176,0,0,0,2.167.719L71.036,23.126a1.169,1.169,0,0,0,.014-1.177Z" transform="translate(-36.324 -0.434)"/></g></g></g></svg>