<svg xmlns="http://www.w3.org/2000/svg" width="67" height="67" viewBox="0 0 67 67">
  <g id="Group_1543" data-name="Group 1543" transform="translate(-30 -110)">
    <circle id="Ellipse_150" data-name="Ellipse 150" cx="33.5" cy="33.5" r="33.5" transform="translate(30 110)" fill="#ea7267"/>
    <g id="noun_bill_2199007" transform="translate(47.495 127.5)">
      <g id="Layer_3" data-name="Layer 3">
        <path id="Path_538" data-name="Path 538" d="M11.85,25.67a.57.57,0,0,0-.57.57v2.83a3.27,3.27,0,0,1-.15.93h14.7a3,3,0,0,0,2.94-2.94V25.67Z" fill="#fff"/>
        <path id="Path_539" data-name="Path 539" d="M24.76,4.7A2.71,2.71,0,0,0,22,2H7.14a2.58,2.58,0,0,1,.12.76V29.07A.92.92,0,0,0,8.2,30a.94.94,0,0,0,.94-.93V24.59a1.08,1.08,0,0,1,1.08-1.08H24.76ZM17.28,16.06h-6.8a1.08,1.08,0,0,1,0-2.15h6.8a1.08,1.08,0,0,1,0,2.15Zm0-4.46h-6.8a1.08,1.08,0,0,1,0-2.15h6.8a1.08,1.08,0,0,1,0,2.15Zm0-4.46h-6.8a1.08,1.08,0,0,1,0-2.15h6.8a1.08,1.08,0,0,1,0,2.15Zm4.23,13.38H20.7a1.08,1.08,0,1,1,0-2.15h.81a1.08,1.08,0,0,1,0,2.15Zm0-4.46H20.7a1.08,1.08,0,1,1,0-2.15h.81a1.08,1.08,0,0,1,0,2.15Zm0-4.46H20.7a1.08,1.08,0,1,1,0-2.15h.81a1.08,1.08,0,0,1,0,2.15Zm0-4.46H20.7a1.08,1.08,0,1,1,0-2.15h.81a1.08,1.08,0,0,1,0,2.15Z" fill="#fff"/>
        <path id="Path_540" data-name="Path 540" d="M4.34,2H4a.77.77,0,0,0-.76.76v7.5H5.1V2.76A.77.77,0,0,0,4.34,2Z" fill="#fff"/>
      </g>
    </g>
  </g>
</svg>
