<svg xmlns="http://www.w3.org/2000/svg" width="335" height="335" viewBox="0 0 335 335"><defs><style>.a{fill:#f3f7fa;}.b,.c,.e{fill:#273d4c;}.b{opacity:0.4;}.c{opacity:0.15;}.d{fill:#30cf87;}</style></defs><g transform="translate(-46 -328)"><circle class="a" cx="167.5" cy="167.5" r="167.5" transform="translate(46 328)"/><g transform="translate(130.317 384.531)"><path class="b" d="M275.57,253.405h-12.69v-7.923h12.69a2.807,2.807,0,0,1,2.8,2.809V250.6A2.8,2.8,0,0,1,275.57,253.405Z" transform="translate(-121.071 -234.867)"/><path class="b" d="M264.768,256.861h23.088a4.213,4.213,0,0,0,0-8.427H264.768a4.213,4.213,0,0,0,0,8.427Z" transform="translate(-124.701 -225.003)"/><path class="c" d="M272.009,287.11c.278-1.441.738-3.069,1.19-4.65l.89-2.557.23-.638.408-.916.894-1.841.973-1.8.421-.773.382-.686.091-.169.052-.091c-.651.9.9-1.255.768-1.068l.083-.1.63-.755c.851-1.007,1.741-1.993,2.67-2.939l1.411-1.4c.478-.447.773-.634,1.168-.964,1.467-1.146,3.13-2.418,4.537-3.334q2-1.185,3.968-2.357c1.333-.773,2.436-1.255,3.66-1.88,1.2-.595,2.405-1.19,3.486-1.628,2.236-.977,4.437-1.91,6.482-2.657,2.1-.821,4.09-1.524,6.031-2.145,3.89-1.272,7.493-2.305,10.823-3.213,6.634-1.849,12.139-2.97,16.038-3.764,1.554-.317,2.813-.543,3.842-.721v46.416c-2.944.382-6.473.881-10.454,1.459-2.839.43-5.9.942-8.974,1.567-1.506.317-3.061.63-4.65.959-12.564,2.5-13.624,11.6-14.9,22.429-.907,7.242-1.385,14.314-1.654,20.392-.317,6.091-.477,11.219-.525,14.792-.074,3.508-.113,5.518-.113,5.518l-23.952,3s-.5-2.171-1.372-5.97c-.781-3.755-1.893-9.1-2.961-15.6-1.038-6.512-2.088-14.162-2.757-22.685-.3-4.263-.464-8.753-.386-13.533A85.433,85.433,0,0,1,272.009,287.11Z" transform="translate(-218.565 -239.622)"/><path class="d" d="M272.576,298.327a2.808,2.808,0,0,0,2.809-2.809V245.846a2.807,2.807,0,1,0-5.614,0v49.672A2.807,2.807,0,0,0,272.576,298.327Z" transform="translate(-148.004 -243.037)"/><g transform="translate(124.572 4.961)"><path class="d" d="M281.29,244.18l12.982,45.366H263.279V244.18Z" transform="translate(-263.279 -244.18)"/></g><path class="e" d="M290.2,305.925l-.441-3.756-3.9.619-.742-3.7,4.745-.754-.441-3.756-5.045.805-.742-3.7,5.889-.933L289.073,287l-6.19.975-.742-3.689,7.034-1.119-.441-3.748-7.335,1.153-1.475-7.36,23.955-3-.432,6.877-6.648,1.052.441,3.756,5.97-.941-.242,3.85-5.83.924.441,3.756,5.147-.814-.241,3.85-5.007.788.441,3.756,4.325-.678-.238,3.85-4.184.661.436,3.757,3.507-.56-.415,6.665-13.474,2.129-1.28-6.394Z" transform="translate(-220.577 -152.24)"/><path class="e" d="M335.914,403.522a26.889,26.889,0,0,0,19.376-8.288,24.557,24.557,0,0,0,6.916-18.213c-.807-17.049-6.247-66.4-6.478-68.488l-8.366.925c.048.508,5.635,51.174,6.426,67.963a16.185,16.185,0,0,1-4.6,12,18.431,18.431,0,0,1-13.276,5.67,19.162,19.162,0,0,1-14.049-6.213,14.405,14.405,0,0,1-3.847-11.21c.595-5.648,1.784-12.8,3.156-21.1,5.258-31.754,12.465-75.239-4.367-92.071-6.868-6.877-29.744-2.609-36.586-1.142l1.763,8.24c12.929-2.774,26.683-3.317,28.863-1.146,13.771,13.771,6.7,56.484,2.019,84.747-1.394,8.418-2.6,15.695-3.226,21.582a22.739,22.739,0,0,0,5.961,17.731A27.711,27.711,0,0,0,335.914,403.522Z" transform="translate(-280.221 -184.027)"/></g></g></svg>