<svg xmlns="http://www.w3.org/2000/svg" width="52" height="52" viewBox="0 0 52 52"><defs><style>.a{fill:#273d4c;}.b{fill:none;stroke:#30cf87;stroke-width:2.5px;}</style></defs><g transform="translate(-8961 -13628)"><circle class="a" cx="26" cy="26" r="26" transform="translate(8961 13628)"/><g transform="translate(8608.05 13227.458)"><path class="b" d="M50.778,9.388a.487.487,0,0,0-.423-.247H43.978L45.047.974a.49.49,0,0,0-.9-.318L36.4,14.24a.487.487,0,0,0,.415.742h6.28l-.847,8.179a.49.49,0,0,0,.9.3L50.772,9.878a.487.487,0,0,0,.006-.49Z" transform="translate(335.451 414.981)"/></g></g></svg>