<svg xmlns="http://www.w3.org/2000/svg" xmlns:xlink="http://www.w3.org/1999/xlink" width="428" height="437" viewBox="0 0 428 437"><defs><style>.a,.h{fill:#fff;}.a{stroke:#707070;}.b{clip-path:url(#a);}.c{fill:url(#b);}.d{fill:#30cf87;}.e{fill:#263238;}.f{fill:#455a64;}.g{fill:#edc32f;}.i{fill:#273d4c;}.j{fill:#ffbe9d;}.k{fill:#e0e0e0;}.l{opacity:0.3;}.m{fill:#eb996e;}.n{opacity:0.5;}.o{fill:#fafafa;}</style><clipPath id="a"><rect class="a" width="428" height="437" transform="translate(0 244)"/></clipPath><linearGradient id="b" x1="0.5" x2="0.5" y2="1" gradientUnits="objectBoundingBox"><stop offset="0" stop-color="#f3f7fa"/><stop offset="1" stop-color="#fff"/></linearGradient></defs><g class="b" transform="translate(0 -244)"><g transform="translate(-40.22 209.501)"><path class="c" d="M-1949,13213.809l210-100.109,218.116,100.109V13447.2H-1949Z" transform="translate(1989.22 -12965.501)"/><path class="d" d="M170.71,121.09v16.14h0a2.5,2.5,0,0,0,2.5-2.5v-7.06a2,2,0,0,1,1.95-2h0a2,2,0,0,1,2,2v6.13a6.25,6.25,0,0,1-6.26,6.25h0v20h-5.4v-8h-1.67a5.3,5.3,0,0,1-5.3-5.17l-.25-10.64a2.16,2.16,0,0,1,2.16-2.21h0a2.15,2.15,0,0,1,2.16,2.22,103.751,103.751,0,0,0,.07,11.46c.44,2.71,2.72,1.95,2.72,1.95s-.88-19.73-1.06-28.45a3.19,3.19,0,0,1,3.19-3.25h0a3.19,3.19,0,0,1,3.19,3.131Z"/><ellipse class="e" cx="0.63" cy="0.07" rx="0.63" ry="0.07" transform="translate(163.84 121.47)"/><path class="e" d="M164.87,123a2.277,2.277,0,0,1-.55.07c-.3,0-.56,0-.56-.07s.25-.07.56-.07A2.175,2.175,0,0,1,164.87,123Z"/><path class="e" d="M171.36,122a2.344,2.344,0,0,1-.57.07,1.24,1.24,0,0,1-.58-.07,1.24,1.24,0,0,1,.58-.07A2.344,2.344,0,0,1,171.36,122Z"/><ellipse class="e" cx="0.42" cy="0.07" rx="0.42" ry="0.07" transform="translate(170.48 120.28)"/><path class="e" d="M165,120.35a2.18,2.18,0,0,1-.69-.32,2.361,2.361,0,0,1-.62-.45,2.09,2.09,0,0,1,.69.33A2.42,2.42,0,0,1,165,120.35Z"/><path class="e" d="M166.23,119a4.5,4.5,0,0,1-.52-.54,2.3,2.3,0,0,1-.42-.63,4.5,4.5,0,0,1,.52.54,2.3,2.3,0,0,1,.42.63Z"/><path class="e" d="M167.7,118.62a2.72,2.72,0,0,1-.08-.84,2.61,2.61,0,0,1,0-.85,2.72,2.72,0,0,1,.08.84A2.61,2.61,0,0,1,167.7,118.62Z"/><path class="e" d="M169.8,117.43a2.62,2.62,0,0,1-.37.71,2.43,2.43,0,0,1-.48.64,2.31,2.31,0,0,1,.37-.71A2.21,2.21,0,0,1,169.8,117.43Z"/><path class="e" d="M170.56,118.85a2.1,2.1,0,0,1-.36.41c-.22.19-.43.34-.45.31s.13-.21.36-.41S170.53,118.82,170.56,118.85Z"/><path class="e" d="M165.26,125.12a3.42,3.42,0,0,1-.94,0,3.87,3.87,0,0,1-.94-.08,3.18,3.18,0,0,1,.94,0,3.14,3.14,0,0,1,.94.08Z"/><path class="e" d="M172.21,123.61a4.74,4.74,0,0,1-1.15.07,4.79,4.79,0,0,1-1.16-.07,4.789,4.789,0,0,1,1.16-.07,4.74,4.74,0,0,1,1.15.07Z"/><ellipse class="e" cx="0.38" cy="0.07" rx="0.38" ry="0.07" transform="translate(170.29 124.92)"/><path class="e" d="M165.68,126.72a3.73,3.73,0,0,1-1,.07,3.631,3.631,0,0,1-1-.07,3.631,3.631,0,0,1,1-.07,3.73,3.73,0,0,1,1,.07Z"/><ellipse class="e" cx="1.23" cy="0.07" rx="1.23" ry="0.07" transform="translate(163.91 127.87)"/><ellipse class="e" cx="0.89" cy="0.07" rx="0.89" ry="0.07" transform="translate(170.09 127.15)"/><path class="e" d="M171.25,128.57a1.436,1.436,0,0,1-.41.06c-.23,0-.4,0-.4-.06s.18-.07.4-.07S171.25,128.53,171.25,128.57Z"/><path class="e" d="M165.25,129.82a4.38,4.38,0,0,1-1.56,0,4.38,4.38,0,0,1,1.56,0Z"/><path class="e" d="M165.3,131a2.64,2.64,0,0,1-1.12,0,2.275,2.275,0,0,1,1.12,0Z"/><path class="e" d="M171.2,130.66a1.97,1.97,0,0,1-.51.05,1.33,1.33,0,0,1-.52-.09,1,1,0,0,1,.52-.05C171,130.58,171.2,130.62,171.2,130.66Z"/><path class="e" d="M166.1,132.86a7.91,7.91,0,0,1-2.1,0A7.91,7.91,0,0,1,166.1,132.86Z"/><path class="e" d="M171.6,133.31a3.859,3.859,0,0,1-.93.06,3.909,3.909,0,0,1-.94-.06,3.16,3.16,0,0,1,.94-.07A3.12,3.12,0,0,1,171.6,133.31Z"/><path class="e" d="M170.58,134.33a.11.11,0,0,1,0,.12s-.09.05-.12,0a.1.1,0,0,1,0-.12.11.11,0,0,1,.12,0Z"/><path class="e" d="M174.47,127.72a2.09,2.09,0,0,1-.88-.43,2,2,0,0,1-.69-.69,8.36,8.36,0,0,1,.77.58C174.1,127.49,174.48,127.68,174.47,127.72Z"/><path class="e" d="M174.57,127.22a2.78,2.78,0,0,1-.55-1,2.93,2.93,0,0,1-.28-1.08s.18.46.41,1A7.157,7.157,0,0,1,174.57,127.22Z"/><path class="e" d="M175.24,127.18a4.43,4.43,0,0,1-.06-1.08,4.341,4.341,0,0,1,.08-1.07,4.43,4.43,0,0,1,.06,1.08,4.342,4.342,0,0,1-.08,1.07Z"/><path class="e" d="M177.11,125.12a5.51,5.51,0,0,1-1.17,1.88,5.9,5.9,0,0,1,.56-1,5.56,5.56,0,0,1,.61-.88Z"/><path class="e" d="M178.05,126.87a3,3,0,0,1-.66.62,2.83,2.83,0,0,1-.75.52,3,3,0,0,1,.66-.62,2.83,2.83,0,0,1,.75-.52Z"/><path class="e" d="M178.14,128.58a2.55,2.55,0,0,1-.69.33,2.16,2.16,0,0,1-.74.21,2,2,0,0,1,.69-.33,2.16,2.16,0,0,1,.74-.21Z"/><path class="e" d="M177.87,130a1.16,1.16,0,0,1-1.12.09,2.52,2.52,0,0,1,.56,0A2.068,2.068,0,0,1,177.87,130Z"/><path class="e" d="M173.84,129.1a2.38,2.38,0,0,1-.84-.1,2.46,2.46,0,0,1-.79-.25,2.91,2.91,0,0,1,.82.12A2.22,2.22,0,0,1,173.84,129.1Z"/><path class="e" d="M174,129.92a2.2,2.2,0,0,1-.8-.07,2.26,2.26,0,0,1-.77-.2,2.2,2.2,0,0,1,.8.07A2.26,2.26,0,0,1,174,129.92Z"/><path class="e" d="M174,130.62a2.231,2.231,0,0,1-.52.18,1.36,1.36,0,0,1-.55,0,2.031,2.031,0,0,1,.52-.18A1.36,1.36,0,0,1,174,130.62Z"/><path class="e" d="M160,135.05a2.4,2.4,0,0,1-.38-.75,2.92,2.92,0,0,1-.26-.81,2.26,2.26,0,0,1,.38.75,2.82,2.82,0,0,1,.26.81Z"/><path class="e" d="M160.94,135.18a3.079,3.079,0,0,1,.13-.87,2.6,2.6,0,0,1,.27-.83,2.7,2.7,0,0,1-.13.87A2.6,2.6,0,0,1,160.94,135.18Z"/><path class="e" d="M159.17,135.9a3.42,3.42,0,0,1-.76-.53,3.78,3.78,0,0,1-.67-.63,2.79,2.79,0,0,1,.76.52A2.74,2.74,0,0,1,159.17,135.9Z"/><path class="e" d="M159,136.43a2.13,2.13,0,0,1-.77,0,2.06,2.06,0,0,1-.75-.18,2.13,2.13,0,0,1,.77,0,2.43,2.43,0,0,1,.75.18Z"/><path class="e" d="M159,137.6a2,2,0,0,1-.7,0,2.2,2.2,0,0,1-.69-.15,1.86,1.86,0,0,1,.7,0A1.81,1.81,0,0,1,159,137.6Z"/><path class="e" d="M159,138.88a1.42,1.42,0,0,1-.56.06,1.32,1.32,0,0,1-.56-.07,2.414,2.414,0,0,1,.56-.07A1.127,1.127,0,0,1,159,138.88Z"/><path class="e" d="M162.84,138.68a1.458,1.458,0,0,1-.56,0,1.16,1.16,0,0,1-.56-.09,1.458,1.458,0,0,1,.56,0,1.16,1.16,0,0,1,.56.09Z"/><path class="e" d="M163,137.49a1.24,1.24,0,0,1-.58.07,1.44,1.44,0,0,1-.59-.07,1.3,1.3,0,0,1,.59-.07,1.24,1.24,0,0,1,.58.07Z"/><path class="e" d="M163.2,135.94a2.26,2.26,0,0,1-.65.38,2.21,2.21,0,0,1-.7.25,2.1,2.1,0,0,1,.65-.38,2.21,2.21,0,0,1,.7-.25Z"/><path class="e" d="M162.76,134.79a2,2,0,0,1-.48.52,1.87,1.87,0,0,1-.56.41,3.335,3.335,0,0,1,.47-.52C162.48,134.94,162.73,134.76,162.76,134.79Z"/><path class="e" d="M165.7,134.25a1.32,1.32,0,0,1-.7.16,1.39,1.39,0,0,1-.71-.12h1.41Z"/><path class="e" d="M166,135.62a2.72,2.72,0,0,1-1,.21,2.67,2.67,0,0,1-1,0,7.257,7.257,0,0,1,1-.11A5.151,5.151,0,0,1,166,135.62Z"/><path class="e" d="M166.2,136.77a4.09,4.09,0,0,1-1.09.24,4.9,4.9,0,0,1-1.11.11,4.37,4.37,0,0,1,1.09-.24,4.32,4.32,0,0,1,1.11-.11Z"/><path class="e" d="M171.17,135.13a1.23,1.23,0,0,1-.54.05c-.3,0-.54-.05-.54-.09a1.32,1.32,0,0,1,.55-.05C170.93,135.05,171.17,135.09,171.17,135.13Z"/><path class="e" d="M171.34,135.75a1.65,1.65,0,0,1-.41.09c-.23.02-.42,0-.42-.05s.18-.08.41-.09S171.34,135.71,171.34,135.75Z"/><path class="e" d="M174.24,132.09a2.55,2.55,0,0,1-1.06,0,2.59,2.59,0,0,1-1-.3,8.145,8.145,0,0,1,1,.17,8.277,8.277,0,0,1,1.06.13Z"/><path class="e" d="M178.34,131.36a2.5,2.5,0,0,1-.75.17,2.31,2.31,0,0,1-.78,0,2.2,2.2,0,0,1,.76-.17,2,2,0,0,1,.77,0Z"/><path class="e" d="M165.78,139.44a5.74,5.74,0,0,1-1.7-.33,2.62,2.62,0,0,1,.87.09A2.44,2.44,0,0,1,165.78,139.44Z"/><path class="d" d="M338.76,131.55v9.22h0a1.43,1.43,0,0,1-1.43-1.42v-4a1.12,1.12,0,0,0-1.11-1.12h0a1.12,1.12,0,0,0-1.12,1.12v3.5a3.57,3.57,0,0,0,3.57,3.58h0v11.42h3v-4.59h.95a3,3,0,0,0,3-3l.15-6.08a1.23,1.23,0,0,0-1.23-1.27h0a1.24,1.24,0,0,0-1.23,1.27,60.393,60.393,0,0,1,0,6.55c-.25,1.56-1.56,1.12-1.56,1.12s.51-11.28.61-16.27a1.82,1.82,0,0,0-1.82-1.86h0A1.83,1.83,0,0,0,338.76,131.55Z"/><path class="e" d="M342,131.8h.72a1.64,1.64,0,0,0-.72,0Z"/><path class="e" d="M342.1,132.64a.7.7,0,0,0,.32,0,.16.16,0,1,0,0-.08A.7.7,0,0,0,342.1,132.64Z"/><ellipse class="e" cx="0.33" cy="0.04" rx="0.33" ry="0.04" transform="translate(338.39 132.03)"/><ellipse class="e" cx="0.24" cy="0.04" rx="0.24" ry="0.04" transform="translate(338.41 131.08)"/><path class="e" d="M342,131.13a1.579,1.579,0,0,0,.39-.19,1.521,1.521,0,0,0,.36-.25,1.18,1.18,0,0,0-.4.18,1.2,1.2,0,0,0-.35.26Z"/><path class="e" d="M341.32,130.37a2.108,2.108,0,0,0,.3-.31,1.24,1.24,0,0,0,.24-.36,1.36,1.36,0,0,0-.3.31A1.56,1.56,0,0,0,341.32,130.37Z"/><path class="e" d="M340.48,130.14a1.819,1.819,0,0,0,0-.49,1.41,1.41,0,0,0,0-.48,1.781,1.781,0,0,0-.05.48,1.842,1.842,0,0,0,.05.49Z"/><path class="e" d="M339.28,129.46a1.85,1.85,0,0,0,.21.4,1.632,1.632,0,0,0,.28.37,1.291,1.291,0,0,0-.21-.41,1.22,1.22,0,0,0-.28-.36Z"/><path class="e" d="M338.85,130.27a1.422,1.422,0,0,0,.2.23c.12.11.25.2.26.18s-.07-.12-.2-.23S338.86,130.25,338.85,130.27Z"/><path class="e" d="M341.88,133.85a2.22,2.22,0,0,0,.54,0,2.13,2.13,0,0,0,.53,0,1.7,1.7,0,0,0-.53,0A2.171,2.171,0,0,0,341.88,133.85Z"/><ellipse class="e" cx="0.66" cy="0.04" rx="0.66" ry="0.04" transform="translate(337.9 132.95)"/><path class="e" d="M338.56,133.78h.22C338.66,133.78,338.56,133.76,338.56,133.78Z"/><path class="e" d="M341.64,134.77a4.22,4.22,0,0,0,1.16,0,4.229,4.229,0,0,0-1.16,0Z"/><path class="e" d="M341.24,135.46a2.67,2.67,0,0,0,.7,0,2.721,2.721,0,0,0,.71,0,3.361,3.361,0,0,0-.71,0A3.3,3.3,0,0,0,341.24,135.46Z"/><path class="e" d="M338.1,135.05a3.27,3.27,0,0,0,1,0,4.351,4.351,0,0,0-1,0Z"/><path class="e" d="M338.45,135.82h.23C338.55,135.82,338.45,135.8,338.45,135.82Z"/><path class="e" d="M341.88,136.54a2.55,2.55,0,0,0,.9,0,2.55,2.55,0,0,0-.9,0Z"/><path class="e" d="M341.86,137.23a.7.7,0,0,0,.32,0,.16.16,0,1,0,0-.08A.7.7,0,0,0,341.86,137.23Z"/><path class="e" d="M338.48,137h.3c.17,0,.29,0,.29-.06a.64.64,0,0,0-.3,0,.53.53,0,0,0-.29.06Z"/><path class="e" d="M341.4,138.28a2.34,2.34,0,0,0,.6,0,2.41,2.41,0,0,0,.6,0,2,2,0,0,0-.6,0,1.9,1.9,0,0,0-.6,0Z"/><path class="e" d="M338.25,138.53a1.94,1.94,0,0,0,.54,0,1.89,1.89,0,0,0,.53,0,1.889,1.889,0,0,0-.53,0A1.94,1.94,0,0,0,338.25,138.53Z"/><path class="e" d="M338.84,139.12v.07h.06v-.07Z"/><path class="e" d="M336.61,135.34a1.15,1.15,0,0,0,.51-.25,1.34,1.34,0,0,0,.39-.39s-.19.16-.44.33A2.967,2.967,0,0,0,336.61,135.34Z"/><path class="e" d="M336.56,135.05a1.56,1.56,0,0,0,.31-.55,1.76,1.76,0,0,0,.16-.62s-.1.27-.23.59A5.437,5.437,0,0,0,336.56,135.05Z"/><path class="e" d="M336.17,135a2.271,2.271,0,0,0,0-.61,2.567,2.567,0,0,0,0-.62,2.319,2.319,0,0,0,0,.62,2.518,2.518,0,0,0,0,.61Z"/><path class="e" d="M335.1,133.85a2.42,2.42,0,0,0,.28.57,2.16,2.16,0,0,0,.39.51A11.217,11.217,0,0,0,335.1,133.85Z"/><path class="e" d="M334.57,134.85a3.03,3.03,0,0,0,.37.36,1.549,1.549,0,0,0,.43.29,2.41,2.41,0,0,0-.38-.35,1.811,1.811,0,0,0-.42-.3Z"/><path class="e" d="M334.51,135.83a1.25,1.25,0,0,0,.4.19,1.13,1.13,0,0,0,.42.12,1.14,1.14,0,0,0-.39-.19,1.2,1.2,0,0,0-.43-.12Z"/><path class="e" d="M334.67,136.64a.565.565,0,0,0,.31.11c.19.01.34,0,.33-.06a3,3,0,0,0-.32,0A2,2,0,0,0,334.67,136.64Z"/><path class="e" d="M337,136.13a1.46,1.46,0,0,0,.47-.07c.25-.05.46-.11.45-.14a1.52,1.52,0,0,0-.47.07,1.38,1.38,0,0,0-.45.14Z"/><path class="e" d="M336.87,136.6a1.491,1.491,0,0,0,.45,0,1.72,1.72,0,0,0,.45-.12,1.55,1.55,0,0,0-.46,0A1.26,1.26,0,0,0,336.87,136.6Z"/><path class="e" d="M336.87,137a1.108,1.108,0,0,0,.3.1.63.63,0,0,0,.31,0,1.36,1.36,0,0,0-.3-.11.69.69,0,0,0-.31.01Z"/><path class="e" d="M344.9,139.53a1.54,1.54,0,0,0,.22-.43,1.51,1.51,0,0,0,.14-.46,2.72,2.72,0,0,0-.36.89Z"/><path class="e" d="M344.35,139.6a1.91,1.91,0,0,0-.08-.49.25.25,0,1,0-.08,0C344.26,139.4,344.32,139.61,344.35,139.6Z"/><path class="e" d="M345.36,140a1.469,1.469,0,0,0,.43-.3,1.75,1.75,0,0,0,.39-.36,1.7,1.7,0,0,0-.44.3,2.181,2.181,0,0,0-.38.36Z"/><path class="e" d="M345.43,140.32a1.3,1.3,0,0,0,.45,0,1.07,1.07,0,0,0,.42-.1,2.751,2.751,0,0,0-.87.13Z"/><path class="e" d="M345.49,141a1.29,1.29,0,0,0,.4,0,1.13,1.13,0,0,0,.39-.09,1,1,0,0,0-.4,0A1.055,1.055,0,0,0,345.49,141Z"/><path class="e" d="M345.46,141.72a.79.79,0,0,0,.32,0,.16.16,0,1,0,0-.08A.78.78,0,0,0,345.46,141.72Z"/><path class="e" d="M343.26,141.61a.73.73,0,0,0,.32,0,.63.63,0,0,0,.32,0,.79.79,0,0,0-.32,0C343.4,141.56,343.26,141.58,343.26,141.61Z"/><path class="e" d="M343.16,140.92h.33a.17.17,0,1,0,0-.08.76.76,0,0,0-.33.08Z"/><path class="e" d="M343.06,140a1.14,1.14,0,0,0,.37.21,1.22,1.22,0,0,0,.4.15,1.371,1.371,0,0,0-.37-.22,1.07,1.07,0,0,0-.4-.14Z"/><path class="e" d="M343.31,139.38a1.729,1.729,0,0,0,.27.3c.17.15.31.25.32.23s-.1-.15-.27-.29a1.179,1.179,0,0,0-.32-.24Z"/><path class="e" d="M341.62,139.07a1.06,1.06,0,0,0,.81,0,2.859,2.859,0,0,0-.4,0,3.217,3.217,0,0,0-.41,0Z"/><path class="e" d="M341.48,139.86a1.72,1.72,0,0,0,.58.12,1.691,1.691,0,0,0,.58,0,17.085,17.085,0,0,0-1.16-.12Z"/><path class="e" d="M341.34,140.51a2.491,2.491,0,0,0,.62.14,3.051,3.051,0,0,0,.64.06,3.151,3.151,0,0,0-.63-.14,3,3,0,0,0-.63-.06Z"/><path class="e" d="M338.5,139.57a.6.6,0,0,0,.31,0h.3a.76.76,0,0,0-.31,0A.69.69,0,0,0,338.5,139.57Z"/><path class="e" d="M338.4,139.93h.24a.39.39,0,0,0,.24,0h-.24C338.51,139.93,338.4,139.91,338.4,139.93Z"/><path class="e" d="M336.74,137.84a1.77,1.77,0,0,0,.61,0,1.53,1.53,0,0,0,.58-.17,4.448,4.448,0,0,0-.59.09,4.181,4.181,0,0,0-.6.08Z"/><path class="e" d="M334.4,137.42a1.45,1.45,0,0,0,.43.1h.44a1.29,1.29,0,0,0-.43-.09,1.39,1.39,0,0,0-.44-.01Z"/><path class="e" d="M341.58,142a1.83,1.83,0,0,0,.49-.06,1.67,1.67,0,0,0,.48-.13,1.58,1.58,0,0,0-.49.05,1.73,1.73,0,0,0-.48.14Z"/><path class="e" d="M34.17,187.9a5.77,5.77,0,0,1,.89.89c.55.58,1.3,1.47,2.18,2.61a48.436,48.436,0,0,1,2.84,4.19,44.841,44.841,0,0,1,2.76,5.55A44.28,44.28,0,0,1,45.71,212c.18,1.43.29,2.59.32,3.39a5.7,5.7,0,0,1,0,1.25c-.09,0-.22-1.76-.68-4.58a50.19,50.19,0,0,0-3-10.72,47.8,47.8,0,0,0-2.69-5.5c-1-1.62-1.88-3.06-2.72-4.21s-1.54-2.08-2-2.7A6.26,6.26,0,0,1,34.17,187.9Z"/><path class="e" d="M48.13,194.41a27.7,27.7,0,0,1-.16,3.27,77.265,77.265,0,0,0,0,7.88,75,75,0,0,0,.83,7.83,29.84,29.84,0,0,1,.48,3.24,2.94,2.94,0,0,1-.29-.83c-.16-.55-.35-1.35-.56-2.34a54.1,54.1,0,0,1-1-7.88,52.349,52.349,0,0,1,.2-7.93c.1-1,.21-1.82.32-2.38A3.28,3.28,0,0,1,48.13,194.41Z"/><path class="e" d="M60.86,191.47c.08.08-1.06,1-2.38,3a21.281,21.281,0,0,0-2,3.61,31.431,31.431,0,0,0-1.57,4.8A51.94,51.94,0,0,0,53.68,212c-.13,2.36-.15,3.82-.23,3.82a3.84,3.84,0,0,1-.11-1c0-.67-.05-1.63,0-2.82a43.77,43.77,0,0,1,1.12-9.22,29.74,29.74,0,0,1,1.64-4.86,19.67,19.67,0,0,1,2.11-3.63,10,10,0,0,1,1-1.25,6.3,6.3,0,0,1,.85-.86A3.73,3.73,0,0,1,60.86,191.47Z"/><path class="e" d="M142.74,166.67a5.61,5.61,0,0,1,1.64,1.35,13.9,13.9,0,0,1,2.66,4.39,29.292,29.292,0,0,1,1.34,4.92,8.24,8.24,0,0,1,.29,2.1,9.049,9.049,0,0,1-.65-2,45.408,45.408,0,0,0-1.47-4.82,16.13,16.13,0,0,0-2.45-4.33,19.265,19.265,0,0,1-1.36-1.61Z"/><path class="e" d="M149,164.86a43,43,0,0,1,.77,6.61,43.281,43.281,0,0,1,.25,6.64,42.71,42.71,0,0,1-.77-6.6,41.933,41.933,0,0,1-.25-6.65Z"/><path class="e" d="M157.14,156.39a18.08,18.08,0,0,0-2.08,2.51,19.85,19.85,0,0,0-2.36,7.45,77.439,77.439,0,0,0-.62,7.91,22.173,22.173,0,0,1-.21,3.3,19.36,19.36,0,0,1-.16-3.31,56.079,56.079,0,0,1,.47-8,18.39,18.39,0,0,1,2.57-7.57,8.82,8.82,0,0,1,1.64-1.82A3.041,3.041,0,0,1,157.14,156.39Z"/><path class="e" d="M88.7,164.87a18.827,18.827,0,0,1-1.17-2,39.381,39.381,0,0,0-3.11-4.6,41.549,41.549,0,0,0-3.69-4.16,16.442,16.442,0,0,1-1.65-1.62,7.24,7.24,0,0,1,1.9,1.35,30.64,30.64,0,0,1,6.88,8.85,7.24,7.24,0,0,1,.84,2.18Z"/><path class="e" d="M92.58,164.57a15.089,15.089,0,0,1-1.09-2.38c-.63-1.49-1.53-3.54-2.6-5.75s-2.14-4.18-2.93-5.59a14.569,14.569,0,0,1-1.2-2.33,11.73,11.73,0,0,1,1.52,2.14,61.21,61.21,0,0,1,5.55,11.39A11.12,11.12,0,0,1,92.58,164.57Z"/><path class="e" d="M94.76,164.57a11.69,11.69,0,0,1-.52-2.9,27.82,27.82,0,0,1,.18-7.13,23.4,23.4,0,0,1,1-3.82,17.831,17.831,0,0,1,1.37-2.92A12.729,12.729,0,0,1,98,146c.33-.39.53-.59.56-.57s-.63.94-1.47,2.53a22,22,0,0,0-2.15,6.65,33.4,33.4,0,0,0-.32,7,29.061,29.061,0,0,1,.14,2.96Z"/><path class="e" d="M365,178.55a37.762,37.762,0,0,1-3.49-5.18,37.269,37.269,0,0,1-3-5.46,37.764,37.764,0,0,1,3.49,5.18,37.273,37.273,0,0,1,3,5.46Z"/><path class="e" d="M368.19,177.52a48.167,48.167,0,0,1-2.37-6.67A48.707,48.707,0,0,1,364,164a48.373,48.373,0,0,1,2.36,6.67,49.257,49.257,0,0,1,1.83,6.85Z"/><path class="e" d="M372.16,162a13.5,13.5,0,0,1-.13,2.48c-.12,1.52-.29,3.62-.41,5.95s-.16,4.44-.18,6a12.486,12.486,0,0,1-.13,2.48,10.2,10.2,0,0,1-.24-2.47c-.07-1.53-.08-3.66,0-6a56.071,56.071,0,0,1,.57-6A10.589,10.589,0,0,1,372.16,162Z"/><rect class="f" width="5.34" height="80.8" transform="translate(410.88 132.76)"/><rect class="g" width="36.88" height="36.88" rx="4.16" transform="translate(387.478 113.585) rotate(-45)"/><path class="e" d="M410.61,136.72a5.26,5.26,0,0,0,1.18.77,4.11,4.11,0,0,0,3.85-.24,15.279,15.279,0,0,0,2.13-2l2.47-2.5,6-6.09,7.32-7.37,2-2a7.29,7.29,0,0,0,1.77-2.21,3.94,3.94,0,0,0,.06-2.79,3.809,3.809,0,0,0-.72-1.25c-.32-.37-.73-.74-1.09-1.11L416.3,90.63a3.94,3.94,0,0,0-3.08-1.13,4,4,0,0,0-1.59.49,6,6,0,0,0-1.3,1.1L405.4,96l-9.33,9.31-4.34,4.33a10.13,10.13,0,0,0-1.89,2.15,4,4,0,0,0-.34,2.62,4.11,4.11,0,0,0,1.32,2.22l1.87,1.88,3.51,3.54,10.58,10.69C408,134,409,135,409.64,135.68l.73.77.24.27a3.511,3.511,0,0,1-.28-.23l-.77-.74-2.92-2.85-10.7-10.58-3.54-3.51-1.88-1.87a4.57,4.57,0,0,1-1.44-2.43,4.37,4.37,0,0,1,.37-2.92,4.469,4.469,0,0,1,.91-1.21l1-1,4.33-4.35L405,95.65l5-4.93a6.61,6.61,0,0,1,1.42-1.18,4.2,4.2,0,0,1,1.8-.55,4.47,4.47,0,0,1,3.49,1.27L436,109.59c.37.39.74.72,1.11,1.14a4.25,4.25,0,0,1,.8,1.4,4.34,4.34,0,0,1-.92,4.43c-.35.37-.7.7-1,1l-2,2-7.36,7.32-6.09,6-2.5,2.48-1.11,1.08a5.22,5.22,0,0,1-1.1.91,4.22,4.22,0,0,1-4,.16,3.82,3.82,0,0,1-.89-.6C410.69,136.82,410.6,136.73,410.61,136.72Z"/><path class="h" d="M413.54,134.81a4.09,4.09,0,0,1-2.89-1.2l-17.13-17.13a4.11,4.11,0,0,1,0-5.79l17.13-17.13a4.09,4.09,0,0,1,5.79,0l17.13,17.13a4.11,4.11,0,0,1,0,5.79l-17.13,17.13A4.09,4.09,0,0,1,413.54,134.81Zm20.833-21.225Z"/><path class="i" d="M422.25,113.25a.71.71,0,0,0-.43-.35,6.849,6.849,0,0,0-1-2.36c-.5-1.85-1.64-3.34-2.13-3.39-.91-.09-2,2.49-2.73,2.64s-2.6-2.67-3.53-2.48c-.6.13-2.05,3.41-2.37,3.56a1.24,1.24,0,0,1-1.36-.4,2.86,2.86,0,0,1-.35-1.56s.13-1.48.17-2.46v-.55h0a1,1,0,0,0,0-.27,8.647,8.647,0,0,0-.47-1.17,1,1,0,0,0,.19-1.06s-.4.11-.55.13-.34.41-.34.41-.35-.08-.42-.08-1.19.26-1.37.31a2.59,2.59,0,0,1-.72,0l-.7-.1a2,2,0,0,0-.46.37v.3s-.2.16-.22.27.25.28.25.28a.36.36,0,0,0,0,.18c0,.09.46.37.54.41s.16-.11.34-.14a12.153,12.153,0,0,1,1.22.4c.45.11.56.64.58.84a12.82,12.82,0,0,1-.22,3.71,4.07,4.07,0,0,0,1.1,3.26,13.918,13.918,0,0,1,1.91,2.85c.44.86.82,1.62.87,1.75a4.2,4.2,0,0,1,0,1.25,13.47,13.47,0,0,1,.63,3.09,3,3,0,0,1-.78,1.6h1.91l-.19-.29a.35.35,0,0,0,.28-.52,5.578,5.578,0,0,1-.53-1.76c0-.24,0-2,.07-3.69.24.46.43.82.46.92a4.142,4.142,0,0,1,0,1.24,13.063,13.063,0,0,1,.63,3.09,4.191,4.191,0,0,1-.47,1.6h1.61v-.33s.49-.08.28-.52a5.689,5.689,0,0,1-.69-1.71c0-.34.06-3.67.11-5.65l1,.06h1.13a3.43,3.43,0,0,0,1.34,1.5c1.68.92,1.4,1.49,1.4,1.49v4a9.4,9.4,0,0,1-.78.82h1.72a1.747,1.747,0,0,0,0-.92c-.09-.4.56-2.81.68-4.21.36.41.25.65.25.65v4a8.163,8.163,0,0,1-.78.81,16.392,16.392,0,0,0,1.72,0s.11-.21-.05-.91c-.12-.52,1-4.42.61-5.1a5.1,5.1,0,0,1-.76-2.82,21.829,21.829,0,0,0,.35-4.66,3.457,3.457,0,0,1,.29.58c.13.31.23.54.32.72a.82.82,0,0,0-.1.8c.07.19.23.36.2.56l.22-.23c-.05,0,0,.15.05.18a.21.21,0,0,0,.2,0,.44.44,0,0,0,.1-.19,1,1,0,0,0-.23-.75Z"/><path class="j" d="M290,216.69s3.56,10.25,9.23,9.56a9.25,9.25,0,0,0,7.73-6.16,13.7,13.7,0,0,0,.57-7.89c-2.07-9.95-6.76-31.85-6.76-31.85L284.63,183,290,216.69"/><path class="i" d="M242.66,400.82l1.27,30.06,16.23-.36-1.21-30.12Z"/><path class="e" d="M251.9,429.57c.14,0-.11-6.59-.56-14.7s-.92-14.68-1.05-14.67.11,6.58.56,14.7S251.77,429.58,251.9,429.57Z"/><path class="k" d="M243.84,428.81l16.24-.42.08,2.13-16.23.36Z"/><path class="e" d="M259.78,420.9a2.26,2.26,0,0,0-.45-.64,10.829,10.829,0,0,0-1.52-1.48,11,11,0,0,0-2.7-1.64,8.689,8.689,0,0,0-3.82-.7,8.57,8.57,0,0,0-6.19,3.05,7,7,0,0,0-1.11,1.82,1.87,1.87,0,0,0-.22.74,17.509,17.509,0,0,1,1.59-2.34,8.66,8.66,0,0,1,6-2.77,9.93,9.93,0,0,1,6.28,2.11C259,420.1,259.71,421,259.78,420.9Z"/><g class="l"><path d="M259.29,408.97l.14,3.32-16.27.29-.11-2.5Z"/></g><path class="j" d="M245.47,150.72l22.35-.29-2.5-19s1.53-.33,1.63-8.61.48-22.34.48-22.34h0a28.77,28.77,0,0,0-28.91,3.63l-1.22,1Z"/><path class="j" d="M239.89,115.22c-.14-.06-5.69-1.68-5.5,4s5.82,4.31,5.83,4.14S239.89,115.22,239.89,115.22Z"/><path class="j" d="M266.47,114c.14-.06,5.19-1.42,5,4.24s-5.83,4.31-5.83,4.14S266.47,114,266.47,114Z"/><path class="e" d="M272.82,97.69A3,3,0,0,0,271.69,95a2.15,2.15,0,0,0-2.8.21,2.54,2.54,0,0,0-2.18-3.07c-1.35-.08-2.5.94-3.8,1.29A6.18,6.18,0,0,1,259,93c-1.22-.5-2.37-1.18-3.61-1.63a10.58,10.58,0,0,0-13.54,6.22,4.68,4.68,0,0,0-5,1.88,7.71,7.71,0,0,0-1.18,5.43,17.649,17.649,0,0,0,.94,3.72v.32c.08,4.55,2.45,18.93,4.4,19,3.38.05.72-15.36.72-15.36,4.15-1.61,2.6-7.83,3.64-8.77s3.21-3.14,11.91,1.3a16.87,16.87,0,0,0,10.32,1.12h.34a8.11,8.11,0,0,0,2.23-1,4.41,4.41,0,0,0,1.83-2,2.42,2.42,0,0,0-.47-2.6A5.28,5.28,0,0,0,272.82,97.69Z"/><path class="e" d="M238.06,114.59c.84,4.74.68,7.23,1.46,10.4,1.24,5,3.73,8.85,8.24,11.36s10.62,2.46,14.5-.95c2.69-2.37,4.6-5,5-8.6s.8-9.86.83-13.45c0-6.46.47-12.64.47-12.64L250.1,97.37l-10.5,6.25Z"/><path class="e" d="M257.1,139.21a6,6,0,0,1-3.24.28,5.93,5.93,0,0,1-3.09-1c0-.14,1.42.28,3.15.47A30.24,30.24,0,0,1,257.1,139.21Z"/><path class="f" d="M261.9,96.54a2.46,2.46,0,0,1-.88.16,5,5,0,0,1-2.36-.55,16.729,16.729,0,0,1-3-2,8.09,8.09,0,0,0-3.9-1.8,7,7,0,0,0-4.2.73,6.9,6.9,0,0,0-2.57,2.4,7.86,7.86,0,0,0-1.09,3.08,3.93,3.93,0,0,1,.09-.89,6.93,6.93,0,0,1,.88-2.27,6.86,6.86,0,0,1,2.6-2.48,7.06,7.06,0,0,1,4.32-.78,8.14,8.14,0,0,1,4,1.86,18.318,18.318,0,0,0,2.94,2,5.24,5.24,0,0,0,2.3.6A6.3,6.3,0,0,0,261.9,96.54Z"/><path class="f" d="M244.17,98.87a7.49,7.49,0,0,0-1.33-.49,4.24,4.24,0,0,0-5.17,3.21,7.631,7.631,0,0,0-.15,1.4,1.211,1.211,0,0,1-.06-.38,3.481,3.481,0,0,1,.07-1.06,4.25,4.25,0,0,1,5.35-3.31,3.88,3.88,0,0,1,1,.4,1.74,1.74,0,0,1,.29.23Z"/><path class="f" d="M243.62,119.06a11.091,11.091,0,0,1-1.55-2.91,10.78,10.78,0,0,1-1.07-3.1,10.72,10.72,0,0,1,1.55,2.9,10.691,10.691,0,0,1,1.07,3.11Z"/><path class="f" d="M248.46,122.31a8.94,8.94,0,0,1-4-6.06c.15,0,.68,1.5,1.78,3.16S248.56,122.19,248.46,122.31Z"/><path class="f" d="M253.23,123.35A5,5,0,0,1,251,122c-1.09-.95-1.76-1.92-1.65-2a10.126,10.126,0,0,1,2,1.61C252.41,122.53,253.31,123.23,253.23,123.35Z"/><path class="f" d="M261.66,115.68a6.66,6.66,0,0,1-2.14,5.17,25.4,25.4,0,0,1,1.16-2.55,25.742,25.742,0,0,1,.98-2.62Z"/><path class="f" d="M264.52,111.21a6.35,6.35,0,0,1-.33,3.47,6.13,6.13,0,0,1-1.72,3c-.12-.08.68-1.4,1.23-3.18S264.36,111.21,264.52,111.21Z"/><path class="f" d="M266.71,99.77a3.13,3.13,0,0,1-.74.57,5.52,5.52,0,0,1-2.43.75,8.34,8.34,0,0,1-3.73-.57,30.521,30.521,0,0,1-4.13-2.06,17.71,17.71,0,0,0-4.2-1.81,6.92,6.92,0,0,0-3.68,0,5.22,5.22,0,0,0-2.16,1.24c-.42.42-.58.72-.6.7a3.311,3.311,0,0,1,.55-.76,4.92,4.92,0,0,1,2.17-1.31,6.87,6.87,0,0,1,3.76-.07,17.07,17.07,0,0,1,4.26,1.82,32.088,32.088,0,0,0,4.1,2.06,8.5,8.5,0,0,0,3.65.61,5.72,5.72,0,0,0,3.18-1.17Z"/><path class="f" d="M268.35,102.46a1.33,1.33,0,0,1-.3.2,7.289,7.289,0,0,1-.88.43,10.62,10.62,0,0,1-6.36.58,6.151,6.151,0,0,1-.95-.27c-.22-.08-.33-.12-.33-.14s.5.12,1.3.27a12.16,12.16,0,0,0,3.19.13,12,12,0,0,0,3.1-.71C267.88,102.66,268.33,102.42,268.35,102.46Z"/><path class="j" d="M231.52,189.69,215.39,187s-7.76,28.33-9.4,36.34S202.9,257,202.9,257h0c-.46,2.84-2.25,13.33-1.28,14.71a4.41,4.41,0,0,0,3.69,1.66s.37,2.12,1.94,2.12c0,0,.64,1.84,2.21,2s7.75,0,7.75,0,.09-2.31-1.85-2.49c0,0-.18-1.48-3.32-1.57,0,0,.83-2-1.75-2.58l-1-.52,1.76-4.2.83.79c.83.79,1.57,4.85,2.58,4.94a4.65,4.65,0,0,0,2.31-.74l-2.29-14.89-2-2.37,10.41-32.08Z"/><path class="m" d="M205.66,269.39a6.42,6.42,0,0,0,2.13.62,14.068,14.068,0,0,1,2.48.37,3.421,3.421,0,0,1,1.35.77,2.18,2.18,0,0,1,.73,1.57,1.39,1.39,0,0,1-.31.9,1.14,1.14,0,0,1-.88.37l-1.48-.08-2.46-.18a9.67,9.67,0,0,1-2.27-.3,10.462,10.462,0,0,1,2.29-.07l2.47.07,1.44.05a.64.64,0,0,0,.5-.2.94.94,0,0,0,.18-.57,2.25,2.25,0,0,0-1.71-1.87,17.764,17.764,0,0,0-2.39-.46C206.29,270.14,205.59,269.44,205.66,269.39Z"/><path class="m" d="M215.17,274.74a.358.358,0,0,1,.31.24.67.67,0,0,1,0,.49.79.79,0,0,1-.52.38,7.507,7.507,0,0,1-1.45.08H211.8a19.43,19.43,0,0,1-4.4-.36,18.18,18.18,0,0,1,4.41-.16l1.71.06a11.222,11.222,0,0,0,1.36,0,.46.46,0,0,0,.45-.47C215.27,274.84,215.15,274.78,215.17,274.74Z"/><path class="m" d="M205.61,265.82c.14,0,.18.76.08,1.67s-.29,1.63-.43,1.61-.18-.76-.08-1.67S205.47,265.81,205.61,265.82Z"/><path class="m" d="M210.52,261.33c.12.07-.4,1.08-1.5,1.92a3.51,3.51,0,0,1-2.24.95c-.05-.14.92-.58,1.93-1.36S210.39,261.24,210.52,261.33Z"/><path class="m" d="M211.06,265.83c-.1.1-.53-.22-.82-.79s-.29-1.11-.16-1.14.36.4.62.9S211.17,265.74,211.06,265.83Z"/><path class="e" d="M290.72,243.88H262.14l-34.08,4.61s2.73,48.75,3.57,63.68S233,352.44,233,352.44l6.39,59,22.11-2.36V397.82c13.13-3.14,18.59,4.46,18.59,4.46s8.19-38.86,9.31-46.18,0-34.93,0-34.93Zm-29.26,108.3V292.52l.68-19.25v4.37l1.32,48.82Z"/><path class="f" d="M250,321.13a20.14,20.14,0,0,0-13.24.64,5.52,5.52,0,0,1,1.77-.95,14.92,14.92,0,0,1,4.77-1,15.26,15.26,0,0,1,4.84.54,5.52,5.52,0,0,1,1.86.77Z"/><path class="f" d="M286.08,326.46a28.806,28.806,0,0,1-3-.52,44.61,44.61,0,0,0-14.4-.25,28.389,28.389,0,0,1-3,.42,12.647,12.647,0,0,1,2.92-.79,35.759,35.759,0,0,1,7.28-.61,35.187,35.187,0,0,1,7.25.87A12.309,12.309,0,0,1,286.08,326.46Z"/><path class="f" d="M286.56,321.13a24.215,24.215,0,0,1-2.85-.41,46.11,46.11,0,0,0-6.87-.52,45.65,45.65,0,0,0-6.88.55,22.994,22.994,0,0,1-2.85.42,12,12,0,0,1,2.78-.79,36,36,0,0,1,6.94-.7,35.559,35.559,0,0,1,6.95.67,11.577,11.577,0,0,1,2.78.78Z"/><path class="f" d="M280.05,397c-.07.06-.86-.87-2.47-1.95a14.43,14.43,0,0,0-14.34-1.19c-1.76.8-2.7,1.59-2.76,1.51s.19-.24.62-.59a12.85,12.85,0,0,1,2-1.26,13.94,13.94,0,0,1,14.72,1.22,12.822,12.822,0,0,1,1.74,1.57C279.9,396.67,280.08,396.93,280.05,397Z"/><path class="f" d="M238.6,254.7h.24l.73-.1,2.82-.36L252.57,253h.18v.19c.21,3.37.46,7.26.72,11.39v.11l-.08.06-1.11.87c-1.94,1.52-3.83,3-5.61,4.38l-.1.07-.11-.05-7.12-3.36h-.09v-.1c-.21-3.54-.38-6.49-.51-8.61l-.12-2.37v-.81a1.211,1.211,0,0,1,0,.23l.06.64c.06.6.13,1.4.22,2.4.16,2.09.4,5,.68,8.5l-.1-.14,7.14,3.31h-.21l5.61-4.38,1.1-.87-.07.17c-.24-4.14-.47-8-.67-11.4l.2.16-10.08,1-2.87.27-.77.06A.881.881,0,0,1,238.6,254.7Z"/><path class="f" d="M268.1,251.77h3.8l10.21.08h.19V252c-.21,3.36-.45,7.24-.71,11.36v.1l-.09.06-1.2.72-6.1,3.63-.11.06-.1-.07-6.62-4.2-.08-.06v-.09c.24-3.53.43-6.47.57-8.58.07-1,.13-1.77.17-2.36a5.292,5.292,0,0,1,.09-.8v.87c0,.6,0,1.4-.09,2.4-.1,2.09-.23,5-.39,8.48l-.07-.14,6.64,4.16H274l6.09-3.64,1.21-.72-.1.16c.28-4.13.54-8,.76-11.36l.18.19-10.1-.25-2.87-.09h-.77Z"/><path class="f" d="M262.13,277.63c-.14,0-.41-6.25-.59-14s-.23-14-.08-14,.41,6.25.6,14S262.28,277.63,262.13,277.63Z"/><path class="f" d="M261.37,273.81a9.61,9.61,0,0,1-2.33,1.3,29.84,29.84,0,0,1-12.52,2.66,10.571,10.571,0,0,1-2.66-.24,18.713,18.713,0,0,1,2.65-.13,37.579,37.579,0,0,0,12.39-2.63A22.481,22.481,0,0,1,261.37,273.81Z"/><path class="f" d="M282.08,270.33a17.216,17.216,0,0,1-2.93.33c-1.81.15-4.31.37-7.07.68s-5.24.64-7,.89a19.35,19.35,0,0,1-2.94.33,14.762,14.762,0,0,1,2.88-.69c1.79-.34,4.28-.74,7-1.05s5.29-.47,7.11-.53a14.8,14.8,0,0,1,2.95.04Z"/><path class="f" d="M280.05,401.61a2.38,2.38,0,0,1-.34-.23l-1-.72-.7-.52-.91-.55-1.07-.63-1.28-.58a18.33,18.33,0,0,0-7-1.53,20.33,20.33,0,0,0-9.25,2l-.31.15v-.34c1.35-12.68,2.94-29.9,3.85-48.88,1-19.91,1-38,.72-51-.14-6.53-.34-11.81-.49-15.46-.07-1.8-.13-3.21-.17-4.2v-1.1a1.329,1.329,0,0,1,0-.37v.37c0,.25.05.63.08,1.09q.105,1.5.27,4.2c.21,3.65.47,8.93.66,15.46.39,13.06.42,31.13-.57,51.06-.91,19-2.55,36.22-4,48.89l-.28-.18a20.37,20.37,0,0,1,9.43-2,18.541,18.541,0,0,1,7.1,1.63l1.28.62,1.06.65.91.57.69.56.93.76A3.087,3.087,0,0,1,280.05,401.61Z"/><path class="f" d="M287.13,315.49a5.164,5.164,0,0,1-.72.51,16.764,16.764,0,0,1-2.13,1.09,23.91,23.91,0,0,1-15.53,1.16,16.827,16.827,0,0,1-2.27-.76,3.131,3.131,0,0,1-.79-.39c0-.09,1.2.36,3.15.79a27,27,0,0,0,7.73.56,26.719,26.719,0,0,0,7.57-1.71C286,316,287.09,315.41,287.13,315.49Z"/><path class="f" d="M256.64,322.6a13.629,13.629,0,0,1-2.54.27l-6.11.44-6.1.52a12.141,12.141,0,0,1-2.54.13,12.1,12.1,0,0,1,2.5-.5c1.55-.23,3.71-.48,6.1-.67s4.57-.28,6.14-.29a11.41,11.41,0,0,1,2.55.1Z"/><path class="i" d="M278.47,406.92l.59-5.73s-6.27-6.62-17.83-3.39L258,413.65a53,53,0,0,0-4.91,7.89,5.29,5.29,0,0,0-1.29,2.06c-.6,1.82-.63,6.21.61,7.67s1.16,2,2.83,2.92c2.36,1.37,7.64.93,10.22,0,2.09-.73,3.4-2.76,4.49-4.68a99.832,99.832,0,0,0,7.33-16.23c.3-.87.59-1.76.82-2.66h0A11.5,11.5,0,0,0,278.47,406.92Z"/><g class="n"><path class="d" d="M268.93,399.42c-4.53-.38-8.28,5.84-9.1,10.94A26.761,26.761,0,0,1,258.7,416c-1.23,3.26-5.83,4.3-6.9,7.61-.6,1.82-.63,6.21.61,7.67s1.16,2,2.83,2.92c2.36,1.37,7.64.93,10.22,0,2.09-.73,3.4-2.76,4.49-4.68a99.828,99.828,0,0,0,7.33-16.23c.82-2.35,1.55-4.85,1.07-7.29a8.85,8.85,0,0,0-13-5.49"/></g><path class="o" d="M252,431a3.072,3.072,0,0,1-.37-.59,3.65,3.65,0,0,1-.33-.78,6.189,6.189,0,0,1-.32-1.11,9.14,9.14,0,0,1,1.61-7.06h0a30.219,30.219,0,0,1,2.83-2.45,9.84,9.84,0,0,0,2.68-2.88,11.41,11.41,0,0,0,1.16-4.13,38.325,38.325,0,0,1,.74-4.81,11.25,11.25,0,0,1,7-7.87,9.15,9.15,0,0,1,8.53,1.3,8,8,0,0,1,2.94,5.07,3.85,3.85,0,0,1-.13,2.15c-.1,0,0-.78-.27-2.08a8,8,0,0,0-3-4.56,8.47,8.47,0,0,0-7.77-1,10.42,10.42,0,0,0-6.35,7.23,40.469,40.469,0,0,0-.72,4.67,12.07,12.07,0,0,1-1.23,4.5,10.69,10.69,0,0,1-3,3.11,31,31,0,0,0-2.82,2.31h0a9.19,9.19,0,0,0-1.63,3.51,8.58,8.58,0,0,0-.15,3C251.67,430.11,252.12,431,252,431Z"/><path class="e" d="M272.91,421.44a3.6,3.6,0,0,1-.6.51c-.39.32-1,.75-1.73,1.26a46,46,0,0,1-6.11,3.52,46.941,46.941,0,0,1-6.57,2.55c-.87.25-1.57.44-2.07.55a3.058,3.058,0,0,1-.77.14,4.367,4.367,0,0,1,.74-.26c.48-.14,1.18-.36,2-.64a55.281,55.281,0,0,0,12.63-6c.76-.49,1.36-.89,1.78-1.18A3.388,3.388,0,0,1,272.91,421.44Z"/><path class="e" d="M267.93,420.91a6.087,6.087,0,0,1-1.3.68c-.82.38-2,.85-3.3,1.3a35.355,35.355,0,0,1-3.41,1,6.284,6.284,0,0,1-1.45.23,8.208,8.208,0,0,1,1.4-.45c.86-.25,2.06-.6,3.36-1s2.47-.88,3.32-1.2a7,7,0,0,1,1.38-.56Z"/><path class="e" d="M264.75,429.94a7,7,0,0,1-.52-1.6,26,26,0,0,1-.71-4,27.711,27.711,0,0,1-.1-4.06,6.811,6.811,0,0,1,.19-1.67,10.7,10.7,0,0,1,0,1.67,32.249,32.249,0,0,0,.19,4c.19,1.54.41,3,.61,4a12.149,12.149,0,0,1,.34,1.66Z"/><path class="e" d="M273.5,407.66a25.12,25.12,0,0,1-3.66,1.43,24.581,24.581,0,0,1-3.76,1.15,24.436,24.436,0,0,1,3.66-1.44,23.819,23.819,0,0,1,3.76-1.14Z"/><path class="i" d="M229.37,224.72l.84-32.68-5.62-23.31,1.68-15.95,17.95-9.06,22.46-1.94,19.18,4.99.06,62.92,6.01,36.9-64.91,3.29Z"/><path class="e" d="M277.81,219.18a8.608,8.608,0,0,1-1,1.19,15.675,15.675,0,0,1-1.24,1.29c-.52.48-1.07,1.06-1.77,1.6a27.532,27.532,0,0,1-2.3,1.74,31.905,31.905,0,0,1-2.82,1.77,38.161,38.161,0,0,1-7,2.95,39,39,0,0,1-7.47,1.37,31.242,31.242,0,0,1-3.32.06A25.148,25.148,0,0,1,248,231c-.88-.07-1.66-.25-2.35-.37a13.248,13.248,0,0,1-1.75-.4,10.06,10.06,0,0,1-1.46-.46c0-.12,2.12.54,5.6.86a27.737,27.737,0,0,0,2.85.14,31.182,31.182,0,0,0,3.27-.12,36.21,36.21,0,0,0,14.28-4.26,29.569,29.569,0,0,0,2.8-1.7A25.882,25.882,0,0,0,273.6,223C276.33,220.79,277.72,219.1,277.81,219.18Z"/><path class="i" d="M228.61,152.53s-6.37-1.23-9.45,10.06-7.86,30.25-7.86,30.25l21.33-.8-2.58-38.69"/><path class="i" d="M285.86,146.77s11.95.53,14.26,20.8c.07.61,4.09,22,4.09,22H283.14Z"/><path class="e" d="M228.06,167a5.349,5.349,0,0,1,.16,1.13q.1,1.26.27,3.09c.23,2.73.53,6.27.85,10.19s.57,7.59.7,10.21c.07,1.3.11,2.36.11,3.1a5.119,5.119,0,0,1,0,1.14,4.63,4.63,0,0,1-.16-1.13q-.1-1.26-.27-3.09l-.86-10.19c-.31-4-.57-7.59-.7-10.21-.06-1.3-.1-2.36-.11-3.1A4.669,4.669,0,0,1,228.06,167Z"/><path class="e" d="M287.64,166a4.061,4.061,0,0,1,0,1.09c0,.7,0,1.72-.1,3-.12,2.5-.36,6-.64,9.77s-.52,7.14-.7,9.76c-.08,1.16-.15,2.15-.2,3a4.771,4.771,0,0,1-.13,1.08,4.119,4.119,0,0,1-.07-1.09c0-.7,0-1.71,0-3,.06-2.51.26-6,.55-9.78s.58-7.13.79-9.76c.11-1.15.2-2.14.27-2.95A4.869,4.869,0,0,1,287.64,166Z"/><path class="e" d="M286.12,147.1a7.39,7.39,0,0,1,1.13,3.21,7.18,7.18,0,0,1,.07,3.4,23.328,23.328,0,0,1-.58-3.31,24.439,24.439,0,0,1-.62-3.3Z"/><path class="e" d="M264.78,218.88a11.74,11.74,0,0,1-2.34,1.2,55.672,55.672,0,0,1-6,2.18,52.1,52.1,0,0,1-6.18,1.48,11,11,0,0,1-2.62.3,15.55,15.55,0,0,1,2.55-.66c1.57-.37,3.74-.9,6.1-1.61s4.46-1.47,6-2A15.16,15.16,0,0,1,264.78,218.88Z"/><path class="o" d="M229.46,185a77.576,77.576,0,0,1-8.62,1.95,76.345,76.345,0,0,1-8.72,1.45,72.454,72.454,0,0,1,8.62-2A71.715,71.715,0,0,1,229.46,185Z"/><path class="o" d="M227.78,175.09a27.29,27.29,0,0,1-5.31-.55,28.161,28.161,0,0,1-5.22-1.06,26.37,26.37,0,0,1,5.3.55,27.441,27.441,0,0,1,5.23,1.06Z"/><path class="o" d="M290,160.29c0,.14-15.14.07-33.82-.17s-33.82-.54-33.82-.68,15.15-.07,33.83.16S290,160.14,290,160.29Z"/><path class="o" d="M284,146.23a1.66,1.66,0,0,1-.5.12l-1.46.23c-1.28.2-3.12.45-5.4.74-4.57.58-10.88,1.3-17.87,1.94s-13.33,1.08-17.93,1.33c-2.29.13-4.15.21-5.44.25h-1.48a3,3,0,0,1-.52,0,1.85,1.85,0,0,1,.51-.09l1.48-.13,5.43-.42c4.58-.34,10.92-.84,17.9-1.48s13.3-1.3,17.87-1.79l5.42-.57,1.48-.13a2.459,2.459,0,0,1,.51,0Z"/><path class="o" d="M287.75,175.77c0,.14-13,1-29,2s-29,1.63-29,1.48,13-1,29-2S287.74,175.62,287.75,175.77Z"/><path class="o" d="M284.94,186.22c0,.14-11.93,2.46-26.7,5.18s-26.78,4.81-26.8,4.67,11.93-2.46,26.7-5.18S284.91,186.08,284.94,186.22Z"/><path class="o" d="M283.75,205.24c0,.14-12.09.1-27-.09s-27-.47-27-.61,12.09-.11,27,.09S283.76,205.1,283.75,205.24Z"/><path class="o" d="M303.36,180.4a61.1,61.1,0,0,1-8.1.14,60.828,60.828,0,0,1-8.1-.38,65.719,65.719,0,0,1,8.11-.14A64.912,64.912,0,0,1,303.36,180.4Z"/><path class="o" d="M299.37,169.41a38,38,0,0,1-6.05,1.46,38.2,38.2,0,0,1-6.14.95,36.781,36.781,0,0,1,6-1.46A36.927,36.927,0,0,1,299.37,169.41Z"/><path class="o" d="M259,220.8c0,.15-6.48.58-14.49,1s-14.5.58-14.5.44,6.47-.57,14.48-1S259,220.66,259,220.8Z"/><path class="o" d="M286.29,215.4a100.752,100.752,0,0,1-10,1.87,100.36,100.36,0,0,1-10.12,1.37,95.725,95.725,0,0,1,10-1.88A95.592,95.592,0,0,1,286.29,215.4Z"/><path class="o" d="M255.33,231.14c0,.13-6,2.42-13.45,5.11s-13.58,4.76-13.62,4.63,6-2.43,13.45-5.12S255.28,231,255.33,231.14Z"/><path class="o" d="M285.71,222.74a59.66,59.66,0,0,1-7.62,1.68,59.362,59.362,0,0,1-7.73,1.16A60.092,60.092,0,0,1,278,223.9,59.611,59.611,0,0,1,285.71,222.74Z"/><path class="o" d="M289.75,242.59c0,.14-13.8,1.2-30.83,2.36s-30.86,2-30.87,1.85,13.79-1.2,30.83-2.37S289.74,242.45,289.75,242.59Z"/><g class="l"><path d="M244.9,230.42c-1-.74-.46-2.5.65-3.08a6.49,6.49,0,0,1,3.69-.28,27.18,27.18,0,0,0,21.27-7.51,6.43,6.43,0,0,1,2.26-1.7,1.93,1.93,0,0,1,2.43.86,2.54,2.54,0,0,1-.45,2.12c-2.77,4.76-7.87,7.81-13.21,9.14s-10.94,1.09-16.41.55"/></g><g class="l"><path d="M228.13,169a200.784,200.784,0,0,1-4.82,23.41l6.9-.41Z"/></g></g></g></svg>