<svg xmlns="http://www.w3.org/2000/svg" width="50.001" height="60.166" viewBox="0 0 50.001 60.166"><defs><style>.a{fill:#273d4c;}.b{fill:#30cf87;}</style></defs><g transform="translate(-263.999 -391)"><path class="a" d="M-5527.652,84.513h.023A24.953,24.953,0,0,1-5537,65a25,25,0,0,1,25-25,25,25,0,0,1,25,25,24.953,24.953,0,0,1-9.371,19.513h.024L-5512,100.165Z" transform="translate(5801 351)"/><path class="b" d="M47.327,7.25A.37.37,0,0,0,47,7.062H42.151L42.965.845A.373.373,0,0,0,42.282.6l-5.9,10.341a.37.37,0,0,0,.316.565h4.781l-.645,6.226a.373.373,0,0,0,.686.228l5.8-10.339a.37.37,0,0,0,0-.373Z" transform="translate(247.15 405.405)"/></g></svg>