<svg xmlns="http://www.w3.org/2000/svg" width="25.387" height="30.672" viewBox="0 0 25.387 30.672"><defs><style>.a{fill:#30cf87;stroke:#30cf87;}.b{fill:#c3d0d9;stroke:#c3d0d9;}</style></defs><g transform="translate(2.811 0.5)"><path class="a" d="M493.868,428.836a6.918,6.918,0,1,1,6.918-6.918A6.918,6.918,0,0,1,493.868,428.836Zm0-11.86a4.941,4.941,0,1,0,4.941,4.941A4.941,4.941,0,0,0,493.868,416.977Z" transform="translate(-483.985 -415)"/><path class="b" d="M497.29,467.6H485.1c-3.367,0-6.1-2.212-6.1-4.941v-2.965c0-2.729,2.729-4.941,6.1-4.941H497.29c3.367,0,6.1,2.212,6.1,4.941v2.965C503.387,465.386,500.658,467.6,497.29,467.6ZM485.1,456.727c-2.02,0-3.658,1.327-3.658,2.965v2.965c0,1.638,1.638,2.965,3.658,2.965H497.29c2.02,0,3.658-1.327,3.658-2.965v-2.965c0-1.638-1.638-2.965-3.658-2.965Z" transform="translate(-481.311 -437.926)"/></g></svg>