<svg xmlns="http://www.w3.org/2000/svg" width="52" height="52" viewBox="0 0 52 52"><defs><style>.a{fill:#273d4c;}.b{fill:#fff;stroke:#fff;}.c{fill:#30cf87;stroke:#30cf87;}</style></defs><g transform="translate(-9120 -13628)"><circle class="a" cx="26" cy="26" r="26" transform="translate(9120 13628)"/><g transform="translate(9132.117 13640.484)"><path class="b" d="M356.327,442.866H332.193a1.722,1.722,0,0,1-1.843-1.56V416.6a1.722,1.722,0,0,1,1.843-1.56h24.133a1.721,1.721,0,0,1,1.843,1.56v24.7A1.722,1.722,0,0,1,356.327,442.866Zm-24.133-27.34a1.186,1.186,0,0,0-1.271,1.075v24.7a1.186,1.186,0,0,0,1.271,1.075h24.133a1.186,1.186,0,0,0,1.271-1.075V416.6a1.186,1.186,0,0,0-1.271-1.075Zm24.42,26.022H331.907v-25.19h24.706Zm-24.133-.485h23.56v-24.22H332.48Z" transform="translate(-330.35 -415.041)"/><path class="b" d="M343.932,458.442a.932.932,0,0,1-.932-.932v-8.578a.932.932,0,1,1,1.865,0v8.578A.932.932,0,0,1,343.932,458.442Z" transform="translate(-335.617 -435.708)"/><path class="b" d="M358.932,454.68a.932.932,0,0,1-.932-.932V442.932a.932.932,0,1,1,1.865,0v10.815A.932.932,0,0,1,358.932,454.68Z" transform="translate(-345.023 -431.946)"/><path class="c" d="M373.932,450.918a.932.932,0,0,1-.932-.932V436.932a.932.932,0,1,1,1.865,0v13.053A.932.932,0,0,1,373.932,450.918Z" transform="translate(-354.428 -428.184)"/></g></g></svg>