<svg xmlns="http://www.w3.org/2000/svg" width="33.004" height="33.004" viewBox="0 0 33.004 33.004"><defs><style>.a{fill:#30cf87;stroke:#30cf87;}</style></defs><g transform="translate(0.5 0.5)"><path class="a" d="M353.875,360.126H362V362H352V352h1.875Z" transform="translate(-352 -329.997)"/><path class="a" d="M8.126,1.875H0V0H10V10H8.126Z" transform="translate(22.003)"/><path class="a" d="M362,0V1.875h-8.126V10H352V0Z" transform="translate(-352)"/><path class="a" d="M8.126,352H10v10H0v-1.875H8.126Z" transform="translate(22.003 -329.997)"/><path class="a" d="M89.061,107v6.476H91.5v1.875H68v-1.875h2.438V107Zm-1.875,1.875H72.309v4.6H87.186Z" transform="translate(-63.746 -100.312)"/><path class="a" d="M125.627,295.242V302.1H107v-6.861h1.875v4.986h14.877v-4.986Z" transform="translate(-100.312 -276.787)"/></g></svg>