<svg xmlns="http://www.w3.org/2000/svg" width="22.668" height="22.667" viewBox="0 0 22.668 22.667"><defs><style>.a{fill:#30cf87;}</style></defs><path class="a" d="M144.806,6.592,138.667.217a.708.708,0,0,0-1.218.492v3.07h-.236A9.219,9.219,0,0,0,128,12.988V14.4a.7.7,0,0,0,.551.677.633.633,0,0,0,.156.019.733.733,0,0,0,.647-.4,7.747,7.747,0,0,1,6.968-4.307h1.122v3.07a.708.708,0,0,0,1.218.491l6.139-6.375a.708.708,0,0,0,0-.983Zm0,0" transform="translate(-122.337 -0.001)"/><path class="a" d="M19.838,104.23h-17A2.837,2.837,0,0,1,0,101.4V88.173A2.837,2.837,0,0,1,2.837,85.34H5.671a.944.944,0,1,1,0,1.889H2.837a.945.945,0,0,0-.945.945V101.4a.945.945,0,0,0,.945.945h17a.945.945,0,0,0,.944-.945V93.84a.945.945,0,1,1,1.889,0V101.4a2.837,2.837,0,0,1-2.833,2.833Zm0,0" transform="translate(-0.004 -81.562)"/></svg>