<svg xmlns="http://www.w3.org/2000/svg" xmlns:xlink="http://www.w3.org/1999/xlink" width="289.268" height="163.957" viewBox="0 0 289.268 163.957"><defs><style>.a{fill:#e0e0e0;}.b{fill:#ebebeb;}.c{fill:#263238;}.d{fill:#455a64;}.e{fill:#d07167;}.f{opacity:0.3;}.g{fill:#fff;}.h{opacity:0.7;}.i{fill:#e8505b;}.j{fill:#f5f5f5;}.k{fill:#ffbe9d;}.l{fill:#eb996e;}.m{opacity:0.4;}.n{fill:#323f4d;}.o{fill:url(#a);}.p{fill:#7ace8a;}</style><linearGradient id="a" x1="0.5" x2="0.5" y2="1" gradientUnits="objectBoundingBox"><stop offset="0" stop-color="#30cf87"/><stop offset="1" stop-color="#0e834e"/></linearGradient></defs><g transform="translate(-28.478 -44.918)"><g transform="translate(28.478 44.918)"><g transform="translate(3.767)"><g transform="translate(0 37.041)"><path class="a" d="M37.69,152.755,67.156,135.5l.686,1.692s-2.521,1.293-2.725,1.8-.408,4.282-1.019,4.384S37.69,154.182,37.69,154.182Z" transform="translate(-37.69 -135.496)"/></g><g transform="translate(28.651 33.398)"><path class="a" d="M114.021,129.723a3.135,3.135,0,1,1-3.135-3.135A3.135,3.135,0,0,1,114.021,129.723Z" transform="translate(-107.751 -126.588)"/></g><g transform="translate(27.535)"><path class="a" d="M108.25,79.2V76.149a44.125,44.125,0,0,1-3.228-3.577c0-.262,3.228-27.654,3.228-27.654h1.657V79.2Z" transform="translate(-105.022 -44.918)"/></g><g transform="translate(33.118 37.041)"><path class="a" d="M118.675,136.839,119.9,135.5l2.879,1.692L127.4,135.5l22.071,17.569-.611,1.117Z" transform="translate(-118.675 -135.496)"/></g><g transform="translate(28.651 37.041)"><path class="a" d="M108.566,135.5l-.816,63.27h6.271l-1.8-61.927Z" transform="translate(-107.751 -135.496)"/></g></g><g transform="translate(0 65.658)"><path class="b" d="M317.746,245.2c-5.156-5.161-12.642-7.238-19.887-8.091s-14.629-.692-21.742-2.314c-17.539-4-30.958-18.125-47.617-24.913a60.935,60.935,0,0,0-43.783-.665c-10.933,4.072-21.165,11.417-32.831,11.29-8.824-.1-17.637-4.549-26.178-2.329-7.778,2.021-13.109,9.011-19.928,13.262-11.425,7.122-25.9,6.042-39.35,5.487s-28.438.253-37.952,9.777Z" transform="translate(-28.478 -205.476)"/></g></g><g transform="translate(43.588 201.983)"><path class="c" d="M330.782,429.1c0,.059-59.406.106-132.67.106-73.29,0-132.683-.047-132.683-.106S124.821,429,198.111,429C271.375,429,330.782,429.044,330.782,429.1Z" transform="translate(-65.428 -428.997)"/></g><g transform="translate(38.682 125.487)"><g transform="translate(0)"><g transform="translate(13.126 36.714)"><rect class="d" width="181.344" height="26.839" transform="matrix(-1, -0.002, 0.002, -1, 181.343, 27.117)"/></g><path class="e" d="M257.386,259.158s-4.538.509-5.342-.008c-1.823-1.172-41.517-17.166-75.62-17.211-27.354-.036-51.984,7.22-75.942,23.21,0,0-29.171,3.217-40.563,11.756-2.666,1.546-8.1,7.636-6.027,21.474,1.323,8.828,7.893,9.2,16.868,9,0,0-3.34-26.806,20.552-24.756,20.3,1.741,16.414,26.523,16.414,26.523l101.717.156s.445-11.007.876-13.675c.863-5.341,7.5-14.092,19.893-12.791,13.591,1.427,18.115,13.832,17.244,24.3,0,0,14.34,3.1,16.281-8.436l3.421-1.063s1.319-23.932-10.632-33.993l2.567-1.706Z" transform="translate(-53.43 -241.939)"/><g transform="translate(169.472 7.146)"><path class="d" d="M495.569,268.722a3.516,3.516,0,0,1-3.764,2.05c-2.376-.21-15.952-5.354-20.9-7.251a4.807,4.807,0,0,1-2.955-3.166,1.8,1.8,0,0,1-.063-.943S488.988,264.479,495.569,268.722Z" transform="translate(-467.849 -259.412)"/></g><g transform="translate(47.052 6.434)"><path class="d" d="M202.116,257.673h0a5.153,5.153,0,0,1-2.936,4.644l-29.032,13.835-1.659-1.787s3.034-2.185,7-4.542c3.668-2.18,8.175-4.487,10.865-5.807A117.979,117.979,0,0,1,202.116,257.673Z" transform="translate(-168.489 -257.673)"/></g><g class="f" transform="translate(51.965 18.504)"><path class="g" d="M305.611,287.188a1.786,1.786,0,0,1,0,2.715c-1.436,1.47-8.3,6.57-11.483,6.878s-99.916,6.77-105.649,5.129-9.076-4.543-7.639-6.2l2.6-.858,45.6.932Z" transform="translate(-180.503 -287.188)"/></g><g class="h" transform="translate(199.176 21.512)"><path class="g" d="M553.573,312.106s-5.633,1.667-8.034-2.773-5.057-9.134-5.055-10.149c0-1.274.91-5.36,3.92-4.53C544.4,294.654,552.773,301.324,553.573,312.106Z" transform="translate(-540.484 -294.543)"/></g><g class="h" transform="translate(3.918 31.745)"><path class="g" d="M63.1,331.452s21.8-8.721,18.274-11.7c-1.861-1.57-19.791,7.066-18.274,11.7" transform="translate(-63.012 -319.567)"/></g><g transform="translate(12.83 36.514)"><path class="c" d="M84.87,360.083s-.012-.074-.022-.218-.022-.359-.03-.642c-.017-.565-.025-1.4.018-2.471a39.749,39.749,0,0,1,1.391-8.97,28.651,28.651,0,0,1,2.334-5.827,20.4,20.4,0,0,1,4.416-5.676l.724-.632.782-.579a18.58,18.58,0,0,1,1.66-1.076c.283-.178.594-.307.892-.465s.6-.316.915-.44l.954-.377.48-.19.5-.15a17.636,17.636,0,0,1,2.025-.535l1.039-.218c.351-.053.705-.092,1.06-.139s.71-.1,1.069-.13l1.082-.056a20.043,20.043,0,0,1,2.186-.049,23.168,23.168,0,0,1,8.384,1.557,18.139,18.139,0,0,1,6.558,4.463,22.459,22.459,0,0,1,3.937,6.024,31.267,31.267,0,0,1,1.973,5.959,43.189,43.189,0,0,1,1.03,9.019c.007,1.073-.025,1.906-.06,2.47-.018.282-.036.5-.052.641a2.029,2.029,0,0,1-.033.217,2.029,2.029,0,0,1,.011-.219q.011-.229.031-.641c.02-.564.039-1.4.02-2.467a44.4,44.4,0,0,0-1.093-8.986,31.376,31.376,0,0,0-1.987-5.92,22.369,22.369,0,0,0-3.919-5.963,17.981,17.981,0,0,0-6.492-4.4,23.016,23.016,0,0,0-8.31-1.538,27.03,27.03,0,0,0-8.393,1.113l-.492.148-.476.187-.945.372c-.313.123-.6.292-.905.435s-.6.282-.883.458A18.556,18.556,0,0,0,94.6,335.23l-.775.571-.718.624a20.3,20.3,0,0,0-4.392,5.614,28.711,28.711,0,0,0-2.344,5.784,40.758,40.758,0,0,0-1.453,8.932c-.056,1.07-.062,1.9-.058,2.466l.009.642C84.872,360.008,84.87,360.083,84.87,360.083Z" transform="translate(-84.804 -331.228)"/></g><g transform="translate(152.446 37.288)"><path class="c" d="M426.352,363.108s-.014-.072-.028-.215-.032-.354-.048-.633c-.034-.557-.069-1.379-.06-2.439a42.626,42.626,0,0,1,.985-8.91,31.22,31.22,0,0,1,1.924-5.893,21.671,21.671,0,0,1,3.9-5.942,17.624,17.624,0,0,1,6.48-4.4,23.323,23.323,0,0,1,8.28-1.544,27.009,27.009,0,0,1,8.375.976c.165.047.332.084.493.139l.478.177.95.352c.624.247,1.211.567,1.809.843.561.346,1.136.656,1.664,1.026l.775.57c.127.1.259.185.381.286l.354.314a19.893,19.893,0,0,1,4.433,5.549,26.83,26.83,0,0,1,2.266,5.77,36.8,36.8,0,0,1,1.22,8.877c.017,1.06-.012,1.883-.045,2.44-.018.278-.036.49-.052.633a1.918,1.918,0,0,1-.033.214,2.159,2.159,0,0,1,.011-.216q.011-.226.031-.633c.02-.557.035-1.379.005-2.436a37.647,37.647,0,0,0-1.282-8.84,26.874,26.874,0,0,0-2.275-5.725,19.784,19.784,0,0,0-4.406-5.485l-.351-.31c-.121-.1-.251-.187-.377-.282l-.767-.562c-.522-.365-1.092-.671-1.646-1.012-.592-.272-1.173-.587-1.791-.831l-.941-.347-.474-.175c-.16-.054-.325-.091-.488-.137a26.891,26.891,0,0,0-8.309-.963,23.193,23.193,0,0,0-8.209,1.525,17.468,17.468,0,0,0-6.414,4.337,21.584,21.584,0,0,0-3.878,5.881,31.369,31.369,0,0,0-1.938,5.854,43.852,43.852,0,0,0-1.049,8.878c-.021,1.058,0,1.88.02,2.436.011.272.02.482.027.633S426.352,363.108,426.352,363.108Z" transform="translate(-426.214 -333.122)"/></g><g transform="translate(52.93 5.174)"><path class="d" d="M306.049,267.92s-8.456,7.36-12.121,7.355-100.233,5.858-104.533,4.12a44.148,44.148,0,0,1-6.534-3.159s31.514-22.7,68.236-21.606C278.046,255.429,306.049,267.92,306.049,267.92Z" transform="translate(-182.861 -254.591)"/></g><g transform="translate(62.809 15.988)"><path class="c" d="M216.637,281.034l-6.379,14.313-3.238,0,5.27-12.253Z" transform="translate(-207.02 -281.034)"/></g><g class="f" transform="translate(141.479 34.126)"><path d="M0,0H11.448a0,0,0,0,1,0,0V1.52a1.265,1.265,0,0,1-1.265,1.265H1.265A1.265,1.265,0,0,1,0,1.52V0A0,0,0,0,1,0,0Z" transform="matrix(-1, -0.002, 0.002, -1, 11.448, 2.802)"/></g><g class="f" transform="translate(96.853 34.058)"><path d="M0,0H11.448a0,0,0,0,1,0,0V1.52a1.265,1.265,0,0,1-1.265,1.265H1.265A1.265,1.265,0,0,1,0,1.52V0A0,0,0,0,1,0,0Z" transform="matrix(-1, -0.002, 0.002, -1, 11.448, 2.802)"/></g><g transform="translate(143.708 8.167)"><path class="c" d="M409.079,262.89l10,16.993-9.316.5,1.2-8.178-6.119-10.3Z" transform="translate(-404.846 -261.909)"/></g><g transform="translate(109.933 5.248)"><path class="c" d="M323.81,254.979l-1.554,23.212,3.4-.168,1.465-23.251Z" transform="translate(-322.255 -254.773)"/></g><g transform="translate(64.591 24.702)"><g transform="translate(0 4.666)"><path class="c" d="M214.755,318.192l1.454-1.5-2.31-2.937-1.991,1.9a1.478,1.478,0,0,0-.508,1A1.951,1.951,0,0,0,214.755,318.192Z" transform="translate(-211.378 -313.754)"/></g><g transform="translate(2.433)"><path class="i" d="M224.157,310.9c3.528.119,6.3-3.479,4.839-6.691a2.458,2.458,0,0,0-1.855-1.526c-3.664-.643-8.443-.879-9.726,4.332-.379,1.538.487,2.491,1.894,3.07A14.869,14.869,0,0,0,224.157,310.9Z" transform="translate(-217.326 -302.344)"/></g></g><g transform="translate(17.98 42.661)"><g transform="translate(0 0)"><circle class="c" cx="16.183" cy="16.183" r="16.183" transform="translate(0 32.288) rotate(-86.043)"/></g><g transform="translate(6.492 6.481)"><path class="a" d="M124.06,362.106a10.778,10.778,0,1,0,10.753,10.8A10.774,10.774,0,0,0,124.06,362.106Zm-8.648,10.772a8.631,8.631,0,1,1,8.618,8.645A8.645,8.645,0,0,1,115.412,372.878Z" transform="translate(-113.274 -362.106)"/><path class="j" d="M127.147,367.335A8.639,8.639,0,1,0,135.765,376,8.645,8.645,0,0,0,127.147,367.335Z" transform="translate(-116.364 -365.197)"/></g><g transform="translate(14.711 14.745)"><path class="c" d="M133.371,384.861a2.55,2.55,0,1,0,2.554-2.546A2.55,2.55,0,0,0,133.371,384.861Z" transform="translate(-133.371 -382.315)"/></g></g><g transform="translate(151.582 37.616)"><g transform="translate(0 0)"><circle class="c" cx="16.183" cy="16.183" r="16.183" transform="translate(0 22.886) rotate(-45)"/></g><g transform="translate(12.117 12.105)"><path class="a" d="M464.518,363.524a10.778,10.778,0,1,0,10.753,10.8A10.774,10.774,0,0,0,464.518,363.524ZM455.87,374.3a8.631,8.631,0,1,1,8.618,8.645A8.645,8.645,0,0,1,455.87,374.3Z" transform="translate(-453.732 -363.524)"/><path class="j" d="M467.6,368.753a8.639,8.639,0,1,0,8.618,8.66A8.645,8.645,0,0,0,467.6,368.753Z" transform="translate(-456.822 -366.615)"/></g><g transform="translate(20.336 20.37)"><path class="c" d="M473.829,386.279a2.55,2.55,0,1,0,2.554-2.546A2.55,2.55,0,0,0,473.829,386.279Z" transform="translate(-473.829 -383.733)"/></g></g><g transform="translate(177.105 27.55)"><path class="c" d="M491.54,311.858a2.514,2.514,0,1,1-2.477-2.55A2.514,2.514,0,0,1,491.54,311.858Z" transform="translate(-486.513 -309.308)"/></g><g transform="translate(58.243 61.563)"><path class="c" d="M290.134,392.491s-.083.009-.243.014l-.714.02-2.747.056-10.1.162-33.333.415c-13.021.135-24.808.223-33.34.236-4.266.007-7.718-.006-10.1-.04a21.671,21.671,0,0,1-3.695-.175,4.368,4.368,0,0,0,.95.063c.627.016,1.553.025,2.746.03,2.385.009,5.837,0,10.1-.027l33.339-.3,33.333-.353,10.1-.095,2.747-.016h.714C290.051,392.484,290.134,392.491,290.134,392.491Z" transform="translate(-195.854 -392.482)"/></g><g transform="translate(111.243 28.87)"><path class="c" d="M325.477,350.862c-.059,0,.018-8.582.171-19.164s.325-19.164.384-19.163-.018,8.58-.171,19.166S325.536,350.863,325.477,350.862Z" transform="translate(-325.457 -312.535)"/></g><g transform="translate(121.779 11.988)"><path class="j" d="M363.145,271.253c.039.044-2.6,2.452-5.89,5.378s-5.994,5.264-6.033,5.22,2.6-2.452,5.891-5.379S363.107,271.209,363.145,271.253Z" transform="translate(-351.222 -271.253)"/></g><g transform="translate(121.038 16.622)"><path class="j" d="M360.777,282.585a3.015,3.015,0,0,1-.406.414c-.27.256-.669.62-1.165,1.064-.993.889-2.387,2.093-3.957,3.386s-3.021,2.428-4.084,3.232c-.532.4-.965.723-1.269.939a3.056,3.056,0,0,1-.485.319,3.039,3.039,0,0,1,.434-.385l1.227-.992c1.039-.834,2.472-1.987,4.042-3.278s2.975-2.477,3.993-3.336l1.209-1.013A3.035,3.035,0,0,1,360.777,282.585Z" transform="translate(-349.41 -282.584)"/></g><g transform="translate(81.823 12.496)"><path class="j" d="M270.827,272.5c.033.049-3.816,2.733-8.6,6s-8.683,5.869-8.716,5.821,3.815-2.733,8.6-6S270.794,272.447,270.827,272.5Z" transform="translate(-253.515 -272.495)"/></g><g transform="translate(89.782 12.333)"><path class="j" d="M285.914,272.1a3.7,3.7,0,0,1-.5.413l-1.393,1.068-4.593,3.524-4.551,3.579-1.379,1.086a3.722,3.722,0,0,1-.523.378,3.738,3.738,0,0,1,.47-.442c.311-.274.768-.663,1.337-1.139,1.138-.951,2.729-2.242,4.516-3.631s3.431-2.61,4.634-3.477c.6-.434,1.091-.78,1.434-1.014A3.755,3.755,0,0,1,285.914,272.1Z" transform="translate(-272.978 -272.097)"/></g><g transform="translate(4.136 24.097)"><path class="j" d="M104.386,300.867a.461.461,0,0,1-.111.025l-.329.049-1.267.171c-1.1.151-2.69.379-4.647.712a120.972,120.972,0,0,0-15.071,3.6c-2.9.889-5.616,1.853-8.061,2.8a53.045,53.045,0,0,0-6.356,2.836,18.594,18.594,0,0,0-3.8,2.719c-.206.186-.374.365-.523.518s-.272.285-.368.4l-.222.247a.436.436,0,0,1-.082.08.444.444,0,0,1,.065-.093l.207-.261c.09-.116.206-.255.353-.411s.309-.344.512-.534a17.851,17.851,0,0,1,3.788-2.79,51.015,51.015,0,0,1,6.358-2.888c2.445-.963,5.169-1.935,8.07-2.825a113.113,113.113,0,0,1,15.109-3.541c1.962-.315,3.557-.52,4.661-.646l1.273-.131.332-.029A.463.463,0,0,1,104.386,300.867Z" transform="translate(-63.544 -300.865)"/></g><g transform="translate(81.843 0.243)"><path class="j" d="M318.551,245.09a.993.993,0,0,1-.169-.02l-.493-.081L316,244.661c-1.643-.276-4.024-.653-6.981-1.01a118.388,118.388,0,0,0-23.219-.588A142.725,142.725,0,0,0,262.89,247c-2.891.717-5.219,1.344-6.826,1.785l-1.851.505-.483.127a1.05,1.05,0,0,1-.166.036,1,1,0,0,1,.161-.057l.477-.148,1.84-.544c1.6-.465,3.923-1.114,6.812-1.851a137.776,137.776,0,0,1,22.929-4,115.071,115.071,0,0,1,23.254.651c2.958.377,5.338.777,6.977,1.078.82.147,1.453.281,1.884.366l.489.1A1.018,1.018,0,0,1,318.551,245.09Z" transform="translate(-253.564 -242.532)"/></g><g transform="translate(67.143 25.812)"><path class="j" d="M228.655,305.44a3.009,3.009,0,0,1-.533-.054c-.341-.043-.835-.1-1.447-.131a14.461,14.461,0,0,0-4.727.5,7.248,7.248,0,0,0-2.323,1.159,5.379,5.379,0,0,0-1.391,1.592,5.292,5.292,0,0,0-.6,1.864c-.007,0-.011-.048-.012-.139a2.871,2.871,0,0,1,.025-.4,4.194,4.194,0,0,1,.459-1.4,5.32,5.32,0,0,1,1.4-1.674,7.2,7.2,0,0,1,2.382-1.208,13.451,13.451,0,0,1,4.8-.451,12.475,12.475,0,0,1,1.45.2A2.288,2.288,0,0,1,228.655,305.44Z" transform="translate(-217.617 -305.058)"/></g><g transform="translate(81.574 31.741)"><path class="j" d="M279.494,319.563c0,.059-5.946.461-13.286.9s-13.3.744-13.3.685,5.944-.461,13.287-.9S279.491,319.5,279.494,319.563Z" transform="translate(-252.908 -319.556)"/></g><g transform="translate(12.658 35.775)"><path class="j" d="M112.981,330.332a.385.385,0,0,1-.1-.015l-.3-.065c-.263-.049-.641-.17-1.143-.247a24.414,24.414,0,0,0-4.272-.425,27.178,27.178,0,0,0-6.325.63,21.1,21.1,0,0,0-7.173,2.912A20.637,20.637,0,0,0,88.2,338.6a22.2,22.2,0,0,0-2.781,5.7,21.1,21.1,0,0,0-.889,4.2c-.074.5-.071.9-.1,1.165l-.026.3a.386.386,0,0,1-.016.1.369.369,0,0,1-.006-.1l0-.305c.016-.267,0-.665.061-1.172a19.935,19.935,0,0,1,.829-4.233,21.911,21.911,0,0,1,2.762-5.767,20.6,20.6,0,0,1,5.509-5.55,21.063,21.063,0,0,1,7.25-2.926,26.673,26.673,0,0,1,6.369-.588,22.792,22.792,0,0,1,4.285.494c.5.09.878.223,1.138.287l.293.085A.39.39,0,0,1,112.981,330.332Z" transform="translate(-84.383 -329.422)"/></g></g></g><g transform="translate(218.118 104.168)"><g transform="translate(0 29.546)"><g transform="translate(2.582)"><path class="k" d="M507.815,262.056,502.791,272.7l-2.7,1.677a1.29,1.29,0,0,0-.7.579l-.868,2.2,2.606.352.533-1.11a2.626,2.626,0,0,0,2.927-.819l7.677-11.919Z" transform="translate(-498.528 -262.056)"/></g><g transform="translate(2.23 14.035)"><path class="k" d="M497.669,296.938s1.691,3.924,2.192,3.781.692-.453.573-.74-1.074-2.291-1.074-2.291.977,1.885,1.312,1.933.662-.2.573-.477-.835-1.885-.835-1.885.835,1.8,1.1,1.686.478-.016.43-.421a11.724,11.724,0,0,0-.995-1.99l-2.823-.158Z" transform="translate(-497.669 -296.376)"/></g><g transform="translate(0 13.788)"><path class="c" d="M509.392,350.537l-.039-.008c-1.595-.3-5.538-1.354-7.7-4.684-1.446-2.222-1.55-5.172-1.634-7.542-.326-9.165-.921-32.053-1.1-38.849a2.943,2.943,0,0,0-5.885.078v4.161h-.818v-4.161a3.761,3.761,0,0,1,7.521-.1c.175,6.8.77,29.68,1.1,38.841.081,2.27.181,5.094,1.5,7.125a10.936,10.936,0,0,0,7.131,4.319l21.527-.2c2.795-.576,4.913-1.451,6.818-4a14.582,14.582,0,0,0,2.3-5.653c1.176-5.265,1.141-10.834,1.106-16.22a106.748,106.748,0,0,1,.343-11.535,12.227,12.227,0,0,1,1.439-5.222c.905-1.459,2.71-2.728,4.54-2.06l-.281.768c-1.334-.486-2.8.5-3.565,1.723a11.523,11.523,0,0,0-1.32,4.875,106.221,106.221,0,0,0-.339,11.446c.035,5.431.071,11.047-1.126,16.4A15.339,15.339,0,0,1,538.465,346c-2.069,2.769-4.345,3.707-7.348,4.32l-.078.009Z" transform="translate(-492.215 -295.772)"/></g><g transform="translate(4.888 13.235)"><g transform="translate(0.082 0)"><path class="k" d="M504.88,294.535a18.069,18.069,0,0,0-.508,3.47c-.007.15,0,.33.13.408.151.092.318-.144.434-.278.208-.24.983-1.569.983-1.569a2.212,2.212,0,0,0,2.007-2.145" transform="translate(-504.37 -294.421)"/></g><path class="l" d="M507.807,294.421a.692.692,0,0,1,.007.24,2.045,2.045,0,0,1-.166.653,2.16,2.16,0,0,1-.625.823,2.4,2.4,0,0,1-1.213.509l.06-.039c-.246.424-.515.885-.822,1.355-.048.07-.092.138-.148.208s-.1.125-.163.189a.47.47,0,0,1-.243.156.268.268,0,0,1-.273-.165,1.038,1.038,0,0,1-.039-.494c.011-.15.022-.3.033-.441.051-.573.126-1.087.205-1.514s.161-.77.224-1a1.505,1.505,0,0,1,.119-.359,1.739,1.739,0,0,1-.054.374c-.043.238-.108.582-.17,1.01s-.126.938-.168,1.507q-.013.214-.027.438a.947.947,0,0,0,.027.412c.025.051.071.082.1.073a.334.334,0,0,0,.148-.107c.05-.054.1-.119.154-.18s.093-.127.138-.194c.3-.462.575-.923.825-1.341l.02-.035.039,0a2.305,2.305,0,0,0,1.148-.456,2.148,2.148,0,0,0,.619-.758A3.487,3.487,0,0,0,507.807,294.421Z" transform="translate(-504.168 -294.421)"/></g></g><g transform="translate(11.289)"><g transform="translate(0 14.813)"><g transform="translate(27.984 80.448)"><path class="i" d="M588.251,422.751l.528,2.217s3.626,4.71,4.745,4.48c.733-.151-.168-1.38-1.547-4.958l-.29-1.477Z" transform="translate(-588.251 -422.751)"/><g transform="translate(0.459 1.684)"><path class="c" d="M594.336,431.187a.2.2,0,0,1-.029.067.4.4,0,0,1-.152.142.6.6,0,0,1-.323.071.859.859,0,0,1-.411-.15,17.582,17.582,0,0,1-1.828-1.7,23.211,23.211,0,0,1-1.621-1.9c-.193-.255-.344-.464-.446-.611l-.115-.171a.27.27,0,0,1-.036-.062.283.283,0,0,1,.048.054l.126.162.464.6c.4.5.961,1.177,1.633,1.881a20.372,20.372,0,0,0,1.8,1.711.671.671,0,0,0,.693.1A.477.477,0,0,0,594.336,431.187Z" transform="translate(-589.374 -426.87)"/></g><g transform="translate(3.348 4.45)"><path class="c" d="M598,433.67c0,.012-.115-.01-.293.016a1.729,1.729,0,0,0-.653.247,1.332,1.332,0,0,0-.49.489c-.085.158-.109.271-.121.268a.625.625,0,0,1,.076-.291,1.251,1.251,0,0,1,.5-.527,1.551,1.551,0,0,1,.685-.237A.57.57,0,0,1,598,433.67Z" transform="translate(-596.438 -433.632)"/></g><g transform="translate(0.273 1.149)"><path class="c" d="M590.119,427.794c-.012,0,.038-.159.067-.416a1.707,1.707,0,0,0-.182-.972,1.607,1.607,0,0,0-.693-.7,2.864,2.864,0,0,0-.393-.143.314.314,0,0,1,.115.006,1.182,1.182,0,0,1,.3.092,1.557,1.557,0,0,1,.735.713,1.649,1.649,0,0,1,.168,1.01,1.929,1.929,0,0,1-.072.3A.328.328,0,0,1,590.119,427.794Z" transform="translate(-588.918 -425.56)"/></g><g transform="translate(0.229 0.376)"><path class="c" d="M588.812,423.671a2.238,2.238,0,0,1,.2.694c.066.393.137.7.122.71a2.279,2.279,0,0,1-.192-.7C588.875,423.987,588.795,423.677,588.812,423.671Z" transform="translate(-588.81 -423.671)"/></g><g transform="translate(2.904 2.023)"><path class="c" d="M596.239,427.728c0,.021-.207.015-.449.072s-.425.15-.436.133a1.06,1.06,0,0,1,.885-.2Z" transform="translate(-595.353 -427.698)"/></g><g transform="translate(3.128 2.392)"><path class="c" d="M596.636,428.641c0,.021-.175,0-.376.052s-.347.139-.359.122a.719.719,0,0,1,.736-.175Z" transform="translate(-595.9 -428.601)"/></g><g transform="translate(3.403 2.837)"><path class="c" d="M597.324,429.76a1.962,1.962,0,0,0-.391.014,1.921,1.921,0,0,0-.359.156.584.584,0,0,1,.749-.171Z" transform="translate(-596.573 -429.688)"/></g><g transform="translate(2.216 0.978)"><path class="c" d="M594.994,426.057a.375.375,0,0,1-.121-.014,2.408,2.408,0,0,1-.321-.087,2.867,2.867,0,0,1-.452-.2,2.9,2.9,0,0,1-.249-.155.368.368,0,0,1-.181-.279.214.214,0,0,1,.277-.173.575.575,0,0,1,.253.169,4.573,4.573,0,0,1,.333.363c.089.109.155.2.2.266a.374.374,0,0,1,.061.106c-.009.007-.112-.132-.3-.339-.093-.1-.207-.223-.341-.349a.523.523,0,0,0-.223-.148c-.082-.021-.188.023-.19.109s.078.164.151.218.162.109.241.154a3.214,3.214,0,0,0,.437.211C594.827,426.01,595,426.046,594.994,426.057Z" transform="translate(-593.669 -425.141)"/></g><g transform="translate(3.345 0.652)"><path class="c" d="M596.436,425.54a.338.338,0,0,1,0-.111c0-.071.007-.174.023-.3a1.571,1.571,0,0,1,.114-.438.943.943,0,0,1,.143-.232.244.244,0,0,1,.29-.092.279.279,0,0,1,.1.289,1.037,1.037,0,0,1-.079.261,1.334,1.334,0,0,1-.259.372,1.606,1.606,0,0,1-.231.2.293.293,0,0,1-.1.056c-.008-.01.123-.1.29-.287a1.386,1.386,0,0,0,.236-.365,1,1,0,0,0,.07-.243c.01-.082,0-.183-.065-.218s-.148.014-.2.076a.9.9,0,0,0-.135.213,1.722,1.722,0,0,0-.124.418A3.438,3.438,0,0,1,596.436,425.54Z" transform="translate(-596.431 -424.344)"/></g><g class="m" transform="translate(0.273 1.152)"><path d="M589.173,426.633l-.255-1.066s.889.164,1.119.83a2.792,2.792,0,0,1,.173,1.138l1.932,2.08s.485-.947,1.362-.719a9.1,9.1,0,0,1,.669,1.9c-.024.418-.464.335-.622.263a7.791,7.791,0,0,1-1.729-1.365C590.8,428.632,589.669,427.285,589.173,426.633Z" transform="translate(-588.918 -425.567)"/></g></g><g transform="translate(6.21 78.544)"><g transform="translate(0.016)"><path class="i" d="M538.776,421.12l-.017-2.957,5.539-.067.07,4.326-.343.026c-1.527.1-7.774.418-8.8.121C534.083,422.236,538.776,421.12,538.776,421.12Z" transform="translate(-535.047 -418.095)"/><g class="m" transform="translate(7.313 2.695)"><path d="M552.93,426.3a1.921,1.921,0,0,1,.692-1.19,1.866,1.866,0,0,1,1.29-.418l.02,1.548Z" transform="translate(-552.93 -424.686)"/></g></g><g transform="translate(0 3.652)"><g class="m"><path d="M536.46,427.026s-1.644.5-1.435.765,6.533.189,9.32-.091l-.01-.124-7.376.157S536.783,427.035,536.46,427.026Z" transform="translate(-535.007 -427.026)"/></g></g><g transform="translate(0.015 4.196)"><path class="c" d="M544.444,428.357a.506.506,0,0,1-.1.011l-.273.02-1.006.056c-.85.042-2.025.083-3.323.1s-2.474.007-3.326-.011l-1.007-.029-.274-.013a.551.551,0,0,1-.1-.009.478.478,0,0,1,.1,0h.274l1.007.008c.851.007,2.026.009,3.324-.008s2.472-.052,3.322-.081l1.007-.035.274-.007A.516.516,0,0,1,544.444,428.357Z" transform="translate(-535.045 -428.355)"/></g><g transform="translate(1.412 3.584)"><path class="c" d="M539,427.721a1.464,1.464,0,0,0-.542-.86.9.9,0,0,1,.542.86Z" transform="translate(-538.459 -426.86)"/></g><g transform="translate(3.277 3.137)"><path class="c" d="M543.322,426.225c-.016.01-.095-.084-.177-.21s-.137-.237-.121-.247.095.084.177.21S543.337,426.215,543.322,426.225Z" transform="translate(-543.021 -425.767)"/></g><g transform="translate(3.673 3.045)"><path class="c" d="M544.34,425.848c-.012.014-.1-.043-.2-.128s-.165-.164-.152-.178.1.043.2.128S544.351,425.834,544.34,425.848Z" transform="translate(-543.989 -425.54)"/></g><g transform="translate(3.722 2.799)"><path class="c" d="M544.687,424.967a.649.649,0,0,1-.288.04.656.656,0,0,1-.29-.027,1.263,1.263,0,0,1,.578-.014Z" transform="translate(-544.109 -424.939)"/></g><g transform="translate(3.738 2.451)"><path class="c" d="M544.8,424.093a.813.813,0,0,1-.655.058,26.273,26.273,0,0,0,.655-.058Z" transform="translate(-544.149 -424.088)"/></g><g transform="translate(2.336 2.625)"><path class="c" d="M541.768,425a1.017,1.017,0,0,1-.356,0,2.067,2.067,0,0,1-.38-.079,1.028,1.028,0,0,1-.218-.086.192.192,0,0,1-.09-.11.14.14,0,0,1,.052-.143.653.653,0,0,1,.81.181.64.64,0,0,1,.119.236.2.2,0,0,1,.011.1,1.008,1.008,0,0,0-.166-.3.64.64,0,0,0-.307-.194.552.552,0,0,0-.424.034c-.056.043-.033.109.03.145a1.036,1.036,0,0,0,.2.083,2.463,2.463,0,0,0,.368.091C541.632,424.995,541.768,424.994,541.768,425Z" transform="translate(-540.72 -424.515)"/></g><g transform="translate(3.246 2.44)"><path class="c" d="M542.99,424.755a.348.348,0,0,1-.044-.247.581.581,0,0,1,.094-.261.358.358,0,0,1,.294-.185.142.142,0,0,1,.112.163.392.392,0,0,1-.058.16,1.079,1.079,0,0,1-.166.218.513.513,0,0,1-.2.146c-.007-.009.07-.065.167-.179a1.226,1.226,0,0,0,.146-.216c.048-.076.08-.211-.01-.226s-.179.082-.232.154a.582.582,0,0,0-.1.233A1.308,1.308,0,0,0,542.99,424.755Z" transform="translate(-542.944 -424.062)"/></g><g transform="translate(7.333 2.65)"><path class="c" d="M554.888,424.61c0,.013-.159-.013-.409.02a1.736,1.736,0,0,0-1.436,1.175c-.081.239-.088.4-.1.4a.318.318,0,0,1,0-.112,1.432,1.432,0,0,1,.056-.3,1.683,1.683,0,0,1,1.476-1.208,1.43,1.43,0,0,1,.305,0A.321.321,0,0,1,554.888,424.61Z" transform="translate(-552.939 -424.576)"/></g><g transform="translate(8.664 0.386)"><path class="c" d="M556.208,419.04a9.572,9.572,0,0,1,.063,1.137,9.76,9.76,0,0,1,0,1.139,9.585,9.585,0,0,1-.063-1.137A9.745,9.745,0,0,1,556.208,419.04Z" transform="translate(-556.193 -419.04)"/></g><g transform="translate(5.007 3.77)"><path class="c" d="M548.87,427.32a4.563,4.563,0,0,1-1.619.036c0-.02.364,0,.809-.013S548.867,427.3,548.87,427.32Z" transform="translate(-547.251 -427.314)"/></g><g transform="translate(7.556 3.758)"><path class="c" d="M553.639,427.288c.014.013-.029.077-.064.16s-.055.157-.074.157-.03-.087.013-.183S553.627,427.274,553.639,427.288Z" transform="translate(-553.484 -427.286)"/></g><g transform="translate(7.906 3.244)"><path class="c" d="M554.548,426.029c.013.013-.022.071-.078.13s-.113.1-.127.083.022-.071.078-.13S554.534,426.017,554.548,426.029Z" transform="translate(-554.34 -426.027)"/></g><g transform="translate(8.381 2.976)"><path class="c" d="M555.817,425.4c0,.019-.077.019-.158.049s-.139.074-.154.061.031-.089.132-.124S555.822,425.385,555.817,425.4Z" transform="translate(-555.502 -425.372)"/></g><g transform="translate(8.945 2.879)"><path class="c" d="M557.047,425.147c.007.017-.025.046-.07.064s-.088.02-.1,0,.025-.046.07-.064S557.04,425.13,557.047,425.147Z" transform="translate(-556.881 -425.135)"/></g></g><g transform="translate(7.689 22.837)"><path class="d" d="M563.722,339.918l-9.871-58.045-15.226,2.319,1.766,55.291,7.049.6-.539-48.675,10.847,48.729Z" transform="translate(-538.624 -281.873)"/></g><path class="c" d="M544.276,253.194l-2.02-17.119,3.055,4.772,4.881-4.223-5.71-7.718h0a9.68,9.68,0,0,0-3.752-2.428,7.725,7.725,0,0,0-2.351-.451h0a9.421,9.421,0,0,1-5.678,0c-.321.041-.815.083-1.464.172a8.284,8.284,0,0,0-5.542,3.277l-5.874,11.281,5.035,1.906,2.654-4.785-.495,15.882,4.74,1.032,3.615-2.612,4.988,2.612Z" transform="translate(-519.821 -226.028)"/><g transform="translate(7.487 5.859)"><path class="d" d="M538.592,240.355c.055,0,0,2.644-.121,5.9s-.265,5.9-.32,5.894,0-2.644.121-5.9S538.537,240.353,538.592,240.355Z" transform="translate(-538.13 -240.355)"/></g><g transform="translate(22.076 6.9)"><path class="d" d="M573.82,242.9a59.205,59.205,0,0,1,.662,6.843,59.228,59.228,0,0,1-.662-6.843Z" transform="translate(-573.805 -242.902)"/></g></g><g transform="translate(8.994)"><g transform="translate(5.167 0.046)"><path class="c" d="M554.449,190.25a8.933,8.933,0,0,1,2.381-.328,3.014,3.014,0,0,1,2.158.921,8.036,8.036,0,0,0,.917,1.165c.484.383,1.258.513,1.422,1.108.168.612-.482,1.184-.438,1.817a2.063,2.063,0,0,0,.476.962,1.161,1.161,0,0,1,.258,1.013c-.1.275-.377.449-.512.709-.208.4-.04.89-.1,1.336a1.743,1.743,0,0,1-1.336,1.313,5.127,5.127,0,0,1-1.972,0" transform="translate(-554.449 -189.918)"/></g><g transform="translate(0 0.52)"><path class="c" d="M546.377,191.215a3.871,3.871,0,0,0-1.631-.078,1.411,1.411,0,0,0-1.119,1.071c-.048.335.06.712-.128.992-.211.314-.689.338-.932.629-.522.624.482,1.706-.041,2.329-.141.168-.362.248-.514.405a.837.837,0,0,0-.034,1.035,1.273,1.273,0,0,0,.973.484,2.767,2.767,0,0,0,1.1-.211,5.088,5.088,0,0,0,2.845-2.377,3.334,3.334,0,0,0-.307-3.572" transform="translate(-541.814 -191.078)"/></g><g transform="translate(1.349 0.793)"><path class="k" d="M553.384,195.823l.15,10.762-5.387.109c-.1-.621-.294-3.039-.294-3.039a2.682,2.682,0,0,1-2.508-2.343c-.122-1.078-.191-3.325-.231-5.351a4.135,4.135,0,0,1,3.962-4.212h0A4.135,4.135,0,0,1,553.384,195.823Z" transform="translate(-545.114 -191.745)"/><g transform="translate(2.733 10.764)"><path class="l" d="M551.8,219.181a5.194,5.194,0,0,0,2.816-1.114,2.752,2.752,0,0,1-2.763,1.691Z" transform="translate(-551.797 -218.067)"/></g><g transform="translate(0.582 3.356)"><g transform="translate(0 1.259)"><g transform="translate(0 0.273)"><g transform="translate(0.43 0.304)"><path class="c" d="M547.589,204.762a.319.319,0,0,0,.338.29.3.3,0,0,0,.3-.319.319.319,0,0,0-.338-.29A.306.306,0,0,0,547.589,204.762Z" transform="translate(-547.589 -204.442)"/></g><path class="c" d="M546.543,204.1c.044.038.266-.164.608-.2s.609.112.642.067c.016-.02-.031-.091-.148-.159a.876.876,0,0,0-.519-.1.841.841,0,0,0-.479.209C546.55,204,546.522,204.082,546.543,204.1Z" transform="translate(-546.537 -203.698)"/></g><g transform="translate(3.365)"><g transform="translate(0.497 0.373)"><path class="c" d="M555.981,204.263a.319.319,0,0,0,.338.29.3.3,0,0,0,.3-.319.319.319,0,0,0-.338-.29A.306.306,0,0,0,555.981,204.263Z" transform="translate(-555.98 -203.943)"/></g><path class="c" d="M554.771,203.431c.043.038.266-.164.608-.2s.609.112.642.067c.016-.02-.031-.091-.149-.159a.876.876,0,0,0-.519-.1.843.843,0,0,0-.479.209C554.778,203.336,554.75,203.414,554.771,203.431Z" transform="translate(-554.765 -203.03)"/></g><g transform="translate(1.489 0.196)"><path class="c" d="M551.074,206.372a2.283,2.283,0,0,0-.565-.045c-.088,0-.173-.009-.193-.067a.444.444,0,0,1,.032-.265l.191-.69a11.421,11.421,0,0,0,.405-1.8,11.48,11.48,0,0,0-.549,1.759q-.094.363-.18.693a.508.508,0,0,0-.011.347.22.22,0,0,0,.156.113.6.6,0,0,0,.151.006A2.218,2.218,0,0,0,551.074,206.372Z" transform="translate(-550.177 -203.51)"/></g><g transform="translate(2.417 3.193)"><path class="c" d="M553.445,210.84c-.056,0-.02.373-.31.668s-.69.294-.687.346c0,.024.1.063.263.051a.927.927,0,0,0,.576-.268.806.806,0,0,0,.236-.558C553.52,210.923,553.47,210.835,553.445,210.84Z" transform="translate(-552.447 -210.84)"/></g></g><g transform="translate(3.145)"><path class="c" d="M554.232,200.281c.043.09.38.011.786.019s.741.085.786,0c.02-.042-.045-.124-.185-.2a1.366,1.366,0,0,0-1.2-.012C554.279,200.158,554.213,200.239,554.232,200.281Z" transform="translate(-554.228 -199.952)"/></g><g transform="translate(0.021 0.513)"><path class="c" d="M546.6,201.625c.068.072.295-.033.578-.065s.527,0,.575-.087c.02-.042-.025-.116-.137-.179a.841.841,0,0,0-.929.122C546.595,201.506,546.57,201.59,546.6,201.625Z" transform="translate(-546.588 -201.207)"/></g></g><g transform="translate(7.688 5.694)"><path class="k" d="M563.913,205.8c.036-.02,1.482-.605,1.586.92a1.149,1.149,0,0,1-1.454,1.271C564.04,207.944,563.913,205.8,563.913,205.8Z" transform="translate(-563.913 -205.67)"/><g transform="translate(0.557 0.482)"><path class="l" d="M565.277,208.074c.007-.005.028.017.074.034a.268.268,0,0,0,.2-.009.659.659,0,0,0,.264-.611.888.888,0,0,0-.1-.375.308.308,0,0,0-.214-.19.136.136,0,0,0-.152.083c-.018.044-.006.074-.013.077s-.035-.023-.027-.088a.167.167,0,0,1,.054-.1.2.2,0,0,1,.144-.049.375.375,0,0,1,.294.218.9.9,0,0,1,.121.419.691.691,0,0,1-.342.685.286.286,0,0,1-.246-.024C565.283,208.111,565.273,208.077,565.277,208.074Z" transform="translate(-565.276 -206.848)"/></g></g></g><g transform="translate(3.595)"><path class="c" d="M550.878,190.7a2.4,2.4,0,0,1,.651-.591,2.208,2.208,0,0,1,.964-.287,5.586,5.586,0,0,1,2.032.189,2.653,2.653,0,0,1,1.57,1.24,5.22,5.22,0,0,0,.694,1.434c.307.305.791.449.966.844.311.7-.622,1.507-.32,2.214a1.1,1.1,0,0,1,.15.379.421.421,0,0,1-.271.37,1.217,1.217,0,0,1-.478.07c-.574.006-1.271-.07-1.513-.591-.222-.478.072-1.121-.255-1.536-.282-.359-.759-.217-1.154-.445a2.33,2.33,0,0,1-.456-.345,3.253,3.253,0,0,1-.767-.139,1.314,1.314,0,0,1-.752-.584c-.169-.314-.169-.723-.422-.975s-.761-.3-.888-.653A.519.519,0,0,1,550.878,190.7Z" transform="translate(-550.606 -189.806)"/></g></g></g><g transform="translate(10.705 29.005)"><path class="c" d="M518.977,260.734l-.474.928a1,1,0,0,0,.452,1.359l3.3,1.614a1,1,0,0,0,1.325-.424l.728-1.343Z" transform="translate(-518.392 -260.734)"/></g><g transform="translate(37.485 11.511)"><path class="k" d="M591.336,222.53l-3,.74-.166-.776a1.726,1.726,0,0,1,.068-1.152.69.69,0,0,0,.039-.2,12.373,12.373,0,0,0-.763-1.742c-.238-.485,0-.806.154-.618.273.346,1.1,1.893,1.3,2.013s-.05-.71-.05-.71c-.584-1.759-.746-2-.436-2.127.354-.143,1.233,2.475,1.233,2.475s-.121-.366.154-.493.473.221.473.221c-.069-.186.2-.264.2-.264.7-.026.8,2.631.8,2.631l-3,.74.328,10.426-1.1-1.173-3.683,3.027,3.682,3.367a3.293,3.293,0,0,0,2.809.7h0a3.292,3.292,0,0,0,2.58-3.61Z" transform="translate(-583.878 -217.954)"/><g transform="translate(4.486 3.06)"><path class="l" d="M595.441,227.4c-.015-.011.121-.183.29-.488a4.213,4.213,0,0,0,.256-.554c.04-.108.078-.222.112-.342a.744.744,0,0,0,.045-.352.143.143,0,0,0-.11-.11.268.268,0,0,0-.168.059,1.848,1.848,0,0,0-.3.263,1.927,1.927,0,0,0-.351.539l-.025.058-.036-.05a1.174,1.174,0,0,0-.3-.264.521.521,0,0,1,.355.222l-.061.008a1.787,1.787,0,0,1,.34-.583,1.834,1.834,0,0,1,.317-.287.371.371,0,0,1,.246-.08.256.256,0,0,1,.206.19.8.8,0,0,1-.047.416,3.6,3.6,0,0,1-.121.35,3.5,3.5,0,0,1-.285.557A1.626,1.626,0,0,1,595.441,227.4Z" transform="translate(-594.849 -225.438)"/></g><g transform="translate(5.894 2.434)"><path class="l" d="M598.3,224.122a2.771,2.771,0,0,1,.1.559c.023.186.047.39.073.608a2.267,2.267,0,0,0,.052.348c.026.1.136.18.206.123a.485.485,0,0,0,.1-.317c.013-.123.019-.243.023-.358.009-.229.009-.437.011-.612a2.431,2.431,0,0,1,.034-.567,3.221,3.221,0,0,1,.047.565c.008.175.017.384.014.617,0,.117-.006.239-.017.366a.555.555,0,0,1-.146.4.217.217,0,0,1-.25,0,.328.328,0,0,1-.132-.184,2.09,2.09,0,0,1-.049-.369c-.018-.22-.034-.426-.049-.614A2.755,2.755,0,0,1,598.3,224.122Z" transform="translate(-598.292 -223.907)"/></g><g transform="translate(6.503 2.593)"><path class="l" d="M599.826,225.029c.019,0,0,.132.044.326a.617.617,0,0,0,.148.29c.044.029.069.027.1-.022a1.3,1.3,0,0,0,.066-.205,6.766,6.766,0,0,0,.14-1.123,2.063,2.063,0,0,1-.028,1.152,1.181,1.181,0,0,1-.08.232.179.179,0,0,1-.123.092.174.174,0,0,1-.14-.044.43.43,0,0,1-.116-.184.871.871,0,0,1-.045-.172A.484.484,0,0,1,599.826,225.029Z" transform="translate(-599.781 -224.295)"/></g></g><g transform="translate(36.369 25.135)"><path class="c" d="M586.441,251.269l-5.29,4.411.083.09a1.671,1.671,0,0,0,2.334.131l2.926-2.557a1.294,1.294,0,0,0,.195-1.737Z" transform="translate(-581.151 -251.269)"/></g><g transform="translate(23.825 13.026)"><path class="c" d="M550.475,223.583l.363-1.6a3.068,3.068,0,0,1,2.592,1.942,3.942,3.942,0,0,1,3.125-2.265l.478,2.041-3.786,1.583-2.772-1.7" transform="translate(-550.475 -221.66)"/></g><g transform="translate(11.741 29.101)"><path class="d" d="M525.5,263.231a138.9,138.9,0,0,1-4.576-2.258,17.274,17.274,0,0,1,4.576,2.258Z" transform="translate(-520.925 -260.968)"/></g><g transform="translate(36.773 25.071)"><path class="d" d="M586.711,251.116a3.19,3.19,0,0,1-.487.781,11.883,11.883,0,0,1-3.265,2.983,3.181,3.181,0,0,1-.821.415c-.035-.058,1.187-.749,2.45-1.911S586.657,251.076,586.711,251.116Z" transform="translate(-582.137 -251.115)"/></g><g transform="translate(26.708 15.291)"><path class="d" d="M557.6,227.2a1.131,1.131,0,0,1,.022.252c.006.189.013.429.022.725.01.657.024,1.561.041,2.667.014,2.277.034,5.376.056,8.8,0,3.426,0,6.525-.007,8.8-.011,1.105-.02,2.01-.027,2.667-.007.3-.013.537-.018.725a1.192,1.192,0,0,1-.02.253,1.124,1.124,0,0,1-.023-.253c-.006-.189-.013-.429-.022-.725-.01-.658-.025-1.562-.041-2.667-.015-2.277-.034-5.376-.056-8.8,0-3.424,0-6.522.006-8.8.011-1.105.02-2.01.027-2.668.007-.3.013-.537.018-.725A1.132,1.132,0,0,1,557.6,227.2Z" transform="translate(-557.525 -227.198)"/></g><g transform="translate(23.799 14.602)"><path class="d" d="M553.008,225.6c-.01.013-.062-.026-.154,0s-.183.127-.274.3a3.168,3.168,0,0,0-.409,1.41l-.01.246-.173-.177-.009-.009c-.83-.86-1.6-1.453-1.566-1.5a6.091,6.091,0,0,1,1.719,1.355l.009.01-.183.07a2.831,2.831,0,0,1,.495-1.482c.1-.162.251-.308.39-.3S553.021,225.592,553.008,225.6Z" transform="translate(-550.412 -225.514)"/></g><g transform="translate(27.214 13.063)"><path class="d" d="M561.5,221.749a12.615,12.615,0,0,1,.517,1.918l.015.063-.056.038c-.337.233-.721.48-1.135.724-.434.256-.857.479-1.237.665l-.142.07,0-.155a2.266,2.266,0,0,0-.382-1.263c-.184-.275-.337-.4-.32-.423s.191.084.413.354a2.2,2.2,0,0,1,.482,1.332l-.14-.086c.371-.2.786-.423,1.217-.676.41-.241.794-.481,1.134-.7l-.041.1A12.572,12.572,0,0,1,561.5,221.749Z" transform="translate(-558.764 -221.749)"/></g><g transform="translate(27.255 19.711)"><path class="d" d="M559.009,238.113c.018.024-.018.083.005.168s.1.149.193.087.069-.152-.005-.211-.138-.043-.153-.07.058-.113.216-.067a.293.293,0,0,1,.194.2.316.316,0,0,1-.488.325.3.3,0,0,1-.107-.256C558.882,238.123,559,238.087,559.009,238.113Z" transform="translate(-558.862 -238.007)"/></g><g transform="translate(27.406 26.688)"><path class="d" d="M559.379,255.172c.018.024-.018.084.005.168s.1.149.193.087.069-.152-.005-.211-.137-.044-.153-.07.058-.112.216-.067a.3.3,0,0,1,.195.2.316.316,0,0,1-.489.324.3.3,0,0,1-.107-.256C559.252,255.183,559.37,255.146,559.379,255.172Z" transform="translate(-559.232 -255.067)"/></g><g transform="translate(27.444 34.423)"><path class="d" d="M559.471,274.089c.018.024-.019.083,0,.168s.1.149.193.087.069-.152-.005-.211-.137-.044-.153-.07.059-.113.216-.067a.3.3,0,0,1,.195.2.316.316,0,0,1-.488.324.294.294,0,0,1-.107-.256C559.344,274.1,559.462,274.062,559.471,274.089Z" transform="translate(-559.325 -273.983)"/></g><g transform="translate(14.46 27.291)"><path class="j" d="M527.895,257.97c-.058.011-.169-.3-.248-.693s-.1-.723-.039-.735.169.3.248.693S527.952,257.958,527.895,257.97Z" transform="translate(-527.574 -256.542)"/></g><g transform="translate(14.842 24.311)"><path class="j" d="M530,249.284c.013.057-.31.177-.721.267s-.755.117-.767.059.31-.177.721-.267S529.985,249.227,530,249.284Z" transform="translate(-528.509 -249.254)"/></g><g transform="translate(16.654 26.822)"><path class="j" d="M533.692,255.4c.043.04-.089.251-.295.471s-.407.366-.45.326.089-.252.295-.472S533.649,255.362,533.692,255.4Z" transform="translate(-532.939 -255.396)"/></g><g transform="translate(17.513 20.322)"><path class="j" d="M535.176,241.271a3.74,3.74,0,1,1,.08-.888A1.935,1.935,0,0,1,535.176,241.271Z" transform="translate(-535.04 -239.5)"/></g><g transform="translate(19.068 18.017)"><path class="j" d="M540.555,233.976a3.491,3.491,0,0,1-1.713-.012,3.5,3.5,0,0,1,1.713.012Z" transform="translate(-538.842 -233.864)"/></g><g transform="translate(22.969 16.324)"><path class="j" d="M548.4,231.43a2.005,2.005,0,0,1,.2-.888c.164-.471.343-.837.4-.817a2,2,0,0,1-.2.887C548.631,231.083,548.453,231.449,548.4,231.43Z" transform="translate(-548.381 -229.724)"/></g><g transform="translate(21.358 21.454)"><path class="j" d="M545.241,243.762c-.052.028-.271-.284-.488-.7s-.351-.768-.3-.8.27.284.487.7S545.293,243.735,545.241,243.762Z" transform="translate(-544.443 -242.269)"/></g><g transform="translate(25.076 19.98)"><path class="j" d="M553.585,239.921c-.058-.008-.067-.3-.02-.642s.133-.622.191-.614.067.3.02.642S553.643,239.929,553.585,239.921Z" transform="translate(-553.535 -238.665)"/></g><g transform="translate(23.522 24.16)"><path class="j" d="M550.993,248.939c.007.058-.268.142-.615.186s-.635.033-.643-.025.268-.142.615-.186S550.985,248.881,550.993,248.939Z" transform="translate(-549.735 -248.887)"/></g><g transform="translate(20.598 26.72)"><path class="j" d="M542.765,256.458c-.058.005-.132-.284-.165-.647s-.012-.661.047-.666.133.284.165.647S542.824,256.453,542.765,256.458Z" transform="translate(-542.585 -255.145)"/></g><g transform="translate(22.997 29.165)"><path class="j" d="M549.54,261.128c.045.038-.16.362-.459.725s-.578.628-.624.59.16-.362.459-.725S549.494,261.091,549.54,261.128Z" transform="translate(-548.451 -261.124)"/></g><g transform="translate(20.609 32.194)"><path class="j" d="M543.2,269.847c-.054.023-.225-.252-.382-.615s-.24-.676-.186-.7.225.252.382.615S543.251,269.824,543.2,269.847Z" transform="translate(-542.612 -268.531)"/></g><g transform="translate(24.623 33.972)"><path class="j" d="M552.752,272.88c.058.011.039.353-.041.762s-.193.733-.25.721-.039-.353.041-.763S552.694,272.868,552.752,272.88Z" transform="translate(-552.427 -272.879)"/></g><g transform="translate(20.382 38.246)"><path class="j" d="M543.067,284.506c-.045.038-.305-.193-.582-.516s-.465-.617-.421-.655.305.193.583.516S543.111,284.468,543.067,284.506Z" transform="translate(-542.057 -283.33)"/></g><g transform="translate(20.095 41.459)"><path class="j" d="M542.838,291.227c.009.058-.316.157-.725.222s-.75.07-.759.011.316-.157.725-.222S542.829,291.169,542.838,291.227Z" transform="translate(-541.354 -291.187)"/></g><g transform="translate(24.321 38.703)"><path class="j" d="M553.169,284.453c.04.043-.258.386-.666.767s-.771.654-.811.611.258-.386.666-.767S553.129,284.41,553.169,284.453Z" transform="translate(-551.688 -284.448)"/></g><g transform="translate(22.187 35.684)"><path class="j" d="M546.651,277.066c.058.008.078.207.046.443s-.107.421-.166.413-.078-.206-.045-.442S546.593,277.058,546.651,277.066Z" transform="translate(-546.47 -277.065)"/></g><g transform="translate(24.607 26.405)"><path class="j" d="M553.531,254.747c-.017.056-.286.025-.6-.069s-.557-.217-.541-.274.286-.025.6.07S553.548,254.691,553.531,254.747Z" transform="translate(-552.388 -254.376)"/></g><g transform="translate(28.563 22.891)"><path class="j" d="M562.1,247.5a1.865,1.865,0,0,1,.038-.874c.079-.473.19-.849.248-.839a3.585,3.585,0,0,1-.286,1.713Z" transform="translate(-562.063 -245.783)"/></g><g transform="translate(31.007 25.337)"><path class="j" d="M569.083,253.016c-.045.038-.314-.211-.6-.555s-.483-.654-.438-.692.314.211.6.555S569.128,252.978,569.083,253.016Z" transform="translate(-568.037 -251.765)"/></g><g transform="translate(29.276 28.26)"><path class="j" d="M564.449,258.912c.054.022-.042.386-.216.811s-.359.753-.413.731.042-.385.216-.811S564.394,258.89,564.449,258.912Z" transform="translate(-563.805 -258.911)"/></g><g transform="translate(29.013 31.671)"><path class="j" d="M564.35,268.473c-.042.041-.341-.2-.668-.533s-.558-.64-.516-.682.342.2.668.533S564.392,268.432,564.35,268.473Z" transform="translate(-563.161 -267.254)"/></g><g transform="translate(32.795 31.572)"><path class="j" d="M572.438,268.552c-.057-.013-.027-.368.069-.794s.219-.76.276-.748.027.368-.068.794S572.5,268.565,572.438,268.552Z" transform="translate(-572.41 -267.01)"/></g><g transform="translate(29.171 36.196)"><path class="j" d="M564.7,279.346c-.046.038-.3-.191-.613-.467s-.571-.5-.538-.551.354.1.679.392S564.746,279.309,564.7,279.346Z" transform="translate(-563.547 -278.319)"/></g><g transform="translate(29.119 39.734)"><path class="j" d="M564.792,286.977c.038.043-.211.318-.6.544s-.75.309-.77.255.292-.222.662-.439S564.753,286.931,564.792,286.977Z" transform="translate(-563.421 -286.97)"/></g><g transform="translate(33.782 40.255)"><path class="j" d="M574.906,288.243c.059,0,.119.316.135.71s-.019.716-.078.718-.119-.315-.135-.71S574.847,288.245,574.906,288.243Z" transform="translate(-574.824 -288.243)"/></g><g transform="translate(32.54 34.944)"><path class="j" d="M571.871,277.541a6.177,6.177,0,0,1,.047-2.285,6.181,6.181,0,0,1-.047,2.285Z" transform="translate(-571.786 -275.256)"/></g><g transform="translate(32.261 28.583)"><path class="j" d="M572.19,259.723c.027.051-.19.212-.508.278s-.581.008-.577-.049.245-.1.533-.159S572.164,259.669,572.19,259.723Z" transform="translate(-571.105 -259.702)"/></g><g transform="translate(31.888 19.869)"><path class="j" d="M570.476,238.392a4.036,4.036,0,1,1-.228.9A2.083,2.083,0,0,1,570.476,238.392Z" transform="translate(-570.192 -238.392)"/></g><g transform="translate(29.504 18.834)"><path class="j" d="M564.387,235.863c.056-.018.194.261.308.622s.162.669.105.687-.194-.261-.308-.622S564.331,235.88,564.387,235.863Z" transform="translate(-564.363 -235.862)"/></g><g transform="translate(29.12 16.585)"><path class="j" d="M565.018,230.376c.025.052-.3.261-.75.394a1.375,1.375,0,0,1-.844.078c-.008-.06.351-.153.784-.282S564.992,230.322,565.018,230.376Z" transform="translate(-563.424 -230.363)"/></g><g transform="translate(32.642 16.266)"><path class="j" d="M572.055,230.954c-.055-.02.016-.344.158-.723s.3-.669.357-.648-.015.344-.157.723S572.11,230.975,572.055,230.954Z" transform="translate(-572.036 -229.583)"/></g><g transform="translate(35.231 18.826)"><path class="j" d="M579.745,236.931c-.036.046-.373-.159-.753-.457s-.657-.579-.621-.625.373.159.753.458S579.781,236.884,579.745,236.931Z" transform="translate(-578.368 -235.842)"/></g><g transform="translate(35.096 20.551)"><path class="j" d="M578.176,241.888a3.981,3.981,0,1,1,.078-.917A2.058,2.058,0,0,1,578.176,241.888Z" transform="translate(-578.037 -240.06)"/></g><g transform="translate(35.23 25.183)"><path class="j" d="M579.735,251.571c-.005.058-.316.079-.694.045s-.681-.109-.676-.168.316-.078.694-.045S579.74,251.512,579.735,251.571Z" transform="translate(-578.365 -251.387)"/></g><g transform="translate(38.008 23.236)"><path class="j" d="M585.569,248.515a2.227,2.227,0,0,1-.316-1.888,130.722,130.722,0,0,0,.316,1.888Z" transform="translate(-585.159 -246.627)"/></g><g transform="translate(36.885 27.692)"><path class="j" d="M583.61,257.564c.011.058-.248.157-.579.221s-.608.07-.62.011.248-.156.579-.221S583.6,257.506,583.61,257.564Z" transform="translate(-582.411 -257.523)"/></g><g transform="translate(28.047 14.439)"><path class="j" d="M561.188,225.743c-.038.043-.2-.045-.309-.239s-.091-.381-.034-.389.133.128.221.287S561.229,225.7,561.188,225.743Z" transform="translate(-560.801 -225.115)"/></g><g transform="translate(29.155 13.923)"><path class="j" d="M563.932,224.654c-.053.027-.185-.131-.3-.352s-.157-.421-.1-.447.185.131.3.352S563.984,224.628,563.932,224.654Z" transform="translate(-563.51 -223.852)"/></g><g transform="translate(24.322 14.358)"><path class="j" d="M552.491,225.056c0,.058-.187.093-.407.078s-.4-.076-.392-.135.186-.093.407-.078S552.5,225,552.491,225.056Z" transform="translate(-551.692 -224.917)"/></g><g transform="translate(24.549 0.308)"><path class="d" d="M560.055,197.6c0,.007-.044,0-.121-.02a1.31,1.31,0,0,1-.319-.148,1.573,1.573,0,0,1-.711-1.061,6.139,6.139,0,0,0-.139-.847.666.666,0,0,0-.248-.342,1.408,1.408,0,0,0-.447-.179,1.966,1.966,0,0,1-.533-.2.958.958,0,0,1-.382-.488,4.131,4.131,0,0,0-.381-1.084c-.5-.573-1.526-.017-2.114-.684a2.945,2.945,0,0,1-.36-.966,1.321,1.321,0,0,0-.478-.654,1.335,1.335,0,0,0-1.152-.2c-.281.082-.411.191-.422.175s.023-.038.087-.086a1.229,1.229,0,0,1,.31-.167,1.39,1.39,0,0,1,1.264.155,1.457,1.457,0,0,1,.559.719,3.011,3.011,0,0,0,.345.9,1.233,1.233,0,0,0,.949.294,3.551,3.551,0,0,1,.6.054,1.009,1.009,0,0,1,.577.326,3.875,3.875,0,0,1,.411,1.144.757.757,0,0,0,.3.391,1.819,1.819,0,0,0,.478.183,1.574,1.574,0,0,1,.5.215.845.845,0,0,1,.306.438,5.561,5.561,0,0,1,.12.879,1.539,1.539,0,0,0,.61,1.017C559.9,197.534,560.062,197.577,560.055,197.6Z" transform="translate(-552.247 -190.56)"/></g><g transform="translate(22.793 43.68)"><path class="c" d="M549.284,348.2a.61.61,0,0,1-.014-.133c0-.1-.011-.229-.02-.391-.013-.357-.032-.861-.056-1.5-.044-1.319-.107-3.2-.185-5.526-.162-4.678-.384-11.117-.63-18.23s-.379-13.572-.412-18.242c-.02-2.335-.018-4.224,0-5.53.009-.642.016-1.145.022-1.5,0-.162.008-.291.011-.391a.618.618,0,0,1,.011-.133.608.608,0,0,1,.011.133l.01.391c0,.358.011.862.018,1.5.017,1.319.041,3.2.071,5.528.072,4.668.243,11.115.475,18.237s.45,13.565.568,18.233c.06,2.334.1,4.223.117,5.528.007.642.012,1.146.016,1.5,0,.163,0,.292,0,.391A.632.632,0,0,1,549.284,348.2Z" transform="translate(-547.953 -296.618)"/></g><g transform="translate(31.825 43.581)"><path class="c" d="M579.529,348.592c-.058.011-2.229-11.671-4.849-26.088s-4.7-26.118-4.64-26.128,2.229,11.668,4.85,26.09S579.587,348.581,579.529,348.592Z" transform="translate(-570.038 -296.376)"/></g><g transform="translate(25.923 41.481)"><path class="c" d="M557.221,296.718c0,.011-.081.055-.247.038a.917.917,0,0,1-.586-.35,2.159,2.159,0,0,1-.367-.93c-.077-.359-.15-.757-.212-1.176a18.2,18.2,0,0,1-.2-2.16,3.282,3.282,0,0,1,.035-.9c.063,0,.121,1.365.373,3.028.062.415.128.811.194,1.169a2.192,2.192,0,0,0,.3.878.907.907,0,0,0,.482.359C557.131,296.714,557.219,296.7,557.221,296.718Z" transform="translate(-555.606 -291.241)"/></g><g transform="translate(26.613 41.658)"><path class="c" d="M557.421,291.809c.022.021-.013.091.021.184a.159.159,0,1,0,.248-.165c-.073-.067-.151-.063-.162-.091s.079-.105.239-.038a.328.328,0,0,1,.186.227.347.347,0,0,1-.524.348.324.324,0,0,1-.137-.259C557.293,291.842,557.407,291.785,557.421,291.809Z" transform="translate(-557.293 -291.674)"/></g></g><g transform="translate(273.044 140.654)"><g transform="translate(0 0)"><g transform="translate(10.986)"><path class="i" d="M677.763,340.064l-24.372.267v-61.3h24.372Z" transform="translate(-653.392 -279.026)"/></g><g transform="translate(10.986)"><path class="n" d="M677.763,340.064l-24.372.267v-61.3h24.372Z" transform="translate(-653.392 -279.026)"/></g><path class="n" d="M650.9,340.184l-24.372.147v-61.3H650.9Z" transform="translate(-626.528 -279.026)"/><g transform="translate(5.462 6.545)"><rect class="o" width="13.97" height="15.753"/></g><g transform="translate(5.131 25.32)"><g transform="translate(0.362 0)"><path class="c" d="M643.4,342.37a1.426,1.426,0,0,1-1.426,1.426c-.357,0-1.266-.035-1.266-.035a2,2,0,0,1-.752-1.475,1.5,1.5,0,0,1,.871-1.329s.851-.014,1.147-.014A1.426,1.426,0,0,1,643.4,342.37Z" transform="translate(-639.96 -340.944)"/></g><circle class="d" cx="1.426" cy="1.426" r="1.426"/></g><g transform="translate(10.332 25.32)"><g transform="translate(0.362 0)"><path class="c" d="M656.123,342.37A1.426,1.426,0,0,1,654.7,343.8c-.357,0-1.266-.035-1.266-.035a1.994,1.994,0,0,1-.752-1.475,1.5,1.5,0,0,1,.871-1.329s.852-.014,1.147-.014A1.426,1.426,0,0,1,656.123,342.37Z" transform="translate(-652.679 -340.944)"/></g><circle class="d" cx="1.426" cy="1.426" r="1.426"/></g><g transform="translate(15.481 25.321)"><g transform="translate(0.362)"><path class="c" d="M668.714,342.37a1.426,1.426,0,0,1-1.426,1.426c-.357,0-1.266-.035-1.266-.035a2,2,0,0,1-.752-1.475,1.5,1.5,0,0,1,.871-1.329s.851-.014,1.147-.014A1.426,1.426,0,0,1,668.714,342.37Z" transform="translate(-665.27 -340.944)"/></g><path class="d" d="M667.237,342.37a1.426,1.426,0,1,1-1.426-1.426A1.426,1.426,0,0,1,667.237,342.37Z" transform="translate(-664.385 -340.944)"/></g><g transform="translate(9.608 9.867)"><path class="p" d="M653.2,303.155l-3.177.041,2.933,4.51-2.221.029,3.109,6.2-1.069-4.611,2.927-.038Z" transform="translate(-650.022 -303.155)"/></g><g transform="translate(4.021 33.305)"><path class="c" d="M653.083,385.293a1.225,1.225,0,0,1-.006-.123c0-.087,0-.2-.006-.353,0-.317-.007-.772-.012-1.359-.006-1.191-.015-2.917-.026-5.094-.011-4.359-.028-10.524-.048-17.788l.1.1-16.59.009c-.027.022.2-.2.1-.1v1.731q0,.864,0,1.719,0,1.709,0,3.376c0,2.222,0,4.382,0,6.464-.006,4.163-.011,8.014-.016,11.422l-.085-.085,12.063.045,3.343.022.88.01c.2,0,.307.009.307.009s-.095.006-.289.009l-.864.009-3.323.022-12.116.045h-.085v-.085c0-3.408-.01-7.259-.016-11.422,0-2.082,0-4.242,0-6.464q0-1.666,0-3.376v-1.719q0-.432,0-.867v-.864c-.095.094.128-.135.109-.111l16.59.009h.1v.1c-.02,7.289-.036,13.477-.048,17.852-.011,2.167-.02,3.886-.026,5.072,0,.578-.009,1.026-.012,1.339,0,.145,0,.257-.006.341A.693.693,0,0,1,653.083,385.293Z" transform="translate(-636.361 -360.469)"/></g><g transform="translate(18.243 45.498)"><path class="c" d="M671.339,390.472c.026.021-.092.147-.049.375a.45.45,0,0,0,.2.3.4.4,0,0,0,.567-.414.449.449,0,0,0-.227-.281c-.2-.11-.361-.036-.373-.067-.024-.014.141-.171.433-.071a.576.576,0,0,1,.357.369.586.586,0,0,1-.862.629.577.577,0,0,1-.243-.452C671.133,390.555,671.333,390.445,671.339,390.472Z" transform="translate(-671.14 -390.284)"/></g></g></g></g></svg>