<svg xmlns="http://www.w3.org/2000/svg" id="Group_62" width="46.947" height="34.555" viewBox="0 0 46.947 34.555">
    <defs>
        <style>
            .cls-1{fill:#edc32f}
        </style>
    </defs>
    <path id="flash" d="M57.8 13.74a.723.723 0 0 0-.629-.367H47.7l1.586-12.136a.727.727 0 0 0-1.333-.473L36.432 20.949a.723.723 0 0 0 .616 1.1h9.332l-1.259 12.157a.728.728 0 0 0 1.34.445l11.331-20.183a.723.723 0 0 0 .009-.728z" class="cls-1" transform="translate(-36.324 -0.434)"/>
    <path id="flash-2" d="M57.8 13.74a.723.723 0 0 0-.629-.367H47.7l1.586-12.136a.727.727 0 0 0-1.333-.473L36.432 20.949a.723.723 0 0 0 .616 1.1h9.332l-1.259 12.157a.728.728 0 0 0 1.34.445l11.331-20.183a.723.723 0 0 0 .009-.728z" class="cls-1" transform="translate(-10.948 -0.434)"/>
</svg>
