<svg xmlns="http://www.w3.org/2000/svg" width="40.748" height="40.925" viewBox="0 0 40.748 40.925"><defs><style>.a{fill:#e5e5e5;}.b,.d{fill:#fff;}.c{fill:#30cf87;}.d{fill-rule:evenodd;}</style></defs><g transform="translate(0 0.001)"><path class="a" d="M.871,40.925a.871.871,0,0,1-.84-1.1l2.661-9.716a20.293,20.293,0,1,1,17.764,10.48h-.009a20.333,20.333,0,0,1-9.39-2.306L1.092,40.9a.876.876,0,0,1-.221.028Zm0,0" transform="translate(0)"/><path class="b" d="M10.894,50.079,13.65,40.017a19.423,19.423,0,1,1,16.829,9.725h-.008a19.405,19.405,0,0,1-9.281-2.364Zm10.772-6.215.59.349a16.121,16.121,0,0,0,8.216,2.25h.006A16.141,16.141,0,1,0,16.8,38.9l.384.611-1.631,5.955Zm0,0" transform="translate(-10.023 -10.025)"/><path class="c" d="M19.344,57.21,22,47.5a18.75,18.75,0,1,1,16.247,9.388h-.008A18.746,18.746,0,0,1,29.283,54.6Zm0,0" transform="translate(-17.797 -17.834)"/><g transform="translate(0.871 0.87)"><path class="b" d="M10.894,50.079,13.65,40.017a19.423,19.423,0,1,1,16.829,9.725h-.008a19.405,19.405,0,0,1-9.281-2.364Zm10.772-6.215.59.349a16.121,16.121,0,0,0,8.216,2.25h.006A16.141,16.141,0,1,0,16.8,38.9l.384.611-1.631,5.955Zm0,0" transform="translate(-10.894 -10.895)"/><path class="d" d="M137.461,142.463c-.363-.808-.746-.824-1.092-.838-.283-.012-.607-.012-.93-.012a1.783,1.783,0,0,0-1.294.607,5.44,5.44,0,0,0-1.7,4.047,9.439,9.439,0,0,0,1.982,5.019c.243.324,3.357,5.38,8.29,7.325,4.1,1.617,4.933,1.3,5.823,1.214s2.871-1.174,3.275-2.307a4.052,4.052,0,0,0,.283-2.307c-.121-.2-.445-.323-.93-.566s-2.871-1.417-3.316-1.579-.768-.243-1.092.243-1.253,1.578-1.536,1.9-.566.365-1.052.122a13.268,13.268,0,0,1-3.9-2.409,14.622,14.622,0,0,1-2.7-3.361c-.283-.485,0-.725.213-.99A14.63,14.63,0,0,0,139,146.915a.894.894,0,0,0-.04-.85C138.835,145.823,137.892,143.423,137.461,142.463Zm0,0" transform="translate(-122.73 -131.165)"/></g></g></svg>