<svg xmlns="http://www.w3.org/2000/svg" width="52" height="52" viewBox="0 0 52 52"><defs><style>.a,.b{fill:#273d4c;}.a{opacity:0.1;}</style></defs><g transform="translate(-311 -794)"><circle class="a" cx="26" cy="26" r="26" transform="translate(311 794)"/><path class="b" d="M13.742,10.8a.765.765,0,0,0-1.082,0L12,11.464l-.974-.974L14.007,7.5a3.9,3.9,0,0,0,1.544.317h0A3.911,3.911,0,0,0,19.3,2.805a.236.236,0,0,0-.393-.1l-2.463,2.47a4.245,4.245,0,0,1-1.209-.951,4.251,4.251,0,0,1-.955-1.206L16.746.548a.236.236,0,0,0-.1-.393A3.925,3.925,0,0,0,15.551,0,3.909,3.909,0,0,0,11.96,5.454L8.973,8.441,5.915,5.383c0-.005,0-.011-.007-.016l-1.4-2.4a.328.328,0,0,0-.1-.1L2.057,1.232a.328.328,0,0,0-.419.038L.588,2.32a.328.328,0,0,0-.038.419L2.186,5.1a.327.327,0,0,0,.1.1l2.4,1.4L4.7,6.6,7.759,9.654l-2.3,2.3a3.911,3.911,0,0,0-5.3,4.7.236.236,0,0,0,.393.1l2.463-2.47a4.251,4.251,0,0,1,1.209.951,4.249,4.249,0,0,1,.955,1.206L2.72,18.91a.236.236,0,0,0,.1.393A3.913,3.913,0,0,0,7.508,14l2.3-2.3.974.974-.664.664a.765.765,0,0,0,0,1.082l4.693,4.693a.765.765,0,0,0,1.082,0l2.542-2.542a.765.765,0,0,0,0-1.082ZM15.4,17.447a.428.428,0,0,1-.606,0l-3.011-3.011a.428.428,0,1,1,.606-.605L15.4,16.842A.428.428,0,0,1,15.4,17.447Zm1.362-1.362a.428.428,0,0,1-.606,0l-3.011-3.011a.428.428,0,1,1,.605-.605l3.011,3.011A.428.428,0,0,1,16.765,16.085Z" transform="translate(327.267 810.542)"/></g></svg>