<svg xmlns="http://www.w3.org/2000/svg" width="52" height="52" viewBox="0 0 52 52"><defs><style>.a,.b{fill:#273d4c;}.a{opacity:0.1;}</style></defs><g transform="translate(-55 -463)"><circle class="a" cx="26" cy="26" r="26" transform="translate(55 463)"/><g transform="translate(71.23 479.254)"><g transform="translate(5.701 0.23)"><g transform="translate(0 0)"><path class="b" d="M122.417,1.374a3.9,3.9,0,0,0-5.52,0L113.075,5.2l5.525,5.525,3.816-3.826A3.907,3.907,0,0,0,122.417,1.374ZM118.5,3.633,116.76,5.347l-.005.005a.5.5,0,0,1-.7-.721L117.8,2.917l.005-.005a.5.5,0,1,1,.7.721Z" transform="translate(-113.075 -0.23)"/></g></g><g transform="translate(0 5.907)"><g transform="translate(0)"><path class="b" d="M4.985,112.818,1.138,116.67a3.914,3.914,0,1,0,5.551,5.52l3.826-3.842Z" transform="translate(0 -112.818)"/></g></g><g transform="translate(13.293 13.499)"><path class="b" d="M269.115,263.418l-5.44,5.445a3.881,3.881,0,0,0,5.44-5.445Z" transform="translate(-263.675 -263.418)"/></g><g transform="translate(11.776 11.987)"><path class="b" d="M237.457,233.418a3.883,3.883,0,0,0-3.08,6.246l5.44-5.44A3.839,3.839,0,0,0,237.457,233.418Z" transform="translate(-233.575 -233.418)"/></g></g></g></svg>