<svg xmlns="http://www.w3.org/2000/svg" width="52" height="52" viewBox="0 0 52 52"><defs><style>.a,.b{fill:#273d4c;}.a{opacity:0.1;}</style></defs><g transform="translate(-137 -794)"><circle class="a" cx="26" cy="26" r="26" transform="translate(137 794)"/><g transform="translate(152.722 809.911)"><path class="b" d="M1.567,338.133H8.217L5.016,336H1.567a1.067,1.067,0,0,0,0,2.133Zm0,0" transform="translate(0 -321.066)"/><path class="b" d="M136.835,336h-5.91l3.084,2.056Zm0,0" transform="translate(-124.628 -321.066)"/><path class="b" d="M5.414,228.267H14.29A4.629,4.629,0,0,0,9.681,224H5.414a4.629,4.629,0,0,0-4.609,4.267Zm4.978-2.133H11.1v.711h-.711Zm-1.067-1.422h.711v.711H9.325Zm-1.067,1.422H8.97v.711H8.259Zm-1.067-1.422H7.9v.711H7.192Zm-1.067,1.422h.711v.711H6.125Zm-1.067-1.422H5.77v.711H5.058Zm-1.067,1.422H4.7v.711H3.992Zm0,0" transform="translate(-0.291 -214.044)"/><path class="b" d="M1.567,400H.5v1.067a1.067,1.067,0,0,0,1.067,1.067H12.945a1.067,1.067,0,0,0,1.067-1.067V400Zm0,0" transform="translate(0 -382.221)"/><path class="b" d="M241.357,147.253a5.381,5.381,0,0,1,1,.543l-.085-1.283.711-.047.13,1.962a5.315,5.315,0,0,1,1.544,3.751.356.356,0,0,1-.356.356h-.009a1.742,1.742,0,0,1,0,2.133h.009a.356.356,0,0,1,.356.356v1.422a1.76,1.76,0,0,1-.365,1.067h3.591L248.893,144h-7.768Zm1.518-2.211.051.711-.709.05-.051-.711Zm0,0" transform="translate(-229.93 -137.6)"/><path class="b" d="M222.189,104H216.5v1.067h9.956V104Zm0,0" transform="translate(-206.399 -99.377)"/><path class="b" d="M320.5,0h.711V3.911H320.5Zm0,0" transform="translate(-305.777)"/><path class="b" d="M227.937,337.6l-2.836,2.062h2.462a1.065,1.065,0,0,0,.373-2.062Zm0,0" transform="translate(-214.618 -322.596)"/></g></g></svg>