<svg xmlns="http://www.w3.org/2000/svg" width="52" height="52" viewBox="0 0 52 52"><defs><style>.a,.b{fill:#273d4c;}.a{opacity:0.1;}</style></defs><g transform="translate(-142 -463)"><circle class="a" cx="26" cy="26" r="26" transform="translate(142 463)"/><g transform="translate(156.391 401.177)"><g transform="translate(7.064 83.53)"><g transform="translate(0 0)"><path class="b" d="M162.875,154.6H150.866c-.587,0-1.566.222-1.566,1.732v2.309h15.141v-2.309C164.441,154.827,163.461,154.6,162.875,154.6Z" transform="translate(-149.3 -154.6)"/></g></g><g transform="translate(0 80)"><g transform="translate(0 0)"><path class="b" d="M3.8,88.072H1.514V80H0V95.647H1.514V91.606H21.7v4.036h1.514v-7.57Z" transform="translate(0 -80)"/></g></g><g transform="translate(1.921 83.435)"><g transform="translate(0 0)"><circle class="b" cx="2.115" cy="2.115" r="2.115"/></g></g></g></g></svg>