<svg xmlns="http://www.w3.org/2000/svg" width="52" height="52" viewBox="0 0 52 52"><defs><style>.a,.b{fill:#273d4c;}.a{opacity:0.1;}</style></defs><g transform="translate(-229 -599)"><circle class="a" cx="26" cy="26" r="26" transform="translate(229 599)"/><g transform="translate(237.953 615.387)"><g transform="translate(7.547 0)"><g transform="translate(0 0)"><path class="b" d="M151.048,96.842a1.085,1.085,0,0,0-.851-.413H139.164a1.084,1.084,0,0,0-1.032,1.414l2.031,6.347a.674.674,0,0,0,.642.469h8.26a.675.675,0,0,0,.656-.517l1.53-6.377A1.086,1.086,0,0,0,151.048,96.842Z" transform="translate(-132.775 -92.51)"/><path class="b" d="M25.559,65.861H14.905a.865.865,0,0,1-.826-.6l-2.933-9.09a2.066,2.066,0,0,0-1.972-1.436H8.535a.988.988,0,1,0,0,1.975h.641a.1.1,0,0,1,.092.067l2.933,9.09a2.835,2.835,0,0,0,2.706,1.97H25.559a.988.988,0,0,0,0-1.975Z" transform="translate(-7.547 -52.509)"/><path class="b" d="M174.05,2.908h9.385a.29.29,0,0,0,.161-.53l-.786-.525a.577.577,0,0,0-.579-.034l-.445.226A1.5,1.5,0,0,1,180,1.714l-.326-.359a.574.574,0,0,0-.426-.189h-1.27a.576.576,0,0,1-.362-.127L176.49.128a.575.575,0,0,0-.8.078l-1.86,2.228a.29.29,0,0,0,.222.475Z" transform="translate(-167.005 0)"/><path class="b" d="M168.646,405.066a1.575,1.575,0,1,0,1.575,1.575A1.575,1.575,0,0,0,168.646,405.066Z" transform="translate(-160.587 -388.602)"/><path class="b" d="M372.141,405.066a1.575,1.575,0,1,0,1.575,1.575A1.575,1.575,0,0,0,372.141,405.066Z" transform="translate(-355.811 -388.602)"/></g></g></g></g></svg>