<svg xmlns="http://www.w3.org/2000/svg" width="52" height="52" viewBox="0 0 52 52"><defs><style>.a,.b{fill:#273d4c;}.a{opacity:0.1;}</style></defs><g transform="translate(-314 -593)"><circle class="a" cx="26" cy="26" r="26" transform="translate(314 593)"/><g transform="translate(329.693 608.151)"><path class="b" d="M5.435,0a3.023,3.023,0,0,0-3.02,3.02v9.1h-.6a.6.6,0,0,0-.6.6v6.683H.6a.6.6,0,1,0,0,1.208H5.435a.6.6,0,1,0,0-1.208h-.6V12.722a.6.6,0,0,0-.6-.6h-.6V3.02a1.812,1.812,0,0,1,3.623,0v.705A3.024,3.024,0,0,0,4.831,6.683a.6.6,0,0,0,.6.6H7.247v.6a.6.6,0,0,0,1.208,0v-.6h1.812a.6.6,0,0,0,.6-.6A3.024,3.024,0,0,0,8.455,3.725V3.02A3.023,3.023,0,0,0,5.435,0Z"/><path class="b" d="M192.763,241H180.6a.6.6,0,0,0-.6.6v2.416a.6.6,0,0,0,.6.6h1.812v2.456H180.6a.6.6,0,0,0-.6.6v1.208a.6.6,0,0,0,.6.6h.6v1.812a.6.6,0,1,0,1.208,0v-1.812h8.535v1.812a.6.6,0,1,0,1.208,0v-1.812h.6a.6.6,0,0,0,.6-.6v-1.208a.6.6,0,0,0-.6-.6h-1.812v-2.456h1.812a.6.6,0,0,0,.6-.6V241.6A.6.6,0,0,0,192.763,241Zm-3.02,6.079h-6.12v-2.456h6.12Z" transform="translate(-172.753 -231.297)"/></g></g></svg>