<svg xmlns="http://www.w3.org/2000/svg" width="52" height="52" viewBox="0 0 52 52"><defs><style>.a,.b{fill:#273d4c;}.a{opacity:0.1;}</style></defs><g transform="translate(-229 -463)"><circle class="a" cx="26" cy="26" r="26" transform="translate(229 463)"/><g transform="translate(241.874 436.419)"><path class="b" d="M348.99,46a2.129,2.129,0,1,0-2.129-2.129A2.13,2.13,0,0,0,348.99,46Z" transform="translate(-328.529 0)"/><path class="b" d="M289.1,137.739l-3.038-6.654a.953.953,0,0,0-.913-.519h-3.514a.954.954,0,0,0-.913.519l-3.037,6.654a.911.911,0,1,0,1.657.756l1.469-3.218v3.467c0,.006,0,.011,0,.017v7.857a1.093,1.093,0,1,0,2.186,0V140.1h.8v6.513a1.093,1.093,0,1,0,2.186,0v-7.857s0-.008,0-.013v-3.471l1.469,3.218a.911.911,0,1,0,1.657-.756Z" transform="translate(-262.933 -84.13)"/><path class="b" d="M71.376,46a2.129,2.129,0,1,0-2.13-2.129A2.129,2.129,0,0,0,71.376,46Z" transform="translate(-65.586 0)"/><path class="b" d="M8.46,130.964a.9.9,0,0,0-.813-.526H3.931a.9.9,0,0,0-.811.526L.083,137.618a.911.911,0,1,0,1.657.756l.945-2.071-.823,3.875a.442.442,0,0,0,.432.534h.912V146.5a1.093,1.093,0,1,0,2.186,0v-5.785h.8V146.5a1.093,1.093,0,1,0,2.186,0v-5.785h.909a.442.442,0,0,0,.432-.534l-.825-3.884.949,2.08a.911.911,0,1,0,1.657-.756Z" transform="translate(0 -84.009)"/><path class="b" d="M236.307,71.315a.729.729,0,0,0-.729.729V89.365a.729.729,0,0,0,1.458,0V72.044A.729.729,0,0,0,236.307,71.315Z" transform="translate(-223.127 -28.011)"/></g></g></svg>