<svg xmlns="http://www.w3.org/2000/svg" width="52" height="52" viewBox="0 0 52 52"><defs><style>.a,.b{fill:#273d4c;}.a{opacity:0.1;}</style></defs><g transform="translate(-54.5 -593)"><circle class="a" cx="26" cy="26" r="26" transform="translate(54.5 593)"/><g transform="translate(71.068 608.492)"><g transform="translate(4.71)"><path class="b" d="M135.538,0h-8.954A.584.584,0,0,0,126,.584V3.309a.584.584,0,0,0,.584.584h8.954a.584.584,0,0,0,.584-.584V.584A.584.584,0,0,0,135.538,0Z" transform="translate(-125.805)"/><g transform="translate(0 12.924)"><path class="b" d="M121,332h2.725v7.007H121Z" transform="translate(-121 -332)"/><path class="b" d="M281,332h4.282v3.5H281Z" transform="translate(-274.771 -332)"/></g></g><g transform="translate(0.039 7.474)"><path class="b" d="M182.168,193.946a1.168,1.168,0,0,0,1.168-1.168V192H181v.779A1.168,1.168,0,0,0,182.168,193.946Z" transform="translate(-173.993 -192)"/><path class="b" d="M452.168,193.946a1.168,1.168,0,0,0,1.168-1.168V192H451v.779A1.168,1.168,0,0,0,452.168,193.946Z" transform="translate(-433.482 -192)"/><path class="b" d="M92.168,193.946a1.168,1.168,0,0,0,1.168-1.168V192H91v.779A1.168,1.168,0,0,0,92.168,193.946Z" transform="translate(-87.496 -192)"/><path class="b" d="M2.168,193.946a1.168,1.168,0,0,0,1.168-1.168V192H1v.779A1.168,1.168,0,0,0,2.168,193.946Z" transform="translate(-1 -192)"/><path class="b" d="M362.168,193.946a1.168,1.168,0,0,0,1.168-1.168V192H361v.779A1.168,1.168,0,0,0,362.168,193.946Z" transform="translate(-346.986 -192)"/><path class="b" d="M272.168,193.946a1.168,1.168,0,0,0,1.168-1.168V192H271v.779A1.168,1.168,0,0,0,272.168,193.946Z" transform="translate(-260.489 -192)"/></g><path class="b" d="M24.662,63.492A2.534,2.534,0,0,0,22.354,62h-.1v.9A1.754,1.754,0,0,1,20.5,64.647H11.545A1.754,1.754,0,0,1,9.793,62.9V62h-.1a2.534,2.534,0,0,0-2.307,1.492l-1.08,2.4H25.742Z" transform="translate(-6.056 -59.586)"/><path class="b" d="M19.348,260.591h-.623v-8.175a2.33,2.33,0,0,1-1.752-.793,2.331,2.331,0,0,1-3.5,0,2.331,2.331,0,0,1-3.5,0,2.331,2.331,0,0,1-3.5,0,2.331,2.331,0,0,1-3.5,0,2.33,2.33,0,0,1-1.752.793v8.175H.584a.584.584,0,1,0,0,1.168H3.543v-7.591a.584.584,0,0,1,.584-.584H8.019a.584.584,0,0,1,.584.584v7.591H19.348a.584.584,0,1,0,0-1.168Zm-2.959-1.752a.584.584,0,0,1-.584.584h-5.45a.584.584,0,0,1-.584-.584v-4.671a.584.584,0,0,1,.584-.584h5.45a.584.584,0,0,1,.584.584Z" transform="translate(0 -241.828)"/></g></g></svg>