<svg xmlns="http://www.w3.org/2000/svg" width="52" height="52" viewBox="0 0 52 52"><defs><style>.a,.b{fill:#273d4c;}.a{opacity:0.1;}</style></defs><g transform="translate(-141 -592)"><circle class="a" cx="26" cy="26" r="26" transform="translate(141 592)"/><g transform="translate(156.833 608)"><path class="b" d="M72.808,6.21l1.41-1.41-.828-.828-1.41,1.41L70.906,4.309l1.41-1.41-.828-.828-1.41,1.41L69,2.407,70.415,1,69.586.168l-1.41,1.41L66.991,2.763a2.279,2.279,0,0,0,0,3.223l3.16,3.16L73.16,6.562Z" transform="translate(-63.567 -0.161)"/><path class="b" d="M285.345,250.874a2.281,2.281,0,0,0,3.223,0l1.185-1.185,1.41-1.41-.828-.828-1.41,1.41-1.073-1.073,1.41-1.41-.828-.828-1.41,1.41-1.073-1.073,1.41-1.41-.828-.828-1.41,1.41-.35-.35-2.58,3.011Z" transform="translate(-271.002 -234.132)"/><path class="b" d="M19.692,1.862a1.983,1.983,0,0,0,.4-1.794,1.977,1.977,0,0,0-1.8.4L7.227,9.976l-2.015.393a2.628,2.628,0,1,0,.2,1.155l1.731-.337,1.845,1.845-.337,1.73a2.607,2.607,0,1,0,1.155.2l.393-2.016ZM3.819,12.4a1.45,1.45,0,1,1,0-2.05A1.44,1.44,0,0,1,3.819,12.4Zm6,3.949a1.45,1.45,0,1,1-1.025-.425A1.451,1.451,0,0,1,9.818,16.354Z" transform="translate(0)"/></g></g></svg>