<svg xmlns="http://www.w3.org/2000/svg" width="52" height="52" viewBox="0 0 52 52"><defs><style>.a,.b{fill:#273d4c;}.a{opacity:0.1;}</style></defs><g transform="translate(-50 -794)"><circle class="a" cx="26" cy="26" r="26" transform="translate(50 794)"/><g transform="translate(65.617 809.617)"><circle class="b" cx="2.426" cy="2.426" r="2.426" transform="translate(8.006 13.345)"/><path class="b" d="M16.23,9.926c-.036-.037-.074-.07-.111-.1l-.109-.1a.53.53,0,0,0-.061-.051,7.914,7.914,0,0,0-10.932.257l-.351.352-.486.486a1.523,1.523,0,0,0,2.154,2.154l.838-.838a4.889,4.889,0,0,1,6.9,0l.6.586a1.511,1.511,0,0,0,2.574-1.071,1.483,1.483,0,0,0-.439-1.063Z"/><path class="b" d="M20.363,6.927l-.5-.5s0-.005-.007-.006l-.4-.4a1.435,1.435,0,0,0-.226-.181,13.207,13.207,0,0,0-17.84.411c-.024.022-.051.037-.075.061L.4,7.219A1.389,1.389,0,0,0,2.368,9.183l.91-.909a.118.118,0,0,1,.017-.02,10.426,10.426,0,0,1,14.388-.079l.716.717a1.389,1.389,0,0,0,1.964-1.965Z"/></g></g></svg>